<svg xmlns="http://www.w3.org/2000/svg" width="512" height="512" viewBox="0 0 512 512"><defs><clipPath id="a"><path d="M350 406.4c.6-8.4-6.5-11.5-12-10.9 19.5-8.8 56-25.7 69.6-37.2 31.6-23.3 27.4-58 18-104.3-.4-64.5-1.6-77.7-16.3-111.5q-9-20.8-21.3-37.6c11.4-93.2-39.1-118.2-83.6-62a148 148 0 0 0-96.5.4c-44.7-57-95.7-31.6-83.7 62.6a183 183 0 0 0-19.7 33.5c-22.4 55-22.1 89.9-17 126.2-6.4 30.3-9.3 60.3 1.2 78.6 15.3 26.8 51.9 39.5 85.9 51.5-8.4-.6-11.9 4.8-13.5 10.7a155 155 0 0 0-28.3 27.4c-22.6 26.4-31.5 62.6-42.3 86h329.3c-6-25-20.4-55.7-28.3-69.2s-32.5-36.7-41.4-44.2m-94 14.8c.4-17.4-33.2-33.2-67.2-50.7-32-16.5-44.6-28.2-62.2-54.3-9.2-13.7 4.7-91.5 24.5-112.3 13.8-14.4 46.8-53.8 97.1-57 50.4-3.4 93 31.6 106 47.7 19.5 24.2 39.4 90.5 35.6 117.8-13.3 31-52.4 47.3-84.5 65.1-19.6 11-38.3 23-49.2 43.7" style="fill:none"/></clipPath><clipPath id="b"><path d="M331.2 410.8c-17.8-26.9-60.2 5.4-68.6 29.8a9 9 0 0 0-6.1-2.8q-3.7-.1-6.5 2.2c-3.8-11-15.3-32-44.2-39-22-5.4-30.3 9.7-26.1 27.3 2 8.5 7 23.5 13.4 27.5-3.4 13.4-6.4 28.3 3.7 33.2 12 5.8 33.7-1 44.5-14.9a56 56 0 0 0 8.8-14.6q2.3 1.9 6 2 5.2-.2 7.6-3.5c5.5 12.6 14.9 26.7 29.6 32.6 12.3 5 24 3.7 27.5-10.3 1.4-5.5 1-14.8-2-23.3 8.4-9.1 18.4-36.4 12.5-46.2" style="fill:none"/></clipPath><clipPath id="c"><path d="M423.8 125.9c4.7-10.8 4.7-31.2-1.2-41-6.5-10.7-21.3-15.8-36.3 3.4a71 71 0 0 0-12.8 27.7q-5.1-1.6-8.2.5c-4-10.2-13.7-24.8-39.2-31-22-5.4-30.3 9.7-26.1 27.3 2 8.5 7 23.5 13.4 27.5-3.4 13.4-6.4 28.4 3.7 33.3 12 5.8 31.2-.7 42-14.5 5.3-6.8 8-14 9-20.5q1.7.7 4 .7 2.7-.2 4.7-1.5a55 55 0 0 0 28.7 27c12.3 5 23.7 3.8 27.3-10.1 2.9-11.2-1.4-19-9-28.9" style="fill:none"/></clipPath></defs><path d="M0 0h512v512H0z" style="fill:#97ded3"/><circle cx="256" cy="273.5" r="141.4" data-name="cloth bottom" style="fill:#95a4f1"/><g data-name="hair bottom"><path d="M118.4 279.1h275.2v75.1H118.4z" style="fill:#96d5e0"/><path d="M303.9 344.5c7.8-3.8 59.3-43 59.3-43s14.7 34.6-6 60.5c0 0-14.7 4.6-31.6 5.2-6.8.3-34-6.5-43.5-9.7 2-1.2 19.6-12 21.8-13m-87.9 7.3c-7.7-3.8-59-38.8-59-38.8s-11.7 22.2-.8 49c0 0 14.6 4.6 31.5 5.2 6.8.3 29.3-7.2 38.7-10.4-2-1.2-8.2-3.9-10.3-5" style="fill:#8398e8"/><path d="M126.7 230.7h259.8v45H126.7z" style="fill:#96d5e0"/></g><path d="m350 420.7-70.3-38.5-3-26.8h-41.3l-2.8 26.7-63.7 34.4-12.4 12.3S135.4 496.4 131 512h247.2L359 436.5z" style="fill:#ffdaf0"/><path d="M232.7 357.4c-.3 4.7.4 14.7.4 14.7s7.6 7.2 24.4 7.2 22.3-10 22.3-10-.4-7.6 0-12.7c-14.1 6.9-32.4 4.1-47.1.9z" style="fill:#de8ed1;isolation:isolate;opacity:.7"/><path d="M368.4 461.3q6.9 25.4 13 50.7h-5.2q-6.1-24.7-13-49.2l-4.5-16.1c-1.8-6-3.7-12.2-7.1-17.5-4-6.6-10.4-10.1-17-13.8q-11.1-6.3-22.6-12l-2.3-1.2c-7.4-3.7-15.1-7.1-22.2-11.5a27 27 0 0 1-7.6-5.6 16 16 0 0 1-3.5-5.3l-.1-.5-1-3.2c-.8-4.3-.6-9-.5-13.4 0-3 4-4 5-1.2l.2 1.3q-.4 6 .3 11.9l.2 1c1 4.4 4 7 7.8 9.3 9.7 6.1 20.2 10.8 30.3 15.9q11.8 6 23.1 12.6a40 40 0 0 1 15.5 14.3c3 5.3 4.8 11.4 6.5 16.9s3.2 11 4.7 16.6m-29 3.9q-3.2-8.7-5.3-17.7c-.7-2.9-5.1-1.7-4.4 1.2h-.1q2.3 9.4 5.7 18.7a60 60 0 0 1 .3 44.6h4.8a76 76 0 0 0 3.9-18.5c.8-9.8-1.6-19.1-4.9-28.3m-186.7-18.5c1.8-6 3.7-12.2 7.1-17.5 4-6.6 10.4-10.1 16.9-13.8q11.8-6.7 24-12.7c9.4-4.7 19.4-9 27.9-15.2q6-4.2 7.4-11.2c.8-4.4.7-9 .5-13.5-.1-3.3-5.3-3.3-5.1 0q.4 6-.3 11.9c-.6 4.1-2.7 6.9-6.1 9.2-7.8 5.3-16.6 9.3-25.1 13.6s-16.4 8.2-24.3 12.7c-6.7 3.8-13.5 7.4-18.3 13.6-7.3 9.5-9.9 22.4-13.1 33.7q-5.2 19.2-10.2 38.6l-4 15.9h5.2q6.2-24.7 12.9-49.2zm19.2 36q1.3-7.9 4.1-15.5 3.4-9.1 5.7-18.7c.7-2.9-3.8-4.1-4.4-1.2v.1q-2 8.1-4.7 16-2.2 5.8-3.8 11.7a63 63 0 0 0 2.3 36.9h4.7a60 60 0 0 1-3.9-29.3" style="fill:#3a3880"/><path d="M365.8 257.4c8.6-19.1 10.2-53.5 10.2-53.5v-.1c0-66.5-40-122.4-119.9-120.4-81.5 2-123.2 58.8-119.9 120.4v.2a152 152 0 0 0 9.8 53.3c-24.5 13-21.2 35-10.6 49 6.6 8.7 15.8 16.6 36.6 15.6l.8 2 16 17 33.5 17.5 33.5 6 39.8-9 29.3-16 14.6-16.2c20.2 2.3 30.4-8 37.1-16.9 9.9-13 12.5-38-10.8-48.9" style="fill:#ffdaf0"/><path d="M383.5 269.5c-3-6.2-8.3-10.6-14.5-13.3q4.6-12.6 7-25.8 2.4-13 2.5-26.4v-.2c0-23.7-5-47.7-16.8-68.4s-29-35.9-50.2-44.9a144 144 0 0 0-81.2-7 121 121 0 0 0-65.7 33.8 111 111 0 0 0-29.6 60.3 165 165 0 0 0-.8 39.1q1.7 20.4 8.7 39.5a29 29 0 0 0-13.5 11.5 31 31 0 0 0-4.1 17.4c.6 14 8.8 26.4 20.2 34.2 7.7 5.2 17 7.6 26.2 6a61 61 0 0 0 13.5 15 129 129 0 0 0 42.4 21.4c8.5 2.6 17.3 4.6 26.2 5.1a132 132 0 0 0 62-18.5 71 71 0 0 0 24.6-23l.7.2c15.8 2.9 31.8-7.8 39.7-20.9 6.3-10.3 8.1-24 2.7-35.1m-251 3.1q4-8.1 12.2-11.7 1.8 5 4 9.6c-6.8 3.2-11.6 11.8-9.7 19.2.5 2.2 3.9 1.2 3.4-1a12 12 0 0 1 1.5-8.8 14 14 0 0 1 6.2-6.1l1.8 4.1q4.6 10.4 8.6 21.3c2.6 7.2 4.8 14.6 8.4 21.4-23.3 2.8-46.4-26-36.4-48M316.3 342q-10.5 6.8-22.5 11.3-10.5 4-21.4 6.4a70 70 0 0 1-19.9 2 134 134 0 0 1-47.5-14.5 99 99 0 0 1-18.5-12.2 57 57 0 0 1-14.2-18.8c-3.4-7.1-5.5-14.5-8.2-21.7s-5.6-13.8-8.6-20.7c-5.2-12-10.3-23.9-13.1-36.7-3.1-14-4.2-28.6-3.8-42.9a111 111 0 0 1 19.7-61.3 108 108 0 0 1 54.9-39.7q19.6-6.4 40.2-7a116 116 0 0 1 40 3.8 101 101 0 0 1 55.5 35.5 121 121 0 0 1 23.6 61.3q.9 8.6.9 17.1c0 15.1-2.4 30.7-7.1 45s-11.6 27.8-16.8 42l-3.3 9.1a215 215 0 0 1-8.3 19q-1.7 3.2-3.5 5.8l-4.3 5.3a69 69 0 0 1-13.8 11.9m65.4-57a39 39 0 0 1-16.8 29.3 30 30 0 0 1-21.7 6.4q1.5-2.7 2.7-5.5c3.2-7.2 5.7-14.8 8.3-22.2q3.6-9.7 7.7-19.2a14 14 0 0 1 6.2 6.1 12 12 0 0 1 1.5 8.8c-.5 2.2 2.9 3.2 3.4 1 1.9-7.4-2.9-16-9.7-19.2l4-9.5a24 24 0 0 1 14.4 24" style="fill:#3a3880"/><g style="opacity:.4"><ellipse cx="197.5" cy="306.6" rx="22.7" ry="14.8" style="fill:#ffcfea"/><ellipse cx="197.5" cy="306.6" rx="20.7" ry="13.4" style="fill:#ffcbea"/><ellipse cx="197.5" cy="306.6" rx="18.6" ry="12.1" style="fill:#ffc7ea"/><ellipse cx="197.5" cy="306.6" rx="16.5" ry="10.7" style="fill:#ffc3ea"/><ellipse cx="197.5" cy="306.6" rx="14.5" ry="9.4" style="fill:#ffbfea"/><ellipse cx="197.5" cy="306.6" rx="12.4" ry="8.1" style="fill:#ffbbea"/><ellipse cx="197.5" cy="306.6" rx="10.3" ry="6.7" style="fill:#ffb6eb"/><ellipse cx="197.5" cy="306.6" rx="8.3" ry="5.4" style="fill:#ffb2eb"/><ellipse cx="197.5" cy="306.6" rx="6.2" ry="4" style="fill:#ffaeeb"/><ellipse cx="197.5" cy="306.6" rx="4.1" ry="2.7" style="fill:#ffaaeb"/><ellipse cx="197.5" cy="306.6" rx="2.1" ry="1.3" style="fill:#ffa6eb"/></g><g style="opacity:.4"><ellipse cx="313.1" cy="306.6" rx="22.7" ry="14.8" style="fill:#ffcfea"/><ellipse cx="313.1" cy="306.6" rx="20.7" ry="13.4" style="fill:#ffcbea"/><ellipse cx="313.1" cy="306.6" rx="18.6" ry="12.1" style="fill:#ffc7ea"/><ellipse cx="313.1" cy="306.6" rx="16.5" ry="10.7" style="fill:#ffc3ea"/><ellipse cx="313.1" cy="306.6" rx="14.5" ry="9.4" style="fill:#ffbfea"/><ellipse cx="313.1" cy="306.6" rx="12.4" ry="8.1" style="fill:#ffbbea"/><ellipse cx="313.1" cy="306.6" rx="10.3" ry="6.7" style="fill:#ffb6eb"/><ellipse cx="313.1" cy="306.6" rx="8.3" ry="5.4" style="fill:#ffb2eb"/><ellipse cx="313.1" cy="306.6" rx="6.2" ry="4" style="fill:#ffaeeb"/><ellipse cx="313.1" cy="306.6" rx="4.1" ry="2.7" style="fill:#ffaaeb"/><ellipse cx="313.1" cy="306.6" rx="2.1" ry="1.3" style="fill:#ffa6eb"/></g><g data-name="cloth main"><g style="clip-path:url(#a)"><path d="M0 0h512v512H0z" style="fill:#fed5fa"/><path d="M0 17.1h512v512H0z" style="fill:#a090ec"/><path d="M289 474.5q-3.6 0-6.4-2.4c-4.2-3.8-5.4-11.3-4-16.3 1.3-5 4-9.4 7-13.6q-6-7.6-15-11l-2.8-1.2.6-3c1.7-9 7-18.4 9.3-22a3.6 3.6 0 0 1 6.2 3.8 71 71 0 0 0-7.8 16.8q8 3.9 14 10.8l4-5.2 4.8-6.1c-4.2-9-10-26-4.7-33.8 1.8-2.5 5.3-5.2 12.4-3.4a11 11 0 0 1 6.8 5.4c3.4 5.8 3 14 1.9 18.2a40 40 0 0 1-7.7 14.6c9.3 12.8 18.9 14.7 32 6.5 1.8-1.1 4-.6 5 1.1s.6 4-1.1 5q-23.8 14.8-40.7-7-1.6 1.8-2.8 3.6l-4.5 5.9-1 1.3 1.5 2.6c1.9 3.6 6.1 14.8 3.2 22.4q-1.8 4.5-6.1 6.2-2.1.8-4.1.8m.8-25.6a30 30 0 0 0-4.2 8.8c-.7 2.6 0 7.3 2 9 .3.3 1 1 3 .3q1.3-.6 1.9-2c1.5-4-.6-11.7-2.7-16.1m12.5-54.3q-1.5 0-2.1.8c-2.6 3.8.5 15.2 3.7 23.2q3-4.1 4.4-9c1-3.5.7-9.5-1.2-12.7-1-1.6-2-1.9-2.3-2z" style="fill:#b8dfe2"/><path d="M267 455.5a3.6 3.6 0 0 1-2-6.7c6.2-4 13.5-4.2 18.5-.3a3.6 3.6 0 0 1 .6 5 3.6 3.6 0 0 1-5 .7c-3.1-2.4-7.5-1.1-10.2.7q-1 .5-2 .5m-2.9 30.3h-.4c-2-.2-3.4-1.9-3.3-3.9.8-10.4 8.7-15.7 15.7-20.4l1.7-1.1c1.7-1.2 4-.7 5 1s.8 3.8-.9 5l-1.8 1.1c-6.4 4.3-12 8-12.5 15a3.6 3.6 0 0 1-3.6 3.3" style="fill:#b8dfe2"/><path d="M314 489.8a3.6 3.6 0 0 1-1.8-6.7c11.5-7.2 20.7-20.6 27.4-31.4l4.2-7 2.3 7.8c3 10 12.4 17.8 23.4 19.2 2 .2 3.4 2 3.2 4-.3 2-2 3.4-4 3.1a36 36 0 0 1-26.6-17.5 92 92 0 0 1-26 28q-1 .5-2 .5" style="fill:#eda9e1"/><path d="M332.7 470.7q-1.3 0-2.3-.9c-4-3.3-6.2-9.3-7.9-13.7-.7-1.9.2-4 2.1-4.7s4 .3 4.7 2.1c1.3 3.5 3.2 8.7 5.8 10.8a3.6 3.6 0 0 1-2.4 6.4m-10.4 10.4q-1 0-2-.5c-8.1-5.3-11.7-19.8-11.7-28.6 0-2 1.7-3.6 3.7-3.6s3.6 1.7 3.6 3.7c0 7 3 19 8.3 22.4a3.6 3.6 0 0 1-2 6.6" style="fill:#eda9e1"/><path d="m91 510.7-3.2-.2a3.6 3.6 0 0 1 .7-7.2 52 52 0 0 0 31.1-9.8 60 60 0 0 0 10.2-8.7c-2.1-7.9-5-18.5-.2-26.7q3.2-5.4 7.8-5.8a8 8 0 0 1 7 3.5c3.9 5 1.5 15 1.3 16.2a38 38 0 0 1-7.8 14.5c1.5 4.6 4.2 12 6.2 16.1a3.6 3.6 0 0 1-6.5 3.2c-1.7-3.4-3.7-8.8-5.3-13.3A62 62 0 0 1 91 510.7m47-51.2q-.6-.1-2.1 2.2c-2.5 4.3-1.8 10.2-.4 16q2.1-3.6 3.2-7.4c1-4.2.9-9 0-10q-.6-.9-.8-.8" style="fill:#add5f8"/><path d="M116.4 500.6q-2.6-.1-3.5-2.6l-.8-2.4-1.5-5a3.6 3.6 0 1 1 7-1.8l1.4 4.5.8 2.6a3.6 3.6 0 0 1-3.4 4.7m-15 7.2q-2.3 0-3.3-2-1-2.7-1.3-5.1c-.1-1.2-.3-2.5-.7-3a3.6 3.6 0 1 1 6-4.2c1.3 2 1.6 4.2 1.9 6.2q.2 1.8.7 3a3.6 3.6 0 0 1-3.3 5.1M165.3 276h-1.2c-5.5 0-12.4 0-17.7-1.9-6.7-2.2-14-6.7-19.2-11.5q-6 4.7-13 8.9a3.6 3.6 0 0 1-3.6-6.2q6.5-4.1 12.7-8.8l4.7-3.5 2.2 2.4a49 49 0 0 0 18.5 11.9 56 56 0 0 0 15.5 1.5h.6c5.1.1 10-.6 11.5-1.7a3.6 3.6 0 1 1 4.1 6c-3.7 2.6-10.8 3-15 3m-103 92.6q-2.4-.1-3.4-2.2c-3-7.3-3.9-18.8.6-25.8a3.6 3.6 0 1 1 6.1 3.9c-3 4.7-2.3 13.5 0 19a3.6 3.6 0 0 1-3.3 5m-13.7 5.5q-2 0-3.1-1.9c-7.2-12.9-5.7-37.7 6.2-48.3a3.6 3.6 0 0 1 4.8 5.4c-7.8 6.9-11.4 27.3-4.7 39.4a3.6 3.6 0 0 1-3.2 5.4" style="fill:#add5f8"/><path d="M113 434.7h-.7c-2-.4-3.3-2.3-3-4.3a60 60 0 0 0-4.3-34 40 40 0 0 1-10.5 8.5 33 33 0 0 1-14.7 3.4h-.2c-11.8 0-21.6-6.6-24.8-16.7a3.6 3.6 0 1 1 6.9-2.2c2.2 7 9.3 11.6 18 11.7h.1q6.1 0 11.5-2.7a47 47 0 0 0 11.8-10.7l3.2-3.6 2.6 4a66 66 0 0 1 7.6 43.6c-.3 1.8-1.8 3-3.5 3" style="fill:#faebd7"/><path d="M56.6 421h-.4c-2-.2-3.4-2-3.2-4 .7-5.6 4.6-9.2 8.1-12.3l3.1-3c1.4-1.5 3.6-1.6 5.1-.3s1.6 3.7.3 5.1l-3.7 3.6c-2.7 2.5-5.3 4.8-5.7 7.8a3.6 3.6 0 0 1-3.6 3.2" style="fill:#faebd7"/><path d="M252.2 240q-1.8 0-3-1.6l-55.3-87.2-5.9 5.4a3.6 3.6 0 0 1-5-.2 3.6 3.6 0 0 1 .1-5.1l6.8-6.3-16-25.3 43.6 9.7-18.2 16.8 56 88.3a3.6 3.6 0 0 1-3 5.6m-62.9-109.5 6 9.5 7.1-6.6zm114.5 135.9a3.6 3.6 0 0 1-1.9-6.7l43.2-26 36.2 13.8c1.9.7 2.8 2.8 2.1 4.6a3.6 3.6 0 0 1-4.6 2.1l-33-12.5-40.2 24.2q-.8.5-1.8.5" style="fill:#b8dfe2"/><path d="M400 157.5a3.6 3.6 0 0 1-3.5-3.1l-6.2-45.7 65.2 15.5 7.8-21a3.6 3.6 0 0 1 6.7 2.4l-7.4 20.3 27.6 6.5-44.8 19.2L453 131l-54-12.8 4.7 35.2c.2 2-1.2 3.8-3.1 4zm60-24.8-2 5.7 9.2-4z" style="fill:#eda9e1"/><path d="M226.8 101c-1.3 0-2.7-.8-3.3-2.1L196.8 39l1.9-1.8c7.1-6.6 21-11.1 30.2-7.3A19 19 0 0 1 240 41.8a28 28 0 0 1-2.8 22.2c-3.9 6.5-9.2 11-14.4 15.5l7.3 16.4a3.6 3.6 0 0 1-3.3 5.1m-21.2-60 14.1 31.6c4.4-3.8 8.4-7.4 11.2-12.3 3-5 3.9-11.4 2.3-16.2q-1.8-5.3-7-7.4c-5.7-2.4-14.8.2-20.6 4.3" style="fill:#b8dfe2"/><path d="M432.6 178.6q-.7 0-1.6-.4c-1.8-.9-2.5-3-1.6-4.8 10.8-21 39.2-20.4 61.5-13.3a71 71 0 0 0-.2-38.7 3.6 3.6 0 1 1 6.5-3c4.4 9.2 5.3 37.6-1.5 48l-1.5 2.5-2.7-1c-4.5-1.5-43.6-14.6-55.7 8.8q-1 1.9-3.2 2" style="fill:#eda9e1"/><path d="M353.1 87.8c-2 0-6.5-2.2-22.6-12.4a3.6 3.6 0 0 1-1.2-5c1-1.7 3.3-2.2 5-1l15.6 9.3 5-47 .9-7.6 15.7 15.8 14-18.6 11.8 19L408 20.2 427.3 55c1 1.7.4 4-1.4 4.9s-4 .3-4.9-1.4l-12.8-23.2-10.4 19.6-13-20.8L372.3 51l-10.9-11-4.7 44.2v2.1l-1.9 1a3 3 0 0 1-1.6.5m74.4 339h-.5c-2.3-.1-6.5-1.2-8.8-7-6.2-15.3 5-28 17-38.3-6.7-26.5-25.9-41-36.7-42.6a3.6 3.6 0 1 1 1-7.1c20.6 2.8 36.2 26.7 41.8 44.7l2.5-2a123 123 0 0 0 9.3-7.7l1-1a47 47 0 0 1 1.8-22.9c2.6-7.2 10.7-12.4 17-10.8 1.9.5 8 2.8 6.5 12.8-1.4 9.7-9.4 16.7-16.5 22.8l-1 1q1.8 9.1 5.1 17.6.8 1.8 2.6 5c2.7 4.8 5.5 9.7 5 13.7-1 6.5-11.6 12.9-14.2 14-1.8 1-4 .1-4.8-1.7s0-4 1.7-4.8c4-1.9 9.8-6.7 10-8.5.3-1.6-2.6-6.7-4-9.1a45 45 0 0 1-3-6.1q-2.7-7-4.6-14.6a230 230 0 0 1-12.4 10c2.7 9.8 5.6 21 .3 30.8-2.5 4.9-9.4 11.8-16.2 11.8m9.7-37.5C428.1 397.6 421 407 425 417c1 2.5 2 2.5 2.4 2.6h.2c3 0 7.8-4.4 9.8-8 3.4-6.5 2-14.4 0-22.3m33.3-50.3c-2.4 0-6.4 2.5-7.8 6.4a38 38 0 0 0-2 14.6c5.4-4.8 10.6-10 11.5-16.2.2-1 .5-4.3-1-4.7z" style="fill:#b8dfe2"/><path d="M431.1 446.2q-1 0-1.7-.4a3.6 3.6 0 0 1-1.4-5c1.5-2.7 1.3-9.9-1-13.7a3.6 3.6 0 1 1 6.2-3.7c3.5 5.9 4 15.7 1 21a4 4 0 0 1-3 1.8" style="fill:#b8dfe2"/><path d="M452.3 472.2q-.6 0-1.3-.3-2.9-1.1-5.5-2.5-3-1.6-5.7-2.7l-4.3-1.5 2.5-3.8c6-9.3 10.3-33.1 0-40a3.6 3.6 0 0 1 4-6c6.7 4.4 10 13.2 9.4 24.8a58 58 0 0 1-5.3 21.4l2.6 1.3q2.7 1.4 5 2.3a3.6 3.6 0 0 1-1.4 7m7.1-19.7h-.4c-2 0-3.6-1.6-3.5-3.6 0-2 1.6-3.6 3.6-3.6h.3c13.6 0 21.5-25.9 22.5-33.2a51 51 0 0 0-6-34.1 46 46 0 0 0-9.5 7 3.6 3.6 0 1 1-5.2-5.2c4.2-4.2 9.8-7.4 14-9.8l2.7-1.5 1.9 2.5a57 57 0 0 1 9.2 42c-1 7.9-9.7 39.5-29.6 39.5" style="fill:#b8dfe2"/><path d="M484.2 454.2q-2.6-.2-3.5-2.4a52 52 0 0 0-6-11.6 3.6 3.6 0 0 1 .8-5 3.6 3.6 0 0 1 5 .9c2.4 3.3 5.6 8.8 7.1 13.4a3.6 3.6 0 0 1-3.4 4.8" style="fill:#b8dfe2"/><path d="M480.9 491h-.4c-2-.2-3.4-2-3.2-4 .8-7.4-2.3-19-6.6-25.1a3.6 3.6 0 1 1 6-4.2 51 51 0 0 1 7.8 30 3.6 3.6 0 0 1-3.6 3.3M14.8 99.5c-2 0-3.6-1.6-3.6-3.5-.8-22.9-.8-67.8-.8-68.2v-5.5l5 2.1c.3.1 23.6 10 40.5 13.2q1.5-3.7 3.5-6.1c3-3.6 11.8-8.5 18.4-7.6a9 9 0 0 1 7.2 5c2 4.3 1 7.5-.2 9.4-4 6.4-15.6 7.7-19.7 7.6l-3.7-.2q-.2 2.4.1 4.6.8 3.3 2.7 4.5a3.6 3.6 0 0 1-3.5 6.3 13 13 0 0 1-6.3-9.5 24 24 0 0 1-.1-7c-13-2.6-28.7-8.4-36.6-11.5 0 12.6.1 44.6.7 62.6 0 2-1.5 3.7-3.5 3.7zm48.6-60.8H65c4.5 0 11.9-1.6 13.6-4.2.1-.3.5-.9-.2-2.4q-.1-.7-1.6-1c-3.8-.5-10.4 3-12 5q-.7 1-1.5 2.6M212.6 124a16 16 0 0 1-12-4.9q-1.7-1.7-4.7-6.4l-1.7-2.5q-3 3.1-6.5 4.6a13 13 0 0 1-10.4 0 15 15 0 0 1-7.3-8.8c-1.7-4.6-1.6-9.3.2-12.8 2.5-5 5.9-6.2 8.2-6.3 5.2-.3 10.3 4 15.3 10.3 4.2-13.5-3.2-33.1-14.6-37.7-9.5-3.9-23.1 2.2-30.8 10.3a3.6 3.6 0 1 1-5.2-5c9.1-9.7 25.8-17.2 38.7-12 15.4 6.2 24.8 31 18.2 48.3l-1.3 2.9 3.2 4.7c1.6 2.4 3.1 4.7 3.8 5.4 3.2 3.3 8 3.1 11.5 2 4.4-1.6 7.5-4.9 7.8-8.4a3.6 3.6 0 0 1 7.2.8c-.6 6.3-5.6 12-12.7 14.4q-3.4 1.2-6.9 1.2m-33.6-30c-1 0-1.8 1.5-2.3 2.4-.8 1.6-.7 4.4.2 7q1.7 4 3.4 4.7 2.2 1 4.7 0 2.7-1.2 5-4c-3.8-5.1-8.2-10-10.9-10" style="fill:#add5f8"/><path d="M164.4 116q-2.1 0-3.2-2l-23.3-50c-.8-1.9 0-4 1.8-4.9 1.8-.8 4 0 4.8 1.8l23.2 50a3.6 3.6 0 0 1-3.2 5.2m106-39-31.3-50.8a3.6 3.6 0 0 1 6.2-3.8l27.2 44.2 20.5-15a3.6 3.6 0 0 1 4.3 5.9z" style="fill:#add5f8"/><path d="M187.3 520.6H75.5a3.6 3.6 0 0 1 0-7.2h97.8l-17.9-25.1a3.6 3.6 0 1 1 6-4.2z" style="fill:#b8dfe2"/><path d="M225.2 512.7a71 71 0 0 1-32.3-8 66 66 0 0 1-35.6-55.2 81 81 0 0 1-12.4-.4q-9.8-.7-19.7.6c-5.7 16.3-16.8 38.3-35.7 42-5 1-9.5-.2-12.5-3.5a16 16 0 0 1-2.6-15.2c4.2-14.3 21-22.2 30.5-25.6q7.5-2.7 15-4.1 1.8-6 3-11.9c3.8-17.4 1-43.2-14.7-54.9l-2 1.7c-3.6 3-7.5 6.2-12.3 8.2l-.2.1c-6 2.5-17 7.1-23.2 1.9A10 10 0 0 1 67 379a18 18 0 0 1 9.8-12.8 38 38 0 0 1 31 1.5l2.5-1.6c12.8-7.5 24.6-13.8 39.7-13q2.8 0 5.8.4c2.2-23.5 2.7-24.2 3.5-25.2a3.6 3.6 0 0 1 6.2 3.6c-.5 2.2-1.8 14.9-2.8 26.1l-.4 4.2-4-1q-4.2-.8-8.7-1c-13-.6-23.3 4.8-35.3 11.9 16.7 14.1 19.8 41.8 15.7 60.8q-.6 2.8-2.3 9 9-.9 17.8 0 6 .6 11.8.2.5-8.8 3.3-17.3c1.2-3.5 4.6-11.7 11.1-13.1 2.4-.6 6.2-.3 10.2 3.8a16 16 0 0 1 4.4 13c-.7 5.8-4 11.3-9 14.6a37 37 0 0 1-12.8 5.3A58 58 0 0 0 196 498a65 65 0 0 0 67.7-4.7 3.6 3.6 0 1 1 4.1 6 65 65 0 0 1-22.9 10.8 89 89 0 0 1-19.8 2.4zM117 451.3a95 95 0 0 0-9.7 3c-6.6 2.3-22.5 9.2-26 20.8-1 3.2-.5 6.4 1.1 8.2q1.9 2.1 5.7 1.4c12.8-2.6 22.6-17.1 29-33.4m56.6-32.5h-.3c-1.8.4-4.3 4-5.8 8.4a58 58 0 0 0-2.9 13.8q4.6-1.1 8.7-3.9c3.1-2 5.4-5.7 5.8-9.2.2-2 0-4.8-2.4-7.2-.8-1-2-1.9-3-1.9m-82.8-48c-4 0-8 .7-11 2a11 11 0 0 0-5.6 7.3q-.4 1.7 1 2.8c2.8 2.4 12.5-1.7 15.6-3l.3-.1a42 42 0 0 0 10.3-7l-2.9-1q-3.5-1-7.7-1m74-37.8" style="fill:#b8dfe2"/><path d="M240.9 507q-2 0-3.1-1.8c-2.9-4.6-2.3-12.8-1.3-15.8a3.6 3.6 0 0 1 6.9 2.4c-.7 1.7-.8 7.5.5 9.6a3.6 3.6 0 0 1-3 5.5m-19.1 3.7q-2.6-.1-3.5-2.6c-1-3.2-1.6-9.3.8-13.4a3.6 3.6 0 1 1 6.3 3.7c-.9 1.4-1 5.1-.2 7.6a3.6 3.6 0 0 1-3.4 4.7M99.6 359.4q-3.4 0-6.5-2.4c-6-4.6-8.5-13-6.7-22.7a3.6 3.6 0 1 1 7.1 1.3c-.5 2.6-1.6 11.4 4 15.7 1.7 1.3 2.7.8 3 .5 1.8-1 3.2-4 3-6.4q-.1-2.2-.5-4.4c-.8-6.3-1.7-13.3 1.6-19.6q3.1-5.6 8.8-5.6c3.9.1 7.4 2.7 9.3 6.9q.9 2 1.5 7c.4 3 1.6 10.8 3.2 12.2q.3 0 1.5-1c1.7-1.4 1.3-5.4.8-9.2-.6-6.4-1.7-16 8.7-18.3 4.1-.9 6.8.4 8.3 1.6 4.4 3.6 4.1 10.8 4 16l-.1 2.2q0 9 .9 19.8a3.6 3.6 0 1 1-7.3.6q-.9-11-.9-20.5l.1-2.2c0-2.7.3-9-1.4-10.3-.4-.4-1.5-.2-2-.1-3.4.7-4 2.5-3 10.4.5 5.5 1.2 11.6-3.4 15.5-3.8 3.2-6.8 3-8.7 2.4-5.5-2.1-6.8-10.6-7.9-18-.2-2-.6-4.5-.9-5.2q-1.4-2.6-3-2.6c-1 0-1.7 1-2.1 1.8-2.3 4.2-1.6 9.8-.8 15.2l.5 4.7c.5 5.3-2.4 11.1-6.7 13.5q-2.2 1.1-4.5 1.2M75 368.6l3.4-1.1-3.5 1c-2-6.5-4.7-14.5-1.6-21.3.8-1.8 3-2.6 4.8-1.8s2.6 3 1.8 4.8c-2 4.2.2 10.8 1.9 16l-3.4 1.3zm47 17.4q-.7 0-1.5-.4c-1.8-.9-2.6-3-1.7-4.9 2.9-6 12.6-9.6 14.5-10.3a3.6 3.6 0 1 1 2.3 6.8c-4 1.5-9.2 4.4-10.3 6.7-.6 1.3-2 2-3.3 2m21.5 60.3h-.6c-2-.4-3.3-2.3-3-4.3l4.4-23c.4-2 2.3-3.2 4.2-2.8 2 .3 3.3 2.2 3 4.2l-4.4 23c-.3 1.7-1.8 3-3.6 3m83.3-269.6a3.6 3.6 0 0 1-3.5-3l-6.1-33 3.2-1a48 48 0 0 0 32.6-26.9 66 66 0 0 1-8.1-9.7c-3.5-5-7.2-15.9-4.3-23.4q2.3-6 8.7-7.5 5.5-1.2 9.5 2.5c6.7 6.4 6.1 22 5.2 27q-.9 4.8-2.4 9.1 6 5 13.6 8.2l1.7-7.5a72 72 0 0 1 10.8-28.7 77 77 0 0 1 20.1-17.4q5.6-3.2 11.3-5 4.1-1.3 7.5-3c1.7-1 4-.2 4.9 1.5 1 1.8.2 4-1.5 5a55 55 0 0 1-8.6 3.4 44 44 0 0 0-9.6 4.2c-6 3.8-13.4 9-18.3 15.6a67 67 0 0 0-9.5 26q-1.3 6-3 11.7l-1 3.7-3.6-1.3a62 62 0 0 1-17.7-9.5 55 55 0 0 1-33.2 28l4.9 26.7c.3 2-1 3.9-3 4.3zM252 79.2h-1q-2.7.7-3.5 3c-1.8 4.7.8 13 3.4 16.8q2.3 3.3 5 6.2l1-4.8c1-5.1.6-17-3-20.5q-.7-.7-1.9-.7" style="fill:#b8dfe2"/><path d="M240.1 153.3q-2.2 0-3.3-2.2l-4.6-11c-.7-1.9.1-4 2-4.8s4 .2 4.7 2l4.6 11a3.6 3.6 0 0 1-3.4 5m13.4-13.3q-1.9 0-3-1.5a60 60 0 0 1-4.3-6.8 3.6 3.6 0 0 1 6.3-3.5q1.6 3 3.9 6a3.6 3.6 0 0 1-3 5.8m46.8-6.1L279.9 112a3.6 3.6 0 1 1 5.3-4.9l16 17.2 6.4-4.3c1.7-1.1 4-.7 5 1s.8 3.8-.9 5z" style="fill:#b8dfe2"/><path d="M313.3 204.3q-1.9 0-3-1.7l-10.4-16.4-16.5 13.8a3.6 3.6 0 0 1-4.7-5.5l22.9-19.2 14.8 23.5a3.6 3.6 0 0 1-3 5.5" style="fill:#add5f8"/><path d="M34.4 378.3q-2.2-.1-3.3-2c-8.9-18.7-8.6-47.4 7.3-63.3l.5-.5.3-.3v-.3q-1.4-3.6-2.4-7.7a3.6 3.6 0 1 1 7-2q1 3.9 2.2 7.5c1.3 4.2 0 6-2 8l-.5.4c-13.4 13.5-13.5 39-5.9 55a3.6 3.6 0 0 1-3.2 5.2" style="fill:#b8dfe2"/><path d="M34.2 324.3q-1.6 0-2.8-1.4l-8.1-10.4A3.6 3.6 0 1 1 29 308l8 10.4a3.6 3.6 0 0 1-2.8 5.8m-5.3 13.4q-1 0-2-.6l-15.3-9.6a3.6 3.6 0 0 1-1.1-5c1-1.7 3.3-2.2 5-1.1l15.3 9.6c1.7 1 2.2 3.3 1.1 5q-1.1 1.7-3 1.7m-14.3 14.6a3.6 3.6 0 0 1-.6-7.2l14.2-2.7a3.6 3.6 0 1 1 1.3 7.1l-14.2 2.7zm2.9 20.7a3.6 3.6 0 0 1-1.6-7L28 360a3.6 3.6 0 1 1 3.2 6.5l-12 6z" style="fill:#b8dfe2"/><path d="M32.4 444.7q-1.7 0-2.9-1.4l-2.2-2.3c-1.7-1.8-3.7-3.8-5.1-6.3a66 66 0 0 1-4-8.8 40 40 0 0 1-1.8-17.3c.2-7.1.6-13.8 3.7-17.7l.6-.7 31-12.2a3.6 3.6 0 0 1 2.6 6.8l-29 11.4a40 40 0 0 0-1.7 12.6v1.8q-.5 7.9 1.5 12.8 1.5 4.3 3.5 7.9 1.4 2.4 3.8 4.6l2.8 3a3.6 3.6 0 0 1-2.9 5.8" style="fill:#add5f8"/><path d="M17.5 441a3.6 3.6 0 0 1-1.5-6.8l1-1q1.6-2 3.6-3.1a3.6 3.6 0 0 1 3.5 6.3l-1.9 1.8q-1.8 2-3.8 2.8zm-7.2-13.7c-1.5 0-3-1-3.5-2.5-.6-1.9.4-4 2.3-4.6l8-3.8a3.6 3.6 0 1 1 3.2 6.5q-7.8 3.9-8.9 4.2z" style="fill:#add5f8"/><path d="M66.9 491.8q-1.6 0-2.7-1.2c-7-8-9.2-26.6-9.4-28.7l-.4-4h16.1a3.6 3.6 0 0 1 0 7.2h-8c1 6.5 3.3 16.5 7.1 20.7a3.6 3.6 0 0 1-2.7 6" style="fill:#abaef3"/><path d="m214.4 490.5-1.5-.2c-4.7-.9-8.5-6-9.3-12.3-2.4-19.4 5.4-37.7 13-55.3 3.6-8.8 7.2-17.2 9.6-25.6a36 36 0 0 1-8.4-9c-3.2-4.9-16.7-31.8-3.8-41.1q4.6-3.2 9.2-.8c9.8 5.4 13.4 30.8 13.1 35.4q-.4 6.2-1.8 12.2 3 1.7 6.3 2.2 6.4 1.2 11.1-2.5a36 36 0 0 0 12.1-17.9 116 116 0 0 1-13-27c-1.8-6-3-12 0-15.7 1.2-1.3 3.3-2.8 7.1-2.4 8.2.9 12.3 12.2 14.2 21.6a51 51 0 0 1-.5 22.4l1.5 2.5c3 5.2 6.7 11.7 10.8 13.7a3.6 3.6 0 0 1-3.2 6.5c-5.1-2.6-9-8.4-12.2-13.7q-4.6 9.6-12.4 15.8a21 21 0 0 1-16.7 3.9q-3.6-.6-7-2.2-3 9.2-6.8 18.3c1.1 3.4 1.2 8.2 1.3 12.7q0 3.5.3 6 1 9.7.1 21l-.3 5.1c-.3 6.7-.6 14.2-3.8 20-3 5.4-6.7 6.4-9 6.4m5.5-57.3c-6 14.7-11 29-9.1 43.9.4 3.4 2.3 5.9 3.5 6.1q1 .2 2.8-2.7a41 41 0 0 0 3-16.7q0-3 .2-5.4.9-10.6 0-19.7zm-.6-80.8q-.4-.1-1 .5c-6.3 4.5.8 23.9 5.6 31.2a29 29 0 0 0 4.2 5 64 64 0 0 0 1-8c.3-5.5-4.3-25.8-9.3-28.6zm37.3-14.8c-.2.6-.6 2.5 1.4 9a93 93 0 0 0 8 18.1 43 43 0 0 0-.8-11.2c-2.2-10.5-5.6-15.6-7.8-15.9z" style="fill:#eda9e1"/><path d="M230.7 484.6q-4.5 0-10-5a3.6 3.6 0 1 1 5-5.3c3.1 2.9 4.8 3.2 5.3 3 2.3-1.2 4-10.4 2.9-19.5-1.7-12.3-9-27.4-15-37.9a3.6 3.6 0 1 1 6.3-3.5c6.2 11 14 27 15.8 40.4 0 .2 2.8 22-6.6 26.9q-1.8.9-3.7.9m36.7-76.2q-.9 0-1.7-.4c-5-2.5-7.5-8.4-8.3-13a3.6 3.6 0 0 1 7.1-1.3c.5 3 2.1 6.6 4.5 7.8a3.6 3.6 0 0 1-1.6 6.9m-8.4 14.9q-1.3 0-2.4-.9c-7.8-6.5-11.6-13.9-11.1-21.3 0-2 1.7-3.5 3.8-3.4s3.5 1.9 3.4 3.9c-.5 6.3 4.4 11.8 8.6 15.3a3.6 3.6 0 0 1-2.3 6.4" style="fill:#eda9e1"/><path d="M244 467.5q-3-.1-5.2-.7a3.6 3.6 0 1 1 1.4-7c4.7.9 5.8.6 7.2-1.5 2.7-4.4 1-8.8-.2-11a119 119 0 0 0-11.3-17.5l-1.3-1.6c-2.7-3.4-6.7-8.4-10-9.1a3.6 3.6 0 0 1 1.5-7c5.8 1.2 10.6 7.2 14.2 11.5l1.2 1.6a126 126 0 0 1 12 18.6 18 18 0 0 1 0 18.3 11 11 0 0 1-9.5 5.4" style="fill:#eda9e1"/><path d="M171.8 211.1h-.9c-2-.5-3.1-2.5-2.7-4.4 2.7-11.5 3.7-21.4 3.2-32v-1c-.4-6.2-.6-11.5-1.8-17.3l-.6-3.6c-.4-2.6-1-5.6-1.7-8a59 59 0 0 1-43.4.2l-.7 1a76 76 0 0 0-8.1 15 3.6 3.6 0 0 1-6.9-2.3 81 81 0 0 1 9-16.6l2.4-3.8 1.9-3.1 3 2c11.5 7.1 30.9 5.4 43-.3l2.7-1.3 1.8 2.5c2.5 3.6 3.3 8.9 4.1 13.6l.6 3.2c1.2 6.4 1.5 12.3 1.8 18.4v1c.6 11.3-.4 21.8-3.2 34a4 4 0 0 1-3.5 2.8" style="fill:#faebd7"/><path d="M179.5 178.1h-1.2a3.6 3.6 0 0 1 .7-7.2c2.3.2 5-1.1 7-2.3 1.7-1 4-.4 5 1.3s.4 4-1.4 5a21 21 0 0 1-10 3.2" style="fill:#faebd7"/><path d="M24.6 175.5q-2 0-4.1-.7c-7.3-2.5-8.1-10-8.6-14.9l-.1-1c-1.2-10.7-1.2-21.6-1.2-32.2v-1a3.6 3.6 0 0 1 7.2 0v1c0 10.9 0 21.1 1.2 31.5v1c.6 4.6 1 7.8 3.8 8.7q1.7.6 2.4.2c1.5-1 1.7-6.7 1.7-9.2l.1-1.7.8-12c.4-6.2 1-12.6.9-18.9V124c-.2-10.7 0-22.6 6.1-27.8q3.7-3 8.7-2.1c7.4 1.3 8.5 10.3 9.4 17.6.4 3.4 1.1 9.2 2.5 10.1q.5.2 1.6-.2 2-.5 3-3c3.6-7.2 1.2-23.2-1.1-29.7l-2.7-7.3c-4 2.8-8.5 4.9-13.8 4.4-6.3-.5-12.1-5.2-15.2-12.2-2.6-6-2.4-12.3.6-16.2 1.6-2 5.2-5 12.6-3.9 8.3 1.3 14.1 8.3 18.3 16h.1l.3-.4a53 53 0 0 1 23.2-15.1c14.2-4 34.2 2.6 40.5 10.8 1.3 1.5 1 3.8-.6 5s-3.9 1-5-.6c-5.6-7-23.9-10.7-33-8.2a47 47 0 0 0-20 13.3l-.3.3-2 1.8q2.4 5.5 3.8 10c2 5.7 6 24.8.8 35.2a12 12 0 0 1-7.2 6.7q-4.5 1.5-7.8-.6c-4.3-2.7-5-8.9-5.8-15.4-.5-4.3-1.3-11-3.5-11.3q-2.1-.3-2.7.5c-4 3.4-3.7 16.5-3.6 22.2v2.4q-.1 9.8-1 19.4l-.8 13.4c-.1 5-.3 11.8-4.8 14.9q-2.1 1.5-4.8 1.5M37.3 60.7q-2.3 0-3.7 1.4c-1.3 1.7-1.2 5.4.3 8.9 1.5 3.4 4.8 7.5 9.2 7.9 3.6.3 7-1.5 10.1-4-3.3-6.9-7.9-13-13.9-14z" style="fill:#eda9e1"/><path d="M103.2 59.8h-.2c-2-.1-3.5-1.8-3.5-3.8.3-7.1 5.6-14.3 8.9-17.2a3.6 3.6 0 0 1 4.8 5.4 21 21 0 0 0-6.4 12c0 2-1.7 3.5-3.6 3.5m12.8 4.1h-.6c-2-.4-3.3-2.3-3-4.2 1.9-9.8 14.5-17.2 26.1-23.3l1-.5a74 74 0 0 1 36.3-6.7 3.6 3.6 0 0 1 0 7.2 68 68 0 0 0-32.9 6l-1 .4c-6.3 3.3-21 11-22.3 18.2-.3 1.7-1.9 3-3.6 3" style="fill:#eda9e1"/><path d="M148.3 53.3q-2 0-3.1-1.7a27 27 0 0 1-2.9-11.8c0-2 1.5-3.7 3.5-3.7h.1c2 0 3.6 1.6 3.6 3.5.1 3 1 6.7 1.8 8.2a3.6 3.6 0 0 1-3 5.5m15.2-4.7c-1.6 0-3.1-1-3.5-2.7l-.6-2c-.8-3-1.8-6.5-1.9-10a3.6 3.6 0 1 1 7.2-.1q.3 3.9 1.7 8.2l.6 2a3.6 3.6 0 0 1-3.5 4.6m338.1 461.7H476a3.6 3.6 0 0 1 0-7.2h18.2V303.3a3.6 3.6 0 0 1 7.3 0z" style="fill:#eda9e1"/><path d="M438.5 347.6c-1.4 0-2.8-1-3.3-2.4-5-13 9.7-26.1 16.8-32.5q3.6-3 7.7-5.7l3.6-2.5c-4-5.5-6.5-11.8-5-18.3 2.1-9.4 8.1-9.5 9.9-9.3 5.8.6 10.8 7.2 11 14.5.1 6-2.3 10.3-5.6 13.9l3.6 3.3q4.3 3.3 9.7 6a57 57 0 0 1 11 7.2 3.6 3.6 0 0 1-4.8 5.4q-4-3.4-9.7-6.2a64 64 0 0 1-15.3-11l-4.3 3q-4 2.6-7 5.2c-5.4 4.8-18 16.2-14.8 24.5a3.6 3.6 0 0 1-3.4 5zm28.9-63.5q-1.2.2-2 3.7c-1 4 .8 8.2 3.4 11.9q3.1-3.3 3.1-8.2c0-4.3-3-7.3-4.5-7.4" style="fill:#eda9e1"/><path d="M454 317.7q-1.5 0-2.8-1.2a28 28 0 0 1-5.3-11.3 3.6 3.6 0 1 1 7-2 22 22 0 0 0 3.8 8.5 3.6 3.6 0 0 1-2.7 6m-150.5 6.7q-3.3 0-6.2-1.6a15 15 0 0 1-7.7-11.5c-.9-7.5 3.5-14.9 8.2-20.8l-1.8-1.9a52 52 0 0 0-30.8-13.8 3.6 3.6 0 1 1 .5-7.2 59 59 0 0 1 36.8 17.3l.7-.7 1-1.2c6.3-7.1 12.8-14.5 20.2-20.9l1.3-1.1c6.8-6 15.3-13.3 25.6-12.4 6.2.5 12.7 5.2 13 12.1q.2 6.8-6.9 12.6l-2.3 1.8c-7.5 5.7-9 8.2-6.6 11.3q1.3 1.6 2.1 1.4c4.2.3 11.4-6.9 15.3-10.8l3.4-3.3c4.9-4.2 17.2-13.8 28-12.5q6.5.8 10.4 6.3 3.3 4.8 2.2 9.9c-1.8 8.6-13 15.2-21 20l-5.6 3.5a3.6 3.6 0 0 1-4.2-5.9l6-3.8c6.6-3.9 16.5-9.8 17.7-15.3.2-1 .3-2.3-1-4.2q-2-3-5.3-3.3c-6.5-.8-16.2 5.3-22.4 10.7l-3.1 3c-5.7 5.7-13.4 13.5-21 12.9a10 10 0 0 1-7.4-4.3c-7.1-9.7 2.8-17.3 8.1-21.4q1.2-.7 2.1-1.6c1.7-1.3 4.4-4 4.2-6.7 0-2.8-3.4-5-6.3-5.3-7.3-.6-14.2 5.4-20.2 10.7l-1.4 1.2c-7 6-13.4 13.2-19.5 20.1l-1 1.2-1.4 1.5c4.6 6 9.1 14.2 9 21.3q-.3 6.1-4.7 9.8a13 13 0 0 1-8 2.8m-1-28.2c-3.4 4.6-6.3 9.7-5.7 14.2a8 8 0 0 0 3.8 6c2 1 4.7.9 6.3-.4q2-1.6 2-4.5c.1-4.5-3-10.4-6.4-15.3" style="fill:#eda9e1"/><path d="M397 324.8q-1.2 0-2.2-.8a3.6 3.6 0 0 1-.8-5c3-4-1.6-15.6-6.3-22a3.6 3.6 0 1 1 5.9-4.3c4 5.6 12.8 21.8 6.2 30.6q-1.2 1.5-2.9 1.5m19.1 7.7q-1.4 0-2.5-1a3.6 3.6 0 0 1-.2-5q2.7-3 2-9a47 47 0 0 0-16.2-27 3.6 3.6 0 0 1 4-6c8 5.4 18 20 19.4 32.2q1 9.1-3.9 14.6-1 1.1-2.6 1.2" style="fill:#eda9e1"/><path d="M420 323.2c-1.5 0-3-1-3.4-2.7-.5-1.9.6-3.9 2.5-4.4q2.4-.7 5.2-.6l2.5-.2c1.6-.8 3.6-.4 4.6 1.2 1.2 1.6.8 3.8-.8 5-1.5 1-3.5 1.1-6 1.2a19 19 0 0 0-4.5.5m-4.8-13.2q-.9 0-1.8-.5a3.6 3.6 0 0 1-1.3-5c1.5-2.4 4.2-3.9 6.4-5l1.7-1a3.6 3.6 0 1 1 4.8 5.3q-1.2 1.1-3 2a12 12 0 0 0-3.7 2.5 4 4 0 0 1-3 1.7m-91-9.8q-2 0-3.1-1.7l-11-18c-1-1.7-.6-3.9 1.1-5 1.7-1 4-.5 5 1.2l11 18c1.1 1.7.6 3.9-1.1 5q-1 .5-2 .5m8.4-13.4q-2.1-.1-3.2-2l-6.9-14.2a3.6 3.6 0 0 1 6.6-3.2l6.8 14.2a3.6 3.6 0 0 1-3.3 5.2M75.4 510.7q-1 0-2-.5l-1.6-.4q-1.4-.1-3-.7a47 47 0 0 1-24.5-28.5 55 55 0 0 1 1.7-32q.9-3 2-5.5a35 35 0 0 1-13-18.8c-.7-2.6-2.6-9.6-2.5-16.9 0-2 1.7-3.6 3.7-3.6s3.6 1.7 3.6 3.7a53 53 0 0 0 2.2 14.8 29 29 0 0 0 9.2 14.1 47 47 0 0 1 13.2-14c5.7-4.1 25.2-12.3 35-6.3 2.8 1.8 6 5.6 4.9 13.4-1.1 7.1-5.3 13-12 16.8a42 42 0 0 1-38.2.6l-1.2 3.6c-3 10.4-4.4 19-1.7 28 2.4 7.7 7 14.6 13.3 19.5q3.3 2.8 6.7 4.3l1.7.3q2.2.3 4.3 1.4a3.6 3.6 0 0 1-1.9 6.7m-18-70.2q1.7 1 3.8 1.7a35 35 0 0 0 27.5-2 16 16 0 0 0 8.5-11.8c.7-4.6-1-5.7-1.6-6-3.4-2.1-17.7-.8-27 5.9a40 40 0 0 0-11.3 12.2" style="fill:#eda9e1"/><path d="M53.9 513.5q-1.4 0-2.4-.9a3.6 3.6 0 0 1-.4-5.1l2.6-2.6c1.3-1.3 3-2.9 3.4-4 .6-2 2.6-3 4.5-2.4 2 .6 3 2.7 2.4 4.6-1 2.9-3.3 5-5.3 7l-2 2q-1.2 1.5-2.8 1.4m-6.7-10.3a3.6 3.6 0 0 1-2-6.7q4-2.7 4.5-4a3.6 3.6 0 0 1 6.5 3.1 19 19 0 0 1-7 7q-1 .6-2 .5m-20.6 14.5c-2.1 0-6-.9-8.2-6.8-3.6-10 3.5-18 11.3-24.1l-.2-.8-.4-1.8c-1.3-5.4-1-13.4-.6-20.4l.2-5.5c.1-2 1.7-3.6 3.8-3.5 2 0 3.5 1.7 3.5 3.7l-.3 5.7c-.3 6.3-.6 13.5.3 18l.9-.7q3.3-2.2 5.6-4c1.5-1.3 3.8-1 5 .5s1 3.8-.4 5a98 98 0 0 1-9.3 6.7c1 5 1.8 10.3 1 15-.8 5.7-5.7 12.4-11.4 13zm4.8-23c-5 4.5-8 9-6.2 13.7q.9 2 1.4 2c1.6 0 4.6-3.4 5.1-6.7q.6-4.1-.3-9" style="fill:#eda9e1"/><path d="M28.9 470.9h-9a3.6 3.6 0 0 1 0-7.3h9a3.6 3.6 0 0 1 0 7.3m-14.4 14.8q-2.6-.1-3.5-2.6c-.5-2 .6-4 2.5-4.5l16.6-5a3.6 3.6 0 0 1 2 7l-16.6 5zm392.6-61.1-4.7-5.4c-4.5-5.1-14-9.6-14-9.6-1.9-.9-2.7-3-1.8-4.8s3-2.6 4.8-1.8c.3.1 6.5 3 11.9 7.2 4.9-14 16-33.4 16.6-34.4a3.6 3.6 0 0 1 6.3 3.7c-.2.2-14.7 25.4-17.5 38.1z" style="fill:#eda9e1"/><path d="M380.1 476.3a3.6 3.6 0 0 1-.9-7.1s7.2-2 13.2-7.1c-5.5-21.8.4-39.3.7-40.1a3.6 3.6 0 0 1 4.6-2.2c1.9.6 2.9 2.7 2.2 4.5 0 .2-5.8 17.5 0 38l.7 2-1.6 1.5a45 45 0 0 1-18.9 10.5" style="fill:#faebd7"/><path d="M244.2 207.2c-1.6 0-3.1-1-3.5-2.7-5.3-20.3-.8-33.2 1.3-39.3v-.2c4.5-12.8 18-24.8 32-22q4 .8 7 2.4l1-.5a80 80 0 0 1 15.8-4.8q6-1.2 11.5-3.1c11.1-4 26.2-10.8 29.6-22.5 3-10.4-1-21.1-9.7-26-4.1-2.4-8.8-3-12.9-1.8q-5.4 1.6-8.2 7.3c-4 7.6 6.5 15.6 9.8 17.8a3.6 3.6 0 1 1-4.1 6c-12.1-8.3-16.7-18.4-12.2-27.1q4.4-8.3 12.6-10.9a24 24 0 0 1 18.5 2.4 29.5 29.5 0 0 1 13.1 34.4c-4.2 14.6-20.4 22.2-34 27.2a103 103 0 0 1-12.4 3.4q-6 1.3-11.5 3.1a23 23 0 0 1 5.8 21.7c-1.8 8-10.1 15.6-17.8 16.1-5.8.4-10.4-3-12.7-9.3-3.9-10.6 2.3-21.5 10.4-28.4l-1-.3c-10-2-20.3 7.4-23.7 17.3l-.1.2c-2 5.9-5.9 17-1.2 35.1a3.6 3.6 0 0 1-3.5 4.5m36.8-53.4c-7.2 5-14 14.1-11 22.4 1.8 5 4.6 4.7 5.5 4.7 4.4-.3 10-5.6 11.2-10.5q1.5-7.1-2-12.7a16 16 0 0 0-3.7-3.9" style="fill:#add5f8"/><path d="m276.4 263.5-1.4-.1q-5.6-.9-8.5-6.4c-3.7-7.1-.1-16 1-18.5a67 67 0 0 1 11.4-16.3c-3-7.3-8.6-15.1-14.6-19.7a80 80 0 0 0-19.1-11.5q-1.3 1.6-3.5 1.3c-2-.3-3.3-2.2-3-4.2q.7-3 3.4-4c5.9-2.4 19.2 7 26.7 12.7 6.2 4.8 12 12.3 15.5 20q6-5.6 13-9.7a3.6 3.6 0 1 1 3.7 6.2q-7.4 4.6-13.8 10.8l.7 2.9v.3c1.8 9 4.8 23.9-2.9 32.2q-3.8 4-8.6 4m4.8-32.9q-4.5 5.5-7 11c-1.7 3.5-3 8.7-1.3 12q1.3 2.3 3 2.6 2 .2 3.8-1.7c4.7-5 2.9-16.5 1.5-23.9m28.5-64.1c-2 0-3.7-1.6-3.7-3.6 0-7.3-1.5-12-4.7-15.4a3.6 3.6 0 1 1 5.2-5c6 6.2 6.8 14.6 6.8 20.4 0 2-1.6 3.6-3.6 3.6" style="fill:#add5f8"/><path d="M288 238.5a3.6 3.6 0 0 1-.7-7.1c12-2.8 17.3-6.8 22.9-17.1a3.6 3.6 0 1 1 6.3 3.4 36 36 0 0 1-28.4 20.8" style="fill:#add5f8"/><path d="M417.2 254.6a38 38 0 0 1-27.5-16.2l-1.5-3.1-2.5.4a39 39 0 0 1-38.7-15 62 62 0 0 1-7.2 6.4c-13.5 11.7-30.2 26-49.8 25-2 0-3.5-1.7-3.4-3.7s1.8-3.5 3.8-3.4c16.6.9 31.5-12 44.7-23.3l3.5-3 4.6-4.4a27 27 0 0 1-1.6-20.4c2.8-8.1 10-11.4 15.1-9.8 3.9 1.2 7.6 5.5 5.3 13.8-1.6 5.7-5.5 12-10 17.3q1.8 2.6 3.8 4.7 10.8 11.2 29 8.6l1.5-.2c-1.2-7.7.5-15.8 3.4-21.8 4-8.2 10-9 14-7.3 5.2 2.2 8.6 9.3 5.5 17.5-2.4 6.4-8 12.3-14.3 15.8l1 2c4 6.6 17.5 15.1 24.4 12.3 1.8-.8 4 0 4.7 2s0 3.9-2 4.7q-2.5 1-5.8 1m-17-48.9c-1.2 0-2.8 1.5-4 4a32 32 0 0 0-3 15.4c4-2.8 7.6-6.8 9.2-11s.2-7.5-1.5-8.2zM354 191c-1.5 0-4.3 1.6-5.5 5.4q-2 6 0 11.7 4.7-6.2 6.5-12c.7-2.7.5-4.7-.4-5zm-29.9-9.5q-1.2 0-2.1-.7a3.6 3.6 0 0 1-.8-5c4.2-5.7 1.2-28.8-3.6-37-1-1.7-.4-3.9 1.3-4.9s4-.4 5 1.3c5.2 9 10 35.4 3.1 44.9q-1.1 1.5-2.9 1.5m-67.7 37.7h-.4c-2-.3-3.4-2-3.2-4q.6-4.5 1.6-8.5 1.3-5 1.7-9.7c0-2 1.8-3.5 3.8-3.5 2 .1 3.5 1.8 3.4 3.8q-.5 5.7-1.8 11-1 4-1.5 7.7a3.6 3.6 0 0 1-3.6 3.2" style="fill:#add5f8"/><path d="M405.5 251.2q-.7 0-1.7-.5a3.6 3.6 0 0 1-1-5.6l20.2-26.2-14.8-23.6a3.6 3.6 0 0 1 6.2-3.8l17.4 27.9-1.5 2-11 14.2-7.5 9.7-2.5 3.2c-.9 1.2-2 2.7-3.8 2.7M250.3 381.7q-2.2 0-3.3-2.1c-.1-.3-13.5-29.7-23.5-53.8-27.7 16-24.9 41.4-24.9 41.6a3.6 3.6 0 0 1-7.1 1c-.1-.4-1-8.5 2.5-18.8 3.2-9.5 11-22.7 29.7-32.1l3.5-1.8 1.5 3.7c10 24.4 24.7 56.9 24.9 57.2a3.6 3.6 0 0 1-3.3 5.1m149.8 138.9h-76.6l11.3-23.2c.9-1.8 3-2.6 4.8-1.7s2.6 3 1.7 4.8l-6.2 12.9h57.8V500a3.6 3.6 0 0 1 7.2 0zM95.5 324.8h-.7c-11.8-2.5-23.3-14.6-28.3-24.9-8.7-18.1-5-37.8 1.5-55.7C51.3 233.4 45.7 214 41.4 195c-4.7-20.5-1.2-38.3 10-51.5C65 127.4 80 123 91.8 132c14 10.7 11 37.3 9.8 45.2-1.3 8.8-4.8 17-8.2 25l-1.1 2.8L77 241a41 41 0 0 0 37.7.9 74 74 0 0 0 13.4-9 79 79 0 0 1-7.6-17.6 65 65 0 0 1 3.2-48.5c3.8-7 11.3-14.3 19.5-15 3.5-.3 8.6.6 13 6.2 9.5 12 7.5 31 2.8 43.5a90 90 0 0 1-21.4 32.6q6.2 8.9 13.5 14.1 12.4 9 30-1.1l3.3-2-.7-9.6c-.5-11.6-.4-26.5 5.8-37.8 2-3.5 7.4-10.4 14-11 2.3-.1 5.7.4 8.5 4 8 10 3.5 23.8 2 27.8a72 72 0 0 1-22 30 56 56 0 0 0 6 19.6c3 5 6.4 8.8 8.6 9.4a3.6 3.6 0 0 1-1.8 7c-6-1.6-11-9.5-13-12.8a56 56 0 0 1-6.4-18.7l-.7.4q-21.5 12.2-37.8.8a64 64 0 0 1-14.8-15.2 82 82 0 0 1-14 9.4c-13 6.8-29 6.5-43.6-.5-5.8 16.1-8.9 33.4-1.4 49 4.1 8.5 14.1 19 23.1 20.8a3.6 3.6 0 0 1-.7 7.1M204.4 194h-.3c-2.6.2-6.5 4-8.2 7.2-5.4 9.7-5.5 23.3-5 34l.3 4.4a65 65 0 0 0 16-23.7c2.5-6.4 3.6-15.2-.8-20.8q-1.2-1.4-2-1.2M78.7 134.8c-9.6 0-18.7 9.6-21.8 13.3q-14.7 17.4-8.5 45.2c4 17.8 8.8 34.5 22.3 44l1.8-4.3c4.8-11.2 9.1-21.2 13-30.8l1.3-2.8a98 98 0 0 0 7.7-23.3c2-13.6 1.5-31.7-7.1-38.3a14 14 0 0 0-8.7-3m65.6 24.2h-.5c-5.2.4-11 6.1-13.8 11.2-7.3 13.3-6.1 31-2.6 43.1q2.3 7.4 6.2 14.5a83 83 0 0 0 18.6-28.8c4-10.8 6-26.8-1.7-36.5q-2.7-3.5-6.2-3.5" style="fill:#add5f8"/><path d="M81.7 313.9h-.3c-2-.1-3.6-1.9-3.4-3.8 0-2 1.8-3.5 3.7-3.5 1.1 0 4-2 5.3-2.8l2-1.3c1.8-1 4-.5 5 1.3 1 1.7.4 4-1.3 5l-1.7 1c-3.5 2.3-6.4 4-9.2 4m-10.7-14.5a3.6 3.6 0 0 1 0-7.2c1.3-.1 5.7-2 6.7-3a3.6 3.6 0 0 1 5-.2 3.7 3.7 0 0 1 .3 5.2c-2 2-8.7 5.2-12 5.2m-4.9-20.9c-1.5 0-3-1-3.5-2.5-.6-1.9.4-4 2.3-4.6q12.9-4.3 19.2-9.5a3.6 3.6 0 1 1 4.6 5.6 70 70 0 0 1-22.6 11" style="fill:#add5f8"/><path d="M70.2 330.1q-1 0-1.9-.5a38 38 0 0 1-10.7-13.2 80 80 0 0 1-9.8-22.6 114 114 0 0 1 1.7-50.1 3.6 3.6 0 0 1 7 2.1 106 106 0 0 0-1.5 46.7 72 72 0 0 0 9 20.3c1.3 2.4 4.8 8.5 8.2 10.6a3.6 3.6 0 0 1 1.1 5q-1.2 1.7-3 1.7" style="fill:#b8dfe2"/><path d="M34.8 284.2q-2.7-.2-3.5-2.7-2.9-11.5-.4-30.5c1-8.1 3.8-14.9 6.6-22.1l.4-1.1a3.6 3.6 0 0 1 6.8 2.6l-.5 1.1a84 84 0 0 0-6 48.2 3.6 3.6 0 0 1-3.4 4.5" style="fill:#eda9e1"/><path d="M219.4 245.9c-1.5 0-3-1-3.5-2.4q-3.2-9.1-7.7-11.4a3.6 3.6 0 1 1 3-6.5c6 2.8 9.6 10 11.6 15.5a3.6 3.6 0 0 1-3.4 4.8m16.1-9.5q-1.9 0-3-1.7l-.6-.9c-4.9-7.4-9.5-14.4-18-15.7a3.6 3.6 0 1 1 1-7.2c11.8 1.8 17.8 11 23 19l.7.9a3.6 3.6 0 0 1-3 5.6" style="fill:#add5f8"/><path d="M151.4 243.2q-1 0-2-.6a3.6 3.6 0 0 1-1-5c1.9-2.7 3.2-6.6 3.3-10a3.6 3.6 0 0 1 7.2.3 28 28 0 0 1-4.5 13.7q-1.1 1.6-3 1.6" style="fill:#eda9e1"/><path d="M165.6 248.4q-.7 0-1.3-.3a3.6 3.6 0 0 1-2.1-4.6 56 56 0 0 0 2.3-18 3.6 3.6 0 0 1 7.2 0c0 6-.3 14-2.7 20.5-.6 1.4-2 2.4-3.4 2.4M21.2 199.7a3.6 3.6 0 0 1-1.3-7l4.7-2a50 50 0 0 1 17.5-5.3 3.6 3.6 0 0 1 .5 7.2c-5.5.4-10.1 2.5-15 4.7l-5 2.1zm56.9-66.9a3.6 3.6 0 0 1-3.6-3.3l-2.3-25.1a3.6 3.6 0 0 1 7.2-.7l2.3 25.1c.2 2-1.3 3.8-3.2 4zm11.9 1.9q-1 0-1.9-.5a3.6 3.6 0 0 1-1.2-5l13.2-21.4a3.6 3.6 0 0 1 6.2 3.7L93 133a4 4 0 0 1-3.1 1.7" style="fill:#add5f8"/><circle cx="14.5" cy="109.8" r="4.3" style="fill:#add5f8"/><circle cx="43.6" cy="134.6" r="4.3" style="fill:#faebd7"/><circle cx="109.3" cy="175.9" r="4.3" style="fill:#abaef3"/><circle cx="14.7" cy="185" r="4.3" style="fill:#efd3f6"/><circle cx="96.8" cy="29.2" r="4.3" style="fill:#adacef"/><circle cx="112.2" cy="29.2" r="4.3" style="fill:#b8dfe2"/><circle cx="127.6" cy="29.2" r="4.3" style="fill:#add5f8"/><circle cx="189.2" cy="35.1" r="4.3" style="fill:#e9a2d1"/><circle cx="344.3" cy="63" r="4.3" style="fill:#eebad3"/><circle cx="416.9" cy="87.1" r="4.3" style="fill:#e7ecda"/><circle cx="483.6" cy="148.8" r="4.3" style="fill:#e7ecda"/><circle cx="408.4" cy="129.8" r="4.3" style="fill:#efd3f6"/><circle cx="475.7" cy="177.2" r="4.3" style="fill:#efd3f6"/><circle cx="479.8" cy="244.4" r="4.3" style="fill:#add5f8"/><circle cx="469.5" cy="322.7" r="4.3" style="fill:#efd3f6"/><circle cx="464.8" cy="470.5" r="4.3" style="fill:#adacef"/><circle cx="469.4" cy="483.4" r="4.3" style="fill:#faebd7"/><circle cx="384.4" cy="503.7" r="4.3" style="fill:#faebd7"/><circle cx="368.1" cy="503.7" r="4.3" style="fill:#b8dfe2"/><circle cx="267.9" cy="514" r="4.3" style="fill:#abaef3"/><circle cx="298.5" cy="485.9" r="4.3" style="fill:#faebd7"/><circle cx="262.1" cy="437.6" r="4.3" style="fill:#abaef3"/><circle cx="332.2" cy="387.2" r="4.3" style="fill:#faebd7"/><circle cx="207.6" cy="388.8" r="4.3" style="fill:#b8dfe2"/><circle cx="209.9" cy="406.7" r="4.3" style="fill:#efd3f6"/><circle cx="206.1" cy="425.7" r="4.3" style="fill:#abaef3"/><circle cx="182.8" cy="401.6" r="4.3" style="fill:#efd3f6"/><circle cx="153.3" cy="472.7" r="4.3" style="fill:#efd3f6"/><circle cx="9.8" cy="495.5" r="4.3" style="fill:#abaef3"/><circle cx="20.4" cy="452.7" r="4.3" style="fill:#efd3f6"/><circle cx="13.7" cy="383.7" r="4.3" style="fill:#faebd7"/><circle cx="78.7" cy="336" r="4.3" style="fill:#efd3f6"/><circle cx="120.6" cy="302.6" r="4.3" style="fill:#efd3f6"/><circle cx="195.8" cy="514" r="4.3" style="fill:#faebd7"/><circle cx="436.1" cy="514.8" r="4.3" style="fill:#adacef"/><circle cx="385" cy="312.9" r="4.3" style="fill:#efd3f6"/><circle cx="383.6" cy="329.5" r="4.3" style="fill:#adacef"/><circle cx="460.1" cy="29.2" r="4.3" style="fill:#e9a2d1"/><path d="m505.5 62-13.8-.4c-2 0-3.6-1.7-3.5-3.7s1.7-3.6 3.7-3.5l6.4.1v-27a3.6 3.6 0 0 1 7.2 0z" style="fill:#b8dfe2"/><path d="M476.1 123.5q-.8 0-1.4-.3c-1.9-.8-2.7-3-1.9-4.8l17.7-40.1A34 34 0 0 1 476 62.7l-.4.4-6.7 5.9 2 3.4c2.8 4.9 5.7 10 7.6 15.4l1 3-2.7 1.4a46 46 0 0 1-22.3 3.6l-2.2-.3-.7-2.1c-3.3-10.2 1.4-18.5 8.3-25.8l-2.4-5.2c-4.1-10.4-9.8-21-16.5-30.4a3.6 3.6 0 1 1 6-4.2 156 156 0 0 1 18.4 34.5l5.6-4.8 1.6-1.4c-6-12.2-4.4-22.7 4.4-28q4.3-2.6 8.8-1.1 4.8 1.7 7 6.9c2.4 6.2-1 11.4-2.9 14.6q-3.2 4.8-8.3 9.3c3.6 7 7.4 12.6 14.8 15l3.8 1.4-20.8 47.1c-.6 1.4-2 2.2-3.3 2.2M458 88.8c3.8 0 8.9-.7 12.5-1.8a110 110 0 0 0-5.8-11l-1-1.6c-4 4.5-6.4 9.3-5.7 14.5m24.7-55.1q-.9 0-1.8.5c-6.6 4-4.5 12.1-2.5 16.9a35 35 0 0 0 5.5-6.4c2.2-3.6 3.2-5.8 2.2-8.2q-.8-2-2.5-2.7z" style="fill:#faebd7"/><path d="m438.6 59.6-17.6-32a3.6 3.6 0 0 1 6.4-3.5l14 25.5 10.9-6.3c1.7-1 4-.4 5 1.3s.4 4-1.4 5zm59.4 53.2q-1 0-2-.6l-11.7-7.7a3.6 3.6 0 1 1 4-6l11.7 7.7a3.6 3.6 0 0 1-2 6.6m4.1-14.2q-1 0-1.7-.4l-11.6-6.5a3.6 3.6 0 0 1 3.6-6.3l11.5 6.4a3.6 3.6 0 0 1-1.8 6.8" style="fill:#faebd7"/><path d="M434.6 299.4h-.2c-2-.1-3.5-1.8-3.4-3.8.7-12.2 8.9-20 16.8-27.5 6.3-6 12.2-11.6 14.1-19 1.7-6.3.4-13.4-3.1-17.2a10 10 0 0 0-8.8-2.8c2.2 13 2.5 24.5-2.5 30.2a11 11 0 0 1-9 3.6q-5.6-.5-8.8-5c-3-4-3.8-10.2-2.3-15.7a31 31 0 0 1 14.4-18l-1.3-6.1-.8-3.5-.2-1.1q-1.4-6.3-2.1-13.4-3.2-.9-6.2-3a55 55 0 0 1-18.9-25.3q-4.6 3.2-8.6 6.9a84 84 0 0 0-25.6 36 3.6 3.6 0 0 1-4.6 2.2 3.6 3.6 0 0 1-2.2-4.6 91 91 0 0 1 27.5-39q5.4-4.7 11.2-8.7l-.4-1.5a31 31 0 0 1 7-27c2.9-3.2 9.4-7.6 15.3-6.4q5.3 1.1 7.2 6.8c3 8.6-5.5 17.4-10 22q-5 5-10.7 9A49 49 0 0 0 435 191l2 1.2c.5-8 3.3-15.7 11.3-21 4.6-3.1 10-3.4 14.1-.7s5.7 7.4 4.6 12.7c-1.7 9-10.9 15.6-18.6 17.3q-1.9.5-3.8.5.8 5.6 1.9 11l.2 1 1.8 8.8c6-.9 11.5 1 15.4 5a26 26 0 0 1 4.9 24c-2.5 9.5-9.4 16-16.2 22.4-7.2 6.9-14 13.3-14.5 22.7a3.6 3.6 0 0 1-3.6 3.4m8.6-67.5c-4 2.9-7.6 7.5-8.8 12.2-1 3.3-.4 7.3 1.2 9.5q1.3 1.9 3.4 2 2.5 0 3.1-1c3.1-3.6 2.4-13.7 1-22.7m13-56a7 7 0 0 0-3.7 1.3c-6 4-8 10-8.1 16.6q1.3 0 2.6-.3c5.4-1.2 12-6.2 13-11.7q.8-3.6-1.5-5.2-1-.6-2.3-.6m-26.4-39.2c-2.2 0-5.7 1.8-7.8 4.2a24 24 0 0 0-5.6 19q4-3 7.5-6.5c3-3 10-10.2 8.4-14.6-.6-1.8-1.4-2-1.8-2z" style="fill:#b8dfe2"/><path d="M460 230.7q-1.5 0-2.5-1a3.6 3.6 0 0 1-.2-5 58 58 0 0 0 11-18.4 3.6 3.6 0 0 1 6.7 2.6 63 63 0 0 1-12.4 20.6q-1.1 1.2-2.6 1.2" style="fill:#b8dfe2"/><path d="M481.9 272.6q-2.2 0-3.3-2c-.9-1.8-.1-4 1.6-4.9 7.3-3.6 8.3-14 8.3-24.6q-.1-9.1-2.2-16.7a46 46 0 0 1-17.6 15.7 3.6 3.6 0 0 1-2.9-6.6 46 46 0 0 0 17.9-18.2l-1-3.4-.7-2.1q-6-18.5-.5-24.4c1.5-1.6 4.2-3.3 9-2.3q4.8 1.1 6.8 5.5c4.2 9.7-5.4 27.1-5.5 27.3l-.2.4a82 82 0 0 1 4.1 24.8c0 8.1 0 25-12.2 31.1q-.7.4-1.6.4m5.8-82.6q-.6 0-.8.3c-.1 0-2.4 2.8 1.5 15.8 2-5.2 3.6-11.6 2.3-14.5q-.3-1-1.8-1.4z" style="fill:#b8dfe2"/><path d="M491.1 291.6a3.6 3.6 0 0 1-1.9-6.7c1.9-1.1 3.4-6 2.8-11.4-.4-3.8-1.8-6.9-3.5-7.4a3.6 3.6 0 1 1 2.3-6.9c4.6 1.6 7.6 6.5 8.4 13.5.8 6.8-.8 15.1-6.2 18.4q-.9.5-1.9.5m-54.5-.3a3.6 3.6 0 0 1-3.6-3c-.5-3.3-9.6-11.3-14.2-13.7a3.6 3.6 0 0 1 3.4-6.4c4.5 2.3 16.8 11.6 18 18.9a3.6 3.6 0 0 1-3.6 4.2M454 228c-2 0-3.6-1.6-3.6-3.6v-12.9a3.6 3.6 0 0 1 7.2 0v13c0 2-1.6 3.6-3.6 3.6m-59.4-45.2q-2 0-3-1.7l-13.7-21.4-25-4.7a3.6 3.6 0 0 1 1.3-7.1l28.2 5.2 15.3 24.1a3.6 3.6 0 0 1-3 5.6m96.6 50.5q-1.5 0-2.5-1.6a3.6 3.6 0 0 1 2.2-5.5l9-3.7c1.9-.8 4 .1 4.8 2s-.1 4-2 4.7l-4.8 2q-5 2.1-6.7 2.2m11.1 18.6h-.6l-10-1.7a3.6 3.6 0 0 1 1.1-7.1l10 1.7a3.6 3.6 0 0 1-.5 7.1" style="fill:#b8dfe2"/><path d="M365.8 460.4q-2.3 0-4.7-1.1a15 15 0 0 1-8-15c1-10.8 6.2-20 12-28.7a30 30 0 0 0-14.8-10.3v6a23 23 0 0 1-9.5 17.6c-3 1.8-7.8 3.5-14 .8-6.7-2.9-8-7.7-8.1-10.3-.5-7 5.1-14.1 11-17.7q6.2-3.8 13.2-4.3a386 386 0 0 0-1.7-19l-.6-6.3q-1.6 1.2-3.3 2.2l-.3.3c-4.4 2.8-9 5.8-14.7 6.8a3.6 3.6 0 0 1-1.2-7.1c4.2-.8 8-3.2 11.9-5.8l.3-.2q3.5-2.2 6.5-4.8-.7-9.4-.4-19c.3-7.2 1.4-17.7 5.5-27.4 2.4-5.9 9.6-14.9 17.2-15.4 2.3-.1 6.8.4 10 6 6.3 10.9-2.2 27.2-6.7 36l-.2.2a81 81 0 0 1-17.9 22.7l1 11a384 384 0 0 1 1.8 20.2q2.7.5 5.4 1.6 7.9 3.1 13.7 10 4.6-6.6 7.9-13A28 28 0 0 1 364 388a21 21 0 0 1-6.2-14.5c.3-5.7 3.5-10.1 8.6-11.9 5.9-2 12.9 0 17 4.7q7.4 8.6 4.2 22.3c6.8-2 13.5-7 15.3-13.4 1.9-6.6.6-13.5-3.4-18.8a20 20 0 0 0-16.2-8.2c-2 0-3.6-1.6-3.5-3.7 0-2 1.6-3.5 3.6-3.5 8.7 0 16.7 4 22 11 5.3 7.2 7 16.4 4.5 25.1-3 10.7-14.5 18-25 19.5-2.8 6.6-7 12.7-11 18.7l-.2.3q2.8 4.7 4.3 10.2c2.2 8 4.7 22.9-3.7 30.8a12 12 0 0 1-8.5 3.7m3.4-37.9a50 50 0 0 0-8.8 22.4c-.3 3.6 1.7 6.8 3.8 7.8q2.5 1.2 5.1-1.3c6-5.6 3.2-18.4 1.8-23.7a35 35 0 0 0-1.9-5.2m-26-17.9q-4.6.3-9.8 3.3c-4.3 2.6-7.7 7.6-7.5 11 0 .6.2 2.6 3.8 4.1q4 1.8 7.2-.3c3.3-2 5.9-7 6.1-11.7zm28.1-36.5q-1.2 0-2.5.4c-1.6.6-3.6 2-3.8 5.4-.1 2.7 1.5 6.1 4.4 9.3 3.1 3.4 7.3 6 10.5 6.4 1.7-5.5 2.8-13.2-1.9-18.6a9 9 0 0 0-6.7-3m-8.4-59.2h-.3c-3.6.2-9 6.2-11 11a74 74 0 0 0-5 24.8 145 145 0 0 0 .1 12.5q7.5-7.7 12.2-16.7l.1-.2c3.6-7 11.2-21.6 7-28.9-1.4-2.3-2.5-2.5-3.1-2.5" style="fill:#abaef3"/><path d="M453 512.5c-7.7 0-12.6-5-16.6-9a59 59 0 0 1-15.9-31.1l-.6-.5-2.9-2a55 55 0 0 1-25.6 21.4c-14 6.3-40.1 5.4-49-10.2a3.6 3.6 0 0 1 6.3-3.6c6.5 11.6 28.3 12.3 39.8 7.2a50 50 0 0 0 22.8-19.4c-5.7-5-10.3-11.4-10-20.7.3-8.2 4.1-14.1 9.6-14.7 1.9-.1 8.3 0 11 11.3a38 38 0 0 1-1.7 22l4 2.9c6.6 4.7 13.3 8 20.3 11.5l2.2 1c7.5 3.8 19 9.4 20.2 20.2.9 7.3-3.6 12.6-11.4 13.6zm-23.8-34.7c2.3 7.3 7 15.1 12.3 20.6 4.6 4.7 7.7 7.5 13 6.8 5.8-.7 5.4-4.4 5.2-5.5-.8-7-9.7-11.3-16.2-14.5l-2.2-1.1q-6.1-3-12.1-6.3M411.6 437c-.8.1-2.9 2.5-3 7.7-.2 5.7 2.1 9.9 5.8 13.5a29 29 0 0 0 .5-15.4c-1.1-4.4-2.7-5.8-3.3-5.8" style="fill:#abaef3"/><path d="M423 512.9q-1.4 0-2.6-1a3.6 3.6 0 0 1 .1-5.2c.4-.4 1.2-1.6 1.8-2.6 2.4-3.6 5.5-8.4 10.8-8.8 2 0 3.7 1.4 3.9 3.4 0 2-1.4 3.7-3.4 3.9-1.7 0-3.8 3.3-5.2 5.4q-1.4 2.4-2.8 3.9-1.1 1-2.6 1m-14.4-2.6q-1 0-1.8-.5a3.6 3.6 0 0 1-1.4-4.9l2.6-4.9c3.4-6.5 6.6-12.7 15.3-17.6a3.6 3.6 0 1 1 3.6 6.3c-6.8 3.8-9.2 8.3-12.4 14.6l-2.8 5.2a4 4 0 0 1-3.1 1.8m-61 2.1h-.2c-2-.1-3.5-1.8-3.4-3.8.4-6.8 1.4-15.3 6.5-21.3a3.6 3.6 0 0 1 5.6 4.7c-3.8 4.4-4.6 11.8-4.9 17 0 2-1.7 3.4-3.6 3.4M149 132.3c-4.3 0-10-1.8-17.7-7.2a46 46 0 0 1-13.5-19.7l-2.5-5.6-.2-.4c-3.5-6.9-8.8-17.4-16-19.7A12 12 0 0 0 89 81.3a7 7 0 0 0-3.1 5.7c0 2.6 1.8 7 4.5 9.2 1.6 1.2 2.6 1 2.9.9a3.6 3.6 0 1 1 1.7 7q-4.6 1.1-9-2.2a21 21 0 0 1-7.4-15q.1-7 6.1-11.5a19 19 0 0 1 16.5-2.6c10.1 3.3 16.3 15.4 20.3 23.4l.2.3 2.7 5.9c3 6.5 6 13.2 11 16.8 3.8 2.6 12.8 8.3 17 4.8a3.6 3.6 0 0 1 4.7 5.6 12 12 0 0 1-8 2.7" style="fill:#abaef3"/><path d="m107.5 131.7-1.2-.1a3.6 3.6 0 0 1-2.2-4.6c2-6.2 6-12.2 9.8-18l4.3-6.8 3.5-6.3a66 66 0 0 1 12.8-18.7 3.6 3.6 0 0 1 4.7 5.5 60 60 0 0 0-11.1 16.6l-3.7 6.6q-2 3.5-4.5 7.1c-3.5 5.4-7.2 11-9 16.3q-1 2.4-3.4 2.5m222.9 83.3c-1.5 0-3-1-3.4-2.5-4.5-14.2 3.4-30 13.6-38.2 11.3-9.2 29.6-5.7 39.5 3.3a3.6 3.6 0 0 1 .2 5 3.6 3.6 0 0 1-5 .3c-7.6-6.9-21.8-9.8-30.2-3-8 6.5-14.7 19.4-11.2 30.4a3.6 3.6 0 0 1-3.5 4.7" style="fill:#abaef3"/><path d="M344 176.2q-1.7 0-2.9-1.5c-7.8-11-1.4-35 2.6-43.3l2.2-4.4a278 278 0 0 1 23-40.7c-1.5-5.1-3-10.5-2.6-16.5 0-.2.7-13 7.7-16.3 1.6-.8 5-1.6 9 1.6 9.5 7.2 1 22.3-6 32.4l2.5 8.6q4.4-5.7 8.8-10.3l2.4-2.3c-1.2-6-1.6-14.5 1-20 3-6.5 9-8.4 13.3-7 4 1.4 7.2 5.6 5.8 12-1.4 6.9-6.9 12.4-12.1 17.4a27 27 0 0 0 11.5 16.1q5.7 3 12.5.4c6.6-2.6 15.2-13.6 15.1-21.3q0-4.7-5.2-6.5-3.4-1.2-6-.4a3.6 3.6 0 1 1-2.4-6.8c3.1-1.1 7-1 10.8.4 6.4 2.3 10 7 10 13.2.2 10.8-10.6 24.5-19.6 28.1-6.5 2.6-13 2.4-18.6-.6a33 33 0 0 1-13.8-17q-5.5 5.7-11.3 13.8l2 9.3a35 35 0 0 1 1.1 17.9c-1.7 5.8-5.4 9-9.8 9-4.7-.2-8.8-4.4-10.1-10.5-2-9.1 3-18 8-25.7l1-1.5q-1-4.5-2.2-8.8c-7.5 11-13.5 23.3-19.3 35.2l-2.1 4.4c-4 8.3-8.5 28.6-3.3 35.9a3.6 3.6 0 0 1-3 5.7m32.1-62.4c-3 5.2-5.3 10.7-4.2 15.6.7 3.2 2.4 4.8 3.3 4.8s2-1.3 2.7-3.8c1.2-4 0-9.2-1.2-14.1zm1-53.8c-1.6.7-3.4 6-3.6 10.1q-.1 4.2.8 8.2 8.6-14.2 4.3-17.5-1-.8-1.5-.8m25 3.4c-1.2 0-2.8 1-3.8 3.1a24 24 0 0 0-1.2 10.8c3.2-3.3 6-6.7 6.6-10.2.2-.7.6-3.2-1-3.7z" style="fill:#abaef3"/><path d="M444 114.3c-2 0-3.6-1.6-3.7-3.5 0-2.9-2.5-7.3-4.6-7.5s-3.4-2-3.2-4c.3-2 2-3.5 4-3.2 6.7.7 11 8.9 11 14.5.1 2-1.5 3.6-3.5 3.7M96.5 239.2a3.6 3.6 0 0 1-.7-7.2q7.2-1.5 13.4-4.3a51 51 0 0 1-4.7-38 3.6 3.6 0 0 1 4.7-2.1c1.8.7 2.8 2.7 2.1 4.6a43 43 0 0 0 6 34.7l2.6 3.4-3.8 2a67 67 0 0 1-19.7 6.8" style="fill:#abaef3"/><path d="M97.8 225.8a3.6 3.6 0 0 1-.3-7.2q1.2-.1 2.9-1c1.8-.9 4-1.9 6.8-1.7 2 0 3.5 1.8 3.4 3.7 0 2-1.7 3.6-3.7 3.5q-1.4 0-3.5 1c-2 1-3.1 1.5-5.2 1.7zM338.7 56.1l-12.6-18L306 55.6l-8.3-18-21 14-11-20c-1-1.7-.3-4 1.4-4.9 1.8-1 4-.3 5 1.4l7.1 13.2 21.5-14.5 7.8 17 19-16.5 10 14.2 4.8-10.8c.8-1.8 3-2.6 4.8-1.8s2.6 3 1.8 4.8zm-32.2 465.8-5-19.2-26 16.4 7.6-34.4c.4-2 2.4-3.1 4.3-2.7 2 .4 3.2 2.4 2.8 4.3l-4 17.4 20-12.5 4 15.8 19.8-22a3.6 3.6 0 0 1 5.1-.3 3.6 3.6 0 0 1 .3 5.1zm-270-224.6H12l.2-3.8c.2-6.6 2.7-61.7 17.7-79l-5-5.7c-1.2-1.5-1-3.8.4-5s3.8-1.2 5.1.3l9.8 11.3-3.1 2.3c-3.4 2.6-10 11.4-14.4 41.7a356 356 0 0 0-3.1 30.6h17a3.6 3.6 0 0 1 0 7.3z" style="fill:#abaef3"/><path d="M26 227.2q-1.3 0-2.4-.9l-8.8-8a3.6 3.6 0 1 1 4.9-5.3l8.8 8a3.6 3.6 0 0 1-2.5 6.2m168.3 260.5q-1.5 0-2.6-1.1-11.7-12.3-6.7-40.3a158 158 0 0 1 3.4-14.2 83 83 0 0 0 4.1-22.3q.1-18-13.1-29.4c-1.7 9.3-5.5 21.7-14 27.1-8.1 5.2-17.2 3.7-22.6-3.5-4.8-6.5-2.7-14.4-.7-19.8 3-7.8 9.1-13.8 16.6-16.2a23 23 0 0 1 14.8.2V367q.2-5.5.1-11c0-9.7 0-19.8 2.2-29.5 1.6-7.4 8.6-25.6 18.2-31.5q5-2.8 10-1.5c4.5 1.2 6.3 4 7 6 2.4 7.3-4.3 17.1-10.7 25.7l-1.4 1.8a144 144 0 0 0-18.1 40.7l-.1 1.9-.2 2.6a44 44 0 0 1 19.3 37.8c0 8.5-2.3 16.4-4.4 24.1q-2 6.7-3.3 13.5c-2.8 16-1.2 27.8 4.9 34a3.6 3.6 0 0 1-2.6 6.1M165.8 374q-2.4 0-4.9.8a19 19 0 0 0-12 11.8c-2.3 6.2-2.4 10.2-.3 13 4.5 6 10.5 3.2 12.9 1.7 6.1-3.8 9.9-15 11.3-25.6a16 16 0 0 0-7-1.7m35-73.9q-1.2-.1-3 1c-6.9 4-13.3 19.4-15 26.8a91 91 0 0 0-1.9 17.3 124 124 0 0 1 13.6-24.5q11-14.7 9.6-19c0-.2-.3-1-2.1-1.4z" style="fill:#abaef3"/><path d="M190 304.6q-1.8 0-3-1.6a21 21 0 0 1-4.4-13.2c0-2 1.7-3.6 3.7-3.5 2 0 3.6 1.7 3.6 3.7-.2 3.4 1 5.8 3.1 9 1.1 1.6.7 3.8-1 5q-1 .6-2 .6m-7.8 11.9q-1.6 0-2.7-1.3c-7-7.7-12.6-15-12.9-26.4 0-2 1.6-3.6 3.6-3.7s3.6 1.5 3.7 3.5c.2 9 4.7 14.7 11 21.8a3.6 3.6 0 0 1-2.7 6m28.6-12a3.6 3.6 0 0 1-1-7l14.1-4.3a3.6 3.6 0 0 1 2 7l-14.1 4.1q-.6.3-1 .2m106.7 39.3-1-.1c-3.3-1-7.7-1-12-1h-1.2a3.6 3.6 0 0 1 0-7.2h1.2c4.8 0 9.7 0 14 1.2a3.6 3.6 0 0 1-1 7" style="fill:#abaef3"/><path d="m323.5 364.5-21.1-3.6a3.6 3.6 0 0 1 1.1-7.1l12.4 2c.4-8.5 3.2-28.1 18.7-50.5 1.1-1.6 3.4-2 5-1a4 4 0 0 1 1 5.1c-19 27.4-17.5 50.3-17.4 50.5z" style="fill:#abaef3"/><path d="M159.8 318.2q-1.3 0-2.4-1a50 50 0 0 1-12.2-22l-11 11.8-12.4-21.1-17 15.8-12.6-25a3.6 3.6 0 1 1 6.4-3.2l8.3 16.4 16.5-15.5 12.1 20.5 13.8-14.7 1.3 7c0 .1 3.5 17.5 11.6 24.6a3.6 3.6 0 0 1-2.4 6.4" style="fill:#eda9e1"/><path d="M305.9 381.3c-7.8 0-14.2-4.2-18.1-12a53 53 0 0 1-4.5-17.1c-1.8-13.6-3.3-24-4.9-34l-.2-1.2a83 83 0 0 0-3.7-16.3q-2.3-6.2-6.2-9.4c-1.8-1.4-4.4-2.6-6.2-1.7-1.2.5-2.2 2.3-2.4 4.2q-.1 3.3.8 7 .9 3.4 1 7.4c0 5.1-.9 12-5.4 15.6-1.8 1.4-5 3-9.8 1.7-8.8-2-10.4-11.6-11.3-18l-.4-2.2c-3.5-19.2-.2-44.3 15-57.2a3.6 3.6 0 0 1 4.7 5.5c-13 11-15.6 33.8-12.6 50.4l.4 2.4c1 6.3 2 11.2 5.9 12.1 2.1.5 3 0 3.6-.4 1.7-1.3 2.7-5.1 2.7-10q0-2.7-.9-5.8c-.6-3-1.2-6-.9-9.2.5-4.6 3-8.4 6.6-10.1 4.9-2.3 10.3-.1 13.7 2.7q5.5 4.5 8.5 12.4a89 89 0 0 1 4 17.7l.3 1.2c1.6 10 3 20.5 4.9 34.2.6 5 1.4 10.2 3.7 14.7q4.6 9 13.7 8c2-.2 3.7 1.2 4 3.1s-1.2 3.8-3.1 4z" style="fill:#faebd7"/><path d="M238.3 272.5c-7-.1-10.5-10.3-11.7-14.7a3.6 3.6 0 1 1 7-1.9c1.5 5.4 3.8 9 4.9 9.4 2 0 3.5 1.7 3.5 3.7s-1.7 3.5-3.7 3.5m-3.5 14.3c-14.4-.5-20.7-13.3-25.4-22.6q-.9-2-1.9-3.7c-.9-1.8-.2-4 1.6-5 1.7-.8 4-.1 4.8 1.6l2 3.9c4.4 9 9 18.2 19 18.6a3.6 3.6 0 0 1 0 7.2m35.5 44.2a3.6 3.6 0 0 1-2.2-6.5l10.6-7.6a3.6 3.6 0 0 1 4.2 5.9l-10.5 7.5q-1 .7-2.1.7m8.6 22.5a3.6 3.6 0 0 1-1.7-6.8l5.2-2.7a3.6 3.6 0 0 1 3.4 6.3l-5.2 2.8q-.8.4-1.7.4" style="fill:#faebd7"/></g><path d="M101.6 514.9C105.8 483.2 135 432 135 432c-11.4 12-33.7 56-40.9 82.5 5 .3 4.3.1 7.6.3M376.1 432s29 51 33.3 82.8c3.3-.2 2.6 0 7.6-.3-7.2-26.5-29.5-70.5-40.9-82.5" style="fill:#c7e8ff"/><g data-name="u hoodie"><path d="M258.6 435.4a73 73 0 0 1-38.9-11c-1-.7-1.2-2-.6-3s1.9-1.1 2.8-.5a68 68 0 0 0 71.6.3 2 2 0 0 1 2.8.5 2 2 0 0 1-.5 2.9 66 66 0 0 1-37.2 10.8m86.7 60h-.4q-1.6-.6-1.4-2.2c2.2-10 8.6-23.4 20-31.1q1.6-.7 2.6.5c.5.8.3 2-.5 2.5a48 48 0 0 0-18.6 28.8q-.4 1.4-1.7 1.5m49.8-33.7q-.8 0-1.4-.7c-2.4-3-9.4-6.2-17.8-1.6-.8.5-2 .2-2.4-.7-.5-.9-.1-2 .7-2.4 9.1-5 18.3-2.5 22.3 2.4a1.8 1.8 0 0 1-1.4 3M92.8 519.1h-.7a2.6 2.6 0 0 1-1.7-3.2 380 380 0 0 1 36.5-79c5.6-8.7 18.4-22.7 33.4-32.8a2.6 2.6 0 1 1 2.8 4.2 128 128 0 0 0-31.9 31.4 373 373 0 0 0-36 77.6 3 3 0 0 1-2.4 1.8m76.5 8.5q-2-.2-2.3-2c-2.9-28.4-10-50.5-13.9-61.1-.4-1.2.2-2.5 1.4-3s2.5.2 3 1.4a259 259 0 0 1 14 62.2q.1 2.1-2 2.5z" style="fill:#3a3880"/><path d="M344 518.7q-2-.2-2.2-2.3c-.5-30.3 6.1-48.6 8.1-53.4a2.3 2.3 0 1 1 4.3 1.8c-2 4.6-8.3 22.1-7.8 51.6 0 1.2-1 2.3-2.3 2.3" style="fill:#3a3880"/></g><path d="M257.3 421.3q-1.4 0-2.2-1a94 94 0 0 0-30.5-28.1l-15.4-8.4c-16.7-9-39.6-21.3-53.3-31.9q-15.5-11.8-23.3-21.7c-9-11.2-11.8-29.9-12.4-35.4-.2-1.4.8-2.7 2.2-2.8s2.7.8 2.9 2.2a70 70 0 0 0 11.3 32.8q7.5 9.3 22.4 20.8a434 434 0 0 0 52.7 31.4l15.4 8.5a99 99 0 0 1 32.3 29.6 2.6 2.6 0 0 1-2.1 4" style="fill:#3a3880"/><path d="M93.4 327.2c7.6 27 24.6 38.2 62.6 60.5-24.3-7.6-55.1-19.9-67.2-44.3-13-26.5-6.4-62.1 2.6-90 2 8.8-5.7 46.9 2 73.8m330.5-3.4c-7.2 27-25.5 38.2-63.6 60.5 24.4-7.6 55.9-20.3 68-44.6 13-26.5 5.3-58.2-3.7-86.1-.5 13.9 7.2 40.2-.7 70.2" style="fill:#c7e8ff"/><path d="m178.1 401.7-1.1-.2-3-1.5q-7.2-3.8-18.7-8.8l-2.3-1c-10-4.2-28.6-12-45.8-23.4-26-17-28.5-38.4-27.4-59 .8-14.4 3.4-42 11.6-64.2.5-1.3 2-2 3.3-1.5s2 2 1.5 3.3C88.2 267 85.7 294 85 308.1c-1 19 1.3 38.8 25.1 54.5 16.8 11 35.2 18.8 45 23l2.4 1a329 329 0 0 1 19 8.9l2.9 1.4a2.6 2.6 0 0 1-1.2 4.9m78.8 21q-.6 0-1.3-.3a2.6 2.6 0 0 1-1-3.5 85 85 0 0 1 26.9-28.6c4.4-3 12.2-7.4 21.2-12.6a579 579 0 0 0 48.5-30l2.8-2c18.7-13.8 33.5-24.7 35-39.8a2.6 2.6 0 0 1 2.9-2.3q2.3.5 2.3 2.8c-1.9 17.4-17.5 28.9-37.2 43.3l-2.8 2.1c-13.2 9.7-33 21.1-49 30.3-8.9 5.2-16.6 9.6-21 12.5a79 79 0 0 0-25.1 26.8q-.8 1.3-2.2 1.3" style="fill:#3a3880"/><path d="M162.8 409.7c-1.2 0-2.3-.9-2.5-2.1a12 12 0 0 1 8.6-14c1.3-.3 2.8.4 3.2 1.8s-.4 2.8-1.7 3.2c-3.7 1.1-5.8 4.4-5.1 8a2.6 2.6 0 0 1-2.5 3.1m256.4 109.4q-1.9 0-2.5-1.8c-7.5-25.7-26-62.2-36-77.6-5.4-8.5-18.1-22-31.8-31.4a2.6 2.6 0 0 1 2.8-4.2c15 10.1 27.8 24.1 33.4 32.8a379 379 0 0 1 36.5 79 2.6 2.6 0 0 1-2.4 3.2" style="fill:#3a3880"/><path d="M349.2 409.7h-.4a2.6 2.6 0 0 1-2-3 7 7 0 0 0-5.2-8.1 2.6 2.6 0 0 1-1.7-3.2 2.6 2.6 0 0 1 3.2-1.7 12 12 0 0 1 8.6 13.9 3 3 0 0 1-2.5 2zM87.1 270.2c-1.3 0-2.4-1-2.5-2.4a288 288 0 0 1 6.7-98.3c5.6-21 13.1-43.4 30-65.4a2.6 2.6 0 0 1 4 3 172 172 0 0 0-29.1 63.7 284 284 0 0 0-6.5 96.6c.1 1.4-1 2.6-2.3 2.7zM208.5 46a2.6 2.6 0 0 1-.8-5 151 151 0 0 1 96.2-.2 2.6 2.6 0 1 1-1.6 4.9 146 146 0 0 0-93.8.3m216.9 211h-.2a2.5 2.5 0 0 1-2.4-2.8c2.2-32 .1-57-7-83.4a172 172 0 0 0-29.3-63.9 2.6 2.6 0 1 1 4-3c17 22 24.6 44.6 30.2 65.6 7.4 27 9.5 52.5 7.2 85.1a2.6 2.6 0 0 1-2.5 2.4" style="fill:#3a3880"/><path d="M191.4 28.8c-56-25.1-67.7 27.3-66.2 74-13.3-38.8 14.5-121 66.2-74" style="fill:#c7e8ff"/><path d="M124.5 111.2q-1.7-.1-2.2-2c-7-49.7 3.2-86.5 26.6-96 19-7.8 42.7 4.1 63.4 32a2.3 2.3 0 0 1-3.7 2.7c-19.3-26-41-37.4-58-30.5-21.3 8.7-30.4 43.6-23.8 91.2q.1 2.1-2 2.6zm39.2 384.2a2 2 0 0 1-2-1.6c-4-17-17.5-29.7-28.4-34.4-5.8-2.5-11-2.8-14.2-1a2 2 0 0 1-2.8-.7 2 2 0 0 1 .8-2.8c4.4-2.6 10.8-2.3 17.8.7a56 56 0 0 1 30.8 37.3 2 2 0 0 1-2 2.5" style="fill:#3a3880"/><path d="M320.6 28.8c56-25.1 67.7 27.3 66.2 74 13.3-38.8-14.5-121-66.2-74" style="fill:#c7e8ff"/><path d="M387.5 111.2h-.4a2.3 2.3 0 0 1-2-2.6c6.7-47.5-2.4-82.5-23.7-91.2-17-7-38.7 4.5-58 30.5a2.3 2.3 0 0 1-3.7-2.7c20.7-27.9 44.3-39.8 63.4-32 23.4 9.5 33.6 46.3 26.6 96q-.3 1.9-2.2 2m-50.7 290.2a2.6 2.6 0 0 1-1.7-4.5c6.7-5.5 17-9.9 31.3-16l2-.8c21.8-9.4 39.2-19.9 47.5-28.8 11.3-12 16.6-22 15.9-46.4-.4-15.5-5.6-40.4-13.4-64.8-.5-1.4.3-2.8 1.6-3.2s2.8.3 3.2 1.6c8.2 25.2 13.3 50 13.7 66.3.7 26-5.2 37.2-17.2 50-12.1 12.9-36.1 24.3-49.3 30l-2 .8c-13.9 6-24 10.3-30 15.3q-.7.6-1.6.6" style="fill:#3a3880"/><path d="m236.3 373.3 38.7-.1c.2 3.3 1.2 6 1.8 7.4l-5.6 3.4-32.6-.3-4-3.4c1.1-2.4 1.4-5.2 1.7-7" style="fill:#e2c0fc"/><path d="M255 375.6c-7.5 0-14.9-.9-21.2-2.6a2 2 0 1 1 1.1-4 87 87 0 0 0 41.3 0c1-.2 2.2.5 2.4 1.6s-.4 2.2-1.5 2.5c-7 1.7-14.6 2.5-22 2.5m.6 11a75 75 0 0 1-23.4-3.4 2 2 0 0 1-1.2-2.6 2 2 0 0 1 2.6-1.3 79 79 0 0 0 44 0c1-.3 2.2.2 2.6 1.3s-.2 2.2-1.3 2.6a74 74 0 0 1-23.3 3.4" style="fill:#3a3880"/><g style="clip-path:url(#b)"><path d="M177.6 397.2h156.8v96.6H177.6z" style="fill:#a0e1eb"/><path d="M191.9 408.4c-13.5 10.3-6 32.4.3 44.8-22.7-18.4-17.2-73.7 29.8-43.8-11.9-6.8-24.7-5.1-30.1-1" style="fill:#c7e8ff"/></g><path d="M242.2 449.7a22 22 0 0 0-18.5-5.4q-1.6 0-1.9-1.4 0-1.5 1.3-1.8 5.8-1.3 11.7-.3c2.9.5 14.6 4.5 11.2 8.8a2.6 2.6 0 0 1-3.8.1" style="fill:#3a3880"/><path d="M194.3 459q-1 0-1.7-.6a54 54 0 0 1-16.2-35.6c-.6-8.6 2.3-15.8 8.2-20.3 7.1-5.4 17.6-6.2 28.9-2.1 22.8 8.1 36.7 27.6 38 38.5q0 2.2-2.1 2.5-2.1.1-2.6-2c-1-9.5-14.1-27.3-34.9-34.7-9.7-3.5-18.7-3-24.5 1.5q-7.2 5.5-6.4 16.3c.8 12.8 6 24.1 14.8 32.6 1 .9 1 2.4 0 3.3q-.7.7-1.6.7" style="fill:#3a3880"/><path d="M207.5 494.9q-7 0-12.2-3.6c-10-7.5-8.8-26-4-36.4a2.3 2.3 0 1 1 4.2 2c-4.7 10.1-4.8 25.3 2.5 30.6 4.7 3.4 11.7 3.7 19.7.8 13.6-4.8 26.1-16.9 29.2-28.1.3-1.2 1.6-2 2.8-1.6s2 1.6 1.6 2.8c-3.5 12.8-17 26-32 31.3a36 36 0 0 1-11.8 2.2" style="fill:#3a3880"/><path d="M256 465h-.2c-8.3-.5-13.4-6.8-13-15.9.1-4.6 2-8.9 5.1-11.6q4-3.4 9.2-3 9.5.9 11.8 12.4c1 5 0 10.2-3 13.6a12 12 0 0 1-9.8 4.5m0-26q-2.9 0-5 2a11 11 0 0 0-3.6 8.3c-.1 2.5.2 10.5 8.6 11q4 .2 6.4-2.7a12 12 0 0 0 2-9.8c-1-5.7-3.5-8.3-7.7-8.7z" style="fill:#3a3880"/><path d="M320.3 408.4c13.4 10.3 6.5 30.1-.7 44 22.7-18.4 17.4-72.9-29.6-43 11.9-6.8 24.9-5.1 30.3-1" style="fill:#c7e8ff"/><path d="M266 446c4.8-4 10.7-5.7 16.8-5.7 1.8.2 7.8-.1 7 2.9q-.5 1.3-2 1c-6.3-1-13.8 1-18.4 5.5-2.5 2.5-6-1.4-3.4-3.7" style="fill:#3a3880"/><path d="M317.7 459q-.9 0-1.6-.6c-.9-1-.9-2.4 0-3.3a49 49 0 0 0 15-32.6q.6-10.9-6.5-16.3c-5.8-4.5-14.8-5-24.5-1.5-20.8 7.4-33.9 25.2-35 34.7a2.3 2.3 0 1 1-4.6-.5c1.3-10.9 15.2-30.4 38-38.5 11.2-4 21.8-3.3 28.9 2.1 5.9 4.5 8.8 11.7 8.2 20.3-1 14-6.6 26.4-16.3 35.7q-.6.6-1.6.6" style="fill:#3a3880"/><path d="M304.5 494.8q-5.5 0-11.8-2.2c-15-5.3-28.5-18.4-32-31.2a2.3 2.3 0 1 1 4.4-1.2c3.1 11.2 15.6 23.3 29.2 28 8 3 15 2.7 19.7-.7 7.3-5.4 7.2-20.5 2.5-30.7-.5-1.2 0-2.5 1.2-3s2.5 0 3 1c4.8 10.6 6 29-4 36.4a21 21 0 0 1-12.2 3.6" style="fill:#3a3880"/></g><path d="M268 328.8c-2.3 0-4.7-.8-6.5-1.4q-2-.7-3.1-.9c-1.1-.2-2 .5-3.2.9l-2 .7c-5 1.4-9.3 0-12.1-4a2.1 2.1 0 0 1 3.4-2.4q2.7 3.8 7.5 2.3l1.9-.6q2.5-1 4.5-1c2 0 2.8.4 4.5 1 4.7 1.6 6.8 1.8 8-.7a2.1 2.1 0 1 1 3.8 1.9 7 7 0 0 1-6.6 4.2" style="fill:#45438f"/><path d="M264 326a15 15 0 0 1 6.2-7.2c3.2-1.8 7.2-1.5 8.2.8s-.4 5.8-5.2 7a18 18 0 0 1-9.2-.7" style="fill:#fe9dc0"/><path d="M270.1 328.4q-3 0-6.5-1-1.3-.4-1-1.9a16 16 0 0 1 6.8-8 10 10 0 0 1 7.4-1q2.2.6 3 2.5 1 2.4-.1 4.7-1.6 3.2-6.1 4.3-1.5.4-3.5.4m-4-3.5q4 .8 6.8.1 3-.7 4-2.7.5-1 .1-2-.4-.7-1.2-1a6 6 0 0 0-4.8.9 15 15 0 0 0-4.8 4.7" style="fill:#45438f"/><path d="M256 301q-1.6-.1-1.7-1.8v-.1q.2-1.6 1.7-1.7c1.5-.1 1.7.7 1.7 1.7v.1q-.2 1.6-1.7 1.7" style="fill:#a94bb5;isolation:isolate;opacity:.7"/><path d="M196.4 255.6a54 54 0 0 0-27 9.5c-3.4 2.3-5.7 5.5-3.4 10.6a41 41 0 0 0 22.6 19.9 35 35 0 0 0 24.4 1c14.7-9.3 5.7-35.1 5.7-35.1s-9.8-5-22.3-6" style="fill:#fcf2ff;isolation:isolate;opacity:.8"/><path d="M205.1 255c-12.5 0-19.5 13.6-18.8 24.5s9.3 18.5 20 18.4c5.6 0 10.4-2.3 13.7-5.8q4.7-5.1 5-12.5c.1-11.2-7.3-24.5-19.9-24.5" style="fill:#c372e0"/><path d="M208.8 240a45 45 0 0 0-10.3-.3q-1.2 0-1.3 1.2 0 1.2 1.3 1.3c2.7 0 7.2-.1 9.9.3 2.5.4 6.3 1.1 8.6 2.2 1.5.7 2.3-1.6.9-2.3 0 0-3-1.6-9.1-2.5" style="fill:#a94bb5;isolation:isolate;opacity:.6"/><path d="M209.8 278.5c0 2-1.6 3.7-3.6 3.7s-3.7-1.6-3.7-3.7 1.6-5.7 3.7-5.7c2 0 3.6 3.6 3.6 5.7" style="fill:#fcf2ff"/><path d="M208.5 267c0 1.3-1 2.4-2.3 2.4q-2.2-.2-2.4-2.4c-.2-2.2 1-2.6 2.4-2.6s2.3 1.3 2.3 2.6" style="fill:#caf2ed"/><path d="M208.5 288c0 1.4-1 2.5-2.3 2.5-1.4 0-2.4-1.1-2.4-2.5s1-2.6 2.4-2.6 2.3 1.3 2.3 2.6" style="fill:#feb7fa"/><path d="M218.7 207a50 50 0 0 0-35 9.2c-1.3.9-2.7-.9-1.6-1.9 9.7-8.1 24.9-15.3 37.3-9.7 1.3.7.7 2.7-.7 2.5" style="fill:#7d3967;isolation:isolate;opacity:.6"/><path d="M165.6 269.5c4-2.1 39.5-19.7 55.8-4.7q1.4 1 2.8.2c1.4-.8 1.3-1.8.8-2.8a23 23 0 0 0-20.1-12.7c-8.3-.2-11.6.5-18.8 2.8-2.4-3-3.4-2.6-3.9-2.4-.8.2-1.4 1-.8 4a62 62 0 0 0-9.2 4.4c-4-2.5-4.8-2-5.3-1.5-.5.3-1.4 1 .4 5a26 26 0 0 0-4.4 4c-.7.9-.8 2.3-.1 3.1q.6.9 1.7.8zm10.3 19.8c.7-.3 1.6-.4 2.2-1.2 1.2-1.7-1.1-2.6-2.4-1.3-.6.4-2 2.5-.3 2.5h.4m6.3 5.2c.8-.6 1.7-.9 2.1-1.8s-.2-2-1.1-1.8q-1 .3-1.6 1.1c-.6.7-1 3.2.6 2.5" style="fill:#45438f"/><ellipse cx="206.2" cy="254.2" rx="1.7" ry="3.2" style="fill:#b87ac2" transform="rotate(-85.81 206.164 254.161)"/><path d="M315.6 255.6c10.8.3 20.6 5.3 27 9.5 3.4 2.3 5.7 5.5 3.4 10.6a41 41 0 0 1-22.6 19.9 35 35 0 0 1-24.4 1c-14.7-9.3-5.7-35.1-5.7-35.1s9.8-5 22.3-6" style="fill:#fcf2ff;isolation:isolate;opacity:.8"/><path d="M306.9 255c12.5 0 19.5 13.6 18.8 24.5s-9.3 18.5-20 18.4c-5.6 0-10.4-2.3-13.7-5.8a19 19 0 0 1-5-12.5c-.1-11.2 7.3-24.5 19.9-24.5" style="fill:#c372e0"/><path d="M303.2 240c3-.5 7.4-.7 10.3-.3q1.2 0 1.3 1.2 0 1.2-1.3 1.3c-2.7 0-7.2-.1-9.9.3-2.5.4-6.3 1.1-8.6 2.2-1.5.7-2.3-1.6-.9-2.3 0 0 3-1.6 9.1-2.5" style="fill:#a94bb5;isolation:isolate;opacity:.6"/><path d="M302.2 278.5c0 2 1.6 3.7 3.6 3.7s3.7-1.6 3.7-3.7c0-2-1.6-5.7-3.7-5.7-2 0-3.6 3.6-3.6 5.7" style="fill:#fcf2ff"/><path d="M303.5 267c0 1.3 1 2.4 2.3 2.4q2.3-.2 2.4-2.4c.1-2.2-1-2.6-2.4-2.6s-2.3 1.3-2.3 2.6" style="fill:#caf2ed"/><path d="M303.5 288c0 1.4 1 2.5 2.3 2.5 1.4 0 2.4-1.1 2.4-2.5s-1-2.6-2.4-2.6-2.3 1.3-2.3 2.6" style="fill:#feb7fa"/><path d="M293.3 207a50 50 0 0 1 35 9.2c1.3.9 2.7-.9 1.6-1.9-9.7-8.1-24.9-15.3-37.3-9.7-1.3.7-.7 2.7.7 2.5" style="fill:#7d3967;isolation:isolate;opacity:.6"/><path d="m346.4 269.5 1.1.2a2 2 0 0 0 1.7-.8c.7-.8.6-2.2-.1-3a26 26 0 0 0-4.4-4.2c1.8-3.9 1-4.6.4-5-.5-.3-1.4-1-5.3 1.6a62 62 0 0 0-9.2-4.4c.6-3 0-3.8-.8-4-.6-.2-1.5-.5-3.9 2.4-7.2-2.3-10.5-3-18.8-2.8-9.4.2-17.3 6-20.1 12.7a2.3 2.3 0 0 0 3.6 2.6c16.3-15 51.8 2.6 55.8 4.7M336 289.3h.5c1.7 0 .3-2.1-.3-2.5-1.3-1.3-3.6-.4-2.4 1.3q1 1 2.3 1.2m-6.3 5.2c1.6.7 1.2-1.8.6-2.5q-.6-.9-1.6-1c-1-.2-1.6.9-1.1 1.7.4 1 1.3 1.2 2 1.8" style="fill:#45438f"/><ellipse cx="305.8" cy="254.2" rx="3.2" ry="1.7" style="fill:#b87ac2" transform="rotate(-4.19 305.836 254.166)"/><g data-name="hair top"><path d="m381.4 313.4 2 21.6-10.6 28.5-41.2 3.5zM130 309.2l-.2 28 8.4 26.3 71.6-1.5-50-24z" style="fill:#96d5e0"/><path d="m300.3 360.7-2.2 1.3a148 148 0 0 0 27.5 5.2c17-.6 31.5-5.2 31.5-5.2a54 54 0 0 0 11-36.6c-22.1 12.5-45.6 22.7-67.8 35.3m-92.7-2.7c-18-10.9-37-20-55-31-1.7 8.8-2 21.3 3.6 35 0 0 14.6 4.6 31.5 5.2 4.4.2 15.3-2.9 25-6z" style="fill:#8398e8"/><path d="M352 364.8c5.2-2.2 25.5-16.2 25.5-16.2 12.2 3 16 17.3 14.1 27.5 12.3-.4 21 9.7 20.1 21.5 9.4 2 12.2 2.4 16.5 8s8.8 21.6 8.8 21.6l-10.2 2.5s-26.8-1-26.3-19.7c-7.4-.7-13.6-1.4-17.2-5.2-3.3-3.5-5.4-6.5-5-14.1-10.2-1.9-26-13-26.2-25.9" style="fill:#96d5e0"/><path d="M394.2 378.4c15.2.6 16.9 10.2 14.8 20.3a23 23 0 0 0-14.8-20.3m-14-28.8c11.4 6.3 13.8 16.5 10.4 28a41 41 0 0 0-10.4-28m35.1 50.9c9.5.4 13.7 9.1 15 17.6a38 38 0 0 0-15-17.6" style="fill:#ffd4ef"/><path d="M438.9 426.3c-1 4.2-4.4 4.9-4.4 4.9s0 5 2.1 9.8c2.2 4.8 3.9 6.2 5.8 8 9.9 9.3 31 6.3 39.3-4.7.8-1 0-2.5-1.2-2.5-5.7 0-12.1-2.1-16.2-5.5 5.6 3.6 8.8-2.8 13.2-7-9.8 3.7-16.3-6.3-38.6-3" style="fill:#96d5e0"/><path d="m392 380.3-.8-.2a2 2 0 0 1-1.2-2.8 23 23 0 0 0-.2-17.3 18 18 0 0 0-10.3-10 2.2 2.2 0 1 1 1.6-4.2 23 23 0 0 1 12.8 12.5c2.8 6.5 2.8 14.2.2 20.6q-.6 1.4-2 1.4" style="fill:#3a3880"/><path d="M411 401.6h-.3q-2-.5-1.9-2.5c.8-6.5 0-11-3-15-2.4-3.3-6-4.7-13-5.3a2.2 2.2 0 0 1 .3-4.4c7 .6 12.5 2 16.3 7.1 3.5 5 4.7 10.5 3.8 18.2q-.4 1.7-2.2 1.9m-13.5 11a22 22 0 0 1-16.2-5.8q-6-5.9-6.7-17.4a2.2 2.2 0 0 1 4.4-.2q.5 9.8 5.4 14.4c3.7 3.6 8.5 5 16 4.5a2.2 2.2 0 0 1 .3 4.4z" style="fill:#3a3880"/><path d="M432.2 427.6h-.3q-1.9-.5-2-2.5c.7-5.1 0-12.6-2.8-17-3.2-5-8-7.4-15.3-7.9a2.2 2.2 0 1 1 .3-4.3q12.9.7 18.7 9.8a33 33 0 0 1 3.6 20q-.4 1.7-2.2 1.9m-5.7 3.7h-.1c-12-.4-25.2-2.2-28.1-19.1a2.2 2.2 0 1 1 4.3-.7c2.1 12.3 10.4 15 24 15.4a2.2 2.2 0 0 1-.1 4.4" style="fill:#3a3880"/><path d="M428.5 433.6q-2.8 0-6.3-1.8a2.3 2.3 0 0 1 1.4-4.3q2.7.4 4.5-1.1a8 8 0 0 0 2.2-5.8 2.3 2.3 0 0 1 3.9-1.6c3.3 3 3.8 7.7 1.3 11.2a9 9 0 0 1-7 3.4m38.5 5.2h-1q-1.9-.3-2-2.3.2-1.8 2.2-2c3.5.2 7-1 8.4-2.7l.6-1v-.1q-.4-.5-.7-.3c-3.9.7-8 0-12.3-.8l-4.4-.8a25 25 0 0 0-19.3 4.2 2.1 2.1 0 0 1-2.3-3.5 29 29 0 0 1 22.2-4.8l4.6.8c4 .7 7.6 1.3 10.7.7 1.2-.2 3.5-.2 5 2.3q1.6 2.7-.8 5.9c-2 2.7-6.4 4.4-11 4.4" style="fill:#3a3880"/><path d="M462.7 456.9q-4.3 0-8.7-1.3c-10.1-3-20.6-11.5-21.1-23.9a2.1 2.1 0 1 1 4.2-.2c.4 10.4 9.4 17.5 18 20 7.7 2.3 18 1.6 24.1-7v-.6l-.7-.5a24 24 0 0 1-15-5.8 2.1 2.1 0 1 1 2.7-3.1c4.2 3.6 8.5 4.4 12.6 4.7q3 .4 4.3 3 1 2.4-.4 4.7a24 24 0 0 1-20 10m-68-71.3 1.8 5a1.7 1.7 0 0 1-2.4 2.1l-5.8-2.4a1.5 1.5 0 0 1 1-2.9q3.2.6 6.2 2.2l-2.4 2q-.8-2.5-1.2-5.1c-.4-1.8 2.2-2.5 2.8-.9m19.5 19.4q1.8 2.5 2.7 5.5a1.7 1.7 0 0 1-2.2 2.1q-3-1-6-2.3c-1.6-.7-.8-3.2.9-2.9q3.3.7 6.4 2l-2.4 2.1q-.8-2.5-2-4.9c-.8-1.6 1.4-3 2.6-1.6" style="fill:#3a3880"/><path d="M440.2 431.2c2.1 4.5 7.1 6.8 11.8 8q1.4.4 1.2 2c-.7 2.2-4.4.6-6 .2a16 16 0 0 1-10.1-8.8c-.8-2 2.1-3.4 3-1.4m-84.6-72.5c-6.1 0-16.4-2-24-5.8a1.8 1.8 0 0 1 1.7-3.2 50 50 0 0 0 25.2 5.2q1.5-.8 2.5.5c.5.8.3 2-.6 2.5q-1.3.9-4.8.8m-23.8 10.5a93 93 0 0 1-27.5-4.2c-6-1.6-11.5-3.2-20.6-3.3a2.3 2.3 0 0 1 0-4.6c9.8 0 15.9 1.8 21.8 3.5q4 1.3 8.5 2.2a85 85 0 0 0 40.2-1.4 2.3 2.3 0 1 1 1.7 4.3 74 74 0 0 1-24.1 3.5m46-17.2a2.3 2.3 0 0 1-2-3.3 65 65 0 0 0 5-38.7 2.3 2.3 0 1 1 4.4-.9c2.7 13.4.5 31-5.3 41.7q-.8 1.2-2 1.2" style="fill:#3a3880"/><path d="M158 363.3a265 265 0 0 1-23.5-14.7c-12.2 3-16 17.3-14.1 27.5-12.3-.4-21 9.7-20.1 21.5-9.4 2-12.5 2.5-16.5 8S75 427.3 75 427.3l10.2 2.5s26.8-.1 26.8-18.5q11.2-.9 16.7-6.4c3.3-3.5 5.4-6.5 5-14.1 10.2-1.9 23.6-9.4 24.2-27.4" style="fill:#96d5e0"/><path d="M117.8 378.4c-15.2.6-16.9 10.2-14.8 20.3.8-8.6 4.8-16.4 14.8-20.3m13.2-26.7c-11.4 6.3-13 14.4-9.6 25.9a35 35 0 0 1 9.6-25.9m-34.3 48.8c-9.5.4-13.7 9.1-15 17.6a38 38 0 0 1 15-17.6" style="fill:#ffd4ef"/><path d="M323.2 242.1h-.1q-1.9-.2-2-2.2c.7-8.1-.9-22.6-2-29.9a2.1 2.1 0 1 1 4.1-.6 166 166 0 0 1 2.1 30.8c0 1.1-1 2-2 2M182.9 357.4a1.8 1.8 0 0 1-.4-3.6 30 30 0 0 0 16-7.2 1.8 1.8 0 0 1 2.6 2.5 32 32 0 0 1-18.2 8.3m-.5 12a74 74 0 0 1-28-5 2.3 2.3 0 0 1 1.9-4.3c8.7 4 27 6.4 39 3.3q4.1-1 7.9-2.4c6.8-2.4 13.8-5 25.3-4a2.3 2.3 0 1 1-.4 4.7 48 48 0 0 0-23.4 3.6q-3.9 1.5-8.2 2.6-6.6 1.5-14 1.5" style="fill:#3a3880"/><path d="M73.1 426.3c1 4.2 4.4 4.9 4.4 4.9s0 5-2.1 9.8-6 5.6-8 7.5c-9.7 9.2-28.8 6.8-37.1-4.2-.8-1 0-2.5 1.2-2.5 5.7 0 12.1-2.1 16.2-5.5-3 2-13.1-2.3-13.1-2.3-2-2.3 1.7-6.3 2-5.7 9.7 3.6 14.2-5.3 36.5-2" style="fill:#96d5e0"/><path d="M119.6 381.2q-1.6 0-2.1-1.5A26 26 0 0 1 132 347a2.2 2.2 0 0 1 1.6 4 21.4 21.4 0 0 0-12 27.3 2.2 2.2 0 0 1-2.1 2.9m14.1 10.1h-.5a2.2 2.2 0 0 1 0-4.4c8 .1 14.3-2.2 17.8-6.5q5-6 2.7-17a2.2 2.2 0 1 1 4.3-1q2.7 13.1-3.6 20.8c-4.2 5.3-11.6 8.1-20.7 8.1" style="fill:#3a3880"/><path d="M101 401.6c-1 0-2-.8-2.2-2-1-7.6.3-13.2 3.8-18 4-5.4 11.6-7 15.7-7.5a2.2 2.2 0 0 1 .5 4.4c-3.4.4-9.7 1.6-12.6 5.6s-3.8 8.5-3 15a2.2 2.2 0 0 1-2.2 2.5m13.5 11-3.2-.1a2.2 2.2 0 0 1 .3-4.4c7.5.5 12.3-.9 16-4.5q4.9-4.7 5.4-14.4.2-2.1 2.3-2.1 2 .2 2 2.3-.4 11.5-6.6 17.4c-5 4.7-11 5.8-16.2 5.8" style="fill:#3a3880"/><path d="M79.8 427.6q-1.7-.2-2.2-2a34 34 0 0 1 3.6-20q5.8-9 18.7-9.7c1.2-.1 2.3.8 2.3 2 .1 1.2-.8 2.3-2 2.3-7.3.5-12.1 3-15.3 7.9a29 29 0 0 0-2.9 17 2.2 2.2 0 0 1-2.2 2.5m5.7 3.7a2.2 2.2 0 0 1 0-4.4c13.5-.4 21.8-3 23.9-15.4a2.2 2.2 0 0 1 4.3.7c-2.9 17-16 18.7-28.1 19" style="fill:#3a3880"/><path d="M83.5 433.6a9 9 0 0 1-7-3.4 8.4 8.4 0 0 1 1.3-11.2 2.3 2.3 0 0 1 3.9 1.6q0 3.7 2.2 5.8 1.8 1.5 4.5 1.1a2.3 2.3 0 0 1 1.4 4.3 13 13 0 0 1-6.3 1.8M45 438.8c-4.5 0-8.9-1.7-11-4.4q-2.3-3.1-.7-5.9 1.7-2.6 5.3-2.1c3 .5 6.2-.1 10-.8l5-1a29 29 0 0 1 22.2 5 2.1 2.1 0 0 1-2.3 3.4c-8-5.3-14.2-5-19.3-4.2l-4.9.9c-4 .8-7.8 1.5-11.5.8q-.6 0-1 .2v.1s0 .3.6 1c1.4 1.8 4.9 3 8.4 2.8q1.8.1 2.2 2c.4 1.8-.8 2-2 2.1z" style="fill:#3a3880"/><path d="M49.3 456.9c-8.2 0-15.4-3.6-20-10a5 5 0 0 1-.4-4.8 5 5 0 0 1 4.3-2.9c4-.3 8.4-1 12.6-4.7a2.1 2.1 0 1 1 2.7 3.1 24 24 0 0 1-15 5.8 1 1 0 0 0-.8.5v.5c6.1 8.7 16.5 9.4 24.2 7.1 8.6-2.5 17.6-9.6 18-20a2.1 2.1 0 1 1 4.2.2c-.5 12.4-11 21-21 23.9q-4.5 1.3-8.8 1.3m85-104.9q-1.6 0-2.2-1.4a76 76 0 0 1-3.7-34 2.3 2.3 0 0 1 4.6.5 71 71 0 0 0 3.4 31.8 2.3 2.3 0 0 1-2.1 3.1m-14.2 34.5q-.5 2.6-1.2 5l-2.4-2 3-1.2c1.6-.4 4.4-2 5 .4q.1 1.1-.8 1.6l-5.8 2.4a1.7 1.7 0 0 1-2.4-2l1.8-5.1c.7-1.7 3.3-.9 2.8 1m19.9-26.9-1.4 7-2.6-1.7a35 35 0 0 1 8.7-3.7c1.9-.4 2.8 2.2 1.1 3q-4 1.8-8 3.9a1.8 1.8 0 0 1-2.7-1.8q.6-3.9 1.9-7.6c.7-1.9 3.5-1 3 1m-39.6 46.9q-1.2 2.3-2 4.8l-2.4-2q1.6-.9 3.2-1.2 1.5-.6 3.2-.9c1.8-.3 2.5 2.2 1 3l-6 2.2a1.7 1.7 0 0 1-2.3-2.1q.9-3 2.7-5.5a1.5 1.5 0 0 1 2.6 1.7m226.8-57a2 2 0 0 1-2.1-2v-.2a2.1 2.1 0 1 1 4.2 0v.1c0 1.2-1 2.1-2.1 2.1" style="fill:#3a3880"/><path d="M75.3 432.7a19 19 0 0 1-9.7 10.1c-1.7.8-3-1.6-1.6-2.7q2.5-1.8 4.7-4 2.2-2 3.4-4.7c1-2 4-.7 3.2 1.3m299.8-74q1.4 3.7 1.9 7.6c.3 1.4-1.4 2.6-2.7 1.8q-3.8-2.1-8-3.9c-1.7-.8-.8-3.4 1-3q4.7 1.3 8.8 3.7l-2.7 1.9-1.3-7.2c-.4-1.9 2.3-2.7 3-.9" style="fill:#3a3880"/><circle cx="60.7" cy="443.7" r="1.3" style="fill:#3a3880"/><path d="M378.5 391.3c-8 0-15.6-3.2-20.7-9-4.5-5-6.6-11.4-5.7-18a2.2 2.2 0 1 1 4.4.6 18 18 0 0 0 4.6 14.5 23 23 0 0 0 17.8 7.5 2.2 2.2 0 0 1 0 4.4z" style="fill:#3a3880"/><path d="m310.2 160.8-45.6-12.5-41.3 2.8-37.6 18.2-22.8 22.2-24.9 33.8-8 21.7 12.8 13 27-12.2 35.3-8.1 5.4-5.4 1-27.2 7.9-32.6-.4 35.3 5.8 24.8 60.8 1 3.3-25.7 1-36 5.6 36 4.6 26.4 53 14.6 29.7 8-13.9-38.4-22.5-32.4z" style="fill:#96d5e0"/><ellipse cx="311.2" cy="190.6" rx="7" ry="9.8" style="fill:#ffd4ef" transform="rotate(-17.543 311.18 190.606)"/><ellipse cx="196.4" cy="189.6" rx="9.8" ry="8" style="fill:#ffd4ef" transform="rotate(-72.457 196.44 189.609)"/><path d="M235.3 192.7c1.4 4 6.5 9.5 13 3 4.7-4.7 8.1-7 12.8-.4 3 4.2 9.6 4.6 12.4-1a22 22 0 0 0 .3-14.1c-3-9.9-9.5-9.4-13.8-3.3-4 5.7-7.8 6.6-10.9 1.6-4.4-7.3-11.4-4.3-13.3 1a20 20 0 0 0-.5 13.2" style="fill:#ffd4ef"/><path d="M228 238.5q-5.8-.1-7.5-5.9c-2.3-8.2-5.7-32.6-2.4-66.6a2.3 2.3 0 0 1 4.6.4c-1.2 11.8-3 46.2 2.2 65 .7 2.4 2.2 2.6 3.5 2.5a370 370 0 0 1 52-.5q3.6.3 4.4-4c.9-5.2 3.6-38.7 1.2-62.3a2.3 2.3 0 1 1 4.6-.4 341 341 0 0 1-1.3 63.5c-1 5.2-4.4 8.1-9.2 7.8a367 367 0 0 0-52.2.5" style="fill:#3a3880"/><path d="M159.2 255.3a2.3 2.3 0 0 1-1.2-4.3 121 121 0 0 1 42.8-13.8q3.3-.5 4.6-.9c2.1-.6 2.8-1.3 3-4.8v-.2c1-31 5.9-52.3 9.7-64.7a2.3 2.3 0 1 1 4.4 1.3c-3.8 12.2-8.5 33-9.6 63.5v.2c-.1 3.6-.7 7.6-6.2 9.1q-1.6.5-5.2 1c-8.3 1.3-23.7 3.6-41.2 13.4zm194.4-1.2-1-.2c-17.6-9-41-12.5-48.8-13.7l-1.6-.2c-6.5-1-7-6.4-7-8.5-1.3-13.8-4.5-47.6-9-63a2.3 2.3 0 1 1 4.5-1.4c4.5 16 7.8 50.1 9 64 .2 3 1 4 3.3 4.3l1.5.3a172 172 0 0 1 50.2 14 2.3 2.3 0 0 1-1.1 4.4m-80.8-16.8h-.2a2 2 0 0 1-1.8-2.2c.7-7.8 1.3-20 .8-29.2a2 2 0 1 1 4-.2c.5 9.3-.1 21.9-.8 29.8q-.3 1.7-2 1.8" style="fill:#3a3880"/><path d="M332.2 245.9h-.1a2 2 0 0 1-2-2.1c.2-3.1.5-14.4-1.6-27a2 2 0 0 1 4-.6c2 13 1.8 24.5 1.7 27.8 0 1-1 1.9-2 1.9m-73.2-9.7h-.2a2 2 0 0 1-1.8-2.2q.4-4.8.1-9.4v-3.4c0-1 .9-2 2-2a2 2 0 0 1 2 2v3.3q.3 4.7-.1 9.9a2 2 0 0 1-2 1.8m-78.5 9.5c-1 0-2-.8-2-2-.3-9.6.6-23.7 2.2-33.3a2 2 0 0 1 4 .6c-1.6 9.3-2.5 23.3-2.2 32.7a2 2 0 0 1-2 2" style="fill:#3a3880"/><circle cx="329.2" cy="208.9" r="2" style="fill:#3a3880"/><circle cx="258.6" cy="213.7" r="2" style="fill:#3a3880"/><path d="M160.2 242.6c-4.8 37.7.5 90.2 19.4 125.9 1.2 2.2-1.4 4.5-3.4 3-32.2-22.5-40.7-72.4-37.9-115.3" style="fill:#96d5e0"/><path d="M177.5 374.2q-1.4 0-2.6-.9-23-16.1-32.9-51.2a203 203 0 0 1-5.9-66c0-1.2 1.1-2.1 2.3-2q2.1.2 2 2.3c-3.3 52.4 10.5 94.8 37 113.3h.2q.2 0 0-.2c-19.9-37.6-24.1-91-19.6-127.2.2-1.2 1.3-2 2.5-1.9s2 1.3 2 2.5c-4.6 35.5-.4 87.8 19 124.5 1 2 .7 4.2-1 5.6q-1.3 1.2-3 1.2" style="fill:#3a3880"/><path d="M351.8 242.6c4.8 37.7-.5 90.2-19.4 125.9-1.2 2.2 1.4 4.5 3.4 3 32.2-22.5 40.7-72.4 37.9-115.3" style="fill:#96d5e0"/><path d="M334.5 374.2q-1.7 0-3-1.2a4.5 4.5 0 0 1-1-5.6c19.4-36.7 23.6-89 19-124.5a2.2 2.2 0 1 1 4.5-.6c4.5 36.2.3 89.6-19.7 127.2v.2h.3c26.5-18.5 40.3-60.9 37-113.3a2.2 2.2 0 1 1 4.3-.3c1 16.7 1 41.7-6 66q-9.7 35-32.8 51.2-1.2.9-2.6.9" style="fill:#3a3880"/><path d="M387.3 335.5q-1 0-1.7-.7c-1-1-1.1-2.5-.2-3.6 4-4.5 5.2-15.1 3.3-29.8a324 324 0 0 0-15-62.8c-7.5-21-16.1-34.7-30.7-48.7-17.3-16.5-45-38.4-87-38.4S185 173 166.1 192a114 114 0 0 0-28 45.4 360 360 0 0 0-12.4 52.4c-.7 5-2 18.3-2 23.6 0 5 1.2 12.1 3.6 17.1.6 1.3 0 2.8-1.2 3.5-1.3.6-2.8 0-3.4-1.3-2.8-5.7-4-13.8-4.1-19.2a222 222 0 0 1 2.1-24.5c.5-3.3 5.3-32.6 12.6-53.3a119 119 0 0 1 29.2-47.3c19.6-19.6 47.9-42 93.5-42s72.6 22.7 90.5 39.8c15 14.4 24.3 29 32 50.7a331 331 0 0 1 15.3 63.9q3.2 25-4.6 33.8-.8.9-1.9.8" data-name="hair l" style="fill:#3a3880"/><g data-name="hair r"><path d="M449.4 417.5a14 14 0 0 0-8.9-7q-4.3-1.3-6.6 2c-1 1.6-2.4 7.1-2 11.6q-1.5.7-2 2.1-.5.9-.3 1.9a19 19 0 0 0-10.6 4.7 5 5 0 0 0-.7 6c1.7 2.9 7 6.6 9.8 7.2q3.4.7 5.7-3c1-1.8 2.2-6.7 2.3-10.6a4 4 0 0 0 2.6-4v-.1a18 18 0 0 0 9.4-4.1c2.3-2.3 2.3-4.8 1.3-6.7" style="fill:#a0e1eb"/><path d="M451 416.7c-2-3.7-5.6-6.7-10-8-3.6-1-6.8 0-8.6 3a17 17 0 0 0-1.8 11.3 6 6 0 0 0-2.5 3.7 15 15 0 0 0-10.4 5 7 7 0 0 0-.9 8c2 3.5 7.8 7.4 11 8q.6.3 1.3.2 3.9 0 6.2-4c1.4-2.3 2.5-6.5 2.2-10.4q1-.6 1.7-1.5.8-1.1 1-2.4 5.4-.3 9.2-4.2c2.5-2.5 3.2-5.8 1.6-8.7m-13.8 11.9q0 .7-.5 1.6a2 2 0 0 1-1.4.8c-1 .1-2.7-.8-3.7-2q-.8-1.1-.4-2.2t2-1.4h.3c1.5.2 3.3 1.2 3.7 3.2m-5 13.5c-.7 1.2-1.9 2.5-3.7 2.1-2.3-.5-7.2-3.9-8.6-6.3q-1-2 .5-3.8c1.2-1.4 3.9-3.6 8.3-3.8l.5.7.3.3c-1.8 1.2-4 3.5-2.4 4.6q1 .6 1.7-.3l.7-.7q1-1.1 2.3-1.6h.2l2 .7a16 16 0 0 1-1.8 8.1m14.6-19.2q-3 3-7.3 3.1-.6-1-1.5-1.8.2-1.5 1.7-3 .7-.7 0-1.7c-1.3-1.5-3.4 1.2-4.3 3.2l-1.2-.3c-1-4.2.5-7.8 1.2-8.9.4-.5 1.5-2.3 4.6-1.3a13 13 0 0 1 7.8 6.1q1.2 2.4-1 4.6" style="fill:#3a3880"/><path d="M93 432.8a25 25 0 0 0-10.5-5q0-.9-.3-1.6a4 4 0 0 0-2.8-2.3 21 21 0 0 0-1.3-11.3q-2.3-3.4-6.6-2.2a15 15 0 0 0-9 7.1c-1 2-1 4.4 1.4 6.7 2 1.9 5.9 4.3 9.4 5a4 4 0 0 0 3.2 3.3c-.1 3.9.6 8.7 1.7 10.5q2.3 3.7 5.7 3c3.5-.7 8-4.3 9.8-7.2a5 5 0 0 0-.7-6" style="fill:#a0e1eb"/><path d="M94.3 431.6c-1.6-1.7-5-4.5-10.4-5q0-.5-.3-1-.8-1.7-2.2-2.6c1-5-.7-9.6-1.8-11.4-1.8-3-5-4-8.6-2.9-4.4 1.3-8 4.3-10 8-1.5 3-1 6.2 1.6 8.7q3.9 3.9 9.2 4.2a5 5 0 0 0 2.7 3.9c-.3 4 .8 8 2.2 10.4q2.3 4 6.2 4l1.3-.1c4.2-.8 9.1-4.9 11-8a7 7 0 0 0-.9-8.2m-17.6-.6a2 2 0 0 1-1.4-.8q-.6-.8-.5-1.6c.4-2 2.2-3 3.7-3.2h.3q1.5.2 2 1.4t-.4 2.2c-1 1.2-2.6 2.1-3.7 2m-12.5-12.7a13 13 0 0 1 7.8-6.1c3.1-1 4.2.8 4.6 1.3.7 1.1 2.1 4.7 1.2 8.9l-1.2.3c-.9-2-2.9-4.6-4.3-3.3q-.7.9 0 1.8 1.5 1.5 1.7 3-.9.8-1.5 1.8-4.2 0-7.3-3.1-2.2-2.2-1-4.6M92 438a16 16 0 0 1-8.6 6.3q-2.3.4-3.7-2c-1-1.6-2-5-1.7-8.2q1-.2 2-.8l.8.4q1.4.8 2.3 2c.8 1.3 2.8.2 2.1-1.2a9 9 0 0 0-2.8-3.1l.3-.3.5-.7c4.4.2 7 2.4 8.3 3.7q1.5 2 .5 4" style="fill:#3a3880"/></g></g><path d="M396.5 201.4c10.1 6 4 14.9-3.7 17a49 49 0 0 1-40 0c-9.6-2.8-12.4-12-4-17" style="fill:#fcf2ff"/><path d="M395.8 202.7c3 1.8 5.6 4.8 4 8.5-1.3 3-4.4 4.9-7.4 5.8l1.7 2.2c.6-1.3-.6-2.9-2-2a33 33 0 0 1-14 3.8q-8.4.8-16.6-1-3.5-.5-6.7-2.1c-2.3-1.2-4.8-1.9-6.8-3.6-4.2-3.8-2.9-8.8 1.6-11.6 1.6-1 .1-3.6-1.5-2.6-3.5 2.2-6.3 5.8-5.7 10.2s4.5 7.5 8.4 9l5.9 2.5q3.4 1.2 7 1.7 7.6 1.2 15.2.4c7.6-.8 10.3-1.6 14.7-4.2l-2-2c-.6 1 .3 2.6 1.6 2.2 4.1-1.3 8.2-4.2 9.6-8.4 1.6-4.9-1.5-9-5.5-11.4-1.7-1-3.2 1.5-1.5 2.5" style="fill:#3a3880"/><path d="M347.6 202.7q1.5 5.2 4.6 7.4 3.6 3 8 2c3.6-.7 4.6-2.2 6.8-4.9 2.2-2.6 7.9-3 10.4.3a11 11 0 0 0 10.8 3.8c4.8-1.2 7.8-5.1 8.8-8.1.2-5-1-10-5.2-16.8 1-9.9-2.6-16.8-6.9-17-6.7-.1-10.1 14-10.1 14s-2.4-1-5.2 0c-.7-4.3-4.8-14.8-10.9-14-6.6 1-7.5 13-7.2 17a26 26 0 0 0-3.8 16.2" style="fill:#3a3880"/><path d="M358.1 214.4q-3.8 0-7.2-2.7a16 16 0 0 1-5.3-8.9 28 28 0 0 1 3.8-17c-.2-4.4.7-17.1 9-18.4 6.9-1 11.2 8.2 12.7 13.5h2.3c1.2-4.3 4.8-13.5 11.4-13.5h.2q2.9.1 5 2.6c3 3.3 4.4 9.2 3.9 15.8a31 31 0 0 1 5 18 15 15 0 0 1-10.2 9.5c-4 .9-9.4-.1-12.9-4.6q-1.2-1.5-3.5-1.5c-1.5 0-3 .5-3.7 1.3l-.6.7c-1.9 2.3-3.4 4.2-7.3 5zm-8.4-12.1q1.1 4.2 3.7 6.2 3 2.4 6.4 1.6c2.6-.5 3.3-1.3 5-3.5l.7-.7a9 9 0 0 1 6.8-2.8q4.3.1 6.7 3.1c2.4 3 6.2 3.7 8.7 3.1 3.9-1 6.3-4 7.2-6.5a27 27 0 0 0-4.9-15.4q-.3-.6-.3-1.3c.7-6.8-1-11.4-2.7-13.3q-.7-1-2.2-1.3c-3.8 0-7 8.3-8 12.3a2 2 0 0 1-1 1.4 2 2 0 0 1-1.8 0s-1.7-.6-3.8 0a2 2 0 0 1-1.7-.1 2 2 0 0 1-1-1.5c-.6-3.8-4.3-12.7-8.5-12.1-4.7.7-5.8 10.8-5.4 14.6q0 .8-.3 1.2c-3.8 6.7-4 11.3-3.6 15" style="fill:#3a3880"/><path d="M378.7 202.4c0 4.4 2 7.1 5.1 7s5.3-2.8 5-6.6c-.4-4.3-3.2-7.6-6.1-7.4q-4 .4-4 7" style="fill:#fcf2ff"/><path d="M378.3 203.5c0 2.6 1.2 4.3 3.3 4.3s3.2-2 3-4.4c-.3-2.6-2.1-4.3-3.7-4.2q-2.4.2-2.6 4.3" style="fill:#3a3880"/><path d="M381.6 208.4q-1.8 0-2.9-1.4t-1-3.5q.1-4.6 3.2-4.8c1.9-.1 4 1.7 4.2 4.7a5 5 0 0 1-1.1 3.9q-1 1-2.5 1m-.6-8.6q-2.1.1-2.1 3.7 0 1.8.7 2.8t2 1q1 0 1.6-.8a4 4 0 0 0 .8-3c-.2-2.3-1.7-3.7-3-3.7" style="fill:#3a3880"/><path d="M365.6 202.4c0 4.4-2 7.1-5.1 7s-5.3-2.8-5-6.6c.5-4.3 3.2-7.6 6.2-7.4q3.8.4 3.9 7" style="fill:#fcf2ff"/><path d="M366 203.5c0 2.6-1.2 4.3-3.2 4.3s-3.3-2-3-4.4c.2-2.6 2-4.3 3.6-4.2q2.5.2 2.6 4.3" style="fill:#3a3880"/><path d="M362.7 208.4q-1.5 0-2.4-1.1a5 5 0 0 1-1.1-4c.2-2.9 2.4-4.7 4.2-4.6 2 0 3.1 1.9 3.1 4.8q0 2.1-1 3.5t-2.8 1.4m.6-8.6c-1.3 0-2.8 1.4-3 3.7a4 4 0 0 0 .8 3q.6.8 1.7.8t1.9-1q.7-1.1.7-2.8 0-3.6-2-3.7zm11.5 10c0 .9-1.1 2.4-2.5 2.4s-2.6-1.5-2.6-2.4 1.2-1.5 2.6-1.5 2.5.7 2.5 1.5" style="fill:#3a3880"/><path d="M372 151.1a3 3 0 1 0 0-5.8 3 3 0 0 0 0 5.8m0 8a3 3 0 1 0 0-5.8 3 3 0 0 0 0 5.9m4.1 21.7-2.9-5.8a3 3 0 1 0-2.2 0c-1 2.2-2.2 5.2-2.4 6.3-.7 3 9.2 3 7.5-.5m-4-13.6a3 3 0 1 0 0-5.9 3 3 0 0 0 0 5.9" style="fill:#fef5df"/><path d="M372 152.4q3-.1 4-2.8c.6-1.6.1-3.5-1.2-4.6q-2.3-1.8-5-.5c-2.6 1.3-2.2 2.8-1.9 4.5.4 2 2.2 3.4 4.1 3.4q1.2-.1 1.3-1.3c.1-1.2-.5-1.3-1.3-1.3h-.2.1-.4l-.2-.1s.3 0 0 0l-.3-.2c-.2-.2.1.1 0 0l-.1-.2h-.1v-.1q-.2 0 0 0l-.2-.2v-.2c-.2-.2 0 .3 0 0l-.2-.4v.1-.6c0-.2 0 .3 0 0v-.2l.1-.2.2-.3v-.1c.2-.2-.1.2 0 0l.4-.3q-.1.2-.1 0h.2l.1-.1q.3 0 0 0l.4-.1h.1c.3-.1-.3 0 0 0h.4q.4 0 0 0h.5c.3.2-.2 0 0 0l.2.2h.1l.3.3q.2.2 0 0v.1l.3.4s-.1-.3 0 0v.3s.1.3 0 0v.6c0 .2.2-.3 0 0v.4c-.1.3 0-.2 0 0l-.1.2-.1.1-.1.2q.2-.3 0-.1l-.2.2c-.2.2.2-.1 0 0l-.2.2h-.2c-.2.2.3 0 0 0l-.4.2h-.3c-.6 0-1.3.6-1.2 1.3s.5 1.3 1.2 1.3z" style="fill:#3a3880"/><path d="M372 160.4q3-.1 4-2.8c.6-1.6.1-3.5-1.2-4.6q-2.3-1.8-5-.4c-2.6 1.4-2.2 2.7-1.9 4.5.4 2 2.2 3.3 4.1 3.3q1.2-.1 1.3-1.3c.1-1.2-.5-1.2-1.3-1.2h-.2.1l-.4-.1-.2-.1s.3.1 0 0l-.3-.2c-.2-.1.1.2 0 0l-.1-.1-.1-.1q-.2-.2 0 0l-.2-.3v-.1c-.2-.2 0 .2 0 0l-.2-.4q0-.2 0 0v-.6.1-.2l.1-.3v.1l.2-.3v-.2c.2-.1-.1.3 0 0l.4-.2h-.1.2l.1-.2q.3 0 0 0h.4l.1-.1c.3 0-.3 0 0 0h.4q.4 0 0 0h.2l.3.1c.3.1-.2-.1 0 0l.2.1.1.1.3.3q.2.2 0 0 0-.2 0 0l.3.5s-.1-.3 0-.1v.4q0 .1 0 0v.5c0 .3.2-.3 0 0v.4c-.1.3 0-.1 0 0l-.1.2-.1.2h-.1q.2 0 0 0l-.2.3c-.2.2.2-.2 0 0l-.2.1-.2.1c-.2.1.3 0 0 0l-.4.1h-.3c-.6 0-1.3.6-1.2 1.3s.5 1.3 1.2 1.3m5.2 19.6q-1.4-3-2.9-5.7l-.5 1.7c1.9-.8 2.9-3 2.3-5-.5-1.8-2.3-3.1-4.2-3s-3.6 1.5-4 3.4c-.4 2.1.8 4 2.8 4.8l-.8-2q-1.4 3-2.4 6-.7 2.1 1.1 3.5 1.6 1 3.6 1c2 0 2.7-.2 3.8-.8 1.5-.8 2-2.4 1.3-3.9-.3-.6-1.2-.8-1.8-.4q-.9.6-.5 1.7c-.1-.3 0 0 0 0 0 .3 0-.2 0 0q0 .5 0 0 0 .3 0 0 0 .2 0 0l-.1.2c-.1.2.2-.1 0 0l-.3.2h-.1.1l-.3.1-.7.2h-2.2.1-.4l-.6-.3h-.3c.3 0 0 0 0-.1l-.3-.1c-.1-.1.1.2 0 0q-.1-.3 0-.1c.1.3-.2-.5 0 .1 0 0 0-.3 0 0v-.1c0 .4 0 0 0 0l.1-.5q.9-2.7 2.1-5.3.6-1.4-.7-2c-1.7-.6-1-3.1.7-3.1q1.2 0 1.6 1.3.2 1.3-1.1 2c-.7.2-.8 1.2-.5 1.7l3 5.8c.2.6 1.1.8 1.7.5q.9-.7.5-1.8" style="fill:#3a3880"/><path d="M372 168.5q3-.2 4-2.9c.6-1.5.1-3.5-1.2-4.6q-2.3-1.7-5-.4c-2.6 1.3-2.2 2.7-1.9 4.5.4 2 2.2 3.3 4.1 3.3q1.2 0 1.3-1.2c.1-1.2-.5-1.3-1.3-1.3h-.2.1l-.4-.1h-.2s.3 0 0 0l-.3-.3c-.2-.1.1.2 0 0h-.1l-.1-.2q-.2-.2 0 0l-.2-.3v-.1c-.2-.2 0 .3 0 0l-.2-.4q0-.1 0 0v-.5c0-.2 0 .3 0 0v-.2l.1-.2q0-.1 0 0l.2-.3v-.1c.2-.2-.1.2 0 0l.4-.3h-.1.2l.1-.1q.3-.2 0 0l.4-.2h.1c.3 0-.3 0 0 0h.4q.4 0 0 0h.2l.3.1c.3.1-.2 0 0 0l.2.1.1.1.3.3q.2.1 0 0 0-.1 0 0l.3.5s-.1-.3 0-.1v.4s.1.3 0 0v.5c0 .3.2-.2 0 0v.5c-.1.2 0-.2 0 0l-.1.2h-.1l-.1.2q.2-.2 0 0l-.2.2c-.2.2.2-.2 0 0l-.2.1-.2.1c-.2.1.3 0 0 0l-.4.1h-.3c-.6 0-1.3.6-1.2 1.3s.5 1.3 1.2 1.3" style="fill:#3a3880"/><g style="clip-path:url(#c)"><path d="M297.7 73.7h145.4v110.2H297.7z" style="fill:#a0e1eb"/><path d="M409 83.9c15 7.7 14.5 26.4 13.7 41.7 14.6-25.4-6-70.9-38.6-34 11.1-9.7 18.2-10 24.8-7.7M312 93c-13.4 10.3-5.6 28.6.5 44.8-22.7-18.5-17.2-73.7 29.8-43.9-11.9-6.7-24.9-5-30.3-1" style="fill:#c7e8ff"/></g><path d="M381.5 123c4.9-4 11.7-5.9 17.9-4.3a1.6 1.6 0 0 1-.6 3.2 16 16 0 0 0-13.9 5c-2.5 2.5-6.1-1.5-3.4-3.8" style="fill:#3a3880"/><path d="m423.3 129.5-1-.2c-1.1-.5-1.6-2-1-3 6-13.2 4-31.7-1.7-40.7a15 15 0 0 0-11.4-7c-7.1-.5-15 4-22.4 12.7a46 46 0 0 0-9.3 23.5 2.3 2.3 0 0 1-4.5-.7q2.4-16.4 10.3-25.8c8.2-9.8 17.5-14.9 26.2-14.3a19 19 0 0 1 15 9.2c6.3 10 8.8 30 1.9 45q-.7 1.3-2 1.3" style="fill:#3a3880"/><path d="M416.5 168.6a44 44 0 0 1-16.5-3.7 50 50 0 0 1-25.3-24c-.6-1.1-.1-2.5 1-3s2.5-.2 3.1 1a45 45 0 0 0 23 21.8c8.6 3.7 17.5 4.3 22.6 1.6a10 10 0 0 0 5.3-7.3c2.5-12.1-4.4-22.9-7.5-27a2.3 2.3 0 0 1 3.7-2.7 39 39 0 0 1 8.3 30.6q-1.5 7.2-7.7 10.5-4.6 2.2-10 2.2m-89.6 10.9q-6.6 0-11.4-3.8c-9.5-7-8.8-24-4.6-34.7-12.8-13.5-18-36-10.9-48.5 3.3-5.7 12-14.2 33.7-7.6 22.1 7.9 38.3 27.6 35.3 42.6 5.5 14.4-5.5 32.4-19.5 43-7.9 6-15.8 9-22.6 9m-12-35.9c-3.7 10-3.3 23.4 3.4 28.5 6.3 5 17.5 3 28.5-5.3 12.4-9.4 22.8-26 17.6-38.2q-.2-.7 0-1.5c2.8-11.4-10.4-30-32.2-37.9-13.9-4.2-23.7-2.3-28.2 5.6-6.3 11-1 31.7 10.9 43.6l.7.8.5.4c1 .9 1 2.3.2 3.3q-.7.6-1.4.7" style="fill:#3a3880"/><path d="M365.8 131c-1.4-6.7-12.3-7.5-17.7-5.8-1.7.5-2.7-2-1.2-2.7 6.7-3.3 17.8-2.5 21.7 4.7.7 1.6 1.6 5.3-1 5.5q-1.7-.2-1.8-1.7" style="fill:#3a3880"/><path d="M374 142q-2.7.1-6.4-1.8a2.3 2.3 0 1 1 2.3-4c1.8 1 4.6 2 6.8.4 2.6-1.7 3.7-6.3 3-11.3a9 9 0 0 0-5.8-7.1c-2.2-.7-4.5 0-6 1.6-.9 1-2.3 1-3.3.2s-1-2.3-.2-3.3c2.7-3 6.9-4 10.8-3a13 13 0 0 1 9 10.9c1 6.9-.8 13-4.9 15.8-1 .8-2.8 1.7-5.3 1.7" style="fill:#3a3880"/></svg>