<svg xmlns="http://www.w3.org/2000/svg" width="512" height="512" viewBox="0 0 512 512"><defs><clipPath id="a"><path d="M0 0h512v512H0z" style="fill:none"/></clipPath><clipPath id="b"><path d="M343.2 517.7c17-1.3 36.1-10.2 43-15 2.9-2.1 4-6 3-9.3-4.5-13.4-9-23.3-13.5-34.5-3.3-8.1-7.9-16-12.4-23.6a63 63 0 0 0-9.8-12.8c-4-4.2-14.2-14-28-20.9-2.6-1.2-7.7.2-9.4 2.5-8.5 11.4-27 33.7-60 33.7a79 79 0 0 1-44-13.5c-10.2-6.8-15.4-17.3-18-21.2-2.2-3.4-6.3-2.2-9.6-.2-15.8 9.3-26.7 15-33 25.3a348 348 0 0 0-27 69.1c-.8 2.6.1 5.4 2.2 7a100 100 0 0 0 44.6 15.4" style="fill:none"/></clipPath></defs><g style="clip-path:url(#a)"><path d="M0 0h512v512H0z" style="fill:#fedffb"/><path d="M81.4 423.3c-2.8 4.2-12.7 2.4-17.7 0-5-2.5-7.5-9.1-4.7-13.3s7.9-6 12.8-2.8 12.3 12 9.6 16.1M41 296.4c-12.8-11.2-18.5-15.7-22-25.2-4.7-13-2.6-23.3-19-22q-2.5.1-4.6.5v120a34 34 0 0 0 24.9.1c18.2-8.7 15.5-24.3 22-36.8 6.8-13.5 9.5-27.3-1.3-36.6m14.4-10.8c11.7 8.1 26 14.3 45 5 18.3-7.6 32.6-16.6 36.7-37.3.7-11.5-11.3-19.8-14-30.9-1.8-7.4.7-15.1 1.9-22.6 2.8-13.8 3.4-26.6.7-33.6-2.6-7.1-29.5-27.3-38.1-2.7-4.4 12.5-14.3 13.4-34.6 26.2-15 9.4-25.2 36.4-20.4 56s11 31.8 22.8 39.9m83-144.6c-4.7 9.9-.3 22.7 7.3 21.1s7.5-4.8 10.6-12.5c3.3-8.5 4.7-10.8 1.7-15.2-4.7-6.5-17-1.8-19.7 6.6m263.3 116.5c-3.5-17.7-17.4-14-24.4-24s-9.3-20.4-7.9-33.2c1.4-12.7-.1-17.7-9-26s-24.4-6.8-39.7.9c-8.1 4-17.6 16.5-25.7 20.7-4.7 2.5-9.7 4.5-14.6 6.8-7 3.4-12.5 12-11.5 19.3 1.8 24.1 22 26.7 16.5 48-1.8 7.1-6 13.6-7.2 20.8-1.3 7.8-2 16 3.5 22.6 4.9 5.9 13 8.2 20.6 8.2 8.1.2 14-4.6 20.8-8.4 5-3 7.7-8.3 11.3-12.6 3.1-3.9 7.3-5.9 11.7-7.5 7.3-2.6 15.1-3.4 22.5-6 9.5-3.4 36.5-12 33-29.6M290.7 113.8c-14.4-14-19.2-14.7-23.7-33.3s-20.6-7.3-24.2-3.7a12 12 0 0 1-13 2.5c-16.2-6.4-24.7-.5-29.6 9-5.6 11-5.6 27.4 6.7 42 8.2 14.2 21.6 20.5 32.5 26.2 11 5.8 14.8 16.3 24.5 20.1 14.9 6 37.6-1.9 36.9-12-1.1-16.5 4.2-36.7-10.1-50.8M147.3 218.5c-2 7.2 1.6 12.5 5.4 17.5 7.4 8 19.5 9.1 29.4 12.4q7.3 2.3 13.9 6.8c6.3 4.3 10 10.8 14 17q5.8 9 14.5 15.3 1.7 1.2 3.6 1.3c8.4.9 16.5 1.8 23.7-4.6 9.8-8.2 15.4-21.5 8-33-3.1-5.6-7.7-10.8-9.3-17.1-.3-7 0-14 2.1-20.8 1.6-5.2-.1-10.4-3.1-14.9-6.2-10-17.6-14.5-27-21-3.5-2.3-7.4-4.2-10.6-7-7.4-9.4-7.1-20.2-19.5-24.9-5-2.2-11.3-5.6-20.1.8s-11.2 10.4-9.4 25.9c-.2 12.1-8.8 20.8-12.5 33.2zm183.3-62.9c7.7-.6 11.7-.5 11.3-9.2s-10.3-14.1-15.4-14.6c-4.7-.6-10.6 2-13.7 9s-3.8 16 3 18 7.1-2.5 14.8-3.2m-195 268.7c12.1-7.5 24.4-19.8 25.8-34 .7-7.6-11.4-16.6-18.5-18.6-11-4.8-23.6-11.8-27.6-23.7-3.3-12 10.8-26.9-2.4-35-11.6-5.4-33.8-.3-45 13.1-11 13.4-20.8 37-11.5 57 3.9 10.1 20 12.4 26.8 20.9 12.7 17 32.8 32 52.4 20.3m378.6-208c-16.2-5.9-27.4 9-39.4 17.2a41 41 0 0 1-18.2 6c-13.9 0-28.7 8.8-28.6 24.1a18 18 0 0 0 8.7 15.5c14.1 7.4 30.2-7 44.5 2.5q7.6 4.9 15.5 9.3c5.6 3 11.6 1.7 17.5 1.3zm1.4-196.7c-17.2-13.5-46.8-15.3-56.2 9.1-4.3 11.3.8 26.2 5.7 41.5 4.1 13.2-7.5 32-10.4 43.2s8.6 19.3 21.3 14.3 12.8-5.9 19.3-6.3c6.3-.6 13.3.6 20.3 1.5zM184.3 390.2c-17-1.4-19.2 21.8-4.8 24.3 8 .3 15.2-6.2 15.3-14 0-7.5-2.7-10.2-10.5-10.3m218 46.6c14.2-2.9 39-16.5 41.7-29.4a58 58 0 0 1 7.8-21c3.2-4.9 10.8-17 16.7-17a27 27 0 0 0 18.7-11.5c3.8-6 4.2-8-4.8-19.9s.4-24-13.2-35.7c-14.4-12.5-26.5 5.5-52.6-1.8-7.8-2.2-31.8-2.4-38.8 2.6-8 5.6-13 15.6-7.5 26 3.1 5.9 8.5 9.6 13.2 13.8 20.8 19.2-1.7 34-10.5 51.6-10.3 24 15.3 45.2 29.4 42.3m96.8-118.5c-1 7 3.6 12.6 4.6 19.3 1.7 5.4 4.8 9.2 10.5 10.4v-38.8c-3-.3-5.8 1-8.8 1.4-2.5.4-6 5-6.3 7.7m-287.8 87c6 19 23.6 35.6 44.8 30.8 9-1.7 15.3-7 21.8-12.5 11.7-10.8 27-15 42.4-17.3q8.3-1 16.2-4.1c10-2.8 19.3-8.4 24.3-17.7 13.2-23.6-7.4-52.8-33.6-50-15-.3-28 5.1-42.5 2-12-2.3-19.6-14.2-27.4-22.7-11-13.5-25.4-7.3-40-6.2-23.9 1.3-33.6-35.3-57.3-25.5a38 38 0 0 0-23.4 32 43 43 0 0 0 3 28.7 13 13 0 0 0 5.4 5.4c11.4 7 25.6 4 37.3 10.5 5 2.6 8 7.2 11.8 11 5.1 5.4 7.1 12.4 10.3 18.8q4 8.1 7 16.8m-136 108.2H134q2.4-3 4.3-6.3c11.6-18.8 6.3-24.6-.4-37s-10-27.8-26.3-26c-11.3.9-23.5 3.5-33.6-1.9-7.4-4-13.4-12.8-22.6-12-7.3.8-12 8.5-13 15.8a53 53 0 0 0 7.5 28.8c7.3 13.3 14.7 27.7 25.5 38.6m203.8-20.3a32 32 0 0 1 21 16.9l2.1 3.4H338c7-3.7 14-7.7 22.3-8.2 12-1.5 22.6 2.5 32.5 8.2h69c4.9-11.4 6-27.3-2.3-38-21.5-28.3-30.2-19.6-58.7-19.2-30.5-.6-27.7-23.8-39.1-27.8a36 36 0 0 0-27.7.1c-7.8 3.7-17.9 2.3-27.4 4.2s-17.9 3.6-27.4 11.4c-10.1 8.3-13 12.5-14.5 25s4 20.9 14.6 24m-117.1-4.6v9.1c.4 11.4 14.6 14 23.6 13.9q6 .3 11.5 1.9H254l-3.2-1.4c-5.5-2.6-14.2-9.8-13.6-18.3 1.3-23-10.2-21.1-23.7-33.8a54 54 0 0 1-12.6-22c-1.8-5.6-5.3-12.7-11.7-13.5a51 51 0 0 0-29.9 4.6c-6.5 3.4-12.4 7.4-14.3 15.4-4.1 17.6 19.6 25.4 17.2 44.1M72.6 125.2c-6.3-12-10.1-22.2-4.1-46.9C71.7 65.1 59.6 58 49.8 57c-8.5-.8-14.2 3-20.5 9.4C19.8 76 9 77.3-4.5 83v142.8A38 38 0 0 0 18 214c3.8-4.5 5.7-10.2 7.7-15.7 5.3-14.5 12-29.8 25.4-37.5 7-4 15.5-5.8 20.5-12 5.2-6.5 4.8-16.2 1-23.6M45.8 405.8c-1-4.5-2.8-9-6.1-12.3-4.8-4.5-12-5.7-18.5-4.6S8.8 393.3 3 396.5l-7.5 4.1v101.6q4.2 3.2 8.7 6c3.4 2 7 3.8 11 4.2 4.9.5 9.7-1.2 14.2-3 3.2-1.4 6.6-3.1 8.1-6.3q1.4-3.6.3-7.4c-1.5-6.3-5.5-11.6-7.8-17.6a64 64 0 0 1-3.5-17.6c-.7-8.4-1-17.6 3.7-24.6 4.6-7 13.7-11 16-19.1 1-3.6.5-7.4-.4-11M465.7 454c8.4 5.4 12 11.7 14 17.5a44 44 0 0 1 2.5 25.8 22 22 0 0 0 2.3 16.2H514c.6-49.1-.2-99.2.1-148.5-7.3 2.2-14 4.6-18.2 12.1-3 5.5-5.6 11.2-9.2 16.4-2.8 4.1-4 9.3-6.3 13.8a34 34 0 0 1-14.6 15c-6.4 3.4-11 8.4-10.7 16.2.2 4.6 3.4 10.9 10.5 15.5m49.9-317.5c-15.5-4.1-30 1.7-19.4 18.2q4.2 6.6 4.3 14.3c0 10.6-5 23-.8 29.8 2.6 4.4 8.7 6.7 15.9 6.4zM9.5-.8c-8.7 18 4.4 33 14.8 38.2 11.6 5.8 18.9 4.5 25 4.1 15.4-1 21.4 5.2 27 12.7s13.8 4.6 15 4.4a58 58 0 0 0 33.2-22.3A60 60 0 0 0 138.2-.8zm-2 43.1a34 34 0 0 1-12-13.7v38c7.1-1.5 14.2-3.8 18-7.9 5.8-6.4.6-12-6-16.4m272 32c8 21.3 20 19.6 24 30.6 4.3 11.5 13.7 15.1 29.9 12.3a15 15 0 0 0 3.6-1.2 55 55 0 0 1 37-4.7c24.3 6.6 37.3 26.7 56.7 10 16.9-14.5 10.3-44.5 8.3-64.7s-3.8-36.4-19.6-45.5a52 52 0 0 0-56 2.7c-29 19.3-41.8 11.2-56.6 16.4-18.6 6.4-33.6 27.5-27.3 44.2M433.2 139c1.4 7 5.7 12.4 12.6 13.3 7 1 13.8-1 14.6-7.7.6-5.2-3.2-7.1-8.6-8.8-3.1-1-5.6-3.5-9.6-5.3s-10.4 1.5-9 8.5M302-.8c1 10.6 6.6 14 17 13.7 10-.3 21.6-6.7 31.2-13.7zm155 167.3c-19.3 7.9-23.7 3.6-31.3-8.4a46 46 0 0 0-30.3-22c-9.2-2.2-14-2-26-1.1-12 1-11.3 14.6-7 19.7 9.5 11 20.8 9.1 29 21.8 11.9 15.6 2.2 38.6 20.3 50.4 13.8 9 23.8 2.2 37.4-2.8 11-4.1 19.5-8.2 24.8-15.7s6.3-15.6 6.8-20c.9-7.6 1.6-15-1.1-20.2-4.6-8.6-13.1-5.6-22.6-1.7M100.8 73.9C84 79.7 84.9 101 91 117.4a29 29 0 0 0 30.4 19.3c14-1.4 14.6-19.6 45.3-21.8 5.1-.3 12.2-3.1 11.9-17.2s16.8-23.3 16.6-41c0-17.7-14.3-25.3-32.2-27.2-10.7-1.2-17.9 4.2-25.2 13.2-19.6 24-22.6 26.2-37 31.2M163.7-.8a22 22 0 0 0 10.7 13.6c13.1 7 23.9 8.3 32 19.1 8.4 11.3.7 22.2 14.6 30.4 8.5 5 26.9 3.1 38.7-20.4 7.5-15.1 22.3-16.7 24.8-32.6q.9-5.3.2-10.1z" style="fill:#fabef4"/></g><g data-name="hair bottom"><path d="M204.6 311.6c0 22.5-19.9 39-47 39s-51.3-16.5-51.3-39 7-45.6 34.1-45.6 64.2 23 64.2 45.6" style="fill:#ebd4fc"/><path d="M129.8 283c-3.8 23-2.3 37.8 2.5 47.7 9.2 19.3 51.4 30 75.2 2.6" style="fill:#cc96f2"/><path d="M405.2 318c0 22.6-22.7 34.3-49.8 34.3s-49.2-18.2-49.2-40.7 51.6-45.4 78.7-45.4c7.4 20.7 20.3 29.4 20.3 51.9" style="fill:#ebd4fc"/><path d="M386 271.1c-4.2 15.6-4.4 28.5-1.2 37.1 2.4 6.5 7.1 15.8.8 26.3-13.5 22.3-55.2 26.2-81-1.1" style="fill:#cc96f2"/><path d="M348.6 354.3c-13.5 0-29.2-2.8-39.2-13.8a2.3 2.3 0 1 1 3.5-3c12.8 14.1 37.3 13 50.8 11a64 64 0 0 0 25-7.7 38 38 0 0 0 13-13.4q4-7.1-.2-20c-1.6-5-3.9-10-5.9-14.4q-2.4-5.5-4-9.9c-2.6-8.5-8-31-8.8-40.6a2.3 2.3 0 1 1 4.6-.3c.7 9.3 6 31.2 8.5 39.5q1.6 4.1 4 9.4c2 4.5 4.3 9.7 6 14.8q4.8 14.8-.1 23.7a43 43 0 0 1-14.7 15.2q-10.3 6.3-26.8 8.3-6.7 1.1-15.7 1.2m-183.8-1.6q-4 0-8.3-.5c-9-1.2-39.3-6.4-49.2-24.3-5.8-10.8-5.2-26 1.8-46.7 1-3.5 3.6-9 6.3-14.8 4.1-8.9 8.8-19 9.2-24.2a2.3 2.3 0 0 1 4.6.4c-.5 6-5.1 16-9.6 25.7-2.6 5.7-5.1 11-6.1 14.3-6.7 19.5-7.3 33.5-2.1 43 5.9 10.9 23 19 45.7 22 16.1 2.1 30-2.3 39.1-12.4a2.3 2.3 0 0 1 3.4 3 46 46 0 0 1-34.8 14.5" style="fill:#3a3880"/><path d="m167 352.4-1-.3a27 27 0 0 1-12.5-16.3 2.1 2.1 0 1 1 4.2-.4 23 23 0 0 0 10.4 13 2.1 2.1 0 0 1-1 4m-48-44.4q-1.6-.1-1.8-1.7-.6-9 1.7-17.8.5-1.5 2.2-1.3c1 .3 1.5 1.3 1.3 2.2a52 52 0 0 0-1.6 16.7 2 2 0 0 1-1.8 1.9m225.2 45.8a1.8 1.8 0 0 1-.7-3.4c4.3-2 7.8-5.8 9.4-10.3a1.8 1.8 0 1 1 3.4 1.2c-2 5.5-6 10-11.3 12.3zm-11.9-1.8q-1.3 0-1.8-1.4-1.2-7.6 1.6-14.5a1.8 1.8 0 1 1 3.4 1.3q-2.4 6.1-1.4 12.6a2 2 0 0 1-1.8 2m58.2-45.4q-1.4-.1-1.8-1.4a55 55 0 0 0-4.8-12.7l-1.4-3.1a1.8 1.8 0 0 1 3.2-1.5l1.5 3c2 4.5 4.1 9 5 13.6a2 2 0 0 1-1.7 2.1" style="fill:#3a3880"/></g><path d="m350 420.7-70.3-38.5-3-26.8h-41.3l-2.8 26.7-63.7 34.4-12.4 12.3S135.4 496.4 131 512h247.2L359 436.5z" style="fill:#ffdce8"/><path d="M232.7 357.4c-.3 4.7.4 14.7.4 14.7s7.6 7.2 24.4 7.2 22.3-10 22.3-10-.4-7.6 0-12.7c-14.1 6.9-32.4 4.1-47.1.9z" style="fill:#e091c4;isolation:isolate;opacity:.7"/><path d="M368.4 461.3q6.9 25.4 13 50.7h-5.2q-6.1-24.7-13-49.2l-4.5-16.1c-1.8-6-3.7-12.2-7.1-17.5-4-6.6-10.4-10.1-17-13.8q-11.1-6.3-22.6-12l-2.3-1.2c-7.4-3.7-15.1-7.1-22.2-11.5a27 27 0 0 1-7.6-5.6 16 16 0 0 1-3.5-5.3l-.1-.5-1-3.2c-.8-4.3-.6-9-.5-13.4 0-3 4-4 5-1.2l.2 1.3q-.4 6 .3 11.9l.2 1c1 4.4 4 7 7.8 9.3 9.7 6.1 20.2 10.8 30.3 15.9q11.8 6 23.1 12.6a40 40 0 0 1 15.5 14.3c3 5.3 4.8 11.4 6.5 16.9s3.2 11 4.7 16.6m-29 3.9q-3.2-8.7-5.3-17.7c-.7-2.9-5.1-1.7-4.4 1.2h-.1q2.3 9.4 5.7 18.7a60 60 0 0 1 .3 44.6h4.8a76 76 0 0 0 3.9-18.5c.8-9.8-1.6-19.1-4.9-28.3m-186.7-18.5c1.8-6 3.7-12.2 7.1-17.5 4-6.6 10.4-10.1 16.9-13.8q11.8-6.7 24-12.7c9.4-4.7 19.4-9 27.9-15.2q6-4.2 7.4-11.2c.8-4.4.7-9 .5-13.5-.1-3.3-5.3-3.3-5.1 0q.4 6-.3 11.9c-.6 4.1-2.7 6.9-6.1 9.2-7.8 5.3-16.6 9.3-25.1 13.6s-16.4 8.2-24.3 12.7c-6.7 3.8-13.5 7.4-18.3 13.6-7.3 9.5-9.9 22.4-13.1 33.7q-5.2 19.2-10.2 38.6l-4 15.9h5.2q6.2-24.7 12.9-49.2zm19.2 36q1.3-7.9 4.1-15.5 3.4-9.1 5.7-18.7c.7-2.9-3.8-4.1-4.4-1.2v.1q-2 8.1-4.7 16-2.2 5.8-3.8 11.7a63 63 0 0 0 2.3 36.9h4.7a60 60 0 0 1-3.9-29.3" style="fill:#3a3880"/><path d="M365.8 257.4c8.6-19.1 10.2-53.5 10.2-53.5v-.1c0-66.5-40-122.4-119.9-120.4-81.5 2-123.2 58.8-119.9 120.4v.2a152 152 0 0 0 9.8 53.3c-24.5 13-21.2 35-10.6 49 6.6 8.7 15.8 16.6 36.6 15.6l.8 2 16 17 33.5 17.5 33.5 6 39.8-9 29.3-16 14.6-16.2c20.2 2.3 30.4-8 37.1-16.9 9.9-13 12.5-38-10.8-48.9" style="fill:#ffdce8"/><path d="M383.5 269.5c-3-6.2-8.3-10.6-14.5-13.3q4.6-12.6 7-25.8 2.4-13 2.5-26.4v-.2c0-23.7-5-47.7-16.8-68.4a104 104 0 0 0-50.2-44.9 144 144 0 0 0-81.2-7 121 121 0 0 0-65.7 33.8 111 111 0 0 0-29.6 60.3 165 165 0 0 0-.8 39.1q1.7 20.4 8.7 39.5a29 29 0 0 0-13.5 11.5 31 31 0 0 0-4.1 17.4c.6 14 8.8 26.4 20.2 34.2 7.7 5.2 17 7.6 26.2 6a61 61 0 0 0 13.5 15 129 129 0 0 0 42.4 21.4c8.5 2.6 17.3 4.6 26.2 5.1a132 132 0 0 0 62-18.5 71 71 0 0 0 24.6-23l.7.2c15.8 2.9 31.8-7.8 39.7-20.9 6.3-10.3 8.1-24 2.7-35.1m-251 3.1q4-8.1 12.2-11.7 1.8 5 4 9.6c-6.8 3.2-11.6 11.8-9.7 19.2.5 2.2 3.9 1.2 3.4-1a12 12 0 0 1 1.5-8.8 14 14 0 0 1 6.2-6.1l1.8 4.1q4.6 10.4 8.6 21.3c2.6 7.2 4.8 14.6 8.4 21.4-23.3 2.8-46.4-26-36.4-48M316.3 342q-10.5 6.8-22.5 11.3-10.5 4-21.4 6.4a70 70 0 0 1-19.9 2 134 134 0 0 1-47.5-14.5 99 99 0 0 1-18.5-12.2 57 57 0 0 1-14.2-18.8c-3.4-7.1-5.5-14.5-8.2-21.7s-5.6-13.8-8.6-20.7c-5.2-12-10.3-23.9-13.1-36.7-3.1-14-4.2-28.6-3.8-42.9a111 111 0 0 1 19.7-61.3 108 108 0 0 1 54.9-39.7q19.6-6.4 40.2-7a116 116 0 0 1 40 3.8 101 101 0 0 1 55.5 35.5 121 121 0 0 1 23.6 61.3q.9 8.6.9 17.1c0 15.1-2.4 30.7-7.1 45s-11.6 27.8-16.8 42l-3.3 9.1a215 215 0 0 1-8.3 19.2 70 70 0 0 1-21.6 22.8m65.4-57a39 39 0 0 1-16.8 29.3 30 30 0 0 1-21.7 6.4q1.5-2.7 2.7-5.5c3.2-7.2 5.7-14.8 8.3-22.2q3.6-9.7 7.7-19.2a14 14 0 0 1 6.2 6.1 12 12 0 0 1 1.5 8.8c-.5 2.2 2.9 3.2 3.4 1 1.9-7.4-2.9-16-9.7-19.2l4-9.5a24 24 0 0 1 14.4 24" style="fill:#3a3880"/><g style="opacity:.4"><ellipse cx="197.7" cy="306.6" rx="23" ry="14.9" style="fill:#ffcfe5"/><ellipse cx="197.7" cy="306.6" rx="20.9" ry="13.6" style="fill:#ffcbe1"/><ellipse cx="197.7" cy="306.6" rx="18.8" ry="12.2" style="fill:#ffc7de"/><ellipse cx="197.7" cy="306.6" rx="16.7" ry="10.8" style="fill:#ffc3da"/><ellipse cx="197.7" cy="306.6" rx="14.6" ry="9.5" style="fill:#ffbfd6"/><ellipse cx="197.7" cy="306.6" rx="12.5" ry="8.1" style="fill:#ffbbd2"/><ellipse cx="197.7" cy="306.6" rx="10.4" ry="6.8" style="fill:#ffb6cf"/><ellipse cx="197.7" cy="306.6" rx="8.3" ry="5.4" style="fill:#ffb2cb"/><ellipse cx="197.7" cy="306.6" rx="6.3" ry="4.1" style="fill:#ffaec7"/><ellipse cx="197.7" cy="306.6" rx="4.2" ry="2.7" style="fill:#ffaac4"/><ellipse cx="197.7" cy="306.6" rx="2.1" ry="1.4" style="fill:#ffa6c0"/></g><g style="opacity:.4"><ellipse cx="313.1" cy="306.6" rx="23" ry="14.9" style="fill:#ffcfe5"/><ellipse cx="313.1" cy="306.6" rx="20.9" ry="13.6" style="fill:#ffcbe1"/><ellipse cx="313.1" cy="306.6" rx="18.8" ry="12.2" style="fill:#ffc7de"/><ellipse cx="313.1" cy="306.6" rx="16.7" ry="10.8" style="fill:#ffc3da"/><ellipse cx="313.1" cy="306.6" rx="14.6" ry="9.5" style="fill:#ffbfd6"/><ellipse cx="313.1" cy="306.6" rx="12.5" ry="8.1" style="fill:#ffbbd2"/><ellipse cx="313.1" cy="306.6" rx="10.4" ry="6.8" style="fill:#ffb6cf"/><ellipse cx="313.1" cy="306.6" rx="8.3" ry="5.4" style="fill:#ffb2cb"/><ellipse cx="313.1" cy="306.6" rx="6.3" ry="4.1" style="fill:#ffaec7"/><ellipse cx="313.1" cy="306.6" rx="4.2" ry="2.7" style="fill:#ffaac4"/><ellipse cx="313.1" cy="306.6" rx="2.1" ry="1.4" style="fill:#ffa6c0"/><ellipse cx="312.5" cy="306.6" rx="2.1" ry="1.4" style="fill:#ffa6c0"/></g><g data-name="cloth main"><path d="M274.9 371q0 2.5.4 4.2.3 2.3 1 3.9c-10 6.7-32 5-41.2 0 1-2.6 1.2-6.7 1.4-8.4 10.5 4.3 32.9 2 38.4.4" style="fill:#5acce0"/><path d="M255.9 385.7c-10.5 0-20.8-1.8-24.7-4.9a1.8 1.8 0 1 1 2.3-2.8c5.9 4.7 34.7 6.4 45-.1a1.8 1.8 0 1 1 2 3c-5.3 3.3-15 4.8-24.6 4.8" style="fill:#3a3880"/><g data-name="c t" style="clip-path:url(#b)"><path d="M108.2 395.2h295.6v125.3H108.2z" style="fill:#5554a7"/><rect width="7.7" height="24.1" x="138.7" y="472.5" rx="3.9" ry="3.9" style="fill:#feeac6" transform="rotate(-39.024 142.564 484.596)"/><path d="M147.7 496a5 5 0 0 1-3.8-1.9l-10.4-12.8a5 5 0 0 1 7.8-6.2l10.3 12.7a5 5 0 0 1-3.9 8.1m-10.3-20.5q-1 0-1.7.6a3 3 0 0 0-.4 3.8l10.3 12.8a2.8 2.8 0 0 0 4.3-3.5l-10.4-12.7q-.8-1-2.1-1" style="fill:#feaabb"/><path d="m144.7 488 4.1-3.5c2-2 2.8-4.3.5-7.2s-5.6-7-8.6-9.3-8.3-3.4-12.3-.2c-3.9 3.2-4 8.6-2.3 12s4.8 7.6 7.2 10.4 5 2.6 7.2 1q1.9-1.3 4.2-3.3" style="fill:#b6dcfa"/><path d="M137.3 493.7q-2.7-.1-5-2.6a62 62 0 0 1-7.4-10.7c-2-4-1.6-10 2.7-13.5a11 11 0 0 1 13.9.1c3.4 2.7 7 7.1 8.8 9.5q3.6 4.7-.6 8.9a71 71 0 0 1-8.5 6.9 7 7 0 0 1-4 1.4m-3-26.6q-2.8 0-5 1.7c-3.4 2.7-3.6 7.4-2 10.5a57 57 0 0 0 7 10.1q2.4 3 5.5.8l4.1-3.3 4-3.4q2.8-2.5.4-5.4a57 57 0 0 0-8.4-9 10 10 0 0 0-5.7-2" style="fill:#9ac5f5"/><path d="M135.4 471.2a41 41 0 0 1 9.4 9.8" style="fill:#b6dcfa"/><path d="M144.8 482.3q-.6 0-1-.6c-1.5-2-6-7.8-9-9.4a1.2 1.2 0 1 1 1.1-2.2c4.2 2.2 9.7 9.8 10 10.2a1.2 1.2 0 0 1-1 2" style="fill:#fedffb"/><rect width="7.7" height="24.1" x="184" y="510" rx="3.9" ry="3.9" style="fill:#feeac6" transform="rotate(-18.643 187.897 522.073)"/><path d="M190.5 534.8a5 5 0 0 1-4.7-3.4l-5.2-15.5a5 5 0 0 1 9.4-3.2l5.2 15.6a5 5 0 0 1-3 6.3zm-5.2-23.2-.9.1c-1.4.5-2.2 2-1.7 3.5l5.2 15.5c.5 1.5 2 2.3 3.5 1.8 1.4-.5 2.2-2 1.7-3.5l-5.2-15.6a3 3 0 0 0-2.6-1.8" style="fill:#feaabb"/><path d="m188.8 526 5-1.9c2.5-1 4.1-3 3-6.5a56 56 0 0 0-4.9-11.7c-2-3.2-6.6-6-11.4-4.4s-6.8 6.6-6.4 10.4 2 8.8 3.2 12.3c1.3 3.4 3.7 4 6.4 3.4z" style="fill:#b6dcfa"/><path d="M181.9 529q-4.1 0-5.8-4.4a58 58 0 0 1-3.3-12.5c-.4-4.5 2-10 7.3-11.8s10.5 1.1 13 5a58 58 0 0 1 5 11.9q1.6 5.7-3.8 8.1a72 72 0 0 1-12.4 3.8m1.4-26.7q-1.2 0-2.4.4c-4 1.3-5.8 5.7-5.5 9.1a57 57 0 0 0 3.1 12q1.3 3.6 4.8 2.5 1.8-.4 5-1.6l5-1.7q3.4-1.5 2.3-5a57 57 0 0 0-4.8-11.4 9 9 0 0 0-7.5-4.3" style="fill:#9ac5f5"/><path d="M185.8 507c3 3.3 5.5 12.5 5.5 12.5" style="fill:#b6dcfa"/><path d="M191.3 520.8q-.9 0-1.2-1c-.7-2.4-3-9.4-5.2-12a1.3 1.3 0 0 1 1.8-1.6 43 43 0 0 1 5.8 13 1.2 1.2 0 0 1-1.2 1.6" style="fill:#fedffb"/><rect width="7.7" height="24.1" x="312.5" y="496.3" rx="3.9" ry="3.9" style="fill:#feeac6" transform="rotate(-31.955 316.389 508.343)"/><path d="M320.7 520.3a5 5 0 0 1-4.2-2.4l-8.7-13.9a5 5 0 0 1 8.5-5.2l8.6 13.9a5 5 0 0 1-1.5 6.8 5 5 0 0 1-2.7.8m-8.7-21.7q-.8 0-1.4.4a3 3 0 0 0-.9 3.8l8.7 14a2.7 2.7 0 0 0 3.8.8c1.3-.8 1.7-2.5.9-3.8l-8.7-13.9a3 3 0 0 0-2.4-1.3" style="fill:#feaabb"/><path d="m318.1 512 4.5-3c2.2-1.6 3.3-3.9 1.4-7a56 56 0 0 0-7.4-10.3c-2.7-2.7-7.8-4.4-12.2-1.7s-5 8-3.8 11.6c1.3 3.7 4 8.1 6 11.2s4.5 3.1 7 1.9z" style="fill:#b6dcfa"/><path d="M310.7 516.7q-3 0-5.2-3.2a58 58 0 0 1-6-11.4c-1.5-4.3-.5-10.2 4.3-13.2s10.5-1.3 13.7 1.9c3 3 6 7.9 7.6 10.5q3 5.1-1.7 8.7a72 72 0 0 1-9.3 5.8q-1.8 1-3.4 1m-1.5-26.8q-2.1 0-4 1.2c-3.7 2.2-4.5 6.9-3.4 10.1 1.4 4 4.5 9 5.8 11q2 3 5.3 1.3 1.7-.8 4.5-2.7 3-1.7 4.4-2.9 3.1-2 1.1-5.3a57 57 0 0 0-7.2-10 9 9 0 0 0-6.5-2.7" style="fill:#9ac5f5"/><path d="M310.9 494.2c3.6 2.5 8.2 10.9 8.2 10.9" style="fill:#b6dcfa"/><path d="M319 506.3q-.6 0-1-.6c-1.2-2.3-5-8.6-7.8-10.5a1.3 1.3 0 0 1 1.4-2c3.8 2.6 8.4 11 8.6 11.3a1.3 1.3 0 0 1-1.1 1.8" style="fill:#fedffb"/><rect width="7.7" height="24.1" x="366" y="477.1" rx="3.9" ry="3.9" style="fill:#feeac6" transform="rotate(120.494 369.84 489.202)"/><path d="M376.9 498.3a5 5 0 0 1-2.5-.7l-14.2-8.3a5 5 0 0 1-1.7-6.8 5 5 0 0 1 6.8-1.7l14.1 8.3a5 5 0 0 1-2.5 9.2m-16.5-14.7c-.8 1.3-.3 3 1 3.8l14.1 8.3a2.8 2.8 0 0 0 2.8-4.7l-14.1-8.3a2.7 2.7 0 0 0-3.8 1" style="fill:#feaabb"/><path d="m366.7 486.8-2.7 4.7c-1.2 2.5-1 5 2 7 3.2 1.9 7.7 4.4 11.4 5.6 3.6 1.1 9 .2 11.5-4.2 2.6-4.3.8-9.4-2-12s-7.2-5.4-10.4-7.2-5.5-.7-7 1.6q-1.4 2-2.8 4.5" style="fill:#b6dcfa"/><path d="M380.5 505.8q-1.8 0-3.5-.5a58 58 0 0 1-11.6-5.8q-5-3.2-2.5-8.6a71 71 0 0 1 5.5-9.3q3.5-4.9 8.7-2c2.7 1.4 7.5 4.3 10.7 7.3 3.3 3.1 5 8.8 2.2 13.7a11 11 0 0 1-9.5 5.2m-7-24.7q-1.6 0-3 2-1 1.4-2.7 4.4l-2.6 4.6q-1.7 3.3 1.5 5.2c2 1.3 7 4.3 11 5.5 3.3 1 8 .2 10.1-3.5 2.2-3.7.7-8.2-1.8-10.5-3-3-8-5.9-10.1-7a5 5 0 0 0-2.4-.7" style="fill:#9ac5f5"/><path d="M381.3 499.2a42 42 0 0 1-12.3-5.8" style="fill:#b6dcfa"/><path d="M381.3 500.5h-.2a43 43 0 0 1-12.8-6.1 1.2 1.2 0 1 1 1.4-2c2.1 1.4 8.4 5.2 11.7 5.6a1.2 1.2 0 0 1-.1 2.5" style="fill:#fedffb"/><rect width="7.7" height="24.1" x="324.5" y="448.3" rx="3.9" ry="3.9" style="fill:#feeac6" transform="rotate(46.352 328.352 460.372)"/><path d="M322.4 471a5 5 0 0 1-3.4-8.6l11.9-11.3a5 5 0 0 1 6.8 7.2l-11.9 11.3a5 5 0 0 1-3.4 1.4m11.9-19q-1 0-2 .7L320.6 464a2.7 2.7 0 0 0 0 4 2.7 2.7 0 0 0 3.8 0l11.9-11.3a2.7 2.7 0 0 0 0-3.9q-.8-.9-2-.8" style="fill:#feaabb"/><path d="m325.2 462.8 3.8 3.8c2 1.8 4.5 2.4 7.2 0 2.7-2.6 6.4-6.2 8.5-9.4s2.7-8.6-.8-12.2c-3.5-3.7-8.9-3.4-12.2-1.4s-7.1 5.4-9.7 8c-2.6 2.7-2.2 5.1-.4 7.2z" style="fill:#b6dcfa"/><path d="M332.5 469.5q-2.3 0-4.4-2a71 71 0 0 1-7.5-7.9q-3.7-4.6.5-8.9c2.1-2.1 6.2-6 10-8.2 3.9-2.3 9.8-2.5 13.7 1.6 4 4 3.5 10 1 13.8a58 58 0 0 1-8.7 9.6q-2.2 2-4.6 2m4.6-26q-2.6 0-4.7 1.2a57 57 0 0 0-9.5 7.8q-2.8 2.8-.3 5.5l3.5 3.9q2.4 2.6 3.7 3.7 2.8 2.5 5.5 0a57 57 0 0 0 8.3-9.1c2-2.9 2.3-7.6-.6-10.7a8 8 0 0 0-6-2.4" style="fill:#9ac5f5"/><path d="M341.1 452.1c-1.7 4-9 10.2-9 10.2" style="fill:#b6dcfa"/><path d="M332.1 463.6a1.2 1.2 0 0 1-.8-2.2c2-1.7 7.3-6.7 8.7-9.8.2-.6 1-.9 1.6-.6.6.2 1 1 .7 1.6a43 43 0 0 1-9.4 10.7q-.3.3-.8.3" style="fill:#fedffb"/><rect width="7.7" height="24.1" x="300.6" y="393.9" rx="3.9" ry="3.9" style="fill:#feeac6" transform="rotate(116.04 304.413 405.993)"/><path d="M311.8 414.6a5 5 0 0 1-2.2-.5l-14.7-7.2a5 5 0 0 1-2.3-6.7 5 5 0 0 1 6.6-2.3l14.8 7.2a5 5 0 0 1-2.2 9.5m-14.8-15a2.8 2.8 0 0 0-1.2 5.3l14.8 7.2a2.7 2.7 0 0 0 3.7-1.3 2.7 2.7 0 0 0-1.3-3.7l-14.8-7.2q-.5-.3-1.2-.3" style="fill:#feaabb"/><path d="m301 403.9-2.2 4.8c-1 2.6-.7 5 2.6 6.8s8 3.9 11.7 4.7 9-.4 11.2-5 0-9.5-3-11.9-7.5-4.8-11-6.3c-3.3-1.6-5.4-.2-6.8 2.1z" style="fill:#b6dcfa"/><path d="M315.4 421.8q-1.5 0-2.6-.3c-4.2-1-9.4-3.5-12-4.9q-5.3-2.8-3.2-8.3a70 70 0 0 1 4.8-9.8q3.1-5.1 8.5-2.7a58 58 0 0 1 11.2 6.5c3.5 2.9 5.8 8.4 3.3 13.5a11 11 0 0 1-10 6m-7.7-24.2q-1.8 0-3 2.2-1 1.5-2.5 4.6l-2.2 4.8q-1.5 3.5 2 5.2c2 1 7.3 3.6 11.4 4.6 3.3.7 7.8-.5 9.7-4.3 1.9-3.9 0-8.2-2.6-10.4a57 57 0 0 0-10.6-6.1q-1.2-.6-2.2-.6" style="fill:#9ac5f5"/><path d="M316.6 415c-4.4-.1-12.7-4.8-12.7-4.8" style="fill:#b6dcfa"/><path d="M316.6 416.3c-4.7-.2-13-4.8-13.4-5a1.2 1.2 0 0 1 1.3-2.2c2.2 1.3 8.8 4.6 12.1 4.7a1.2 1.2 0 0 1 0 2.5" style="fill:#fedffb"/><path d="M269.7 531.3a5 5 0 0 1-4-2 5 5 0 0 1 1.1-7l13.5-9.5a5 5 0 0 1 5.7 8.2l-13.4 9.4a5 5 0 0 1-2.9 1m13.4-17.2q-.7 0-1.6.5l-13.4 9.5a2.8 2.8 0 0 0 3.2 4.5l13.4-9.5a2.8 2.8 0 0 0-1.6-5" style="fill:#feaabb"/><path d="M266.6 539.8c-3.2 0-6.7-1.3-8.9-4.5-3.2-4.6-1.9-10.4 1.1-13.8 3-3.2 7.5-6.5 10-8.2q5-3.2 8.9 1.3a72 72 0 0 1 6.3 8.9q3 5.1-1.8 8.7a58 58 0 0 1-11.1 6.7q-2.1.9-4.5.9m6.2-25.3q-1.2 0-2.5 1a51 51 0 0 0-9.6 7.7c-2.2 2.6-3.3 7.2-.9 10.7a9 9 0 0 0 10.3 2.7 57 57 0 0 0 10.6-6.4q3-2.2 1-5.4l-2.9-4.4-3-4.2q-1.5-1.7-3-1.7" style="fill:#9ac5f5"/><rect width="7.7" height="24.1" x="183.7" y="424.8" rx="3.9" ry="3.9" style="fill:#feeac6" transform="rotate(29.457 187.513 436.855)"/><path d="M183.5 449a5 5 0 0 1-4.3-7.4l8-14.3a5 5 0 0 1 6.8-2 5 5 0 0 1 1.9 6.8l-8 14.3a5 5 0 0 1-4.4 2.6m8-22a3 3 0 0 0-2.3 1.4l-8.1 14.2a2.8 2.8 0 0 0 4.8 2.7l8-14.2c.8-1.4.3-3-1-3.8q-.6-.3-1.3-.3" style="fill:#feaabb"/><path d="m189 433.2 4.7 2.7c2.3 1.6 3.5 3.8 1.7 7a56 56 0 0 1-7 10.6c-2.6 2.8-7.6 4.7-12 2.2s-5.4-7.8-4.3-11.5c1-3.6 3.5-8.2 5.4-11.4s4.4-3.3 6.9-2.1z" style="fill:#b6dcfa"/><path d="M180.8 458.2q-2.6 0-5-1.4c-5-2.8-6.2-8.6-5-13a58 58 0 0 1 5.6-11.6q3.1-5.1 8.5-2.7a72 72 0 0 1 9.5 5.4q4.9 3.3 2.1 8.6a58 58 0 0 1-7.1 10.8c-2 2.3-5.2 3.9-8.6 3.9m1-27q-1.9 0-3.2 2.3a57 57 0 0 0-5.3 11.1c-1 3.3 0 7.9 3.7 10s8.2.5 10.5-2c2.8-3 5.7-8.2 6.8-10.3q1.8-3.2-1.3-5.3l-4.5-2.7-4.7-2.5a5 5 0 0 0-2-.5" style="fill:#9ac5f5"/><path d="M182.6 451.2a40 40 0 0 0 7.8-11.2" style="fill:#b6dcfa"/><path d="M182.6 452.5a1.2 1.2 0 0 1-.7-2.3c2.7-2 6.2-8.4 7.3-10.7a1.2 1.2 0 1 1 2.3 1c-.2.4-4.4 9-8.1 11.7q-.3.3-.8.3" style="fill:#fedffb"/><rect width="7.7" height="24.1" x="226.5" y="474.7" rx="3.9" ry="3.9" style="fill:#feeac6" transform="rotate(110.748 230.348 486.785)"/><path d="m238 494.7-1.7-.4-15.4-5.8a5 5 0 0 1-2.9-6.4 5 5 0 0 1 6.4-2.9l15.4 5.8a5 5 0 0 1 2.9 6.5 5 5 0 0 1-4.7 3.2M222.7 481a2.8 2.8 0 0 0-1 5.3l15.3 5.9a2.7 2.7 0 0 0 3.6-1.6c.5-1.5-.2-3-1.6-3.6l-15.3-5.8z" style="fill:#feaabb"/><path d="m234.2 487.8-2 5c-1.2 2.4-3.2 4-6.7 2.7a56 56 0 0 1-11.5-5.3c-3.1-2.1-5.8-6.8-4-11.6s7-6.5 10.7-6c3.8.5 8.7 2.3 12.1 3.7s4 3.8 3.2 6.4z" style="fill:#b6dcfa"/><path d="M227.8 497.2q-1.2 0-2.7-.5c-2.8-1-8.2-3-11.8-5.4s-6.5-7.8-4.5-13.1 7.6-7.4 12-6.8a58 58 0 0 1 12.5 3.7q5.5 2.4 3.9 8a71 71 0 0 1-3.9 10.2q-1.8 4-5.5 4m-8.4-23.4a9 9 0 0 0-8.2 5.3c-1.5 4 .7 8.1 3.6 10a57 57 0 0 0 11.1 5.2q3.6 1.3 5.1-2l2-5 1.8-5q1.1-3.5-2.5-4.9a57 57 0 0 0-12.9-3.6" style="fill:#9ac5f5"/><path d="M215.4 484.1c3.1 3.1 12.3 6 12.3 6" style="fill:#b6dcfa"/><path d="M227.7 491.3h-.4c-.4-.2-9.4-3-12.8-6.3a1.3 1.3 0 0 1 1.8-1.7c2.4 2.3 9.3 4.8 11.7 5.6a1.2 1.2 0 0 1-.3 2.4" style="fill:#fedffb"/><rect width="7.7" height="24.1" x="261.4" y="434.1" rx="3.9" ry="3.9" style="fill:#feeac6" transform="rotate(-36.969 265.255 446.18)"/><path d="M270.2 457.7a5 5 0 0 1-4-2l-9.9-13a5 5 0 0 1 8-6l9.9 13a5 5 0 0 1-4 8m-11.5-20.3a3 3 0 0 0-.6 3.9l9.9 13a2.8 2.8 0 0 0 4.4-3.2l-9.9-13.1a3 3 0 0 0-3.8-.6" style="fill:#feaabb"/><path d="m262.5 443.3 4.4-3.2c2.3-1.4 4.8-1.6 7.1 1.3s5.3 7 6.9 10.6c1.5 3.5 1.2 8.9-2.8 12s-9.3 1.8-12.3-.7c-2.9-2.5-6.1-6.5-8.3-9.5s-1.2-5.4.8-7.2q1.8-1.6 4.2-3.3" style="fill:#b6dcfa"/><path d="M272.6 467a12 12 0 0 1-7.6-2.7 58 58 0 0 1-8.5-9.8q-3.5-4.9 1-8.9a72 72 0 0 1 8.7-6.5q5-3.2 8.8 1.5c1.9 2.3 5.3 6.9 7 10.9a11 11 0 0 1-3.1 13.4q-3 2.2-6.3 2.1m-2.6-26.6q-1 0-2.4.8l-4.3 3.1-4.1 3.3q-3 2.3-.6 5.4a57 57 0 0 0 8 9.3c2.7 2.2 7.3 3.2 10.7.6s3.8-7.3 2.4-10.4a57 57 0 0 0-6.7-10.3q-1.5-1.8-3-1.8" style="fill:#9ac5f5"/><path d="M276.5 456.4c-1-4.3-7.2-11.6-7.2-11.6" style="fill:#b6dcfa"/><path d="M276.5 457.6q-.9 0-1.2-1c-.8-3.2-5.3-9-7-11a1.3 1.3 0 0 1 2-1.6c.2.3 6.3 7.6 7.4 12.1a1.3 1.3 0 0 1-1.2 1.5" style="fill:#fedffb"/></g><path d="M169.7 506.8h-.2A70 70 0 0 1 137 494a1.6 1.6 0 0 1 2-2.3 66 66 0 0 0 30.8 12 1.5 1.5 0 0 1-.1 3m25-79.7q-.6 0-1.1-.5a68 68 0 0 1-13.7-21.6 1.6 1.6 0 0 1 3-.6c.7 2.9 7.1 14.2 12.9 20a1.5 1.5 0 0 1-1.1 2.7m117.9 5a1.6 1.6 0 0 1-1-2.8 55 55 0 0 0 17.3-23.1 1.5 1.5 0 1 1 2.9 1 59 59 0 0 1-18.4 24.6q-.3.3-.8.3m31.8 73a1.5 1.5 0 0 1-.2-3.2 61 61 0 0 0 29-13.1 1.5 1.5 0 1 1 2.2 2.3 65 65 0 0 1-31 14m-90.8-52.6c-22.8 0-42-10.6-50-17a1.6 1.6 0 1 1 2-2.4c7.8 6.4 27.2 17 50 16.3a89 89 0 0 0 48.6-14.8 1.5 1.5 0 1 1 2 2.5 92 92 0 0 1-52.6 15.4" style="fill:#3a3880"/><path d="M173.6 528.9c-1 0-2-.8-2-1.8a416 416 0 0 0-13.2-61.5 2.1 2.1 0 0 1 4-1.3c5 16 10 39.3 13.3 62.2a2 2 0 0 1-2 2.4m168.7-7.4h-.2q-1.9-.2-2-2.2l.2-1.8c1.2-14 2.3-26.1 6.5-46.2a2.1 2.1 0 1 1 4.1.9 332 332 0 0 0-6.4 45.7l-.1 1.7q-.3 1.8-2.1 2" style="fill:#3a3880"/><circle cx="350.8" cy="463.4" r="1.8" style="fill:#3a3880"/><path d="M350.2 422c8 17.6 17.9 37.1 24.6 57 3 8.8 7.7 16.5 8 25 18.5-10.1-21.8-67.5-32.6-82m-189.5.4c-8 17.5-19.9 44.4-25.2 59.5-3 8.7-5.8 15.5-5 22.1-18.5-10.1 19.4-67.1 30.2-81.6" style="fill:#c7e8ff"/><path d="M341.5 520.4a2.5 2.5 0 0 1-.3-5 88 88 0 0 0 38.6-12.3c5.8-3.9 6.9-5.8 3.6-14.3-3.4-9-18.5-43.4-23.5-51.4l-.8-1.2a73 73 0 0 0-20-23l-1.2-.8c-3.8-2.6-5-3.4-11.7-7.3-1.7-1.1-5-2.6-6.2-.6l-.6 1c-3 4.5-9 13.9-19.3 21.9a77 77 0 0 1-44.1 13 76 76 0 0 1-44-13.3c-10.7-8.3-16.7-17.6-19.6-22l-.4-.6c-1.3-2-4.5-.5-6.2.6l-4.7 2.7a82 82 0 0 0-24.9 21.4c-10.5 14-22.2 45.2-26.6 56.9l-1 2.7c-3.3 8.5-2.2 10.4 3.6 14.3a88 88 0 0 0 38.6 12.2 2.6 2.6 0 0 1-.6 5.1 94 94 0 0 1-40.8-13c-8.3-5.6-9.5-10.1-5.6-20.4l1-2.7c4.5-12 16.4-43.6 27.3-58.2 3.7-5 10.6-12.2 16.5-16.5 3.6-2.6 5.9-3.9 9.9-6.2l4.7-2.7c5.6-3.3 10.5-3 13 1l.4.6c2.8 4.2 8.5 13 18.5 20.8a70 70 0 0 0 40.9 12.2c15.5 0 31.6-4.7 41-12a80 80 0 0 0 18-20.6l.8-1c2.5-4 7.4-4.3 13-1 6.8 4 8.2 5 12 7.5l1.2.9a78 78 0 0 1 21.5 24.4l.8 1.2a606 606 0 0 1 24 52.3c3.8 10.3 2.6 14.8-5.7 20.3a94 94 0 0 1-41.1 13.1m-85.1-146.6c-6.1 0-21.5-.6-23.5-6.5a1.8 1.8 0 1 1 3.4-1.1c.7 1.8 9 4.3 22.2 4 11-.4 16.7-2.6 17.1-4a1.8 1.8 0 0 1 3.5 1c-.5 1.8-3.5 6-20.5 6.5z" style="fill:#3a3880"/></g><path d="m272.1 336.6-21.4 3-13.8-7.3-4-11.2 48.8-2-1.3 8.6z" style="fill:#fa87ba"/><path d="M278.8 314.8h-43.7q-1.6 2.3-2.8 4.8c5.2 2 13.9 3.3 23.7 3.3 3.9 0 6.5 0 9.9-.4 1.5-.2 3.3 1.5 5.6 1.2s3-3 4.1-3.3q3-.6 5.1-1.4z" style="fill:#fcf2ff"/><path d="M281.1 318.9q-2 .8-5.5 1.5c-1 .3-1.9 3-4.1 3.3s-4.1-1.4-5.6-1.2c-3.4.3-6 .4-9.9.4a75 75 0 0 1-23-3" style="fill:none;stroke:#45438f;stroke-linecap:round;stroke-linejoin:round;stroke-width:3.6px"/><path d="M239.8 315.3c10.5 1.5 22.8.9 32.8-1.5a7.3 7.3 0 0 1 8.8 8.7c-1.6 8.2-8 14.4-18.8 16.4-12.1 2.2-27.6-3.1-29.9-16.4-.6-3.5 1.4-8 7-7.2" style="fill:none;stroke:#45438f;stroke-linecap:round;stroke-linejoin:round;stroke-width:3.6px"/><path d="M256 299.2q-1.6-.2-1.7-1.7v-.1q.2-1.7 1.7-1.8c1.5 0 1.7.8 1.7 1.8v.1q-.2 1.6-1.7 1.7" style="fill:#a94bb5;isolation:isolate;opacity:.7"/><path d="M201.8 252c-8 .3-24.6 4.7-30.3 8.9-7.7 5.6-5 13.7-2.4 18.4 2.5 4.6 7.1 10 12.5 13.4 6.3 3.9 14.3 6 22.8 5.7 14.1.7 33.4-28.7-2.6-46.4" style="fill:#fcf2ff;isolation:isolate;opacity:.5"/><path d="M205.6 254.3c-7-.1-12.6 3.3-16.3 8.4a25 25 0 0 0-4.7 12.6 21 21 0 0 0 5.7 17.2 21 21 0 0 0 25 3.3 20 20 0 0 0 9.8-19.2q-.3-7.4-4.6-14a17 17 0 0 0-15-8.3" style="fill:#6b9ef7"/><path d="M208.3 278c0 2-1.6 3.7-3.7 3.7-2 0-3.7-1.7-3.7-3.8s1.7-5.8 3.7-5.8 3.7 3.8 3.7 5.8" style="fill:#fcf2ff"/><path d="M207.2 265.4c0 1.4-1.2 2.6-2.6 2.6a2.6 2.6 0 0 1-2.5-2.6c0-1.4 1-2.8 2.5-2.8s2.6 1.4 2.6 2.8" style="fill:#fdd8f5"/><path d="M207.2 288c0 1.5-1.2 2.6-2.6 2.6a2.6 2.6 0 0 1-2.5-2.5c0-1.5 1-2.8 2.5-2.8s2.6 1.3 2.6 2.8" style="fill:#9ee9f1"/><path d="M215 240c-8-4.6-18-4.4-26.4-1.2-1.4.5-.8 2.8.6 2.2a29 29 0 0 1 24.6 1c1.3.8 2.5-1.2 1.2-2" style="fill:#c684c6"/><path d="m224.4 213-10.7-1.4c-11-1-22 1-32.7 3.7-1.4.4-2.2-1.7-.8-2.3a80 80 0 0 1 33.8-5.5q6 .3 11.3 3.1a1.3 1.3 0 0 1-1 2.4" style="fill:#b880ae"/><path d="M220.6 257.2c-5.2-10.4-17.4-13.8-33.4-9.3q-5.7 1.6-10 3.6c-1.2-1.3-3.5-3.3-5.3-2.3s-1.2 3.6-.6 5.4a33 33 0 0 0-9.9 8.4 2.4 2.4 0 0 0 3 3.5c.1 0 11.2-5.2 23.6-8 11-2.6 23.9-1.8 29.2 1.7a2.4 2.4 0 0 0 3.4-3" style="fill:#45438f"/><ellipse cx="205" cy="251.8" rx="1.7" ry="3.2" style="fill:#c684c6" transform="rotate(-81.556 205.02 251.776)"/><path d="M310.2 252c8 .3 24.6 4.7 30.3 8.9 7.7 5.6 5 13.7 2.4 18.4-2.5 4.6-7.1 10-12.5 13.4-6.3 3.9-14.3 6-22.8 5.7-14.1.7-33.4-28.7 2.6-46.4" style="fill:#fcf2ff;isolation:isolate;opacity:.5"/><path d="M306.4 254.3a17 17 0 0 0-14.9 8.3 28 28 0 0 0-4.6 14 20 20 0 0 0 9.8 19.2 21 21 0 0 0 25-3.3 21 21 0 0 0 5.7-17.2 25 25 0 0 0-4.7-12.6 19 19 0 0 0-16.3-8.4" style="fill:#6b9ef7"/><path d="M303.7 278c0 2 1.6 3.7 3.7 3.7 2 0 3.7-1.7 3.7-3.8s-1.7-5.8-3.7-5.8-3.7 3.8-3.7 5.8" style="fill:#fcf2ff"/><path d="M304.8 265.4c0 1.4 1.2 2.6 2.6 2.6s2.5-1.2 2.5-2.6-1-2.8-2.5-2.8-2.6 1.4-2.6 2.8" style="fill:#fdd8f5"/><path d="M304.8 288c0 1.5 1.2 2.6 2.6 2.6s2.5-1.1 2.5-2.5c0-1.5-1-2.8-2.5-2.8s-2.6 1.3-2.6 2.8" style="fill:#9ee9f1"/><path d="M298.2 242a29 29 0 0 1 24.6-1c1.4.6 2-1.7.6-2.2A31 31 0 0 0 297 240c-1.3.7-.1 2.8 1.2 2" style="fill:#c684c6"/><path d="M286.8 210.6c12.3-6.5 32.4-2.4 45 2.4 1.3.6.6 2.7-.8 2.3a100 100 0 0 0-32.7-3.7q-5.3.5-10.7 1.4c-1.4.2-2.1-1.7-.9-2.4" style="fill:#b880ae"/><path d="M350.6 263a33 33 0 0 0-10-8.4c.7-1.8 1.3-4.4-.5-5.4s-4 1-5.3 2.3a70 70 0 0 0-10-3.6c-16-4.5-28.2-1.1-33.4 9.3a2.4 2.4 0 0 0 3.4 3c5.3-3.5 18.1-4.3 29.2-1.7a136 136 0 0 1 24.6 8.2 2.4 2.4 0 0 0 2-3.7" style="fill:#45438f"/><ellipse cx="307" cy="251.8" rx="3.2" ry="1.7" style="fill:#c684c6" transform="rotate(-8.444 306.98 251.778)"/><g data-name="hair top"><path d="m320.2 356.5-22.7 21.6 14.7 3.4 1.8 14.1 10.5 9.2 5.4-12.5 13 16 16-.3 1.4-5.7 4.3-8-.6-10.1 12.7-2.2 4.8-2.1-21.2-20.5-16.4-8.9z" style="fill:#ebd4fc"/><path d="M321.7 406q-2.5 0-4.4-1.7c-9.5-8.9-7.4-21.6-2.7-29.8a2.3 2.3 0 0 1 4 2.2c-1.4 2.5-7.9 15.2 1.8 24.2q1 .7 2 .3.7-.1.8-.8c.5-2.9 1.6-8.2 4.6-11.6a2.3 2.3 0 1 1 3.4 3 19 19 0 0 0-3.4 9.2q-.6 3.3-3.8 4.6-1.2.3-2.3.3" style="fill:#3a3880"/><path d="M304.8 384.1q-4.2 0-8.4-1.5a4.5 4.5 0 0 1-.5-8.3c6.4-3 9.6-6.8 13.4-11.2l1.7-1.9c5-5.7 10.6-12.2 25.7-8.9a2.3 2.3 0 0 1-1 4.5c-12.4-2.7-16.5 2-21.3 7.4l-1.6 1.9c-4 4.6-7.6 9-14.8 12.3a18 18 0 0 0 15-1 2.3 2.3 0 0 1 2.3 4q-4.6 2.7-10.5 2.7" style="fill:#3a3880"/><path d="M371.4 386.7q-3.8 0-7.8-1.7a2.3 2.3 0 1 1 2-4.2c4.2 2 9 1.4 12 0q1.1-.8 1-1.7 0-.6-.8-1c-6.5-2.7-11.5-8.6-16-13.7-3.2-3.7-12-12-24.9-7.6a2.3 2.3 0 1 1-1.4-4.4c15.5-5.1 26 4.6 29.8 9 4.3 5 8.8 10.2 14.3 12.4q3.4 1.6 3.7 5.2a6 6 0 0 1-3.6 5.8c-2.1 1-5 2-8.3 2" style="fill:#3a3880"/><path d="M359.7 405q-.9 0-1.5-.5c-1-.9-1.1-2.3-.3-3.3 3.9-4.4 7.2-13.7 2.5-20.3a2.3 2.3 0 0 1 3.7-2.7c6.5 9.2 1.8 20.8-2.7 26q-.7.9-1.7.8" style="fill:#3a3880"/><path d="M356.6 413.1a30 30 0 0 1-29.2-24.7 2.3 2.3 0 1 1 4.6-.7 25.6 25.6 0 0 0 24.6 20.8h.1q.9-.1 1.2-.8v-1.1a28 28 0 0 1-7.6-15 2.3 2.3 0 0 1 4.5-.8c1 5.8 3.2 8.9 6.6 12.8 1.3 1.7 1.6 4 .6 6a6 6 0 0 1-5.3 3.5zM329.4 371h-.1q-1.6-.2-1.6-1.9c.6-6.4 2.9-14.8 9.9-19a1.8 1.8 0 1 1 1.8 3c-5.7 3.5-7.6 10.8-8.2 16.4q-.2 1.5-1.8 1.6" style="fill:#3a3880"/><path d="M350.8 370.7q-1.5-.1-1.8-1.6c0-.5-1.1-11.1-12-13.5a1.8 1.8 0 1 1 .8-3.6c13.5 3 14.8 16.6 14.8 16.7a2 2 0 0 1-1.8 2" style="fill:#3a3880"/><path d="M325.5 349.2c-.8 5 2.7 6.7 7.3 7.7 6.5 1.4 15 0 14.2-5.8" style="fill:#b58dba"/><path d="M337.7 359.5a25 25 0 0 1-5.3-.6c-3-.6-10.2-2.2-9-10a2.1 2.1 0 0 1 4.2.6c-.4 2.7.3 4.1 5.7 5.3 4.4 1 9 .5 10.9-1.2q1-.9.7-2.2a2.1 2.1 0 1 1 4.2-.6q.4 3.5-2 5.8c-2.3 2-5.8 2.9-9.4 2.9" style="fill:#3a3880"/><circle cx="351.4" cy="374.9" r="1.7" style="fill:#3a3880"/><path d="M156.3 352.6 126.8 371l7.4 5.4 10.2.2-11.5 16.6 12.4 1.6 12.6-6.3 10 12.6 12.9 3.2-2.4-11.5 21.3 2 4.5-6-8-14.3 15 1.5 3.3-6.2-33.6-20.2z" style="fill:#ebd4fc"/><path d="M203.4 379.1q-5.2.1-10.3-1.9a2.3 2.3 0 1 1 1.8-4.2 24 24 0 0 0 16.7.1q.6-.4.5-1 .1-.4-.5-.7a38 38 0 0 1-16-10.7c-4-4-10.6-10.8-22.5-9.1a2.3 2.3 0 1 1-.6-4.6c14.1-2 22.4 6.4 26.4 10.4a33 33 0 0 0 14.2 9.7c2.1.7 3.6 2.7 3.6 5a5 5 0 0 1-3.3 5.2 26 26 0 0 1-10 1.8" style="fill:#3a3880"/><path d="M139.4 379.7c-5.6 0-11-2-13.9-4.6q-2.4-2.2-2-5 .9-3 4.1-4a49 49 0 0 0 17-9 40 40 0 0 1 31.8-8 2.3 2.3 0 1 1-.8 4.6 35 35 0 0 0-28.2 7c-6 4.8-11 7.4-18.4 9.7q-.9.4-1 .6l.5.7c3 2.5 9.5 4.4 15 3a2.3 2.3 0 0 1 1.2 4.4 21 21 0 0 1-5.3.6" style="fill:#3a3880"/><path d="M184.3 348.1c-2.4 8.4-21.3 12.7-26 3.7" style="fill:#b58dba"/><path d="M168.5 359c-5.6 0-10-2.3-12-6.2a2.1 2.1 0 0 1 3.7-2c1.5 3 5.3 4.3 10.1 3.8 5.8-.5 11-3.7 12-7a2.1 2.1 0 0 1 4 1c-1.7 6.1-9.2 9.6-15.5 10.2zM140 398.1q-1.6 0-3-.3a6.2 6.2 0 0 1-3-10.7q7-6.3 11.5-14.8a2.3 2.3 0 1 1 4 2.1q-4.8 9.2-12.5 16.1a1.6 1.6 0 0 0 .8 2.8l2.2.2c7 0 13.3-2.1 16.8-5.6a2.3 2.3 0 1 1 3.2 3.2c-4.3 4.4-11.8 7-20 7" style="fill:#3a3880"/><path d="M176 406.2q-1.8 0-3.9-.8c-4.2-1.7-14-6.9-16-19.7a2.3 2.3 0 0 1 4.5-.7 21 21 0 0 0 13.2 16q2.9 1.2 4.2-.2.6-.8.2-1.7c-1.8-3.2-3-6-3-10.7q.2-2.1 2.4-2.3c1.2 0 2.3 1 2.3 2.3 0 3.6.8 5.8 2.3 8.4a6 6 0 0 1-.7 7 7 7 0 0 1-5.5 2.4" style="fill:#3a3880"/><path d="M191.4 397.3c-5.8 0-11.6-1.6-15.4-5.5a2.3 2.3 0 0 1 3.3-3.3c5 5.3 15.7 5.2 23 2q1-.6 1-1.1.1-.6-.6-1.2a33 33 0 0 1-12.9-15.2 2.3 2.3 0 1 1 4.3-1.7q2.8 7.3 11.2 13a6 6 0 0 1 2.5 5.5 6 6 0 0 1-3.6 5 33 33 0 0 1-12.8 2.5M162 368.1c-1 0-1.7-1-1.7-2q.5-5 3.4-9.3a1.8 1.8 0 0 1 3 2q-2.4 3.6-2.8 7.7-.2 1.5-1.8 1.6m12.1-3.1q-1.4 0-1.8-1.5-.5-3.1 0-6.2.4-1.6 2.1-1.5 1.6.3 1.5 2-.5 2.6 0 5.1a2 2 0 0 1-1.8 2.1m19.2-21-4.2-2.7c-8.6 5.7-19.6 8-32 6.3-22.7-3-39.8-11.1-45.7-22-5.2-9.5-4.6-23.5 2.1-43 1-3.3 3.5-8.6 6-14.3a97 97 0 0 0 9.7-25.8 2.3 2.3 0 0 0-4.6-.3c-.4 5.2-5 15.3-9.2 24.2-2.7 5.8-5.2 11.3-6.3 14.8q-10.5 30.8-1.8 46.7c9.9 17.9 40.2 23.1 49.2 24.3q4.3.6 8.3.5 16.7 0 28.5-8.7m212.5-38c-1.6-5.2-4-10.4-6-15q-2.4-5.2-3.9-9.3c-2.5-8.3-7.8-30.2-8.5-39.5a2.3 2.3 0 0 0-4.6.3c.8 9.7 6.2 32 8.7 40.6q1.6 4.5 4.1 9.9c2 4.4 4.3 9.4 5.9 14.3q4.2 13 .2 20a38 38 0 0 1-13 13.5 64 64 0 0 1-25 7.8c-12 1.7-33 2.8-46.4-7.1l-3.3 3.2c9.8 7.5 23 9.6 34.6 9.6q9 0 15.7-1.2a69 69 0 0 0 26.8-8.3 43 43 0 0 0 14.7-15.2q4.9-8.8 0-23.7" style="fill:#3a3880"/><path d="M310.2 54c0-1.5-1.7-2.6-3-1.9a38 38 0 0 1-17.5 3.6 16 16 0 0 0 2.2-17.7c-.7-1.2-2.3-1.6-3.2-.4-4 5.5-6.7 8.4-16.1 14.1-1.7-8.1.2-14.3 4-19 1.6-2-.9-4.8-3.3-4.4q-7 1-11.1 4.2l.2-.2c-15.2 1.4-27.6 10.3-28 21.8a33 33 0 0 0-21.2-8.5 3.8 3.8 0 0 0-3 6.2c7 7.6 12.8 15 14 28.3l76.5-11.5a15 15 0 0 0 9.5-14.6" style="fill:#ebd4fc"/><path d="M161 351.8a9.3 9.3 0 0 0 9.3 10h2.6c5.4 0 9.7-4.6 9.3-10l-.5-8.4a10.1 10.1 0 0 0-20.2 0zm14.9-9.6c-.5 1.7-1.7 4.1-5.3 4.1s-4.7-2.4-5.2-4.1q-.2-1.4 1.3-1.6h8q1.4.2 1.2 1.6m-9.9 10.3c0-2.6 2.4-3.8 5.3-3.8s5.3 1.2 5.3 3.8-2.4 3.7-5.3 3.7-5.3-1.1-5.3-3.7" style="fill:#feeac6"/><path d="m336.4 339.7 6.8-1.2s.5 3.5-2.8 4.1-4-2.9-4-2.9m-162.7.9H168s0 3 2.9 3 3-3 3-3" style="fill:#fef5df"/><path d="M351 340.9a11.7 11.7 0 0 0-23 4l1 9.8c.7 6.2 6.5 10.5 12.7 9.4l3-.5c6.2-1 10.1-7.1 8.7-13.2zm-15.5-.6 9.1-1.6q1.6-.1 1.8 1.6c-.2 2-1.2 5-5.2 5.7s-6-1.8-6.8-3.6c-.4-1 .1-2 1-2.1m7 17.2c-3.4.6-6.4-.3-7-3.2-.4-3 2-4.8 5.4-5.4s6.3.3 6.8 3.2-2 4.8-5.3 5.4" style="fill:#feeac6"/><path d="M172.2 363.5h-2.7a11 11 0 0 1-8.1-3.5 11 11 0 0 1-3-8.3l.5-8.3a12 12 0 0 1 23.8 0l.5 8.3q.3 4.8-3 8.3a11 11 0 0 1-8 3.5m-1.4-28.4a8.3 8.3 0 0 0-8.3 8.3v.1l-.5 8.4q-.1 3.2 2 5.7a7 7 0 0 0 5.5 2.3h2.7q3.1 0 5.4-2.3a7 7 0 0 0 2-5.7l-.5-8.4c0-4.6-3.7-8.4-8.3-8.4m0 9.5c-2.8 0-4-2.4-4-4a1 1 0 0 1 1-1h6a1 1 0 0 1 1 1c-.1 1.6-1.2 4-4 4m-1.7-3q.3.9 1.7 1c1.4.1 1.5-.5 1.7-1zm1.7 5.3q-4.7 0-6-4.5-.3-1.1.3-2 .8-1 2-1h7.4q1.1 0 1.9 1t.4 2q-1.5 4.5-6 4.5m-3.8-5.5-.3.1v.3q1 3 4 3.1c3 .1 3.5-1 4.1-3.1v-.3l-.3-.1zm3.5 15.8c-5.5 0-6.3-3-6.3-4.7s.8-4.8 6.3-4.8 6.3 3 6.3 4.8-.8 4.7-6.3 4.7m0-7.5c-4.3 0-4.3 2-4.3 2.8s0 2.7 4.3 2.7 4.3-1.9 4.3-2.7 0-2.8-4.3-2.8m169.2-6c-2.7 0-4-2.4-4.2-3.8a1 1 0 0 1 .8-1.2l6.7-1.2.8.2.4.7c.2 1.5-.2 4.6-3.6 5.2zm-2-3.2c.5.7 1.2 1.4 2.6 1.1a2 2 0 0 0 1.9-1.9zm2.9 25.4q-4.1 0-7.5-2.5a13 13 0 0 1-5-8.7l-1-9.7a13.4 13.4 0 0 1 11-15.6 13.5 13.5 0 0 1 15.6 11l2.3 9.4q1.2 5.4-1.7 10-3.1 4.4-8.4 5.4l-3 .6zm-.2-33.1a10 10 0 0 0-8.1 4.3 10 10 0 0 0-1.7 7.5l1.1 9.7q.5 3.8 3.6 6.2c3 2.4 4.5 2.1 7 1.7l3-.5a9 9 0 0 0 6-4 9 9 0 0 0 1.2-7l-2.3-9.5v-.1a10 10 0 0 0-9.8-8.3m-.7 14q-4 0-6.2-4.2-.5-1.1 0-2.2t2-1.4l8.5-1.5q1.3-.2 2.2.7t.8 2.1q-.7 5.3-5.8 6.3zm4.7-7.3-8.6 1.5q-.4 0-.4.3-.2.1 0 .5 1.6 3.5 5.4 2.8 3.7-.7 4.2-4.5l-.2-.5zm-3.3 19.1c-4 0-5.2-2.3-5.6-4.3-.4-2.4.3-5.5 6.1-6.6 5.9-1 7.6 1.7 8 4.1s-.3 5.5-6.1 6.5zm2.9-9-2 .1c-5.1 1-4.7 3.3-4.5 4.2.1 1 .5 3.4 5.6 2.5 5.1-1 4.7-3.3 4.5-4.2 0-.8-.4-2.7-3.6-2.7m-110.7-293a2.3 2.3 0 0 1-2.2-2.4c.4-12.9 11.5-22.6 27.4-24.1q2.1 0 2.5 2c.2 1.3-.8 2.4-2 2.5-13.6 1.4-23 9.3-23.3 19.8 0 1.2-1.1 2.2-2.3 2.2" style="fill:#3a3880"/><path d="M271.5 53q-1.7 0-2.3-1.8a24 24 0 0 1 4.5-21q-.3-.7-1.3-.7-13.7 1-17 12.8A2.3 2.3 0 0 1 251 41q4.3-14.7 21-16a6 6 0 0 1 5.8 3q1.3 2.8-.5 5-5.7 7.3-3.6 17.2a2.3 2.3 0 0 1-2.2 2.8" style="fill:#3a3880"/><path d="M143.5 288h20.2v35.5h-20.2z" style="fill:#ebd4fc"/><path d="M288.7 57a2.3 2.3 0 0 1-1.8-3.9 14 14 0 0 0 2.1-14.7 46 46 0 0 1-16.3 14.1 2.3 2.3 0 0 1-2.4-3.9 43 43 0 0 0 15.4-13.4 4 4 0 0 1 3.5-1.7q2.3.2 3.6 2.2a18 18 0 0 1-2.4 20.4q-.6.8-1.7.8" style="fill:#3a3880"/><path d="M299.6 69.8a2.3 2.3 0 0 1-.9-4.4c7.1-3 8.3-9.7 8.1-12.2a41 41 0 0 1-18.2 3.7 2.3 2.3 0 0 1-.2-4.6A36 36 0 0 0 305 49a4 4 0 0 1 4 0q2.2 1.3 2.4 3.8c.3 4.2-1.6 13-11 16.8zm-75.2 13.5c-1.2 0-2.2-1-2.3-2.1a42 42 0 0 0-13.4-27 6 6 0 0 1-1-6.5 6 6 0 0 1 5.8-3.5c9.2.3 16 1.4 21.1 6.3a2.3 2.3 0 1 1-3.1 3.3c-4.1-3.8-10-4.7-18.2-5-.9 0-1.3.7-1.4.9s-.3.8.2 1.4c7.3 8 13.4 15.8 14.6 29.7a2.3 2.3 0 0 1-2.3 2.5" style="fill:#3a3880"/><path d="m369.1 329.2-26.2-.6v-44l32 4.7zm-220.4-39.4c-14 9-17.2 31.8-9.7 46 1.4 2.5 5.7 1.9 5.8-1 .2-4.8 1.2-9.5 4-13.4" style="fill:#ebd4fc"/><path d="M141.8 339.7c-2 0-3.9-1.1-4.8-2.9-7.7-14.6-4.9-39.1 10.4-49a2.3 2.3 0 0 1 2.5 4c-10.9 7-17.1 27.2-8.8 42.9q.4.5 1 .3.5-.1.4-.4.3-8.8 4.3-14.5a2.3 2.3 0 0 1 3.8 2.6q-3.2 4.6-3.5 12.1a5 5 0 0 1-4 4.7z" style="fill:#3a3880"/><path d="M146.8 320.5c.6 20.1 23.5 23.2 32.3 19.9q3.3-1.3 5.4-2.7c2.5-1.6 2-5.5-.8-6.2-11.6-3.1-21.4-20.4-20.5-32.7" style="fill:#ebd4fc"/><path d="M171 343.8a32 32 0 0 1-13.1-2.8 23 23 0 0 1-13.4-20.4 2.3 2.3 0 1 1 4.6-.2c.5 9.6 6.1 14.2 10.7 16.4 8.3 4 18.6 2.6 23.4-1h.1q.7-.7.5-1.2a1 1 0 0 0-.7-1c-13.1-3.4-23.2-22.1-22.2-35a2.3 2.3 0 1 1 4.6.3c-.8 10.9 8.1 27.5 18.7 30.3q3.5 1.1 4.2 4.6a6 6 0 0 1-2.5 5.8 26 26 0 0 1-14.9 4.2" style="fill:#3a3880"/><path d="M219.4 65c12.3-7 40.6-8.6 49.2-7.5a73 73 0 0 1 37.2 16c6.6-.5 11.8-1.2 18 1.2 9 3.5 39 23.5 42.8 47.4 0 0-81 9.5-95.6 22.1l-135.4-4.7a101 101 0 0 1 20-44.2c9.7-9.9 12-16.6 26.4-13.7a47 47 0 0 1 21.4-12.2c6.4-1 27-6.8 27-6.8" style="fill:#ebd4fc"/><path d="M254 57.9c31.4-1.4 33 8.4 48.8 14-33.8-12-85.3-4.6-85.3-4.6s5.1-8 36.5-9.4" style="fill:#c7e8ff"/><path d="m213 123.3 24.7 25.1s-19.7-4.5-27.5-5.3c.8 2.6 3.8 5.2 3.8 5.2s-19.7 1.8-28 5.4c6.3-9.5 27-30.4 27-30.4" style="fill:#cc96f2"/><path d="M311.6 78q-.8.1-1.4-.4a134 134 0 0 0-55-17.7 124 124 0 0 0-47.9 12 2.5 2.5 0 1 1-2.5-4.5 129 129 0 0 1 50.5-12.6 139 139 0 0 1 57.8 18.6 2.6 2.6 0 0 1-1.5 4.7" style="fill:#3a3880"/><path d="M364.2 121.4q-2.1-.2-2.5-2.3A34 34 0 0 0 351 96.8a92 92 0 0 0-25.7-16.4c-6.3-3-11.8-3.9-21 .2a2.5 2.5 0 1 1-2-4.7 27 27 0 0 1 25.2-.2c8.3 3.8 16.5 8 26.9 17.3a39 39 0 0 1 12.3 25.6 2.5 2.5 0 0 1-2.6 2.8m-227.7 10.7h-.3a2.5 2.5 0 0 1-2.2-2.9c1.2-9.3 4.8-17 8.2-23.4a67 67 0 0 1 16.3-18l.2-.3c7.3-6 10.3-6.5 15.8-7.4l.7-.1a64 64 0 0 1 20.5.2 2.5 2.5 0 1 1-1 5 59 59 0 0 0-18.7-.2l-.7.1c-5 .8-7.1 1.1-13.3 6.3l-.3.2c-3.3 2.8-11 9.2-15 16.6-3.2 6-6.6 13.2-7.7 21.7a3 3 0 0 1-2.5 2.2" style="fill:#3a3880"/><path d="M180 84.1a2.5 2.5 0 0 1-1.7-4.4 48 48 0 0 1 19-11c6.5-1.7 13.5-1 21.9 2.2a2.5 2.5 0 1 1-1.8 4.7 31 31 0 0 0-18.9-2 43 43 0 0 0-16.8 9.9q-.8.6-1.7.6m64 63.6a5 5 0 0 1-2.1-.4 15 15 0 0 1-5-4.1 2.3 2.3 0 0 1 3.6-2.8c.5.5 1.8 2 3.2 2.7h.6q2.4-1.6 3.1-3.1a2.3 2.3 0 0 1 4 2.4q-1.2 2-4.7 4.6-1.2.6-2.8.7m24.2 0q-1.6 0-2.7-.7a13 13 0 0 1-4.7-4.6 2.3 2.3 0 0 1 4-2.4q.6 1.5 3 3h.6c1.4-.6 2.8-2.1 3.2-2.6a2.3 2.3 0 1 1 3.7 2.8c-.3.3-2.3 2.8-5 4q-1 .5-2 .5" style="fill:#3a3880"/><path d="M256.2 147.7q-2.8 0-4.8-1.4c-1.5-1-2.5-1.7-3.8-3.6a2.3 2.3 0 0 1 3.7-2.7 8 8 0 0 0 2.8 2.6c.8.6 2.7.7 3.2.3 1.2-.8 2-1.3 3.3-3a2.3 2.3 0 1 1 3.6 2.8c-1.8 2.3-3 3.1-4.2 4q-1.8 1-3.8 1M233 113.8q-1.3 0-2-1.3a38 38 0 0 0-10.5-14c-5-4.4-9.2-7.5-15-10.2a2.1 2.1 0 1 1 1.6-3.8c7.1 3.2 11.9 7 16.2 10.8q8.1 7.1 11.6 15.6a2 2 0 0 1-2 2.9" style="fill:#3a3880"/><path d="M341.3 304.3C340.1 315.5 334 328 324 333c-1.7.9-1.4 3.4.4 3.8a23 23 0 0 0 24.4-9.6" style="fill:#ebd4fc"/><path d="M329.4 339.9q-3 0-5.7-.8c-1.7-.4-3-1.9-3.2-3.7q-.2-2.9 2.3-4.3c9.7-5 15.2-17.5 16.2-27a2.3 2.3 0 0 1 4.6.4c-1.2 11-7.2 24.4-18 30.4a21 21 0 0 0 21.2-9 2.3 2.3 0 1 1 3.8 2.6 26 26 0 0 1-21.2 11.4" style="fill:#3a3880"/><path d="M348.9 326.8c-.4 2.7-2 7.7-3.2 10-1.5 2.9.6 6.3 3.8 6 24.5-2.5 34.4-29 24.8-48.1" style="fill:#ebd4fc"/><path d="M349 345.1q-3.2 0-5-2.7a6 6 0 0 1-.4-6.6 39 39 0 0 0 3-9.3 2.3 2.3 0 0 1 4.5.7c-.4 2.7-2 8-3.4 10.7q-.4 1 0 2c.3.2.7.7 1.6.6a28 28 0 0 0 22.4-14.6 33 33 0 0 0 .6-30.2 2.3 2.3 0 0 1 4-2 37 37 0 0 1-.6 34.4 33 33 0 0 1-26.6 17M184.9 157.7a2.1 2.1 0 0 1-1.2-3.9q11-7.5 26.4-7.8l-1-1.2a2.1 2.1 0 0 1 1.2-3.5c.6 0 15-2.3 29 4.3a2.1 2.1 0 1 1-1.8 3.8 50 50 0 0 0-23-4.3l1.1 2.2a2.1 2.1 0 0 1-2 3 45 45 0 0 0-27.5 7 2 2 0 0 1-1.2.4" style="fill:#3a3880"/><path d="m299.7 121.4-27.4 25 29.5-3.3c-.8 2.6-3.8 5.2-3.8 5.2s19.7 1.8 28 5.4c-6.3-9.5-26.3-32.3-26.3-32.3" style="fill:#cc96f2"/><path d="M324.5 157.5q-.6 0-1.2-.3a37 37 0 0 0-24.9-7q-1.1 0-1.8-.9c-.7-.9-.5-1.3-.2-2l1-2.2a50 50 0 0 0-22.9 4.3 2.1 2.1 0 1 1-1.8-3.8c14-6.6 28.4-4.4 29-4.3a2.1 2.1 0 0 1 1.2 3.5l-1 1.2c10.6.2 17.3 3.3 23.8 7.7a2.1 2.1 0 0 1-1.2 3.8M275 105.6l-.9-.1c-1-.5-1.5-1.8-1-2.8 3.9-8.9 13-17.7 19.7-21.5a2.1 2.1 0 0 1 2 3.7 49 49 0 0 0-18 19.5q-.5 1.2-1.8 1.2M361.5 314l-.7-.2q-1.4-.8-1-2.3 3-7.2 2.5-14.8a1.8 1.8 0 1 1 3.6-.2q.5 8.4-2.7 16.3-.5 1.1-1.7 1.2" style="fill:#3a3880"/><circle cx="271.8" cy="111.3" r="2.1" style="fill:#3a3880"/><circle cx="358.7" cy="318.4" r="2.1" style="fill:#3a3880"/><path d="M99.7 227.6c-3.3 5.6-7.2 11-8.6 18-.5 2.3-4.1 2.1-4.2-.3a96 96 0 0 1 3.4-27.3c9.3-36 25.8-64.6 37.7-79a145 145 0 0 1 46-37.4c13-5.8 21.3-.3 21.3-.3s24 10.6 31.8 19.8c5.2 6.3 7.8 16.2 12.7 27.4-14.2-15.7-23.5-21.4-27.8-24.3a116 116 0 0 0-31.2 40.4c-12 25-21.3 56-22.4 78.3-1.2 22.6 1.7 37.6 13.7 52.5 1.9 2.3-.7 5.1-3.7 4.8-19.1-2.5-28.3-8.4-28.3-8.4l.8 3.9s-2.5-1.1-5.7-2.2c-41.5-13.3-37-25-35.5-65.9" style="fill:#ebd4fc"/><path d="M136.8 155a33 33 0 0 0-14 22.6c-1.6 9.8 8.3 10 13.3 5.1 5-4.8 8.5-5.2 8.9-.5s3.8 6.6 8.4 2.8a16 16 0 0 0 5.8-13.8c-.5-4.8-5-3.3-8.2-1.3s-5.8-.7-3.3-8.5c2.6-8.2-3.6-12-10.9-6.3" style="fill:#c7e8ff"/><path d="M167.3 303.2c-16-.1-34.5-10.5-37.6-29.8a2.3 2.3 0 1 1 4.6-.7c2.7 16.7 19 25.8 33 25.9q2-.2 2.6-1.4.5-.6-.3-2c-12.8-17.2-13.4-44-12.7-58.5.6-22 12.3-60.1 25-81.5 6-10.6 20.2-27.4 30.2-34a2.3 2.3 0 0 1 2.5 4 117 117 0 0 0-28.7 32.3c-12.4 20.9-23.8 58-24.4 79.3-.7 14-.1 39.6 11.8 55.8q2.3 3.2.7 6.7a7 7 0 0 1-6.7 3.9" style="fill:#3a3880"/><path d="M238.5 151q-1.1 0-1.8-1a95 95 0 0 0-17.4-18.8 16 16 0 0 0-8.5-4.3 2.1 2.1 0 0 1 0-4.2h.1q5.2.2 11.2 5.3a98 98 0 0 1 18.1 19.7 2.1 2.1 0 0 1-1.7 3.3" style="fill:#3a3880"/><path d="M172.9 105.7C102.4 136 84.6 231 88.2 232c0 0 24.7-88.5 84.7-126.2" style="fill:#c7e8ff"/><path d="M89.4 250.8h-.2a5 5 0 0 1-4.7-4.1 80 80 0 0 1 1.9-31.7 204 204 0 0 1 39.6-77.6c11-13.4 29.8-30.3 47-38.1 13.7-6.1 24-1.2 31.5 2.3l.7.3a98 98 0 0 1 22.1 14.5c6.7 6 11.7 20 14.2 31.2a2.5 2.5 0 1 1-5 1c-2.2-9.8-6.8-23.2-12.6-28.5a92 92 0 0 0-20.9-13.6l-.6-.3c-7.4-3.5-15.8-7.4-27.2-2.3a143 143 0 0 0-45.2 36.8 198 198 0 0 0-38.7 75.6 79 79 0 0 0-2 28.3 79 79 0 0 1 7.2-19 2.6 2.6 0 0 1 4.4 2.6 78 78 0 0 0-7 19 4.6 4.6 0 0 1-4.5 3.6" style="fill:#3a3880"/><path d="M102.3 224.7a74 74 0 0 0 4.5 46.6q2.2 5.2 6.9 8.6c9.7 7.1 21.8 9.8 33.3 12.6a2.3 2.3 0 0 1-.7 4.5q-3.3-.2-6.3-1c-12.3-3-27.5-7.5-35.4-18a75 75 0 0 1-7.2-54.4c.8-3.3 5.6-2.2 5 1.1" style="fill:#3a3880"/><circle cx="130.8" cy="264.7" r="2.1" style="fill:#3a3880"/><path d="M398.5 256.7v24.7l4.8 1.2s9.5-17.2 10.6-32a150 150 0 0 0-8.1-61.8c-7.7-19.3-22.6-53.7-45.5-76.1A73 73 0 0 0 328.5 97c-11.1-3-34.2 8-43.1 16.3-8.6 7.8-7.8 17.2-12.6 32 3.4-9.4 27.8-22.1 27.8-22.1s33 24.4 49.5 107.4a81 81 0 0 1-21.7 70.4c-2 2 .1 5.5 3 5a68 68 0 0 0 20.4-6.9l5.8-.3 7.3-2.2 22-16.8z" style="fill:#ebd4fc"/><path d="M372.7 152c8.9 7 13.2 16.1 11.9 25.2-1.6 11.1-12.4 9.4-16.8 3-3.7-5.4-7.4-5.7-8.7-1.4s-6 5.2-9.7.8c-2.5-3-3.8-6.6-2.7-11.6s6.4-4.3 9-1.9 5 .7 4.2-7c-1-8.3 5-13.3 12.8-7.1" style="fill:#c7e8ff"/><path d="M339.3 101.9c67.3 36.7 76.1 132.8 72.4 133.5 0 0-16.2-90.4-72.4-133.5" style="fill:#c7e8ff"/><path d="M401.3 284.7q-1.1 0-2.3-.5a5.5 5.5 0 0 1-3.3-5.9c.8-6.2 1.3-13.7-.7-21.7a2.6 2.6 0 0 1 5-1.2c2.2 8.8 1.6 16.9.8 23.6q0 .3.2.5.3.1.8-.2c8-9.8 9-23.4 9.7-33.3l.2-2.1c1.3-17.5-6.5-51-12.5-65.1a180 180 0 0 0-40.9-62.4 68 68 0 0 0-29-16c-5.4-1.5-17.5 1.7-26.3 5.3a53 53 0 0 0-17.8 12.5 88 88 0 0 0-10.6 29.7 2.6 2.6 0 0 1-5-1c2.3-11.3 6.8-26 11.6-32A58 58 0 0 1 301 101c3.4-1.3 20.5-8 29.7-5.6 7 2 20.2 6.7 31.2 17.4a184 184 0 0 1 42 64c6 14.4 14.3 48.7 12.9 67.5l-.2 2c-.7 10-1.8 25.2-10.9 36.2a6 6 0 0 1-4.4 2.2" style="fill:#3a3880"/><path d="m273 149.3-1.2-.3c-1-.6-1.2-2-.6-3 5.7-8.5 12-14.7 16.2-18.4a47 47 0 0 1 11.8-7.2 2.1 2.1 0 0 1 1.2 4c-1 .3-6.4 3.2-10.2 6.4a85 85 0 0 0-15.5 17.6q-.6 1-1.8 1" style="fill:#3a3880"/><path d="M331.2 307.8a6 6 0 0 1-5.3-3.2 5 5 0 0 1 1-5.7q22.3-23.9 19.9-62.5a205 205 0 0 0-17.3-65.3c-9.2-22-22.6-41.8-33.3-49.1a2.3 2.3 0 0 1 2.6-3.8c11.4 7.8 25.4 28.3 35 51.1a209 209 0 0 1 17.6 66.8q2.5 40.7-21.2 66-.3.3-.1.5.2.6 1.2.6c7.3-.4 29-7.5 33.7-26.2a2.3 2.3 0 0 1 4.5 1.2c-5.3 20.6-28.3 29-38 29.6z" style="fill:#3a3880"/><path d="M350.6 301.4a2.3 2.3 0 0 1 0-4.6 37 37 0 0 0 16.2-3.6c2.8-1 9.7-4.1 14-8.6 7.1-7.7 12.5-19 14.4-30.4a2.3 2.3 0 0 1 4.5.8 65 65 0 0 1-15.6 32.7 46 46 0 0 1-15.6 9.8 43 43 0 0 1-17.9 4" style="fill:#3a3880"/></g><g data-name="cloth top"><path d="M138 448c1.3 32.6-26.4 92.4-26.4 92.4l52-8.5c-2-23.5 24.5-93.8-12.5-92.5" style="fill:#fed8e8"/><path d="M115.9 415.6c5.8 25.6 53.7 74.1 53.7 74.1l7.6-48.6s-34.6-45-48-25.5" style="fill:#fed8e8"/><path d="M150.1 327.5c-3.4-1.2-8-2.3-12-2.3-2.6 0-5.2 0-7 2.4-1.4 2-1.4 5.9 2.7 7.9" style="fill:#fef5df"/><path d="M133.8 337.8q-.5 0-1-.3a8 8 0 0 1-4.6-5.4q-.7-3.2 1.1-5.8c2.5-3.4 6.2-3.4 8.8-3.4 5.2 0 10.7 1.7 12.8 2.4a2.3 2.3 0 0 1-1.5 4.4c-4-1.4-8.1-2.2-11.3-2.2-2.7 0-4.1.2-5.1 1.5q-.6.7-.4 2 .4 1.5 2.2 2.4a2.3 2.3 0 0 1-1 4.4" style="fill:#3a3880"/><path d="M155 326c21.8-5.8 33.6-1.8 35.5 5.3l22.4 82.7-2.1 7.4s-13.2 7-27.6 10.8c-14.5 4-29.4 3.8-29.4 3.8l-5.4-4.8S125 354.8 128 347.3c-4.2-8 5.1-15.4 27-21.3" style="fill:#fef5df"/><circle cx="188.3" cy="423" r="1.1" style="fill:#f5a7b6"/><path d="M210.2 417c-13.1-7.9-39.7-.7-59.8 15.1l-13.3-53a65 65 0 0 1 63.6-16c4.7 20.7 13.6 49.1 9.5 53.8" style="fill:#fcf2ff"/><path d="M199.1 370.9c4.1 14.2-2.4 21.8-7.2 23.4q-6.6 2-15-2c-4.4-2-7-4.7-11.7-5.3-7.5-.8-10.6 3.9-14.6 5-4.4 1-9.8-.5-14-2.2l-7.1-31.1c2.4-15.6 39.8-30.2 61.7-20.2 0 0 3.8 18.2 8 32.4m-2.6 29.7a4 4 0 1 1-8 0 4 4 0 0 1 8 0" style="fill:#a8e3f0"/><path d="M158.6 367.8q.2 1.4-1.3 1.7-1.5 0-1.6-1.3t1.3-1.6q1.3 0 1.6 1.2" style="fill:#3a3880"/><path d="M157 370.3c-1 0-2-.8-2-2a2.2 2.2 0 0 1 1.9-2.5 2.2 2.2 0 0 1 2.4 2q.2.9-.3 1.6-.7.8-1.6.8zm.1-3a1 1 0 0 0-.7.8q0 .6.8.6.4 0 .5-.2l.2-.6q0-.2-.3-.5zm12.9 2.5c-2.7.6-5.2.5-5.7-1.8s1.5-4.5 4.1-5.1c2.7-.7 5.4.5 6 2.7s-1.7 3.6-4.4 4.2" style="fill:#3a3880"/><path d="M164.5 367.2c2.3-2.5 7-3.5 9-2.2-3.3-4.1-8.7-2.6-9 2.2" style="fill:#fcf2ff"/><path d="M167.7 370.2q-1.5 0-2.4-.6a3 3 0 0 1-1.4-2c-.5-2.5 1.4-5 4.3-5.6 3-.7 5.7.7 6.4 3.1q.2 1.3-.4 2.5-1 1.6-4.1 2.3zm2-6.4-1 .1c-1.8.5-3 1.9-2.8 3.3q.2.6.5.8.3.4 3.2 0 2.3-.6 3-1.5v-.9c-.2-1-1.5-1.8-2.9-1.8m-18.1.7a1.3 1.3 0 0 1-1-1.9c.5-1 1.8-2.2 3.2-2.5q1.2-.2 1.5.9.2 1.1-.9 1.5c-.7.1-1.4.9-1.7 1.3q-.3.6-1 .7m27.8-1.5q.5 1.4 1.9 1 1.3-.5.9-1.9-.5-1.2-1.9-.9-1.3.6-.9 1.9" style="fill:#3a3880"/><path d="M180.8 364.9q-1.4 0-2-1.6-.5-2 1.4-2.8a2.2 2.2 0 0 1 2.8 1.4q.3 1 0 1.7-.5.9-1.4 1.1zm-.6-2c.1.2.3.6 1 .4q.3 0 .4-.4v-.5q0-.4-.4-.4h-.5q-.6.2-.5.8m3.6-5.7q-.5 0-.8-.2c-.4-.3-1.4-.6-2-.5a1.2 1.2 0 1 1-.6-2.4c1.5-.3 3.2.2 4.1.9a1.2 1.2 0 0 1-.7 2.2M129 350q-.5 0-.8-.2a7 7 0 0 1-4.4-4.6c-.4-1.8-.3-4.6 2.7-7.9a59 59 0 0 1 27.2-14.8c11.3-3 21.8-3.3 30.5-.7 4.7 1.4 6.1 4 6.6 5.6q.8 3.1-1.4 6a2.3 2.3 0 0 1-3.5-3q.6-.6.5-1.7-.6-1.6-3.5-2.5a51 51 0 0 0-28 .7 54 54 0 0 0-25 13.5q-1.9 2.2-1.6 3.7c.2.8 1 1.2 1.4 1.4a2.3 2.3 0 0 1-.7 4.5" style="fill:#3a3880"/><path d="M159.4 437.6h-2.2a8 8 0 0 1-3.6-1l-4-2.2c-2-1-3.5-3-4.1-5.1l-19-72.8q-.7-3 0-5.8c.8-3.6 2.9-7.7 3-8a2.3 2.3 0 1 1 4 2.2s-1.9 3.8-2.6 6.9a8 8 0 0 0 0 3.6l19 72.7q.5 1.5 1.8 2.3l4.1 2.2q.7.3 1.6.4c7.8.2 16.2-.9 24-3.1a103 103 0 0 0 24-9l1.5-1.4 2.5-4.2q1-1.6.5-3.5l-19.8-72.5q-.4-1.5-1.4-2.7c-.8-1-3.6-3-5.4-4a2.3 2.3 0 0 1 2.4-4c.9.5 5 3.2 6.6 5.1q1.6 2 2.2 4.4l19.9 72.5q1 3.8-1 7.2l-2.6 4q-1.1 1.8-2.6 2.7a93 93 0 0 1-25.5 9.8 85 85 0 0 1-23.3 3.3" style="fill:#3a3880"/><path d="M134.8 351a1.8 1.8 0 0 1-1.2-3c10.6-10.6 35.6-17.3 49.6-13.3a1.8 1.8 0 1 1-1 3.5 58 58 0 0 0-46 12.4q-.6.5-1.4.5m21.2 77.3a1.8 1.8 0 0 1-1.3-3 59 59 0 0 1 22.8-10.8c9-2.4 21.7-3.9 27.7-2a1.8 1.8 0 1 1-1 3.5c-4.7-1.5-16-.6-25.8 2a56 56 0 0 0-21.1 9.8q-.6.5-1.3.5" style="fill:#3a3880"/><path d="M192.8 424a1.5 1.5 0 0 1-.2-3.2l3.3-.2a1.5 1.5 0 0 1 0 3.1zm-26.9 7.7a1.5 1.5 0 0 1-.8-2.9 68 68 0 0 1 17.9-6.4 1.6 1.6 0 0 1 .6 3 65 65 0 0 0-17.7 6.3M165 331a1.6 1.6 0 0 1-.2-3.1q5.4-.6 9.9-.2a1.5 1.5 0 1 1-.3 3.1 43 43 0 0 0-9.5.1m-27.1 9.8a1.5 1.5 0 0 1-.9-2.8 58 58 0 0 1 21.4-9q1.5-.2 1.9 1.2.1 1.4-1.2 1.8a56 56 0 0 0-20.3 8.5q-.4.3-.9.3" style="fill:#f5a7b6"/><path d="M114.8 406c.8-6.8.2-26.5 3.5-30.3 2.7-3 9.4-8.3 12.5-11.2s4.5 4.8 3.8 8.5-2.3 5.3-6 8.7c0 0-.4 7-.1 8.1" style="fill:#fed8e8"/><path d="M114.8 408.3h-.3a2.3 2.3 0 0 1-2-2.6l.5-8.6c.4-11.5 1-19.9 3.6-22.9 1.8-2.1 5.3-5 8.4-7.7l4.2-3.7q2.2-2 4.6-.8c3.2 1.8 3.7 8.3 3 11.4-.7 4.2-2.6 6.3-6 9.3a46 46 0 0 0 0 6.6 2.3 2.3 0 0 1-4.5 1.2q-.4-1.5 0-9 0-.9.7-1.5c3.6-3.3 4.8-4.4 5.4-7.4.3-2 0-4.6-.6-6L128 370c-3 2.5-6.3 5.4-8 7.2-1.7 2-2.2 13.8-2.4 20.1q-.2 5.6-.5 9-.5 1.8-2.3 2m15.9-19.1" style="fill:#3a3880"/><path d="M144 394c12.8-5.7 11.5-15.2 6.6-13.5-4.8 1.7-10 3-15 4.8-5.4 2.1-7 2.9-9.5 5.7a91 91 0 0 0-10.5 14c-1.4 3.3-3.5 6-3.8 7.2-1.6 5.1 2.4 8 6.1 13 3.2 4.1 15.9 23.7 23.2 34.2" style="fill:#fed8e8"/><path d="M141 461.7q-1.1 0-1.8-1l-12.3-18.1c-4.7-7.1-9.2-13.9-10.8-16L114 424c-3.1-3.7-6-7.2-4.4-12.5q.3-1.1 1.5-2.9 1.3-2 2.4-4.5c2-4.4 10.8-14.5 11-14.6 2.8-3.3 4.8-4.2 10.3-6.3l9-3 6-1.9c2.7-.9 5.2.2 6.2 2.7 1.6 4.2-1.7 11-11 15a2.3 2.3 0 1 1-1.9-4.1c5.6-2.5 8.1-5.7 8.6-8q.2-1.2 0-1.3h-.4q-3 1.1-6.2 2l-8.6 2.9c-5.5 2-6.5 2.7-8.6 5-3 3.4-9 10.7-10.2 13.5q-1.3 2.9-2.7 5c-.4.7-1 1.6-1 1.9-.9 2.8.5 4.6 3.5 8.1l2.3 2.8c1.7 2.3 6 8.7 11 16.2 4.3 6.5 8.8 13.2 12.2 18a2.3 2.3 0 0 1-2 3.7" style="fill:#3a3880"/><path d="M120.9 411.6c4-4 10-10.8 12.2-12.5s4.4-3.1 7-3.8c4.1-1.1 14-2.6 19.3-3.6s6.7 6.7-1.6 11.6" style="fill:#fed8e8"/><path d="M120.9 414q-.9 0-1.6-.7a2 2 0 0 1 0-3.2l3.6-3.9c3.4-3.7 7-7.5 8.8-9 2.1-1.5 4.7-3.3 7.7-4.1 3.1-.9 9-1.8 14.2-2.7l5.4-1c3-.5 5.6.9 6.6 3.5 1.3 3.4-.3 8.7-6.6 12.4a2.3 2.3 0 1 1-2.4-4c4.1-2.4 5.2-5.4 4.7-6.8 0-.2-.3-.7-1.5-.5l-5.5 1c-5 .8-10.8 1.7-13.7 2.5q-3.3 1.1-6.1 3.4c-1.5 1.2-5.3 5.2-8.3 8.5l-3.6 3.8q-.7.7-1.7.7M162 558.4q-1 0-1.8-1l-.8-1c-.7-1-.6-2.4.4-3.2.3-27.9 5.4-56 10.3-83v-.3a2.3 2.3 0 0 1 4.6.8v.3c-5.1 27.8-10.4 56.6-10.3 85.1a2.3 2.3 0 0 1-2.3 2.3" style="fill:#3a3880"/><path d="M129.4 420.8c1.8-1.5 9.3-10.3 13-12.3s12.7-4.6 16.6-5.1 5.8 3.7.2 8.7c-3.1 3-8.5 5.4-9.5 6-2.1 1.2-4.2 5.7-6.8 10.3" style="fill:#fed8e8"/><path d="M143 430.7a2.3 2.3 0 0 1-2-3.4l1.3-2.5c2.2-4.1 4-7.4 6.3-8.7l1-.5c1.6-.9 5.7-3 8.1-5.2 2.5-2.3 2.9-4 2.7-4.5q-.3-.3-1-.2c-4 .5-12.7 3-16 4.8a65 65 0 0 0-9.6 9l-2.8 3a2.3 2.3 0 1 1-3.1-3.4l2.6-2.7c4.1-4.4 8-8.5 10.7-10 4-2.1 13.5-4.7 17.5-5.3 2.6-.3 4.9.7 5.8 2.8 1.4 2.9 0 6.6-3.7 9.9a46 46 0 0 1-9.2 5.9l-.7.4c-1.2.7-3 4-4.6 7l-1.4 2.5q-.7 1-2 1.1m28.1 44.6-1-.2a2.3 2.3 0 0 1-1.2-3c2-5.1 6.3-15.8 6-23.4-.3-7-1-9.4-3-12.7a2.3 2.3 0 0 1 4-2.3c2.5 4.3 3.3 7.5 3.6 14.8.3 8.6-4 19.5-6.3 25.3q-.7 1.5-2.2 1.5m-63.4 77.5q-.6 0-1-.3c-1.2-.5-1.7-2-1.1-3a370 370 0 0 0 30.8-94.5c.2-1.2 1.4-2 2.7-1.8 1.2.2 2 1.4 1.8 2.6a375 375 0 0 1-31.2 95.7q-.7 1.2-2 1.3" style="fill:#3a3880"/></g></svg>