<svg xmlns="http://www.w3.org/2000/svg" width="512" height="512" viewBox="0 0 512 512"><defs><clipPath id="a"><path d="M0 0h512v512H0z" style="fill:none"/></clipPath></defs><g style="clip-path:url(#a)"><path d="M0 0h512v512H0z" style="fill:#3cb5c9"/><path d="M171 112.5a4 4 0 0 1-6 0L153.5 101a4.2 4.2 0 0 1 6-6l11.6 11.7a4 4 0 0 1 0 6m-.8 102.6-9-13.9a4.2 4.2 0 1 0-7 4.6l9 13.9a4 4 0 0 0 5.8 1.2 4 4 0 0 0 1.2-5.8M20.5 357.5l-9.2-13.7a4.2 4.2 0 0 0-7 4.7l9.3 13.7a4 4 0 0 0 5.8 1.1c2-1.3 2.4-4 1.1-5.8m110.6 51.9 11.6-11.8a4.2 4.2 0 0 0-6-6l-11.6 11.9a4.2 4.2 0 0 0 6 6m-20.7-95.7 5.7 15.6a4.2 4.2 0 0 0 7.9-3l-5.7-15.5a4.2 4.2 0 0 0-7.9 3M22.3 436.4l-.1-16.5c0-2.3-2-4.2-4.2-4.2-2.4 0-4.2 2-4.2 4.3v16.5c.1 2.3 2 4.2 4.3 4.2s4.2-2 4.2-4.3m413-428L424.5-4.1a4.2 4.2 0 0 0-6.4 5.5L429 13.9c1.6 1.7 4.2 2 6 .4 1.7-1.5 2-4.2.4-6M408 134.5l16.3 3c2.3.3 4.4-1.2 4.9-3.5a4 4 0 0 0-3.5-4.9l-16.2-2.9a4.2 4.2 0 1 0-1.5 8.3m54.3-74.2L452.6 74a4.2 4.2 0 1 0 6.9 4.9l9.5-13.5c1.4-2 1-4.6-1-5.9a4 4 0 0 0-5.8 1M305.9 41l13.5-9.4a4.2 4.2 0 1 0-4.8-7l-13.5 9.5c-2 1.4-2.4 4-1 5.9s3.9 2.4 5.8 1M55.4 493l12.5-11c1.7-1.6 2-4.2.4-6a4 4 0 0 0-6-.4L50 486.5a4.2 4.2 0 0 0 5.5 6.4m-42.6-424-14.6-7.7c-2-1.1-4.6-.3-5.7 1.8-1 2-.3 4.6 1.8 5.6L9 76.3c2.1 1 4.6.3 5.7-1.8 1-2 .3-4.6-1.8-5.7m87 95.4 16.6-.7c2.3-.1 4-2 4-4.4-.1-2.3-2-4.1-4.4-4l-16.5.7c-2.3 0-4.1 2-4 4.4 0 2.3 2 4 4.4 4m10.6-169 5.7 15.5a4.2 4.2 0 0 0 7.9-3l-5.7-15.4a4.2 4.2 0 0 0-7.9 3m58.2 62.2V40.9c0-2.3-2-4.2-4.3-4.2s-4.2 2-4.2 4.3l.1 16.5c0 2.3 2 4.2 4.3 4.2s4.2-2 4.1-4.2m-115.1 181 12.3-11c1.8-1.5 2-4.2.4-6a4 4 0 0 0-6-.3L48 232a4.2 4.2 0 0 0 5.5 6.4M374 412.8l11.7 11.7a4.2 4.2 0 0 0 6-6l-11.8-11.7a4.2 4.2 0 0 0-6 6m20.9-82 9 13.8c1.3 2 3.9 2.5 5.8 1.3 2-1.3 2.5-4 1.3-5.9l-9-13.8a4.2 4.2 0 0 0-7 4.6m18.8-142.7L402.2 200a4.2 4.2 0 0 0 6 5.9l11.6-11.9a4.2 4.2 0 0 0-6-5.9m33.6 82-5.8-15.4a4.2 4.2 0 0 0-7.9 3l5.8 15.4a4.2 4.2 0 0 0 7.9-3m5.5 112.5-11.5 11.9a4.2 4.2 0 0 0 6 5.9l11.6-11.9a4.2 4.2 0 0 0-6-5.9M402.8 473l.2 16.5c0 2.3 1.9 4.2 4.2 4.2s4.2-2 4.2-4.3L411 473c0-2.4-2-4.2-4.3-4.2s-4.2 2-4.1 4.3m112.8-117L503 367a4.2 4.2 0 0 0 5.5 6.3l12.5-11c1.7-1.4 2-4.1.4-5.9a4 4 0 0 0-6-.3" style="fill:#fec9ea"/><path d="M172 166.4c-1.2-2-.6-4.5 1.4-5.8l14-8.8c1.9-1.3 4.5-.7 5.7 1.3s.7 4.5-1.3 5.8l-14 8.8a4 4 0 0 1-5.7-1.3M130 276.8l.9-16.5a4.2 4.2 0 1 0-8.4-.5l-1 16.6a4.2 4.2 0 1 0 8.4.5M56 313.6l8.9-14c1.2-1.9.7-4.5-1.3-5.7s-4.6-.7-5.8 1.2l-8.9 14c-1.2 2-.7 4.6 1.3 5.8s4.6.7 5.8-1.3m59 140.1-6.2-15.3a4.2 4.2 0 0 0-7.8 3.2l6.2 15.2a4.2 4.2 0 0 0 7.8-3.2M507.1 62l14.1-8.6c2-1.2 2.7-3.8 1.5-5.8a4 4 0 0 0-5.8-1.4l-14.1 8.6a4.2 4.2 0 0 0 4.4 7.2M341.7 93.7 351 80c1.2-1.9.7-4.5-1.2-5.8-2-1.3-4.6-.7-5.9 1.2l-9 13.8c-1.4 2-.8 4.5 1.1 5.8s4.6.8 5.8-1.2M64.3 45l8.8-14c1.3-2 .7-4.5-1.2-5.8-2-1.2-4.6-.7-5.9 1.3l-8.8 14c-1.3 2-.7 4.5 1.3 5.8s4.5.6 5.8-1.3m136-49.3-7.1 15a4 4 0 0 0 2 5.5c2 1 4.5.1 5.5-2l7.3-15c1-2 0-4.6-2-5.6-2.1-1-4.6-.1-5.6 2m-140 135.6L54.3 116a4.2 4.2 0 0 0-7.8 3.2l6.2 15.3a4.2 4.2 0 0 0 7.8-3.2m311.8 247.1-13.9 9a4.2 4.2 0 1 0 4.6 7l13.9-9a4 4 0 0 0 1.3-5.7 4 4 0 0 0-5.9-1.3M494.4 276l-8.8 14c-1.3 2-.7 4.6 1.3 5.9 2 1.2 4.6.6 5.8-1.4l8.8-14c1.2-2 .6-4.5-1.3-5.8-2-1.2-4.6-.6-5.8 1.3m-34.1-141 6.2 15.2a4.2 4.2 0 1 0 7.8-3.2l-6.3-15.3a4.2 4.2 0 1 0-7.8 3.2m-9.4 367.8-8.8 14c-1.2 2-.6 4.5 1.3 5.8 2 1.2 4.6.6 5.8-1.4l8.8-14c1.3-2 .7-4.5-1.3-5.8s-4.6-.6-5.8 1.4m48.7-54 15.5 5.5c2.2.8 4.6-.3 5.4-2.5s-.4-4.6-2.5-5.4l-15.6-5.5a4.2 4.2 0 1 0-2.8 7.9" style="fill:#caedb2"/><path d="M240.3 184.4a4 4 0 0 1-4.8-3.4l-2.6-16.4a4.2 4.2 0 0 1 8.3-1.3l2.6 16.3a4 4 0 0 1-3.5 4.8m-55.6 79 15.5-5.6a4.2 4.2 0 0 0-3-7.9l-15.4 5.7a4.2 4.2 0 0 0 3 7.9m-167 6.9L2 264.6a4.2 4.2 0 1 0-2.8 8l15.5 5.6c2.2.8 4.6-.4 5.4-2.6.8-2.1-.3-4.5-2.5-5.3m85 70.7-14-8.7c-2-1.3-4.6-.7-5.9 1.3-1.2 2-.6 4.6 1.4 5.8l14 8.8c2 1.2 4.5.6 5.8-1.4s.6-4.5-1.4-5.8m-46 56.8 10.2 13a4.3 4.3 0 0 0 6 .8 4.4 4.4 0 0 0 .7-6l-10.2-13a4.2 4.2 0 1 0-6.6 5.2m360-328.2-.6-16.5a4.2 4.2 0 0 0-8.4.4l.7 16.5a4 4 0 0 0 4.3 4 4 4 0 0 0 4-4.4M363 23.7l-5 15.8a4.2 4.2 0 1 0 8 2.5l5-15.8c.7-2.2-.5-4.5-2.8-5.2s-4.5.5-5.2 2.7M131.2 493.3l3.8-16.1c.5-2.3-1-4.5-3.2-5s-4.5.8-5 3l-3.8 16.2c-.5 2.2.9 4.5 3.1 5s4.6-.8 5.1-3.1M112 88.4l-14-8.8c-2-1.2-4.6-.6-5.9 1.4-1.2 2-.6 4.5 1.4 5.8l14 8.7c2 1.3 4.6.7 5.8-1.3s.6-4.6-1.3-5.8m-91.6 84.9L32.9 184a4.2 4.2 0 1 0 5.5-6.4L25.9 167a4.2 4.2 0 1 0-5.5 6.4m86.5 57.2 3.8-16.1c.5-2.3-1-4.6-3.2-5a4 4 0 0 0-5 3l-3.8 16.2c-.5 2.2.9 4.5 3.1 5s4.6-.9 5.1-3.1M234 63.7l-7-15c-1-2-3.5-3-5.6-2s-3 3.5-2 5.6l7 15a4.2 4.2 0 0 0 7.6-3.6m72.1 303.1 2.7 16.3a4.2 4.2 0 1 0 8.3-1.4l-2.7-16.3a4.2 4.2 0 1 0-8.3 1.4m58.6-84.2-15.5 5.8a4.2 4.2 0 0 0 3 7.9l15.5-5.8a4.2 4.2 0 0 0-3-7.9M469 214.3l14 8.7c2 1.2 4.7.6 5.9-1.4s.6-4.5-1.4-5.8l-14-8.7c-2-1.2-4.6-.6-5.9 1.4-1.2 2-.6 4.6 1.4 5.8m54.2-58.7-10.2-13a4.2 4.2 0 0 0-6.6 5.2l10.2 13a4 4 0 0 0 6 .7c1.8-1.4 2-4 .6-5.9m-82.4 290.7L455 455c2 1.3 4.6.6 5.8-1.3 1.2-2 .6-4.6-1.4-5.8l-14-8.7c-2-1.2-4.6-.6-5.8 1.4s-.6 4.5 1.3 5.7m12.4-119.8-3.7 16.1c-.5 2.3 1 4.6 3.2 5a4 4 0 0 0 5-3.1l3.7-16.1c.5-2.3-.9-4.5-3.2-5-2.2-.6-4.5.9-5 3.1M317 491.5l7 14.9c1 2 3.6 3 5.7 2 2-1 3-3.5 2-5.6l-7.1-15c-1-2-3.5-3-5.6-2s-3 3.6-2 5.7" style="fill:#b6dcfa"/></g><g data-name="hair bottom"><path d="m454 481.8-12.7-7.7s3.8-20-.5-28.5-19.4-14.6-19.4-14.6 3.6-20.7-1.3-29.8c-5.8-10.9-19-14.3-19-14.3s5.6-19.4 2.8-31.5c-1.5-6.6-17.5-20-17.5-20L330 367.1s4.7 22.5 11 28.2c8 7.3 27.8 11.7 27.8 11.7s1 14.5 5 20.3c4.8 6.9 13.1 12.1 25.5 14.5-2.5 17.9-6 27.8 24 41.5V503l12.6 13.6 22.6-2.2 1.8-19.5z" style="fill:#f9aac3"/><path d="M414 212.3c-3-16.3-8.9-36.4-8.9-36.4s-23.8-55-40.2-76c-27.3-35.2-100-64-142.1-35-21-9.4-50.9 0-76.9 28.8-21 23.2-36.8 56.5-42.5 99.9-3.8 29.2-3.5 39.2-5 54.5s3.8 54 18 74c10.8 15 17.6 27.1 31.4 36.3s28.7 16.5 28.7 16.5l51.9 8.5 52-8.8 44.6-5.5 51 3s21.4-46.8 33-65.4c12.6-20.1 9.2-72.6 5-94.4" style="fill:#f9aac3"/><path d="M107.4 189.3c-27 56.9-6.3 142.8 37 165.5-42-39-45.6-111.5-37-165.5" style="fill:#c7e8ff"/><path d="M174.7 361.3c48 25.3 108.2 14.3 108.2 14.3s26.6-6.5 45.8-4.7c16.2-3.9 41.1 4.6 52.8 10-1-5.5.4-14.6 1.5-21.5s.4-7.3 3.2-15.3a120 120 0 0 0 8.5-46.8 132 132 0 0 0-17.8-59.1c-42.5-6.2-206 21.8-241.2 18.3-16 30.1-9.8 59 7.5 79.4a95 95 0 0 0 31.5 25.4" style="fill:#e27ccb"/><path d="M229.2 61.7c33.3-14 68.1 3 87.8 13.5 52.5 28 79.3 88 95.2 132.4-13.9-83.2-65-135.5-117.6-150.2a86 86 0 0 0-65.4 4.3" style="fill:#c7e8ff"/><path d="M383.7 360.3h-.2a2.6 2.6 0 0 1-2.4-2.7c1.1-13 7-21.9 13.2-31.3q5-7.3 9.8-16.4c10-20 13.5-42.7 11.2-71.6A272 272 0 0 0 399 167a192 192 0 0 0-41.1-67.7 142 142 0 0 0-73.3-42.7c-24-5.7-44.1-2.3-61.3 10.4a2.5 2.5 0 1 1-3-4.1c18.2-13.5 40.3-17.3 65.5-11.2a147 147 0 0 1 75.8 44 196 196 0 0 1 42.1 69.4 278 278 0 0 1 16.7 73c2.4 29.7-1.3 53.3-11.8 74.2-3.2 6.5-6.6 11.8-10 16.9-6.1 9.3-11.4 17.3-12.4 29a3 3 0 0 1-2.5 2.2m-29.7 9.3a200 200 0 0 0-55.7-.1 435 435 0 0 0-28.5 5.7q1.5 2.1 2.1 4.7c8.6-2 17.3-3.8 27.2-5.4 14.8-2.5 33.6-2.4 54.3.2a2.5 2.5 0 1 0 .6-5" style="fill:#3a3880"/><path d="M254.3 379.9c-14.6 1.6-37.5.2-54.5-2.3a110 110 0 0 1-60.5-28.7A124 124 0 0 1 102 274c-3.7-25.4-.6-46.3 1.7-61.4v-.5c3.5-23 10.4-47.6 19.5-69.1 9.9-23.4 27.3-46 45.4-59.4 19.8-14.5 41.8-21 58.8-17.2a2.6 2.6 0 0 0 1-5c-18.4-4-41.9 2.7-62.8 18.1-19.1 14-36.7 37-47 61.5a301 301 0 0 0-19.9 70.3v.5a206 206 0 0 0-1.8 63c2.8 19.6 9.9 49 38.7 77.8a115 115 0 0 0 63.3 30c12.3 1.9 27.2 3 40.2 3q8.1 0 14.9-.6-.4-2.6.2-5.1m112.2-14.5a2 2 0 0 1-1.6-1c-10-14.9-24.3-19-39.6-23.2l-8.5-2.4a2 2 0 0 1 1.2-3.8l8.4 2.4c15.3 4.3 31.1 8.7 41.8 24.9a2 2 0 0 1-1.7 3" style="fill:#3a3880"/><path d="m178.4 349.2-1-.3a44 44 0 0 1-21.3-24.9 2 2 0 1 1 3.8-1.2 40 40 0 0 0 19.4 22.6 2 2 0 0 1-1 3.8" style="fill:#3a3880"/><circle cx="185.6" cy="350.6" r="2" style="fill:#3a3880"/><path d="M290.8 357.2a2 2 0 0 1-.3-4c9.7-1.6 20.5-2.8 33.7-1.4a2 2 0 1 1-.5 4 115 115 0 0 0-33 1.4" style="fill:#3a3880"/><path d="M399.8 388.9c3.1-25.2-2.5-38.5-9.1-48.2 17.7 6 15.2 24.5 9 48.2m4.2.6c10.8 9.3 13.4 15.6 14.7 39.5 4.2-13.6 7.1-37-14.7-39.5m19 45.2c15.3 11.5 16.4 20.5 17.7 41.3 4.1-13.5 3.8-37.8-17.7-41.3m20.5 42.8c11.8 11.7 12.7 22.2 13.1 36 4.1-13.4 4.7-34-13-36" style="fill:#c7e8ff"/><path d="m381.6 383.5-1-.3a76 76 0 0 0-12.2-5.7 2 2 0 0 1 1.3-3.8 91 91 0 0 1 10 4.4c.2-2.5.3-5 .8-8.8a2 2 0 1 1 4 .4c-.5 3.7-.6 6.1-.7 8.5l-.2 3.4a2 2 0 0 1-2 1.9m20.1 34.7-.9-.2-9.7-4.8a2 2 0 0 1 1.7-3.6l6.6 3.3-.5-7.3a2 2 0 1 1 4-.3l.8 10.7a2 2 0 0 1-2 2.2m21.7 36.5-1-.3-9.5-5.9a2 2 0 0 1 2-3.4l6.2 3.8c-.2-2.2-.7-4.7-1-6.3a2 2 0 1 1 4-.6c.7 4 1.4 8.5 1.3 10.8a2 2 0 0 1-2 1.9m18.6 41.4a2 2 0 0 1-1.3-.5l-7.5-6.4a2 2 0 1 1 2.6-3l4.1 3.5V486q.2-1.8 2-2c1 0 2 .8 2 2l.1 8.2a2 2 0 0 1-2 2M400.8 399a2.4 2.4 0 0 1-2.4-2.4 142 142 0 0 1 2.6-22.2c1.5-8.5 4.4-24.4-10.7-33.7a2.4 2.4 0 1 1 2.6-4c17.8 11 14.5 29.6 12.9 38.5a124 124 0 0 0-2.6 21.5c0 1.3-1.1 2.4-2.4 2.4M376 411l-.2-.1q-10.4-1.3-22.3-5.2c-17.2-5.6-21.7-16.3-24-34.1a2.4 2.4 0 0 1 4.7-.6c2.5 18.7 7.3 25.8 20.7 30.1q11.6 3.8 21.5 5a2.4 2.4 0 0 1-.3 4.8" style="fill:#3a3880"/><path d="M421 435.4c-1.3 0-2.4-1-2.4-2.4-.1-3 .2-6.2.6-10.6l.6-6.8c.5-6.6-1.2-13.4-4.5-17.7-3.6-4.6-7.9-6.5-13.8-9.1a2.4 2.4 0 1 1 2-4.4c6.3 2.8 11.3 5 15.6 10.6a31 31 0 0 1 5.5 21l-.6 6.9c-.4 4.2-.7 7.2-.6 10q-.1 2.2-2.4 2.5m-17.1 10.3-.8-.1a186 186 0 0 1-14-5c-4-1.6-8.6-3.6-12.5-6.9-7-5.8-8.8-13.6-9.5-24.4a2.4 2.4 0 1 1 4.8-.3c.7 9.7 2.1 16.3 7.8 21 3.3 2.8 7.5 4.7 11.2 6.1q6.7 2.8 13.7 4.9a2.4 2.4 0 0 1-.7 4.7" style="fill:#3a3880"/><path d="m426.4 486.2-1-.2-1.2-.5a51 51 0 0 1-23-15.2 36 36 0 0 1-4-28.5 2.4 2.4 0 0 1 4.7 1.1c-2.2 9.4-1 18.8 3.3 24.6a46 46 0 0 0 20.8 13.6l1.3.5a2.4 2.4 0 0 1-1 4.6m16.1-5.2q-2.1-.2-2.4-2.3c-.2-4.8.2-8.4.5-12q.5-3.3.6-7c0-4.3-.2-9.8-3.5-14.5-3.3-4.8-7.7-7.9-16.2-11.3a2.4 2.4 0 0 1 1.7-4.4 36 36 0 0 1 18.5 13c4 6 4.4 12.7 4.3 17.3q-.2 4-.6 7.5c-.4 3.5-.7 6.7-.5 11.1a2.4 2.4 0 0 1-2.4 2.6" style="fill:#3a3880"/><path d="M435.7 518q-.7 0-1.5-.5-3.4-2.6-6.7-5.5a27 27 0 0 1-6.9-8.2q-2.1-4.4-1.8-10.1.3-5 1.4-9.5a2.4 2.4 0 1 1 4.7 1q-1 4.3-1.3 8.7-.3 4.6 1.3 7.8c1.3 2.6 3.7 4.8 5.8 6.7q3.1 2.7 6.5 5.3a2.4 2.4 0 0 1-1.5 4.3m22.1-1.3-.7-.1c-1.3-.4-2-1.8-1.6-3 1.6-5.4 1.7-14.1.8-19.5q-.5-3.8-2-6.5a25 25 0 0 0-12.7-10.7 2.4 2.4 0 0 1 1.9-4.4q10.7 4.6 15 12.9 1.8 3.3 2.5 8a53 53 0 0 1-1 21.6q-.6 1.6-2.2 1.7" style="fill:#3a3880"/></g><path d="m350 420.7-70.3-38.5-3-26.8h-41.3l-2.8 26.7-63.7 34.4-12.4 12.3S135.4 496.4 131 512h247.2L359 436.5z" style="fill:#eef1f9"/><path d="M232.7 357.4c-.3 4.7.4 14.7.4 14.7s7.6 7.2 24.4 7.2 22.3-10 22.3-10-.4-7.6 0-12.7c-14.1 6.9-32.4 4.1-47.1.9z" style="fill:#9f8ac0;isolation:isolate;opacity:.7"/><path d="M368.4 461.3q6.9 25.4 13 50.7h-5.2q-6.1-24.7-13-49.2l-4.5-16.1c-1.8-6-3.7-12.2-7.1-17.5-4-6.6-10.4-10.1-17-13.8q-11.1-6.3-22.6-12l-2.3-1.2c-7.4-3.7-15.1-7.1-22.2-11.5a27 27 0 0 1-7.6-5.6 16 16 0 0 1-3.5-5.3l-.1-.5-1-3.2c-.8-4.3-.6-9-.5-13.4 0-3 4-4 5-1.2l.2 1.3q-.4 6 .3 11.9l.2 1c1 4.4 4 7 7.8 9.3 9.7 6.1 20.2 10.8 30.3 15.9q11.8 6 23.1 12.6a40 40 0 0 1 15.5 14.3c3 5.3 4.8 11.4 6.5 16.9s3.2 11 4.7 16.6m-29 3.9q-3.2-8.7-5.3-17.7c-.7-2.9-5.1-1.7-4.4 1.2h-.1q2.3 9.4 5.7 18.7a60 60 0 0 1 .3 44.6h4.8a76 76 0 0 0 3.9-18.5c.8-9.8-1.6-19.1-4.9-28.3m-186.7-18.5c1.8-6 3.7-12.2 7.1-17.5 4-6.6 10.4-10.1 16.9-13.8q11.8-6.7 24-12.7c9.4-4.7 19.4-9 27.9-15.2q6-4.2 7.4-11.2c.8-4.4.7-9 .5-13.5-.1-3.3-5.3-3.3-5.1 0q.4 6-.3 11.9c-.6 4.1-2.7 6.9-6.1 9.2-7.8 5.3-16.6 9.3-25.1 13.6s-16.4 8.2-24.3 12.7c-6.7 3.8-13.5 7.4-18.3 13.6-7.3 9.5-9.9 22.4-13.1 33.7q-5.2 19.2-10.2 38.6l-4 15.9h5.2q6.2-24.7 12.9-49.2zm19.2 36q1.3-7.9 4.1-15.5 3.4-9.1 5.7-18.7c.7-2.9-3.8-4.1-4.4-1.2v.1q-2 8.1-4.7 16-2.2 5.8-3.8 11.7a63 63 0 0 0 2.3 36.9h4.7a60 60 0 0 1-3.9-29.3" style="fill:#38377a"/><path d="M365.8 257.4c8.6-19.1 10.2-53.5 10.2-53.5v-.1c0-66.5-40-122.4-119.9-120.4-81.5 2-123.2 58.8-119.9 120.4v.2a152 152 0 0 0 9.8 53.3c-24.5 13-21.2 35-10.6 49 6.6 8.7 15.8 16.6 36.6 15.6l.8 2 16 17 33.5 17.5 33.5 6 39.8-9 29.3-16 14.6-16.2c20.2 2.3 30.4-8 37.1-16.9 9.9-13 12.5-38-10.8-48.9" style="fill:#eef1f9"/><path d="M159.4 294.4c19 36.9 56.2 17 77.5 3.7 20.1-12.5 33.5-3.3 44.5 3.8 20 12.7 30.8 18.4 48.9 12 27.6-9.7 32.1-40.5 43-87.7 7.8-36.2 2-67.8-17-96.2C299.2 49.7 143 67.4 135 201c-1.8 31 14 64 24.4 93.4" style="fill:#9675b2;isolation:isolate;opacity:.4"/><path d="M383.5 269.5c-3-6.2-8.3-10.6-14.5-13.3q4.6-12.6 7-25.8 2.4-13 2.5-26.4v-.2c0-23.7-5-47.7-16.8-68.4a104 104 0 0 0-50.2-44.9 144 144 0 0 0-81.2-7 121 121 0 0 0-65.7 33.8 111 111 0 0 0-29.6 60.3 165 165 0 0 0-.8 39.1q1.7 20.4 8.7 39.5a29 29 0 0 0-13.5 11.5 31 31 0 0 0-4.1 17.4c.6 14 8.8 26.4 20.2 34.2 7.7 5.2 17 7.6 26.2 6a61 61 0 0 0 13.5 15 129 129 0 0 0 42.4 21.4c8.5 2.6 17.3 4.6 26.2 5.1a132 132 0 0 0 62-18.5 71 71 0 0 0 24.6-23l.7.2c15.8 2.9 31.8-7.8 39.7-20.9 6.3-10.3 8.1-24 2.7-35.1m-251 3.1q4-8.1 12.2-11.7 1.8 5 4 9.6c-6.8 3.2-11.6 11.8-9.7 19.2.5 2.2 3.9 1.2 3.4-1a12 12 0 0 1 1.5-8.8 14 14 0 0 1 6.2-6.1l1.8 4.1q4.6 10.4 8.6 21.3c2.6 7.2 4.8 14.6 8.4 21.4-23.3 2.8-46.4-26-36.4-48M316.3 342q-10.5 6.8-22.5 11.3-10.5 4-21.4 6.4a70 70 0 0 1-19.9 2 134 134 0 0 1-47.5-14.5 99 99 0 0 1-18.5-12.2 57 57 0 0 1-14.2-18.8c-3.4-7.1-5.5-14.5-8.2-21.7s-5.6-13.8-8.6-20.7c-5.2-12-10.3-23.9-13.1-36.7-3.1-14-4.2-28.6-3.8-42.9a111 111 0 0 1 19.7-61.3 108 108 0 0 1 54.9-39.7q19.6-6.4 40.2-7a116 116 0 0 1 40 3.8 101 101 0 0 1 55.5 35.5 121 121 0 0 1 23.6 61.3q.9 8.6.9 17.1c0 15.1-2.4 30.7-7.1 45s-11.6 27.8-16.8 42l-3.3 9.1a215 215 0 0 1-8.6 19.6 75 75 0 0 1-7.5 10.5 69 69 0 0 1-13.8 11.9m65.4-57a39 39 0 0 1-16.8 29.3 30 30 0 0 1-21.7 6.4q1.5-2.7 2.7-5.5c3.2-7.2 5.7-14.8 8.3-22.2q3.6-9.7 7.7-19.2a14 14 0 0 1 6.2 6.1 12 12 0 0 1 1.5 8.8c-.5 2.2 2.9 3.2 3.4 1 1.9-7.4-2.9-16-9.7-19.2l4-9.5a24 24 0 0 1 14.4 24" style="fill:#3a3880"/><g data-name="cloth main"><path d="M282 379.4c-1.8-2.8-2-7.4-2-8.5 7.3.3 17.3 1.8 28 3.7 0 0-10 10.1-14.5 13.4-3.9-2.1-9.1-5-11.5-8.6m-53.8 1.5c2.4-3 3.1-6 3.1-9.7-9.1-.5-22.8 1.8-37.2 4.6 0 0 17.2 10.1 21.7 13.4a62 62 0 0 0 12.4-8.3" style="fill:#c181ec"/><path d="M115.7 512.7H394c-4.7-19-13-50-19.4-62 2.5-10.3 5.6-22.3 4-33-1.2-13.4-17.2-28.6-28.3-34.2-5.3-14.4-19.2-21-34-12.5-21.9 12.6-36.2 33.6-36.2 33.6s-22.4 29.8-22.6 44.9c-3-10.7-6-15.6-15.6-29.5-6.6-9.6-26-30.6-47.3-43.2-13-7.6-32.5-8.4-39.2 9.7a57 57 0 0 0-27.3 38.3 72 72 0 0 0 4 36.3z" style="fill:#ffbdd5"/><path d="M144.8 407.4a20 20 0 0 1-7.3-4.3c3.6-4.6 7.2-9.5 11.3-13.5q4-2.9 7.8-6.1l.4-.4 1.2 1.5c2 3 3.3 7.1 3.2 11.2q-.3 7-4.9 10.5-5 3.3-11.7 1.1m3 77.5a5 5 0 0 0-6.8-4.4l-.4-.2q-2-4.6-7.4-6.3-3.1-.9-6.7-.5l-.6 1v.3l-3.8 9-.9 2.6q-1.6 5.2-2.5 10.5 3.2 2.9 7 4c3.6 1 7.3.3 10.2-2l.3-.3.3.1a5 5 0 0 0 4.8 2 5 5 0 0 0 3.9-5 5 5 0 0 0 2.8-3.8q.3-2.2-1-3.9 1-1.4.9-3.1m20.8-51.4a.3.3 0 0 1-.3-.4l.2-1-2.6-1.5c-4-2.3-8.5-5.3-13-7.1q-4 4.4-7.7 9.2l-2.7 4.8 1.3 2.2q3.3 4.6 9.2 4.8h.3l.2.3a5 5 0 0 0 2.5 4.5 5 5 0 0 0 6.1-1.3 5 5 0 0 0 4.6-1.2q1.5-1.6 1.7-3.6 1.6-.5 2.7-2a5 5 0 0 0-2.5-7.7m169.3-2.3a76 76 0 0 1 20.6-10.4l.4-1.3q1.3-5.6-2.6-10l-.1-.3v-.3a5 5 0 0 0 1.7-4.9 5 5 0 0 0-5-3.7 5 5 0 0 0-4-2.6q-2.2-.1-3.8 1.1-1.4-.9-3.2-.7a5 5 0 0 0-4 7q0 .3-.3.5c-2.8 1.4-5.1 4-6 7.7-.8 3.5-.3 7.9 1.3 11.5q1.9 4.3 5 6.4M276.3 421q.4 0 .3.4-.7 5 3 9.3c2.4 2.7 6.2 4.8 10.2 5.5q7 1.4 11.4-2.5v-.1c2.8-2.5 4-6.5 3.5-11-.4-4-2-8-4.5-10.8q-4-4.1-9.8-3.6h-.3l-.2-.2a5 5 0 0 0-3-4.2 5 5 0 0 0-6 2 5 5 0 0 0-4.4 1.8q-1.4 1.8-1.2 3.8-1.6.6-2.4 2.2a5 5 0 0 0 3.4 7.4m-85.5 7.3a5 5 0 0 0 1.7 4.4q1.6 1.5 3.8 1.3.7 1.6 2.2 2.4a5 5 0 0 0 7.4-3.4q0-.3.4-.3c3.1.5 6.5-.3 9.3-2.8 2.7-2.5 4.8-6.3 5.6-10.2q1.3-7.1-2.5-11.5h-.1c-2.5-2.8-6.5-4-11-3.6-4 .4-8 2.1-10.8 4.5q-4.1 4-3.7 9.8v.3l-.2.2a5 5 0 0 0-4 2.8l-.2.2a5 5 0 0 0 2 6m5 66h-.3v-.4a5 5 0 0 0-1.4-5 5 5 0 0 0-6.3-.2 5 5 0 0 0-4.7 0 5 5 0 0 0-2.6 3.1q-1.6 0-3 1.2a5 5 0 0 0 .5 8.1q.3.2.2.5a11 11 0 0 0-.1 11h26c1-3.7.9-8-.4-11.3q-2.2-5.4-7.8-7m143 5.4h-.1q-5.5 1.9-8 8.5a20 20 0 0 0-1 4.5h18.7q.9-5.4 1.2-10.8-5.6-3.8-10.8-2.2m32.1-18.6q0-2.1-1.5-3.7.7-1.5.4-3.2a5 5 0 0 0-7.5-3.3l-.4-.1a11 11 0 0 0-7.9-5c-3 5.1-5 11-6.7 16.8l1.7 10.6 1.3.2q5.6.5 9.8-3.6l.2-.2h.3a5 5 0 0 0 5 1.2 5 5 0 0 0 3.1-5.5 5 5 0 0 0 2.2-4.2m1.7 31.6H394l-2.6-11.2-2.1-.4h-.3q-.2-.2-.1-.3c.1-1.7-.7-3.5-2-4.6h-.2a5 5 0 0 0-6.2.7 5 5 0 0 0-4.7.8 5 5 0 0 0-2 3.5q-1.6.3-2.8 1.7a5 5 0 0 0 2 7.9l.1.4zM296.4 489c-3.2-2-7.4-2.1-11.7-.5a19 19 0 0 0-9 7.3q-3 4.8-1 10.4l.1.3-.2.2a5 5 0 0 0-3.2 4l.2 2h26.1l1.6-2c2-3.1 3-7.3 2.6-11.3q-.6-7.2-5.5-10.4m30.4-32.4-.1-.4q2.1-4.6-.3-9.8-1.3-2.4-3.3-4.5-6.8 3.6-13.7 6.8l-9.6 4.8q.4 3 1.6 5.4 2.6 5 8.4 6.2h.3l.1.3a5 5 0 0 0 1.8 4.8 5 5 0 0 0 6.2-.3 5 5 0 0 0 4.8-.5q1.8-1.3 2.2-3.3 1.7-.2 3-1.4a5 5 0 0 0-1.4-8m-122-2.3-1-.4-.1.1a19 19 0 0 0-5 10.5q-.9 7.2 3.2 11.3 4.2 4 11.3 3c4-.7 7.9-2.6 10.4-5.2q4-4.2 3.1-10v-.3l.2-.1q2-.4 3.2-2-12.8-3-25.3-7" style="fill:#fed0d8"/><path d="M198.8 431.3c.1-.5-.5-1-1-.7q-1.7 1.4-3.5 0-1.5-1.5-.2-3.3.6-.8-.4-1-1.3 0-2.1-1a2 2 0 0 1-.3-1.8c.6-1.3 2.5-2 3.5-.7l.6 1.1a15 15 0 0 0 4.8 5.6l1.3.8 1.2.7c1 1 .3 2.4-.7 3q-1.1.5-2.2 0-1.5-1-1-2.7m-8.5 59.2q-1.2.6-1.6 1.7c-.2.6-.9.5-1.2 0-.6-1.1-1.9-1.6-3-1q-2 1.2-1.3 3.3c.1.6-.6 1-1 .7q-1.4-1.1-2.9 0-1 .7-.7 2c.1 1.1 1.2 2.3 2.4 1.7l1.1-.9a17 17 0 0 1 8.2-3.4l1.2-.2c1.6-.4 1.6-2.4.6-3.4a2 2 0 0 0-1.8-.5m-47-2c-.5-.2-.4-1 .1-1.2q1.7-.5 1.7-2.2 0-1.2-1.2-1.9c-1-.5-2.6-.3-2.8 1v1.4a18 18 0 0 1-1.4 7.3l-.7 1.3q-.4.5-.6 1.1c-.6 1.5 1 2.7 2.4 2.6a2 2 0 0 0 1.4-1.2q.4-1.2-.3-2.3-.4-.9.7-1 2.1.2 2.6-1.9.1-2.2-1.9-3m23-52-1 1a17 17 0 0 1-5.6 4.8l-1.4.6-1.2.4c-1.4.9-.9 2.8.3 3.5a2 2 0 0 0 1.8 0q1.1-.7 1.2-2c0-.6.8-.7 1.1-.3q1.7 1.5 3.3.2 1.4-1.6.4-3.5c-.3-.5.4-1 .8-.8q1.7.5 2.8-.7.6-1.1.2-2.2c-.4-1-1.8-2-2.8-1m112 74-1-1c-1.3-1-2.8.2-3 1.6q-.2 1 .5 1.6h6.1zm106.7-12a2 2 0 0 0-1.8-.2q-1.2.5-1.3 1.9c-.1.6-.9.6-1.2.2q-1.5-1.6-3.3-.4-1.5 1.4-.6 3.4c.2.5-.5 1-1 .8q-1.5-.8-2.7.4-.8 1-.4 2.2c.3 1.1 1.6 2 2.7 1.2l1-1a17 17 0 0 1 6-4.2l1.4-.5 1.2-.4c1.5-.7 1.1-2.6 0-3.5m-19.2-20c-.6-.1-.6-1 0-1.2q1.5-.7 1.2-2.4-.2-1.2-1.4-1.7c-1.1-.4-2.6 0-2.6 1.4l.2 1.4a17 17 0 0 1-.3 7.4l-.5 1.4-.5 1.2c-.3 1.6 1.5 2.5 2.8 2.1a2 2 0 0 0 1.2-1.4q.2-1.3-.6-2.2c-.5-.4 0-1 .5-1q2.1-.2 2.3-2.3-.2-2.2-2.3-2.7m-12-75.4q-1.3-.4-2.2.5-.9.3-1-.6 0-2.3-2-2.6c-1.5-.2-2.5.8-3 2-.1.6-1 .5-1.1 0-.4-1-1.3-1.8-2.4-1.6q-1.1 0-1.8 1.3c-.5 1-.2 2.6 1.2 2.7h1.3a18 18 0 0 1 7.4 1l1.3.7 1.1.5c1.6.5 2.7-1.1 2.5-2.5a2 2 0 0 0-1.3-1.4m-29.8 56q-.6.4-1 1a17 17 0 0 1-6.4 3.7l-1.5.4-1.2.3c-1.5.6-1.3 2.5-.3 3.5a2 2 0 0 0 1.9.2q1.1-.5 1.4-1.8c.2-.5 1-.5 1.2-.1q1.3 1.6 3.2.7 1.7-1.4 1-3.4c-.3-.6.5-1 .9-.7q1.5.8 2.8-.3.8-.8.6-2.1c-.3-1.1-1.5-2.2-2.6-1.4m-38.3-52.8a2 2 0 0 0-1.9.3q-.9.8-.9 2-.2 1-1 .5c-1-.8-2.4-.8-3.3.3q-1.4 1.7 0 3.5c.4.4-.2 1-.7 1q-1.7-.5-2.6 1-.6 1 0 2.1c.6 1 2 1.7 2.9.7l.7-1.2a17 17 0 0 1 5-5.4l1.4-.8 1-.5c1.4-1 .6-2.9-.6-3.5" style="fill:#71ded1"/><path d="M139.2 400.9q4.4-6.2 9.6-11.3l6-4.6q.6.4 1.1 1.2c3.6 5 4 14.3-1 17.9-4.5 3-11.6.8-15.7-3.2m67.7 54-1.2 1c-4.4 4.5-6.3 13.6-1.9 18 4.4 4.2 13.5 2.1 17.8-2.3 3.6-3.6 2.9-8.6.4-12.4q-7.5-2-15.1-4.3m-19.8 42.6c-5 2-9.2 7-7 12.8l1.2 2.4h19.8c1-3.4 1-7.4-.2-10.4-2.2-5.8-8.8-6.7-13.8-4.8m-34.2-74q-4 4.5-7.7 9.2l-1 1.6q.7 2.1 1.9 3.8c3.5 5 10.2 4.2 14.5 1.2 2.9-2 5-5.3 5.3-8.7-4-2.3-8.5-5.3-13-7.1m187.5 5.9q7-4.5 14.5-7.2.9-1.7 1.3-3.3c1.3-6-3.7-10.5-8.8-11.7s-11.7.7-13 6.7c-1.3 5.4 1.1 13 6 15.5m-208 47.3q-3.4-.9-7.3-.1l-3 7.1-.9 2.7-1.9 7.3q3.1 3.3 7.2 4.5c6 1.7 10.6-3.1 12-8.3s-.1-11.6-6-13.2m81.3-49c4.6-4 7-13 2.9-17.6s-13.3-3-17.9 1.1c-4.6 4.2-3 10.7.5 14.6 3.6 4 10 6.1 14.5 2m139.6 40.7h-.7a92 92 0 0 0-5.3 14.2l1.2 7.5q1 .4 2.1.5c6.2.7 10-4.7 10.7-10s-1.9-11.5-8-12.2m38.7 36.3c-3.3-1.6-7.6-1-10.8 1a13 13 0 0 0-5.7 7H394zm-52.4-2.3c-4 1.2-6.4 5.7-7 10.3h15.8l1-7.5c-3-2.4-6.5-3.8-9.8-2.8m-44.7-11c-5.2-3.3-13.6.7-16.9 5.9s0 11 4.5 13.9q1.4.9 3.3 1.5h6.8a8 8 0 0 0 4.3-3.5c3.3-5.2 3.3-14.5-2-17.8m-11.4-77c-4 3.5-6 9.9-2 14.4 4.3 4.6 13.2 7 17.8 2.8 4.6-4.1 3-13.3-1.2-17.9s-10.7-3-14.6.6m37 28.9-11 5.4-7 3.4q.2 3.1 1.4 5.6c2.8 5.5 9.5 5.8 14.2 3.4 4.8-2.4 8.6-7.9 5.8-13.4q-1.2-2.4-3.4-4.4" style="fill:#f584b6"/><path d="M212 459.6q-1 1-2 .2c-.4-.4-.3-1.3.2-1.9q1-1 2-.2.6.9-.3 1.9m5.6.8q-1-.7-2 .2-.8 1-.1 2 .8.6 1.9-.3.8-1 .2-2m-4.1 4.1q-.9-.6-1.9.3-1 1-.2 1.9.9.6 2-.3c.5-.5.6-1.4.1-1.9m6.4 1.3c-.4-.4-1.3-.3-1.9.3q-.8 1-.2 1.9 1 .6 2-.3.8-1 .1-1.9m-4.2 3.5q-.9-.7-2 .2-.8 1-.1 2 .9.6 1.9-.3 1-1 .2-2m-7-.3q-.7-.7-1.8.2-1 1-.2 2 .9.6 1.9-.3 1-1 .2-2m-.6-6q-.9-.6-2 .3-.8 1-.1 1.9.9.6 1.9-.2c1-.8.7-1.5.2-2m-48.5-32.3q-.7-1.2.2-2 .9-.5 1.8.6.7 1.2-.1 1.9-1 .5-1.9-.5M158 436q.8-.8.1-2-.9-1-1.8-.5-.9.7-.2 2 1 1 1.9.5m-3.4-4.8q.9-.7.1-1.9t-1.8-.5-.1 1.9c.4.7 1.3.9 1.8.5m-2.4 6.1q.8-.7.1-1.9-.9-1.2-1.8-.5t-.2 1.9q.9 1 1.9.5m-2.6-4.8q.8-.7 0-1.9-.7-1.1-1.8-.5-.8.7 0 1.9.7 1 1.8.5M132.3 484q-1.3-.4-1.1-1.5.5-1 1.7-.8c.8.2 1.4 1 1.2 1.6q-.4 1-1.8.7m2 5.3c.3-.6-.3-1.3-1-1.6q-1.4-.2-1.8.8-.2 1 1.1 1.6 1.4.2 1.8-.8m-5.5-1.5q0-1.2-1.2-1.6-1.4-.3-1.7.8-.2 1 1 1.5 1.5.3 1.9-.7m2 6.2q0-1-1.2-1.5-1.3-.3-1.8.7 0 1.2 1.2 1.6 1.4.3 1.7-.8m-5.1-2q.2-1.2-1.1-1.6-1.3-.3-1.8.8-.2 1 1.1 1.5 1.3.3 1.8-.7m1.7-9.7q.2-1-1.1-1.5t-1.8.7q0 1.1 1.2 1.6c1.2.5 1.6-.2 1.7-.8m80.3-58.4q1-.9 1.9-.1.6.9-.3 1.9-1.1.8-2 0-.6-.7.4-1.8m-5.6-1.1q.8.7 2-.1.8-1 .2-2c-.4-.4-1.3-.3-1.9.2q-1 1-.3 1.9m4.3-4q.8.8 2 0 .9-1 .2-2c-.4-.4-1.3-.4-1.9.2q-1 1-.3 1.9m-6.4-1.6q.9.7 2-.1.9-1 .3-2-.8-.7-2 .2-.9 1-.3 1.9m4.5-3.2q.8.8 2 0 .8-1 .2-2-.8-.7-1.9.1-.9 1-.3 2m6.9.7q.8.8 1.9-.1.9-1 .3-1.9-.8-.7-2 .1-.8 1-.2 2m.3 6q.9.7 2-.1.8-1 .2-2-.8-.6-1.9.2c-1.1.8-.7 1.4-.3 1.9m-64.2-27.7q-.8.7-.2 1.9.9 1.2 1.9.5.8-.6.1-1.9-.9-1-1.8-.5m5-1.3q-.8.7-.1 2 .9 1 1.8.5.9-.8.1-2c-.4-.6-1.3-.9-1.8-.5m-1.5 6.7q-.9.8-.1 2c.4.6 1.3.9 1.8.5q.9-.8.1-2-.9-1-1.8-.5m-6-.4q-.8.8-.1 2 .9 1 1.8.5.8-.7.2-2c-.6-1.2-1.3-.8-1.9-.5m140.6 24.8q.8 1.1 0 2c-.4.4-1.3.3-1.8-.3q-.9-1.1-.1-2c.4-.4 1.3-.3 1.9.3m1-5.5c-.5.4-.4 1.3.1 1.9q1 .9 2 .3.6-.9-.2-2-1-.9-1.9-.2m4 4.3c-.5.4-.5 1.3 0 1.9q1.1.9 2 .3.7-.8-.1-2-1-1-2-.2m1.6-6.4q-.7.8.1 2 1 .9 2 .2.6-.8-.2-2-1-.9-1.9-.2m3.2 4.4q-.7.9.1 2 1 1 2 .2c.4-.4.4-1.3-.2-1.9q-1-.9-1.9-.3m-.6 6.9q-.7.8 0 2 1 .8 2 .2c.5-.4.4-1.3-.1-1.9q-1-.9-2-.3m-6 .4q-.7.8.1 1.9 1 .9 2 .3.6-.8-.2-2c-.8-1.1-1.4-.7-2-.2m52.8-13.1q-.4 1.3-1.5 1.2c-.6-.1-1-1-.8-1.7q.4-1.4 1.5-1.2 1 .3.8 1.7m5.2-2.3q-1 0-1.5 1.2-.2 1.4.8 1.7 1.2.2 1.5-1.2.2-1.3-.8-1.7m-1.3 5.7q-1-.1-1.5 1.2-.2 1.4.9 1.7 1 .1 1.5-1.2.2-1.4-.9-1.7m6.2-2.3q-1.1 0-1.5 1.2-.2 1.4.8 1.8 1.1 0 1.5-1.2.2-1.4-.8-1.8m-1.8 5.2q-1.2-.1-1.5 1.2t.8 1.7q1 .1 1.5-1.2.2-1.4-.8-1.7m-6 3.3q-1.2 0-1.6 1.2-.1 1.4.9 1.8 1 0 1.5-1.2.2-1.4-.9-1.8m-3.8-4.6q-1-.2-1.5 1.2c-.5 1.4.2 1.5.9 1.7s1.3-.4 1.5-1.2q.2-1.4-.9-1.7m14.1 56.9q-1.3-.2-1.3-1.4.2-1 1.6-1 1.3.3 1.4 1.4-.2 1-1.7 1m2.9 4.9q-.1-1.1-1.4-1.4-1.3 0-1.6 1 0 1.1 1.3 1.4 1.4.1 1.7-1m-5.8-.7q0-1-1.4-1.3-1.3-.1-1.6 1 0 1 1.3 1.3 1.4.1 1.7-1m2.9 6q0-1.1-1.4-1.4-1.3-.1-1.6 1 0 1 1.3 1.3 1.4.1 1.7-1m-5.3-1.3q-.1-1.1-1.4-1.4-1.3-.1-1.6 1 0 1.1 1.3 1.4 1.4 0 1.7-1m34.8 24.6q-.9.7-.3 2 .8 1 1.8.6.9-.6.3-1.9-.9-1.1-1.8-.7m5.9-.9q-.9.7-.3 2 .7 1 1.8.6.9-.6.3-1.9-.9-1.1-1.8-.7m-48.1.8q1-.4.7-1.8-.6-1.2-1.6-1c-.7.1-1 1-.7 1.7q.5 1.3 1.6 1.1m5.5 2.2c.6-.1 1-1 .7-1.7q-.5-1.3-1.6-1.1c-1.1.2-1 1-.7 1.8s1 1.2 1.6 1m-57-4.2q.9-1.1 1.8-.7.9.8.3 2-.9 1.1-1.9.6-.8-.7-.2-2m-5.6.4q.9.5 1.8-.6.6-1.2-.2-2-1-.4-1.8.7-.7 1.2.2 2m3-4.9q1 .4 1.9-.6.6-1.2-.2-2-1-.4-1.9.7-.6 1.2.3 1.9m-6.5 0c.5.4 1.4.2 1.8-.5q.6-1.2-.2-2-1-.4-1.8.7-.7 1.2.2 1.9m3.4-4.2q1 .5 1.8-.6c.5-.7.4-1.6-.2-1.9-.5-.4-1.4 0-1.8.6q-.6 1.2.2 2m6.8-1.2q1 .5 1.8-.6.7-1.2-.2-1.9c-.5-.4-1.4 0-1.8.6q-.6 1.2.2 2m2 5.7q.9.4 1.8-.6.6-1.2-.2-2-1-.4-1.8.7-.7 1.2.2 1.9m25.3-50.4c-.3-.7-.1-1.6.4-1.9q1-.4 1.8.9.5 1.2-.4 1.8-1 .4-1.8-.8m-2.5 5q1-.4.4-1.8-.8-1.1-1.7-.8-1 .6-.4 1.9.6 1 1.7.8M313 453q1-.7.4-1.9t-1.8-.8q-.9.6-.4 1.9.7 1 1.8.8m-3.4 5.6q1-.4.5-1.8-.7-1.2-1.8-.8-1 .6-.4 1.8.8 1.2 1.7.8m-1.8-5q1-.7.4-2-.7-1-1.7-.8-1 .6-.4 1.9.6 1.1 1.7.8m8.4-5.2q.8-.6.4-2-.7-1.1-1.8-.7-1 .6-.4 1.8c.6 1.2 1.2 1.1 1.8.9M186 506q.4 1.4-.6 1.8-1 .3-1.6-1-.4-1.2.5-1.8 1.2-.2 1.7 1m3-4.8q-1 .4-.6 1.8.6 1.3 1.7 1 1-.4.6-1.8-.6-1.2-1.7-1m2.1 5.4q-1 .5-.6 1.9.6 1.2 1.7 1 1-.6.6-1.9-.6-1.2-1.7-1m3.9-5.3q-1 .4-.6 1.8.6 1.2 1.7 1 1-.4.5-1.8-.6-1.2-1.6-1m1.3 5.3q-1 .5-.5 1.8t1.6 1 .6-1.8q-.6-1.2-1.7-1m-9 3.2q-.9.4-.5 1.8.6 1.3 1.7 1 1-.5.6-1.9c-.4-1.4-1-1.2-1.7-1" style="fill:#fea0d2"/><path d="M321.9 369.2c-27.5 8.3-58.3 58-62 81-14.8-29.9-77.4-111.1-105.4-63.4 35-4.1 63.3 27.4 78.4 50 2.7 4 5.3 7.4 6.6 11.3a37 37 0 0 1 1.6 12.3v52.3H271v-51.2s-.5-4 2.3-10.8c3.2-7.7 9.9-19 15.7-27.1 18-26 42.1-55.9 63.1-39.6-8.8-17.8-18.7-18.3-30.2-14.8" style="fill:#f584b6"/><path d="M368.8 408.3a84 84 0 0 0-17.6-22.6c18.2 13.7 33.9 28.3 22.6 59.3l-2.2-3.4c1.4-11.8 1.9-25-2.8-33.3M137 410.7a80 80 0 0 1 16.9-22c-20.4 11.6-33.4 34-20.3 66.7.7-1.1 2-4.1 2.7-5.3-3.9-12-3.8-31 .7-39.4m257.8 102a212 212 0 0 0-28.4-74.7 283 283 0 0 1 18.3 74.7zm-268.3 0c1.7-24.3 9.6-51.3 18.3-74.7a212 212 0 0 0-28.3 74.7z" style="fill:#c7e8ff"/><path d="M224.9 423.5a2 2 0 1 1-3 2.6c-6-7-18-20-30.6-28.2a61 61 0 0 0-20-8.6 2 2 0 0 1 1-3.9 65 65 0 0 1 21.1 9.1 158 158 0 0 1 31.5 29m16.3 43.4a2 2 0 0 0-2 2v43.8h4v-43.8a2 2 0 0 0-2-2m31.8-12.3a2 2 0 0 0 2-1.6c1.5-7.4 8.8-18.4 14.7-27.1l3.2-5c5.3-8 18-23.6 31-33.2a2 2 0 1 0-2.4-3.2 152 152 0 0 0-32 34.3l-3.2 4.8c-6 9.1-13.6 20.4-15.2 28.6a2 2 0 0 0 2 2.4m82.1 5.5c-1-.3-2.2.4-2.5 1.5l-.3 1.4c-1 4-2 8.4-4.1 13.9l-2.3-8.6a2.4 2.4 0 1 0-4.6 1.3l4 15.9a94 94 0 0 1 2.4 27.2h4.8c.8-9.8-.7-19.7-2.7-29a95 95 0 0 0 6.6-19.7l.3-1.4a2 2 0 0 0-1.6-2.5m22.7-10.3-1-1.9a66 66 0 0 0 4.5-19.1c1-8.8.6-14.7-4-23a94 94 0 0 0-24.5-24 23 23 0 0 0-13-14.5c-7.5-3.2-16-2.7-24 1.5q-2.3 1.2-4.3 2.5c-9.8-2.5-18-3.7-31.5-4.6-1.6-.1-3 1.2-2.7 2.9a3 3 0 0 0 2.4 2.2 163 163 0 0 1 26.2 3.4 138 138 0 0 0-24.6 26l-1 1.2a195 195 0 0 0-22.4 36.8q-.7-1.6-1.7-3.2-2.4-4.4-8-12-12-16.3-23.5-27.5a138 138 0 0 0-25.7-19.5c11-3 19.4-4.3 33.3-5.2 1.2-.1 2.3-1 2.4-2.3.2-1.6-1-3-2.7-2.8l-.8-.1a149 149 0 0 0-38.6 7 35 35 0 0 0-25-2.7 23 23 0 0 0-15.7 14.7 70 70 0 0 0-23.7 28 50 50 0 0 0-3 27.9q1.2 8.4 4.3 18.8c-5.6 14-11.6 32.8-15 52.4h5.2a263 263 0 0 1 14.8-51.4v-.1l5-11.1c5-10 10.3-17.9 14-22.7q4.4.8 9.5 3.7l13.2 8.3c6.1 3.8 12.5 7.8 16.3 10a115 115 0 0 0 49.3 13.9q4.6 0 8.2-.8 2-.6 1.9-2.5a2.2 2.2 0 0 0-2.7-1.9 54 54 0 0 1-20.6-.6c-9.7-2-21.3-4.8-34-12-3.7-2-10-6-16-9.8-5.2-3.3-10-6.4-13.4-8.3q-10.4-6.1-19.4-4.3-1.7.4-1.9 2c0 1.7 1.7 2.9 3.2 2.1v.1a148 148 0 0 0-14.4 25.4 118 118 0 0 1-2.4-12 45 45 0 0 1 2.5-25 65 65 0 0 1 27.8-29.4c1.1-.6 1.8-2 1.4-3.1q-.6-1.4-2-1.7a18 18 0 0 1 9-5.6q10.9-3 22 2.6a128 128 0 0 1 30.2 21.7 203 203 0 0 1 30.6 38.3q3 4.8 3.5 9.7c-.3 2.2-.3 3.6-.2 5.3 0 1.2.9 2.4 2.3 2.4q2 0 2.1-2.1l.5-3 .4-2q1.2-5.9 3.6-11c4.9-10 12.3-21.8 20.4-32.3l1-1.3c5.7-7.4 17.6-23 32.7-30.9 6.7-3.5 13.6-4 19.6-1.4q3.6 1.6 6.2 4.4l-.2-.1c-1.3-.7-3 0-3.5 1.3s.2 2.7 1.4 3.3a95 95 0 0 1 31.2 27.4c4 7.3 4.3 12 3.5 20a61 61 0 0 1-2.8 13.6 161 161 0 0 0-11.7-18.6 2.2 2.2 0 0 0-.9-4.3c-6.4.3-14.2 4.3-15 4.7-4.3 2.2-8.9 5.2-15 9.7-14 10.4-22.4 15-31.4 19-8.2 3.7-21.4 7-32.5 6-1.2-.2-2.4.8-2.4 2.1 0 1.2 1 2.1 2.1 2.2q2.3.3 4.5.2c10.8 0 22.5-3 30.1-6.5 9.2-4.1 17.9-8.8 32.2-19.4 6-4.4 10.4-7.3 14.4-9.4 1.8-1 5-2.3 8.2-3.2 3 3.1 11 15.3 17.1 27.8 3.1 6.3 13.6 28.8 19.1 60.6h5.2c-5.6-33-16.5-56.4-19.7-63M169 466.6c-1.2-.3-2.6.4-2.9 1.7l-2.2 8.7a73 73 0 0 1-4.7-17 2.1 2.1 0 0 0-4.2.5c.6 4.8 2.8 13.8 7.4 23.6a95 95 0 0 0-1.7 28.6h4.8c-1.5-14 .8-26.7 5.2-43.1.4-1.3-.4-2.6-1.7-3m56.8-36.7a2 2 0 1 0 4 0 2 2 0 0 0-4 0m105-47.5a2 2 0 1 0-4 0 2 2 0 0 0 4 0M256 497.2a2 2 0 0 0-2 2v13.5h4v-13.5a2 2 0 0 0-2-2m.3-8.8q1.6-.3 1.7-1.5l-.1-19.8c0-.8-1-1.4-2-1.4q-1.8.2-2 1.4v20c0 .8 1.1 1.4 2.4 1.3m99.3-34.6a2 2 0 1 0 0 4 2 2 0 0 0 0-4M270.8 467a2 2 0 0 0-2 2v43.8h4V469a2 2 0 0 0-2-2m-29.3-10.5c1.7-.1 1.8-1.8 1.8-2.2a38 38 0 0 0-9.7-19.5 2 2 0 1 0-3.2 2.5c5.2 6.5 8.1 11.2 8.9 17.5 0 0 .6 1.9 2.2 1.7m12.5 36.4a2 2 0 1 0 4 0 2 2 0 0 0-4 0" style="fill:#3a3880"/><path d="m297.5 448.2-6.8-4.7L273 446l-9.2 5-7-1.7-6.7 1.2-8.7-3.2-19.5-3.3-6.9 2.6-1.4 20.4 9.5 4 15.7-3-17.2 27.8 2.2 5.3 7.9 3.9 10 2.3 4.2-3.4 6.5-40.8 4.4 2 3.7-1.1 6.4 39.4 4 3.4 10.2-2.4 7.8-3.8.5-5-19.5-29.7 19.7 4.6 7.5-4.3z" style="fill:#f584b6"/><path d="M299.6 447.5q-2-6.4-8.9-6.3a54 54 0 0 0-28.6 7.7 8 8 0 0 0-5.9-2.5q-3.8 0-6 2.7-2.7-2.1-8.6-4.4c-6-2.2-11.1-3.5-20.3-3.5h-.1q-6.8 0-8.8 6.3c-2 5.6-1 15.1.5 19.4 2 5.9 7 5.9 9.6 5.9 2.2 0 6.8-.5 12.2-1.8q-7.5 9.3-13.7 22.8l-.3.7c-2 4.1-.3 6.6 1 7.8a33 33 0 0 0 8.6 4.3l.6.2c3.2 1 6.8 2.3 10.2 2.3 3.1 0 5.5-2 6.4-5.2 1.3-5 4.3-20 6.2-37.4a9 9 0 0 0 4.6.1c1.9 17.4 4.9 32.3 6.2 37.3.9 3.2 3.3 5.2 6.4 5.2 3.4 0 7-1.2 10.2-2.3l.6-.2c2.1-.7 7-2.8 8.7-4.3 1.2-1.2 3-3.7 1-7.8q-.3-.2-.4-.7-6.2-13.5-13.7-22.8c5.4 1.3 10 1.8 12.2 1.8 2.7 0 7.6 0 9.6-5.9 1.5-4.3 2.4-13.7.5-19.4m-82.4 18c-1.2-3.6-2-12.1-.5-16.6.8-2.3 2-3.1 4.5-3.1a46 46 0 0 1 26.8 7.5l-.1 1a39 39 0 0 0-12.8-.8q-1.3.3-1.3 1.6c0 1 .8 1.6 1.6 1.5q6.4-.2 12.4 2.2l.2 1.1a50 50 0 0 1-25.5 8.3c-3.5 0-4.5-.6-5.3-2.8m25.8 37.3q-.4 1.7-1.9 1.7a31 31 0 0 1-8.7-2l-.6-.3c-2.5-.8-6.3-2.6-7-3.3-.3-.3-.8-.7 0-2.3l.4-.9a96 96 0 0 1 18.4-27.9q3-1.4 5.6-3a288 288 0 0 1-6.2 38m9.3-46.2c0-2.5.7-5.6 4-5.6s3.9 3 3.9 5.6q0 5.7-4 5.7c-4 0-4-2-4-5.7m34.5 39.1.4.9c.8 1.6.3 2 0 2.3-.7.7-4.5 2.5-7 3.3l-.6.2c-2.8 1-6 2-8.7 2q-1.5 0-2-1.6a288 288 0 0 1-6.1-38.1q2.7 1.8 5.5 3 10.3 10.3 18.5 28m8-30.3c-.8 2.2-1.8 2.8-5.3 2.8-3.2 0-16-1.4-25.2-8q.3-.7.3-1.6 5.9-2.2 12-2c2 .1 2.2-2.8.3-3.1a34 34 0 0 0-12.3.8l-.3-1.3a49 49 0 0 1 26.4-7.2c2.7 0 3.8.7 4.6 3.1 1.5 4.5.7 13-.5 16.5" style="fill:#3a3880"/></g><path d="M176.8 263.9c-5.3 5.2-8.4 10.9-6.3 17q3 7.4 9.7 12a38 38 0 0 0 31.7 5c-.6-2-10.6-32-14-45-8.1 1.5-16 6-21.1 11" style="fill:#fcf2ff;isolation:isolate;opacity:.7"/><path d="M205.4 254.6c-7.8.3-13.7 4.6-17.2 10.4a25 25 0 0 0-2 22c2.1 5 5.8 8.4 10.1 10.3a22 22 0 0 0 20.6-1.6 18 18 0 0 0 8-15.4c.7-11.1-6.2-26.2-19.5-25.7" style="fill:#53b0c9"/><path d="M220.7 256.3q1.3 2.2 0 3.4-1.1 1.3-2.4.4c-7.2-4.4-14.4-5-24-1.6a61 61 0 0 0-25.8 17 2.3 2.3 0 0 1-4.1-2.2c.1-.3 1.2-3 3.7-6.7-1-1.4-3.3-4.5-1.6-6.2 1.5-1.5 4.5 0 6 .9q2.6-2.7 6.2-5.4c-.5-1.5-1.8-5 .1-6.2 2-1.1 4.8 1.3 5.8 2.6l4.7-2.2a33 33 0 0 1 19-2.3q4.3.9 7.6 3.1c2.1 1.5 3.7 3.6 4.8 5.4" style="fill:#45438f"/><ellipse cx="205.7" cy="251.8" rx="1.7" ry="3.2" style="fill:#b87ac2" transform="rotate(-86.1 205.718 251.786)"/><path d="M213.4 241a30 30 0 0 0-22.9.9c-1.8.7-3-1.9-1.3-2.8a32 32 0 0 1 19.1-3q3.3.6 6.3 2a1.6 1.6 0 0 1-1.2 2.8" style="fill:#a94bb5;opacity:.6"/><path d="M335.2 263.9c5.3 5.2 8.4 10.9 6.3 17q-3 7.4-9.7 12c-6.7 4.6-10 5.2-14.6 6q-9.3 1.8-17.1-1c.6-2 10.6-32 14-45 8.1 1.5 16 6 21.1 11" style="fill:#fcf2ff;isolation:isolate;opacity:.7"/><path d="M306.6 254.6c7.8.3 13.7 4.6 17.2 10.4a25 25 0 0 1 2 22c-2.1 5-5.8 8.4-10.1 10.3a22 22 0 0 1-20.6-1.6 19 19 0 0 1-8.6-15.4c-.6-11.1 6.8-26.2 20.1-25.7" style="fill:#53b0c9"/><path d="M290.8 256.3q-1.3 2.2 0 3.4 1.4 1.3 3 .4c7-4.4 14.3-5 24-1.6a61 61 0 0 1 25.7 17 2.3 2.3 0 0 0 4.1-2.2c-.1-.3-1.2-3-3.7-6.7 1-1.4 3.3-4.5 1.6-6.2-1.5-1.5-4.5 0-6 .9a46 46 0 0 0-6.2-5.4c.5-1.5 1.8-5-.1-6.2-2-1.1-4.8 1.3-5.8 2.6l-4.7-2.2a33 33 0 0 0-19-2.3 20 20 0 0 0-13 8.5" style="fill:#45438f"/><ellipse cx="306.3" cy="251.8" rx="3.2" ry="1.7" style="fill:#b87ac2" transform="rotate(-3.9 306.283 251.786)"/><path d="M297.4 238c8-3.7 17.6-2.6 25.4 1.1a1.5 1.5 0 0 1-1.3 2.8 30 30 0 0 0-23-1c-1.7.6-2.8-2-1.1-2.8" style="fill:#a94bb5;opacity:.6"/><path d="M215.2 209.5c-6.1-.2-12-.6-17.8 1.2a46 46 0 0 0-16 8.5c-1.1 1-2.7-.6-1.7-1.7 9-9.2 23.6-15.5 36-10.5 1.4.6.9 2.6-.5 2.5m81-2.5c11-4.5 23.7.1 32.5 7.1q1.9 1.5 3.6 3.4a1.2 1.2 0 0 1-1.7 1.7c-7-5.6-15.7-9.5-24.7-9.9l-9.1.2c-1.4 0-1.8-2-.6-2.5" style="fill:#7d3967;opacity:.6"/><path d="M214.3 275.8c-2.2-.3-4.5-.7-6-2.5-1.2-1.6-1.4-3.6-1.7-5.5-.2-1.9-2.7-1.9-3 0-.2 2-.4 4-1.6 5.5-1.5 1.8-3.8 2.2-6 2.5q-.7.1-1 1v.8l.2.5q.3.5.8.5c2.2.3 4.5.7 6 2.5 1.2 1.6 1.4 3.6 1.7 5.5.2 1.9 2.7 1.9 3 0 .2-2 .4-4 1.6-5.5 1.5-1.8 3.8-2.2 6-2.5 1.4-.2 1.4-2.6 0-2.8m102.7 1-.2-.5q-.3-.5-.8-.5c-2.2-.3-4.5-.7-6-2.5-1.2-1.6-1.4-3.6-1.7-5.5-.2-1.9-2.7-1.9-3 0-.2 2-.4 4-1.6 5.5-1.5 1.8-3.8 2.2-6 2.5-1.4.2-1.4 2.6 0 2.8 2.2.3 4.5.7 6 2.5 1.2 1.6 1.4 3.6 1.7 5.5.2 1.9 2.7 1.9 3 0 .2-2 .4-4 1.6-5.5 1.5-1.8 3.8-2.2 6-2.5q.7-.1 1-1z" style="fill:#fcf2ff"/><path d="M256 301q-1.6-.1-1.7-1.8v-.1a1.7 1.7 0 1 1 3.4 0v.1q-.2 1.6-1.7 1.7m0-2" style="fill:#a94bb5;opacity:.6"/><path d="M246.3 320.3a17 17 0 0 0-.6 12.5c1.6 4.2 5.2 7.2 10.4 7.2 9.4 0 12.6-10.3 8.8-19.6" style="fill:#fa87ba"/><path d="M256.2 342c-5.4 0-10-2.7-12-7.4-2-4.3-2-9.8.3-15a2.1 2.1 0 1 1 3.8 1.5 15 15 0 0 0-.4 11.7q2.4 4.9 8.3 5 4.5 0 6.8-3.6c2-3.3 2-8.2 0-13a2.1 2.1 0 1 1 4-1.6c2.4 6 2.3 12.4-.4 16.8a12 12 0 0 1-10.4 5.7" style="fill:#45438f"/><path d="M256 331q-1.7-.1-1.8-1.7v-7.5a1.8 1.8 0 0 1 3.6 0v7.5q-.1 1.7-1.8 1.8" style="fill:#5554a7"/><path d="M256 323.5c-6 0-11.5-2-15.4-5.5a2.1 2.1 0 0 1 2.8-3.2c3.1 2.9 7.7 4.5 12.6 4.5s9.4-1.6 12.6-4.5a2.1 2.1 0 1 1 2.8 3.2c-4 3.5-9.6 5.5-15.4 5.5" style="fill:#45438f"/><g data-name="hair top"><path d="M271.8 137.8c-11.8-15.3-35.3-23.9-50.9-10.1 27.8-3 52.8 14 71.3 31.8-5.6-4.2-13.8-19.1-20.4-21.7" style="fill:#e27ccb"/><path d="M132 234.8c-16.6-50.4 13.8-125.6 52.9-145.1 36.3-15.5 106.5-18.6 141.2 2 56.8 40.8 74.1 134.5 27.3 191.1-3.2-70-25.3-138.9-97.8-157.9-5.1-1.3-19.1-6.4-24.2-4.9s-2.6 4.1-12.7 10.5c-57.1-4.3-50 134.5-93 136.1" style="fill:#f9aac3"/><path d="m216 104 .9-1.6.3-.4c.1-.2-.2.2 0 0l.6-.7 1.3-1.3.2-.2.2-.2.8-.5 1.6-.9.3-.2c.5-.3-.4 0 .2 0q.4 0 .8-.3l1.8-.5h1.6c1.1 0 2.1-.9 2-2s-.9-2.1-2-2a17 17 0 0 0-14.3 9c-.5 1-.3 2.3.7 2.8s2.3.3 2.8-.7zm22.3 23.8 1-.9.3-.2c-.3.3 0 0 0 0q.3-.1.5-.4l2.3-1.3c.8-.4.1 0 0 0h.3l.6-.2 1.2-.4q.8-.3 1.3-.3c.3 0-.4 0 0 0h1c1.1 0 2.1-.9 2-2 0-1.1-.9-2.1-2-2-4.3.2-8.4 2-11.5 5-.8.8-.8 2.2 0 2.9s2.1.8 2.9 0zm16.2 5.9 1.5-.4h.4-.3 1.2l3.2.2c-.6 0 0 0 0 0h.4l2 .3c1.1.2 2.3-.3 2.5-1.4s-.3-2.3-1.4-2.5q-3.3-.7-6.8-.8c-3.5-.1-2.6.3-3.9.7-1 .3-1.8 1.4-1.4 2.5.3 1 1.4 1.8 2.5 1.4z" style="fill:#3a3880"/><path d="M220.4 122.7c5.5-5.3 28.8-6 52.3 16.1 21 19.6 41 44 59.4 103.1 7.9 25.6 8.2 51.2 6 80.1-1.6 20-6.2 37.1-16.9 54.8-1.4 2.4 1.2 5.1 3.7 3.8 9-4.8 19.6-10.2 28.4-20.6a112 112 0 0 0 21.1-47.1 257 257 0 0 0-3.6-119.9c-46.5-96.1-97.3-115.6-150.4-70.3" style="fill:#f9aac3"/><path d="M335.6 375.1c21-4.6 30.9-28.2 37.3-46.3 3.5-9.9 5.5-20.3 6.9-30.7a228 228 0 0 0-8.3-97.2c-.9-2.8-5.4-1.6-4.4 1.2a217 217 0 0 1 8.9 89.6c-2 19.3-6.7 38.7-16 55.9-5.5 10.2-13.5 20.5-25.5 23.1-2.9.6-1.7 5.1 1.2 4.4z" style="fill:#3a3880"/><path d="M220.9 131.2c13.2-20.4 39.3-1.4 51.2 10.1a199 199 0 0 1 38.4 55 234 234 0 0 1 23.7 76.5c3 25 2.4 50.8-4.3 75.2a100 100 0 0 1-7.4 19c-2.1 4.2-8.3 12-1.5 15.2 4.6 2.2 10.5-3.2 13.6-6.1a60 60 0 0 0 14.5-22.5c1-2.7-3.4-4-4.4-1.2a57 57 0 0 1-15.1 22.1q-1.5 1.3-3.2 2.3c-.7.4-2.3 1.6-3.1 1.4-1.6-.4-.2-2.2.2-3l2.6-4.9q2.2-4.5 4.2-9.1 3.9-9.5 5.9-19.6a217 217 0 0 0 2-74.1 242 242 0 0 0-24.6-75.5 201 201 0 0 0-38.4-54.2c-12.8-12.3-37.6-30.2-54.3-14a27 27 0 0 0-4 5c-1.6 2.5 2.4 4.8 4 2.3zm145 63.8c2.6 0 2.6-4.1 0-4.1s-2.6 4.1 0 4.1" style="fill:#3a3880"/><ellipse cx="343.4" cy="220.6" rx="6.8" ry="10.2" style="fill:#c7e8ff" transform="rotate(-14.3 343.353 220.57)"/><path d="M211.1 128.6c-22.6 1.1-31.9 25.5-38 43.8a679 679 0 0 0-10.7 36.2c-3.1 11.3-5.9 23.1-11.4 33.5a61 61 0 0 1-10.5 15.1 31 31 0 0 1-15.6 8.1c-3.1.7-1.8 5.4 1.3 4.7 23.1-5.2 32.2-29.5 38-49.8q5-18 10.2-35.9c5.2-17.9 7-23.1 13-33.5 5.2-9.1 12.7-16.9 23.8-17.4 3.1-.2 3.1-5 0-4.9h-.1z" style="fill:#3a3880"/><path d="M125.8 201.1a34 34 0 0 0-7.4 25.4c1.3 8.9 9.3 5.5 12.3 1.4s7.5-6.7 8.3-3.2 6.7 4.9 9.2 1.4 4.1-9.3 3.6-14.6-4.8-7.1-8.8-3.4-6.1 3.4-5.5-4.6c.7-8.5-6.1-9.6-11.8-2.4z" style="fill:#c7e8ff"/></g><g data-name="cloth top"><path d="M412.5 308a13 13 0 0 0-5.9-11 6 6 0 0 0 .6-7.2c-1.5-2.5-5-3.2-7.3-.1-1-6.9-8.4-7.7-9.7 0a4.6 4.6 0 0 0-7.1-.8 7 7 0 0 0-.4 9A13 13 0 0 0 378 308c0 8.2 5.7 19 13.4 21.7 0 .9-.7 1.7-.9 2.9q-.4 1.6.5 3.3 1.2 2 3.6 2 2.2 0 3.5-1.3c1.1-1 1.5-2.9 1-4.3-.4-1.2-.8-1.6-.9-2.4 8.1-2.3 14.3-13.4 14.3-22" style="fill:#fef5df"/><path d="M393 265.1h3.8v21.6H393z" style="fill:#fef5df"/><path d="M339.7 178.6S305 155.2 271.5 149c-42.3-7.8-111.4.1-153 4.8-15.6-2.3-9.2-19.8 6-31.6 27-62.8 96.2-98.6 132.8-101.6 19.7-1.6 49.8 3.6 83 20 28.5 14.1 67.1 48.1 77.4 66.3 22 39.3 15.7 64.1 11.2 84.2s-22.8 67.8-37.2 68c-17.6.2-45.3-43.6-52-80.5" style="fill:#ffbdd5"/><path d="M198.6 95.8q0 .3-.4.4-5-.2-8.8 4c-2.4 2.8-4 6.9-4.2 10.9q-.5 7.2 4 11t11.5 2.1c3.9-1 7.6-3.1 10-6q3.6-4.2 2.4-10v-.4l.1-.1a5 5 0 0 0 3.7-3.6 5 5 0 0 0-2.8-5.6 5 5 0 0 0-2.3-4.2q-1.8-1.1-3.9-.7-.8-1.5-2.5-2.1a5 5 0 0 0-6.8 4.3m8.6-24.3q-1.2 1.2-2.9 1.4a5 5 0 0 1-2.3 3.3 5 5 0 0 1-4.7.4 5 5 0 0 1-6.4.2q-2-2-1.6-4.8v-.2l-.4-.1q-5.7-1.2-8.3-6.3a19 19 0 0 1-1.4-11.5l.3-1.2q5.8-5.1 12.2-9.5 2.9.3 5.8 1.8a19 19 0 0 1 8.2 8.2q2.3 5.2.2 9.8-.1.2.1.4a5 5 0 0 1 1.2 8M286.4 33a5 5 0 0 1-1.4 2.9q1 1.9.2 4a5 5 0 0 1-3.5 3.2 5 5 0 0 1-5 4 5 5 0 0 1-4.1-2.7l-.2-.2-.3.2q-5.3 2.6-10.4 0a19 19 0 0 1-8.2-8.2q-3.2-6.3-.8-11.6v-.1q1.2-2.1 3.1-3.6h.2a273 273 0 0 1 21.4 1q2.1 2.3 2.7 5.2.1.3.4.2a5 5 0 0 1 6 5.7M273 101q0-.3.3-.3 5 1 9.5-2.5a19 19 0 0 0 5.8-10q1.6-7-2-11.6h-.2q-3.8-4.3-11-4c-4 .3-8 2-10.8 4.3a11 11 0 0 0-4 9.6v.3q0 .2-.2.2a5 5 0 0 0-4.2 2.9 5 5 0 0 0 1.8 6 5 5 0 0 0 1.6 4.4q1.6 1.5 3.7 1.4.6 1.6 2.2 2.5a5 5 0 0 0 7.4-3.2m79.2-23.3h.5c2.2 2.4 5.2 4 9 3.7s7.7-1.8 10.8-4.4q5.5-4.6 5.3-10.4v-.1q-.4-5.7-6.3-9.7a19 19 0 0 0-11.2-3.3c-3.7.2-7 2-9 5.2l-.2.3h-.3a5 5 0 0 0-5.1-.3 5 5 0 0 0-2.2 5.9 5 5 0 0 0-1.5 4.5q.4 2.2 2.2 3.4-.5 1.5.2 3.2a5 5 0 0 0 7.8 2m-23.8 30.9q.1.3-.1.4a11 11 0 0 0-6.1 7.6c-.9 3.6-.5 7.9 1 11.6q3 6.6 8.6 8v.1a13 13 0 0 0 11.2-3.3c3.1-2.6 5.5-6.2 6.3-9.8 1-3.6 0-7.2-2.4-10l-.2-.4.1-.2a5 5 0 0 0 1.8-4.9 5 5 0 0 0-5-3.7 5 5 0 0 0-4-2.7q-2.1-.2-3.8 1-1.5-.8-3.2-.7a5 5 0 0 0-4.1 7m89 13.7q-.3 0-.5-.2-2.2-4.4-7.7-5.9c-3.6-.7-8-.2-11.6 1.5q-6.5 3-7.8 8.7-1.1 5.7 3.5 11.1a19 19 0 0 0 10 6q5.6 1.2 10-2.6l.3-.2h.2a5 5 0 0 0 5 1.7 5 5 0 0 0 3.6-5.1 5 5 0 0 0 2.5-4q.2-2.1-1.1-3.8.9-1.4.7-3.2a5 5 0 0 0-7.1-4m-59.6 70.5q0-.3.3-.4 5-.5 8.2-5.2c2-3 3-7.3 2.8-11.3q-.5-7.2-5.4-10.4h-.1q-5-3-11.6-.6a19 19 0 0 0-9.2 7.2q-3 4.8-1 10.4l.1.3-.2.2a5 5 0 0 0-3.2 3.8v.2a5 5 0 0 0 3.5 5.2 5 5 0 0 0 2.8 3.8q2 .9 4 .3 1 1.2 2.8 1.7a5 5 0 0 0 6.2-5.2m39.6 19q.4 0 .4.3 1.9 4.7 7.2 6.5c3.5 1.1 7.9 1 11.7-.3q6.7-2.5 8.5-8v-.1q1.6-5.6-2.5-11.3a19 19 0 0 0-9.3-7q-5.5-1.5-10.3 1.8l-.3.2-.2-.1a5 5 0 0 0-4.8-2 5 5 0 0 0-4 4.7 5 5 0 0 0-3 3.7q-.3 2.2.9 4-1 1.3-1 3a5 5 0 0 0 6.7 4.7" style="fill:#fed0d8"/><path d="M214.2 103.3a2 2 0 0 0-.4-1.7q-1-1-2.3-.7c-.6.1-.8-.6-.6-1 .7-1.1.5-2.5-.6-3.2q-1.9-1-3.5.5c-.4.4-1-.1-1-.6q.2-1.7-1.3-2.5-1.2-.5-2.2.3c-1 .7-1.4 2.2-.3 3l1.3.5a17 17 0 0 1 6 4.4l.9 1.2.7 1c1.2 1.1 2.9.2 3.3-1.2m-21.4-28.6a2 2 0 0 0 1.9.3q1.2-.5 1.4-1.8c.2-.6 1-.5 1.2-.1.8 1 2 1.5 3.2.7q1.7-1.2 1-3.4c-.2-.5.5-1 1-.7.8.6 2 .6 2.7-.2q.9-.8.7-2.1c-.3-1.1-1.5-2.2-2.7-1.5l-1 1a17 17 0 0 1-7.8 4l-1.3.3c-1.5.6-1.3 2.6-.3 3.5M277 44.4a2 2 0 0 0 1.6-1q.6-1.1.1-2.2c-.2-.6.4-1 .9-.9 1.2.4 2.5 0 3-1.4q.4-2-1.4-3.2c-.5-.3-.2-1.1.4-1.2 1 0 2-.8 2-1.9q.1-1.2-.8-2c-.9-.7-2.5-.8-3 .4l-.1 1.4a17 17 0 0 1-2.8 6.9l-1 1.1-.8 1c-.8 1.4.5 2.8 2 3M258.7 91a2 2 0 0 0 .2 1.9q.9 1 2 1c.7 0 .8.7.5 1q-1.4 1.7 0 3.4 1.8 1.3 3.6 0c.5-.3 1 .3 1 .8q-.6 1.6.8 2.7 1.2.6 2.3 0c1-.5 1.7-2 .7-2.9l-1.2-.7a17 17 0 0 1-5.2-5.3l-.7-1.3-.5-1.1c-1-1.3-2.8-.7-3.5.5M347 61.3q-1 .5-1 1.5 0 1.4 1 2 .6.9-.3 1.2-2 .5-1.9 2.7c.2 1.3 1.4 2.1 2.7 2.2.6 0 .7.8.3 1.2q-1.3 1-.9 2.6.6 1.1 1.7 1.4c1.2.2 2.6-.5 2.4-1.8q-.1-.8-.5-1.3a18 18 0 0 1-1-7.4l.3-1.5.3-1.2c0-1.6-1.9-2.2-3.1-1.6m-1.2 47a2 2 0 0 0-1.2-1.3q-1.2-.3-2.3.4c-.5.4-1-.1-1-.6.1-1.3-.6-2.5-2-2.6q-2-.1-2.9 2c-.2.5-1 .4-1.2-.1q-.6-1.6-2.3-1.6-1.1 0-1.8 1.2c-.5 1-.2 2.6 1.1 2.8h1.4a17 17 0 0 1 7.3 1.1q.8.3 1.3.7l1.2.6c1.5.5 2.6-1.1 2.4-2.5m72.3 31.5a2 2 0 0 0 1.4-1.3q.4-1.2-.5-2.2-.4-.9.6-1 2.1 0 2.6-2.1-.1-2.2-2.1-2.9c-.6-.2-.5-1 0-1.2q1.6-.6 1.6-2.3-.2-1.3-1.3-1.8c-1-.5-2.6-.2-2.8 1.2l.2 1.3a17 17 0 0 1-1 7.4l-.7 1.3-.5 1.2c-.5 1.5 1.1 2.6 2.5 2.4m-76.8 47.7q-.1 1 .7 1.7 1 .8 2.3.3.9 0 .7 1c-.5 1.2-.2 2.5 1 3q2 .9 3.4-.9c.4-.4 1.1 0 1.1.5q0 1.7 1.7 2.3 1.2.2 2.1-.6c.8-.8 1.1-2.4-.1-3l-1.3-.4a17 17 0 0 1-6.6-3.5l-1-1-.9-1c-1.3-1-2.9.2-3.1 1.6m56.9 7.1a2 2 0 0 0-1.5 1.2q-.4 1.1.3 2.2.3 1-.7 1c-1.3-.2-2.5.5-2.7 1.8q-.1 2.2 1.8 3c.5.3.4 1-.1 1.2-1 .3-1.9 1.1-1.8 2.2q0 1.2 1.1 2c1 .5 2.6.3 2.9-1v-1.4a17 17 0 0 1 1.6-7.2l.8-1.3.6-1c.6-1.6-.9-2.8-2.3-2.7" style="fill:#71ded1"/><path d="M191.5 102c4-4.7 10.5-3.3 14.6 0s6.4 9.8 2.4 14.5-12.8 7.4-17.5 3.5c-4.8-4-3.5-13.2.5-18m11.7-47.6c2.7 5.6-1.1 11-6 13.4-4.7 2.3-11.4 2-14-3.6-2.8-5.6-1.7-14.8 3.9-17.5s13.4 2.2 16.1 7.7M272.8 22c5.6 2.7 5.8 9.4 3.5 14.2-2.4 4.7-7.9 8.5-13.4 5.8s-10.3-10.7-7.6-16.3c2.7-5.5 12-6.5 17.5-3.7m8.2 74c-4.7 4-11 1.7-14.4-2.4s-4.7-10.6 0-14.6 13.9-5.3 17.9-.6S285.7 92 281 96m80.7-17.4c-6.2.3-9.7-5.3-10-10.6s2.7-11.4 8.8-11.7 14.3 4.3 14.6 10.4-7.2 11.6-13.4 12M325 117.4c1.5-6 8-7.8 13-6.5 5.2 1.2 10.2 5.8 8.7 11.8-1.4 6-8.2 12.4-14.2 11s-9-10.3-7.5-16.3m83.7 1.7c6 1.3 8 7.7 6.8 12.9-1.1 5.2-5.5 10.2-11.5 9-6-1.4-12.7-8-11.4-14s10-9.2 16-8M364 185.8c-3.3 5.2-10 4.7-14.5 1.9s-7.7-8.8-4.3-14c3.3-5.2 11.8-9 17-5.7s5.1 12.6 1.8 17.8m41.9 30.3c-6-1.9-7.3-8.4-5.7-13.5s6.4-9.7 12.3-7.9c6 1.9 12 9 10 14.9-1.8 5.9-10.7 8.3-16.6 6.5" style="fill:#f584b6"/><path d="M198 105.2c-.5.6-1.4.8-1.9.4q-.7-.8 0-2 1-.9 2-.3.7.8 0 1.9m5.7.3q-1-.6-2 .4-.7 1.2 0 2 1 .6 2-.4.8-1.2 0-2M200 110q-.9-.6-1.9.4c-.5.6-.5 1.5 0 1.9q.9.6 1.9-.4.8-1.1 0-1.9m6.5.8q-.9-.6-1.8.4t-.1 2q1 .6 1.9-.4.8-1.1 0-2m-4 3.8q-.9-.7-1.8.3-.9 1.2 0 2c.4.4 1.3.2 1.8-.4q.8-1.2 0-2m-6.8.2q-1-.6-2 .4-.8 1.1 0 1.9c.5.4 1.4.2 1.9-.4q.8-1 0-2m-1.2-5.9q-.9-.6-1.9.4-.8 1 0 2 .9.5 1.9-.5c1-1 .5-1.5 0-1.9m3.3-49.8q-.5-1.2.4-1.9 1-.3 1.8.9.4 1.3-.5 1.9-1 .3-1.7-.9m-2.6 5q1-.5.4-1.8-.6-1.2-1.7-.8-1 .5-.4 1.8.6 1.2 1.7.9m-2.6-5.2q1-.6.5-1.8-.7-1.3-1.8-.9-1 .6-.4 1.9t1.7.8m-3.4 5.7q1-.6.5-2-.7-1-1.8-.8-1 .6-.4 2 .7 1 1.7.8m-1.8-5.2q1-.6.5-1.9-.7-1.2-1.8-.8-.9.6-.4 1.9.8 1 1.7.8M190 53q1-.6.4-1.9t-1.7-.8q-1 .6-.4 1.9.7 1 1.7.8m5.9 1.3q.9-.6.4-1.8-.8-1.3-1.7-.9c-.6.3-.8 1.2-.5 1.9s1.2 1.1 1.8.8m75.5-25.2q-1-.7-.8-1.8.6-1 1.9-.4 1 .7.8 1.7-.6 1-1.9.5m1 5.5q.4-1-.8-1.7c-.7-.4-1.6-.2-1.9.4q-.3 1 .9 1.7t1.8-.4m-5.2-2.5q.4-1-.8-1.8-1.2-.5-1.9.4-.3 1 .8 1.8 1.3.5 2-.4m.8 6.5q.4-1-.8-1.8-1.3-.4-2 .5-.2 1 .9 1.7c.7.4 1.6.2 1.9-.4m-4.6-3q.4-1-.8-1.7-1.3-.5-1.9.4-.4 1 .8 1.7t1.9-.4m-1.9-6.6q.4-1-.8-1.8c-.7-.3-1.6-.2-1.9.4q-.3 1 .8 1.8 1.3.5 2-.4m5.5-2.6q.3-1-.9-1.7c-1.2-.7-1.5-.2-1.8.4q-.4 1 .8 1.8c1.2.8 1.6.1 1.9-.5M275 92q1-.9 2-.1.5.9-.4 1.9-1.1.8-2 0-.5-.9.4-1.8m-5.5-1.3q.8.7 2 0 .8-1 .3-2-.9-.7-2 .1-.9 1-.3 1.9m4.4-3.8q.8.8 2 0 .9-1 .3-2-.8-.6-2 .1-.9 1-.3 2m-6.3-1.9q.8.7 2 0 .9-1 .3-2-.8-.6-2 .1-.8 1-.3 2m4.6-3c.4.5 1.3.5 1.9 0q1-1 .4-2-.8-.6-2 .1-1 1-.3 1.9m6.8.9q.8.8 2 0 .9-1 .3-2-.8-.7-2 .1-.9 1-.3 1.9m.2 6c.4.5 1.3.5 1.9 0q1-1 .4-2-.8-.7-2 0c-1.2.8-.8 1.5-.3 2m80.2-17q1.5 0 1.6 1-.1 1.2-1.4 1.3-1.5-.1-1.6-1.1.1-1.1 1.4-1.3m-3.6-4.5q.1 1.1 1.6 1.2 1.3-.1 1.4-1.3-.1-1.2-1.6-1.1-1.3.1-1.4 1.2m5.8-.3c0 .7.8 1.2 1.6 1.1q1.4-.1 1.4-1.2-.1-1.2-1.5-1.1t-1.5 1.2m-3.8-5.3q.1 1.2 1.5 1.1t1.5-1.2q-.2-1.1-1.6-1.2-1.4.2-1.4 1.3m5.4.4q.1 1 1.6 1 1.3 0 1.4-1.2-.1-1.2-1.6-1.1-1.3.1-1.4 1.3m4.9 4.8q.1 1.1 1.6 1.2 1.3-.2 1.4-1.3-.1-1.2-1.6-1.1-1.3.1-1.4 1.2m-3.5 4.9q.1 1 1.6 1.1 1.3-.1 1.4-1.3-.1-1-1.6-1c-1.5 0-1.4.5-1.4 1.2m-32.5 45.4q-.4 1.3-1.5 1.2-1-.5-.8-1.8.4-1.3 1.5-1.1 1 .3.8 1.7m5.3-2.2q-1.2-.2-1.6 1.1-.2 1.4.8 1.8 1.2 0 1.6-1.2.2-1.4-.8-1.7m-1.4 5.6q-1 0-1.5 1.2-.3 1.4.8 1.7 1 .2 1.5-1.1.2-1.3-.8-1.8m6.2-2.1q-1-.2-1.5 1.1-.3 1.3.8 1.8 1 0 1.5-1.2.2-1.4-.8-1.7m-1.9 5q-1 0-1.5 1.3-.3 1.3.8 1.7 1 .1 1.5-1.2.2-1.4-.8-1.7m-6 3.4q-1.2-.2-1.6 1.1-.2 1.4.8 1.8 1.1 0 1.5-1.2.3-1.4-.8-1.7m-3.7-4.8q-1.1 0-1.5 1.2-.4 1.7.8 1.7 1 .2 1.5-1.1c.5-1.3-.2-1.6-.8-1.8m78.3 4.1q-1.4-.3-1.3-1.5.4-1 1.8-.8 1.3.4 1.2 1.5-.5 1-1.7.8m2.3 5.2q.1-1.1-1.2-1.5-1.4-.2-1.7.8-.1 1.2 1.2 1.5 1.4.2 1.7-.8m-5.7-1.2q.1-1.1-1.2-1.5-1.4-.2-1.7.8-.2 1.2 1.2 1.5 1.4.2 1.7-.8m2.4 6.1q0-1-1.3-1.5-1.3-.2-1.7.9 0 1 1.2 1.5 1.4.2 1.8-.9m-5.2-1.8q0-1-1.2-1.4-1.4-.2-1.8.8 0 1.1 1.3 1.5 1.3.2 1.7-.9m-3.5-6q.2-1-1.2-1.4-1.4-.2-1.7.8 0 1.1 1.2 1.5 1.4.2 1.7-.8m4.7-3.7q0-1.1-1.2-1.5-1.4-.2-1.8.9-.1 1 1.3 1.5c1.4.5 1.5-.3 1.7-.9M357 183.5q.9-1.1 1.8-.6 1 .7.2 2-.7 1-1.8.5-.8-.7-.2-1.9m-5.6.4q.9.5 1.8-.6.6-1.2-.2-2-1-.4-1.8.7-.7 1.2.2 2m3-4.9q1 .5 2-.6.6-1.2-.3-2c-.5-.3-1.4 0-1.8.7q-.7 1.2.2 2m-6.5 0q1 .5 1.8-.6.7-1.2-.2-1.9-.9-.4-1.8.6-.6 1.2.2 2m3.5-4.2c.5.4 1.4.1 1.8-.6q.7-1.2-.2-1.9c-.5-.4-1.4 0-1.8.6q-.7 1.2.2 2m6.8-1.1c.5.4 1.4 0 1.8-.6q.7-1.2-.2-2c-.5-.3-1.4 0-1.8.7q-.7 1.2.2 1.9m1.9 5.7q1 .4 1.8-.6c.8-1 .4-1.6-.2-2s-1.4 0-1.8.7-.4 1.5.2 1.9m46 29.4q1.3.6 1.1 1.6-.4 1.1-1.8.7c-.8-.2-1.3-1-1-1.6.1-.6 1-1 1.7-.7m-1.9-5.3q-.2 1 1.1 1.6 1.4.3 1.8-.7.2-1.2-1-1.6-1.5-.4-1.9.7m5.6 1.7q-.2 1 1 1.6 1.5.3 1.9-.7.2-1.1-1.1-1.6-1.4-.3-1.8.7m-1.8-6.3q-.2 1 1.1 1.6 1.4.3 1.8-.7.2-1.2-1-1.6-1.5-.4-1.9.7m5 2.2q-.2 1 1.1 1.6 1.4.3 1.8-.7c.2-.6-.3-1.4-1-1.6q-1.5-.3-1.9.7m3 6.3q-.3 1 1 1.5t1.8-.7q.2-1-1-1.5-1.5-.4-1.9.7m-5 3.3q-.2 1 1 1.6c1.2.6 1.6 0 1.8-.7s-.3-1.4-1-1.6-1.6 0-1.8.7" style="fill:#fea0d2"/><path d="M341 188.9c1.7 1.1-5.2-26-3.6-30.5-75.3-43.2-143.7-45.9-178.6-42.5-24.8 2.5-54.1 15.4-58.6 34.2a27 27 0 0 0 6.4 24.2c5.5-15.3 44.2-27.6 65.6-28.8 48-2.7 129 22.5 168.8 43.4" style="fill:#f584b6"/><path d="M128.1 125.4a42 42 0 0 0-20 48.7c-19.4-14.8-3.9-41.5 20-48.7m92.3-95.2c25.9-9.4 56.7-9.8 97.6 2.5a142 142 0 0 0-91 5.6 223 223 0 0 0-99.4 76.5c27.9-45.5 57.8-72 92.8-84.6m160.2 35.4a161 161 0 0 1 27.8 42.4c8.1 17.4 13 31 13.8 52.7.8 24.3-4.3 53.6-14 78.4 17.5-34 29.4-69.3 22-102.3-5.5-24.9-23.7-47.7-49.6-71.2" style="fill:#c7e8ff"/><path d="M393 253c-8 0-25.4-7.1-36-22.8a139 139 0 0 1-18.8-41.7 271 271 0 0 1-7.4-42.4 2.6 2.6 0 0 1 5-.5c2 17 4.2 30.3 7.3 41.6 4.1 15 10 28.1 18.2 40.2 10 15 27.3 21 32.4 20.4s13.7-7.1 21-23a184 184 0 0 0 14.9-76c-2-27.8-13.8-41.4-23.2-52.3l-1.8-2a202 202 0 0 0-106.4-66.8c-25-6.1-47.9-5.5-70 1.8-12.4 4-75.7 28-104.4 97.9a2.5 2.5 0 1 1-4.7-2c29.5-72 94.7-96.6 107.5-100.8a131 131 0 0 1 72.9-1.9 207 207 0 0 1 109 68.5l1.7 2a84 84 0 0 1 24.4 55.3c2 28.5-8.3 63.3-15.3 78.5-8.1 17.7-18.2 25-25 25.8z" style="fill:#3a3880"/><path d="M108.4 179q-.8 0-1.6-.6a28 28 0 0 1-8.5-28.1c3.1-12.2 11.5-21.1 27.2-29a2.5 2.5 0 1 1 2.3 4.7c-14.4 7.1-21.8 14.8-24.6 25.6-2.1 8.3.8 18 6.8 22.8a2.6 2.6 0 0 1-1.6 4.6" style="fill:#3a3880"/><path d="M341 194.8q-.8 0-1.4-.5c-23.4-16.9-69-33.3-98-39-28.2-5.3-68.2-9-96.2-3.3-19 4-31.7 13.2-34 24.8a2.6 2.6 0 0 1-5-1c2.7-13.7 17-24.5 38-28.8 28.8-5.9 69.5-2.1 98 3.4 29.6 5.7 76.3 22.5 100.1 39.8a2.5 2.5 0 0 1-1.5 4.6m-7.3-37.8-1.2-.3c-19.2-12.7-58.4-27-89.1-32.8a2.1 2.1 0 0 1 .7-4.1c31.2 5.8 71 20.4 90.7 33.3a2.1 2.1 0 0 1-1.1 3.9M148 120a2.1 2.1 0 0 1-.4-4.3 257 257 0 0 1 72-.8 2.1 2.1 0 1 1-.5 4.2 255 255 0 0 0-71.2.8" style="fill:#3a3880"/><path d="m428.6 246.9-7.8-6.6-17.7 4.6-6.2-1.3-7.1 2.1-15.2-12.4-11.7 2.2-4.7 26.3 8.4 7.3 21.3-5.7 6.4 2 5-1.6 15.8 12.8 9.2-5.9z" style="fill:#f584b6"/><path d="M429.8 247q-2.7-8.8-12.5-8.1a30 30 0 0 0-14.8 4.8 10 10 0 0 0-5.2-2.4q-3.7-.6-6.7 1a28 28 0 0 0-15.4-11.2c-8-2.1-12.2 1.7-14.3 5.3a37 37 0 0 0-3.5 25.7c.9 3.8 3.7 8.4 12.6 8.4h.3a31 31 0 0 0 17.6-5 11 11 0 0 0 10.8 1.4q5 7 13.1 10 2.5.7 4.8.7 6.4 0 9.7-5.7c3.6-6.2 6-16.2 3.5-25m-59.5 19h-.3c-6.3-.1-7.6-2.8-8-4.9a32 32 0 0 1 2.9-22.4q2.8-5 9.1-3.1c3.3.8 9.8 4 13 9.8q-1.5 2.1-2.3 4.7-1.4-.7-3.2-1.2-2.6-.5-5-.6-1.6.1-1.9 1.6 0 1.7 1.6 2 4.7.2 7.7 2.7c0 2 .1 4.8 1.2 7.2a27 27 0 0 1-14.8 4.1m19.6-4.9c-1.6-2.2-1.4-5.9-1.3-7.4a12 12 0 0 1 2.5-6 6 6 0 0 1 4.3-2l1.1.1q2.7.5 3.8 2.4c1 1.7 1.3 4.4 1 7.1a10 10 0 0 1-4 7.1c-1.8 1.2-5.7.8-7.4-1.3m32.4 8.5c-1 1.8-3.6 4.7-9 2.8a22 22 0 0 1-11-8.3q2.1-2.5 3-5.8.3 0 .5-.2c2-.8 4.9-.7 7-.2q1.6.2 2.1-1.2c.7-2.2-2-2.6-3.5-2.8q-2.8-.5-5.4-.1 0-3.4-1-6.3 4.8-3.3 12.7-4 6.2-.6 7.7 4.7a31 31 0 0 1-3 21.4" style="fill:#3a3880"/><path d="M388.7 306.4q-.4 2.1-2.2 2.1c-1.8 0-1.7-1.2-1.6-2.5s1.1-2.2 2.1-2.1 1.8 1.2 1.7 2.5m7.1-6.1q-1.7.1-1.9 2.4c-.2 2.3.9 2.3 2 2.3s1.8-1 1.8-2.3-.8-2.4-1.9-2.4m8.7 3.3c-1 .1-1.8 1.2-1.6 2.5s1 2.3 2 2.2 1.8-1.2 1.7-2.5-1-2.3-2-2.2m-9.1 5.4c-1 0-1.9 1.1-1.9 2.4s.9 2.3 1.9 2.3 1.9-1 1.9-2.3-.9-2.4-2-2.4m8 4q-1.7 0-2 2.2c0 1.2.7 2.4 1.7 2.4s2-.9 2-2.2-.6-2.4-1.7-2.5m-8.1 5.5c-1 0-2 1-2 2.4s1 2.3 2 2.3 1.8-1 1.8-2.3-.8-2.4-1.8-2.4m-7.9-5.3c-1 .1-1.7 1.3-1.5 2.6s1.2 2.2 2.2 2 1.7-1.3 1.5-2.6-1.1-2.2-2.2-2" style="fill:#f5a7b6"/><path d="M398.9 274.3a4 4 0 0 0-2-3.4 4 4 0 0 0-2-7.5 4 4 0 0 0-2 7.5q-1.9 1.2-2 3.4c0 2.2.8 2.8 2 3.5a4 4 0 0 0 2 7.5 4 4 0 0 0 2-7.5 4 4 0 0 0 2-3.5m-2.6 0a1.4 1.4 0 1 1-2.8 0 1.4 1.4 0 0 1 2.8 0m-1.4-8.3a1.4 1.4 0 1 1 0 2.8 1.4 1.4 0 0 1 0-2.8m0 16.7a1.4 1.4 0 1 1 0-2.8 1.4 1.4 0 0 1 0 2.8" style="fill:#3a3880"/><path d="M414.6 308c0-5.4-2.5-9.6-6.2-12.4a6.4 6.4 0 0 0 .3-7.8 6 6 0 0 0-4.7-2.5q-1.7-.1-3.2.6a7 7 0 0 0-5.8-3.5 6 6 0 0 0-5.7 3.5 7 7 0 0 0-7.4.9 7 7 0 0 0-.8 9.7A15 15 0 0 0 376 308c0 8 5.3 19 13.3 23-1.6 4.1 1 9 5.7 8.7a6 6 0 0 0 5.7-8.4c8.4-3.6 14-15.1 14-23.3M383 292.2q0-1.6 1.1-2.6c1-.8 3.3-1.1 4.6.4a1.8 1.8 0 0 0 3.2-.8q.7-3 3-3c1.3 0 2.8.9 3.1 3a1.8 1.8 0 0 0 3.1.9q1.6-1.4 2.6-1.1 1.2 0 2 1 .6 1 .4 2.2 0 1-1 1.6a23 23 0 0 0-21.1.6q-1.1-1.2-1-2.1m17.2 34.7q-.2-.4-.6-.7c-2-1.1-3 1.4-3.2 3q-.1 1.2.4 2.4c.4 1 .8 1.4.7 2.4 0 2.1-3 3.2-4.6 1.9-1.7-1.6-.5-3.5 0-5.4q.6-2.2-1-3.9-1.1-.9-2.2 0a24 24 0 0 1-9.7-18.4c0-8.1 7.8-12.5 15.1-12.5s15.2 4.4 15.2 12.5a24 24 0 0 1-10 18.7" style="fill:#3a3880"/><circle cx="232.2" cy="119.8" r="2.2" style="fill:#3a3880"/><circle cx="138.3" cy="120.5" r="2.2" style="fill:#3a3880"/></g><path d="M168.5 512.6c2.7-8.9 6.3-19.2 8-20 12.4-5.9 22.4-7.3 25.2-14.2 6-15-6.8-45.4-10.3-51-5.5-8.8-27.1-38.3-47.6-11.5a105 105 0 0 0-33.8 29c-7.1 10.1-21.4 49.8-27.6 67.7z" style="fill:#fcf2ff"/><path d="M168.5 512.6c2.7-8.9 6.3-19.2 8-20 12.4-5.9 22.4-7.3 25.2-14.2 6-15-6.8-45.4-10.3-51-5.5-8.8-27.1-38.3-47.6-11.5a105 105 0 0 0-33.8 29c-7.1 10.1-21.4 49.8-27.6 67.7z" style="fill:#ffbdd5"/><path d="M134.2 433q.2 0 .1.4-2.2 4.6.2 9.8c1.6 3.2 4.7 6.3 8.3 8.1a13 13 0 0 0 11.7.8q5.2-2.7 6.5-9.7c.7-4 .2-8.3-1.4-11.6a11 11 0 0 0-8.3-6.2h-.4v-.3a5 5 0 0 0-1.8-4.9 5 5 0 0 0-6.3.4 5 5 0 0 0-4.7.4q-1.8 1.3-2.3 3.3-1.5.2-2.9 1.4a5 5 0 0 0 1.3 8m-2.6 76.4q-3.4-6.2-1.2-11.5v-.1q2.6-5.3 9.5-6.9c4-.8 8.3-.4 11.6 1 3.5 1.6 5.5 4.4 6.4 7.5q0 .3.4.2a5 5 0 0 1 6 5.4q0 1.8-1.3 3a5 5 0 0 1 .1 4.6h-29.3q-1.2-1.4-2.2-3.2m-13.8-30-.1.2a5 5 0 0 1-4.5 2.2l-.2.1v.4c-.3 3.7-2.1 7-5.2 9-3 2-7.3 3-11.3 2.9q-4.6-.3-7.7-2.5 1.4-5.4 3.2-10.5 3.1-7.8 7.5-15.1 1.3 0 2.5.5.3 0 .5-.3a5 5 0 0 1 7.8-2.2q1.4 1 1.8 2.7 2.1.2 3.5 1.9a5 5 0 0 1 1 4.6 5 5 0 0 1 1.2 6.2" style="fill:#fed0d8"/><path d="M147.3 421.6a2 2 0 0 0-1.8-.3q-1.2.5-1.5 1.8c-.1.6-.9.6-1.2.1q-1.2-1.6-3.2-.7a3 3 0 0 0-1 3.4c.3.6-.4 1-.9.7q-1.5-.8-2.8.3-.8.8-.6 2c.3 1.2 1.5 2.3 2.6 1.5q.6-.4 1-1a17 17 0 0 1 6.4-3.7l1.5-.3 1.2-.3c1.5-.6 1.4-2.6.3-3.5m7 91 .7-1a16 16 0 0 0 2.6-6.9l.2-1.4c.4-1.2 2-1.2 2.9-.5q1 .8.9 2-.3 1.7-2 2c-.6 0-.8.8-.3 1.1q1.8 1.2 1.4 3.3-.3 1-1.3 1.4zM115.5 478a2 2 0 0 0 0-1.9q-.6-1-1.9-1.2c-.6 0-.7-.8-.3-1.2q1.6-1.5.3-3.2-1.5-1.5-3.5-.5-1 .1-.8-1 .7-1.5-.6-2.7-1-.7-2.2-.3c-1 .4-2 1.7-1 2.8l1 .9a17 17 0 0 1 4.5 5.8l.6 1.4.4 1.2c.8 1.4 2.7 1 3.5-.1" style="fill:#71ded1"/><path d="M137 442c-2.7-5.6 1.1-11.1 5.9-13.4s11.5-2 14.2 3.5 1.7 14.8-3.9 17.5-13.4-2.1-16.2-7.7m.7 70.6h13.9q1.7-1.8 2.7-4c2.2-4.9 1.7-11.5-4-14-5.5-2.6-14.8-1.3-17.3 4.3-2 4.4.7 10.2 4.7 13.7m-29.8-38.1c-2.1-3.4-6-6-10-5.6q-3.3 6-5.9 12.3-1.3 3.6-2.4 7.6c4 3.6 12 3.2 16.6.2 5.2-3.4 4.7-10.1 1.7-14.5" style="fill:#f584b6"/><path d="M142.5 437.2q.5 1.3-.4 1.9-1 .4-1.7-.8-.5-1.3.4-2 1-.2 1.7 1m2.6-5q-1 .5-.4 1.8t1.7.9q1-.6.4-2-.6-1.1-1.7-.7m2.6 5.2q-1 .6-.4 1.9.6 1 1.7.8 1-.6.4-2-.6-1.1-1.7-.7m3.4-5.7q-1 .6-.5 2 .8 1.1 1.8.7 1-.6.4-1.8t-1.7-.9m1.8 5.2q-1 .6-.4 1.9.6 1 1.7.8c.6-.3.8-1.2.4-1.9q-.6-1.1-1.7-.8m-2.6 6.4q-.9.6-.4 1.9.8 1 1.8.8.9-.6.4-1.9-.7-1.2-1.8-.8m-5.8-1.3q-1 .6-.4 1.9.6 1 1.7.8 1-.6.4-1.9c-.6-1.3-1.1-1.1-1.7-.8m4.6 59.7q-1.1-.7-.8-1.8.4-1 1.8-.4t.9 1.7-1.9.5m1.3 5.5q.3-1-1-1.7-1.2-.5-1.8.5-.4 1 .9 1.7c.7.3 1.6.1 1.9-.5m-5.4-2.4q.4-1-.8-1.7-1.3-.4-1.9.5-.4 1 .9 1.7c.7.3 1.6.1 1.8-.5m1 6.5q.4-1-.8-1.7-1.3-.4-2 .5-.2 1 1 1.7c.7.3 1.6.1 1.8-.5m-4.7-2.8q.4-1-.8-1.7t-1.9.5q-.4 1 .9 1.7c.7.3 1.6 0 1.8-.5m-2-6.6q.3-1-1-1.7-1.2-.4-1.8.5-.4 1 .9 1.7c.7.3 1.6.1 1.8-.5m5.3-2.7q.3-1-.9-1.7-1.3-.4-1.9.5-.2 1 1 1.7c1.1.7 1.5.1 1.8-.5m-45.3-24q-1.2.6-1.9-.2-.5-1 .6-1.8 1.2-.7 2 .1.4 1-.7 1.9m5.3 1.9c-.3-.6-1.2-.6-1.9-.2q-1.1.9-.6 1.9.8.8 2 .1 1-.7.5-1.8m-4.8 3.2q-.7-.8-2-.2-1 .9-.5 1.9.7.8 1.9.1t.6-1.8m6 2.6c-.3-.5-1.2-.6-1.9-.1q-1.1.8-.6 1.8.7.9 2 .2 1-.9.5-1.9m-4.9 2.5q-.7-.9-1.9-.2-1.1.9-.6 1.9.7.8 2 .1 1-.7.5-1.8m-6.6-1.7q-.8-.8-2-.2-1.1.9-.6 1.8.8 1 2 .2c.7-.4 1-1.3.6-1.8m.5-6q-.7-.8-1.9-.2c-1.2.6-1 1.3-.6 1.9q.7.8 2 .2c1.2-.6.9-1.3.5-1.9" style="fill:#fea0d2"/><path d="M143 415.2c26.1-1 50.1 54 41.6 72 10-3.8 18.7-.4 18.7-10 3.5-25.4-12.6-47-17.6-57.1-3.1-6.8-14.2-13.1-21-14.7-9-2.1-14.1 2.3-21.7 9.8" style="fill:#f584b6"/><path d="M176 494.3a2.6 2.6 0 0 1-1-5l2.1-.8c2.2-.9 3.7-1.5 5.5-3.2a2.6 2.6 0 0 1 3.6 3.6 19 19 0 0 1-7.2 4.3l-2 .9z" style="fill:#3a3880"/><path d="M192 489.7q-3 0-6-1a2.6 2.6 0 0 1 1.3-4.9c5 1.3 7.5 1 10-1.2 3.2-2.9 4.1-11.3 2.5-22.6a81 81 0 0 0-9.2-26.5l-.9-1.6a53 53 0 0 0-23.6-24c-8.6-4-15.8 1.6-19.6 8.1a2.6 2.6 0 0 1-4.4-2.5c6.2-10.7 16.5-14.7 26.2-10.2A58 58 0 0 1 195 431a87 87 0 0 1 9.9 28.4c1.3 9.5 1.7 21.8-4.2 27.1a12 12 0 0 1-8.6 3.3" style="fill:#3a3880"/><path d="M92 512.6a259 259 0 0 1 17-51.1c3.5-7.6 6.5-11.5 10.4-17 6-8.5 14-16.8 21.7-24.6-35 20-45.6 48-57.8 92.7z" style="fill:#c7e8ff"/><path d="M85.2 512.6c3.3-10.3 7.8-23.9 13-36.9a94 94 0 0 1 18.3-32.1c9-11.4 21.8-20.8 30.8-26.9a2.6 2.6 0 1 0-3-4.2c-9.1 6.3-22.4 16-31.8 28a99 99 0 0 0-19 33.3 599 599 0 0 0-13.7 38.8zm85.9 0c4-10.8 5.7-17.7 6.8-24.2a2.6 2.6 0 0 0-5-.9c-1.2 6.7-2.9 13.6-7.2 25zm12.8-47.4q-1.6-.1-2-1.6a93 93 0 0 0-13.7-29.7 2.1 2.1 0 0 1 3.4-2.5 98 98 0 0 1 14.3 31.2 2 2 0 0 1-2 2.6m-24.4-41.8a2 2 0 0 1-1.3-.5q-3.9-3-7-3.4a2.1 2.1 0 0 1 .5-4.2q4.3.5 9.2 4.3a2.1 2.1 0 0 1-1.4 3.8m23.8 66.5a2.1 2.1 0 0 1-1.6-3.4c2.6-3.3 3-11.2 2-15.2a2.1 2.1 0 1 1 4-1c1 3.8 1.5 13.7-2.8 18.8q-.6.8-1.6.8" style="fill:#3a3880"/></svg>