<svg xmlns="http://www.w3.org/2000/svg" width="512" height="512" viewBox="0 0 512 512"><defs><clipPath id="a"><path d="M0 0h512v512H0z" style="fill:none"/></clipPath></defs><g style="clip-path:url(#a)"><path d="M0 0h512v512H0z" style="fill:#fa91ce"/><path d="m511.4-9.2-66.3 126a341 341 0 0 1-24-11.7L510.3-9.2zm-50.5 150.5-22.3 39.3-99 76.2 118-58.4 16.7 18.9-15.3 42.1 44.8-54.4-39.4-19 41.6-28.5zM445 116.7l-8.4 16 24.2 8.6 7.8-13.8zM31.2 201l-39.7-21.2v24.4l39.7 41 12.2-55zm20.3-47.7-8.1 36.8L69 167.4zm38-4-20.5 18 69.2 55.8zm-98 163.5v8.4l55.7 8-5.8-23.8zm164 39.5L66 371.6l1.2-39.4-20-3 15.5 64.6zM424.3 15.5l-37 70.3 109-10.5L381 65.9zm93 374.8-90.4 55.9 24.8-85-77.2-16.3 40.4 27.8 2 86.6 34.9-19.4 11.6 17.3 53.8-54.2zM93.5 101l87.4 73.8-64.7-82.6 14.3-57.5zM53.1 440.7l4.3-6.9-9.8-7.4zm-61.6-10.8v11.5l42.9-25.1 13.2 10-13.6-36zM110 351.7l-52.6 82.1 9 6.9zM99-9.3H85.7l-33.6 38 102.4 52.7-65.9-58.9zm232.8 47.5 7 6.8-17 47.5 28.7-42.7-15.8-17zm17.6-47.4-27.6 28 13 14 22.1-42zm64.3 491.8-22.2-4.6-7.4-42-5.6 55.7 40-3.5zm32 37.2L442 486l-23.5 2 26.8 31.7z" style="fill:#95e6c8"/><path d="M517.2 288.7a2457 2457 0 0 1-45.6 45.7 943 943 0 0 1-8.7-27.1l-55.2 13.9 65-41.3 7 31 37.5-26.1zM72 201l-49.8-68L50 117.6-8.5 80.2v.4c3.7 4.8 22.4 29 29.4 35.4a290 290 0 0 0-23.5 16.1C7 138 72 201 72 201M402.5-9.2l10.5 72-60.5 62.5 88.6-67.4-36.8-67.1zM161-9.2l-4.7 53.5 23.3-16.9-12.3-36.6zM212.4 79l5.9-42-23 1.7zm-32.9-51.7 4.1 12.2 11.6-.8-7.3-17.4zm-79.4 385.8 10.7 9 32.3-22zm17.7 28.3-65.1 78.3h8l84.5-68.6-34.4-29-16 10.9zM28.8 218l45 51 70.3-39.5-66.6 14zm488.4 243-55.8-60.4-69.9 4.5 51.7 13 74 52.3z" style="fill:#d5f0c0"/></g><g data-name="hair bottom"><path d="M31 513.2h119.7c-1-45.3-53.7-56.5-33.3-106.4 4.6-6.6 3.9-6.7 8-13.4 13.1-21.5 20.7-41.8 10.7-91.3-1.1-13.6 189.6-21.9 189.6-21.9s49.2 17 48 32.7c-14 25.3-4.3 63.7 16.4 91.2 11.2 21.8 4.1 36.4-2.8 48.3h-.2c-11 19-21.1 35.9-15.3 60.8H453c10.6-20 9.5-48.5 2.5-66.2 16 20 15.4 42.4 11 66.2h18.1c4.2-33.1-.7-52.7-21.4-78.8l.2-29.3s-2.1-11.9-8.6-23.7-15.3-20-20.7-25.4a102 102 0 0 1-23-38.1 320 320 0 0 1-9.6-39.5l3.8-27-.4-.1a35.7 35.7 0 0 0 5-52.5 45 45 0 0 0-16.8-55.7C370.3 80.7 306.9 29.6 256 57.7 200.7 43.2 142.6 84.1 120.4 141a45.3 45.3 0 0 0-18.5 61.2 33.8 33.8 0 0 0 7.6 50.7c-.2 52.7-14.3 74.1-21.3 85.4-7.4 12-13 23.4-25.5 37.2s-19.3 37.9-11.6 55.9c-21.2 26.5-28.5 47.3-20 81.8" style="fill:#b1dccf"/><path d="M363.3 513.2h50.3q-.4-6.8.2-13.3c1.9-22.8 11-43.2 5.8-54.5-7.5-16.3-21-32.4-21-32.4 4.7 14.7-27.5 66.3-35.3 100.2m-263.3 0h48c5-35.8-42-59.8-35.9-96-14.3 16.5-11.4 30.7-9.1 51.3a99 99 0 0 1-3 44.7" style="fill:#7dafe4"/><path d="M411.7 205.2c9.3 11.4 3.5 35.2-9 47.1 7-11.3 12.6-34.3 9-47.1m-2.2-9.2c7.4-15.5 6.4-35.1-11.2-45.3a60 60 0 0 1 11.2 45.3M480 513.2h6.6a100 100 0 0 0-23.1-74.6c12.8 19.7 21.3 49.4 16.5 74.6m-63-170.3c10.4 18.8 28.4 34.6 36.7 52s6.6 27.5 6 31.3a22 22 0 0 0 4.3-10.4c.6-18.8-3.2-33.6-24.5-52.4-20.6-18.2-34.8-61.7-36.3-74.4 0 0-3.9 21.9 13.8 54M241.6 57.3c-46.2-8.8-103.9 28.6-115.7 73.6 26.6-41.5 68.5-72.9 115.7-73.6M384.3 126c-11.8-45-69.5-82.4-115.7-73.6 47.2.7 89.1 32.1 115.7 73.6M38.9 513.2a115 115 0 0 1 15.6-84.7 89 89 0 0 0-24.2 84.7zM111 150.9c-17.6 10.2-17.5 29.5-10.2 45.1a68 68 0 0 1 10.2-45.1M52.3 426.2c-.6-3.8-2.3-14 6-31.3s26.3-33.2 36.7-52c17.7-32 13.8-54 13.8-54-1.5 12.8-15.7 56.3-36.3 74.5-21.3 18.8-23.6 31.8-23 50.6a27 27 0 0 0 2.8 12.2m57-173.9c-7-11.3-12.6-34.3-9-47.1-9.3 11.4-3.5 35.2 9 47.1" style="fill:#ffd4ef"/><path d="M115.9 142.3a54 54 0 0 0-20.7 22.9c-4.7 11.2-1.9 24.1 2.1 35 1.1 3.1 6.1 1.7 4.9-1.4a66 66 0 0 1-3.9-14.5c-.7-5.5-.6-11.8 1.6-17 3.5-8.3 11-15.8 18.6-20.5 2.8-1.7.2-6.2-2.6-4.4s0-.1 0-.1" style="fill:#3a3880"/><path d="M102.8 200.4c1.7-2.8-2.4-6-4-3a51 51 0 0 0-7.2 25.3c.2 12.8 7.6 25 16.7 33.6 2.4 2.3 5.4-1.9 3.1-4A44 44 0 0 1 96.6 222c0-5.2 1.4-10.3 3.3-15.1l2-5zc.2-.2.5-1 0 0" style="fill:#3a3880"/><path d="M50.3 431.6h.6a2.4 2.4 0 0 0 1.8-3c-6.1-27 3.3-41.7 14.3-55.6l6.8-8.4c10.9-13 22-26.5 29-45 8-21.6 10.4-43.4 7.4-66.6a2.4 2.4 0 1 0-4.7.7c2.9 22.3.5 43.4-7.3 64.3-6.5 17.6-17.5 30.8-28 43.6q-3.6 4.1-7 8.4C52 384.2 41.5 400.5 48 429.7a2.4 2.4 0 0 0 2.3 2M255.7 55.8c-21.2-7.8-44.9-3.6-65.1 5.3Q174 68.4 160 80.2c-10.2 8.6-19.1 19-26.8 29.8a112 112 0 0 0-18.8 39.1c-.8 3.2 4.2 4.6 4.9 1.4 2.8-11.9 8.3-23 15.1-33.2A165 165 0 0 1 160 87c16.6-15.1 37.8-26 60.1-29.2 11.5-1.7 23.3-1 34.2 3.1 3.1 1.1 4.4-3.8 1.4-4.9s0-.2 0-.2m138.9 93.4a38 38 0 0 1 16.3 20.2c2.8 9.4 0 20.4-3.1 29.3-1.1 3.1 3.8 4.5 4.9 1.4 3.6-10 6.3-22.3 2.9-32.6a44 44 0 0 0-18.4-22.7c-2.8-1.7-5.4 2.7-2.6 4.4" style="fill:#3a3880"/><path d="M399.1 152.4a139 139 0 0 0-36.4-65.5 154 154 0 0 0-33.2-25.1c-11.5-6.5-24-11.6-37.1-13.4-14.4-2-28.7.1-41.7 6.5-3 1.5-.4 5.9 2.6 4.4 11-5.4 23.1-7.4 35.2-6.3s24.4 5.6 35.3 11.5c23 12.3 42.4 30.3 55.6 52.9a130 130 0 0 1 14.8 36.4c.7 3.2 5.7 1.9 4.9-1.4m10.1 48c-.6-1-.2-.2 0 0l.8 1.5q1.2 2.5 2.1 5c1.9 4.8 3.3 10 3.3 15a44 44 0 0 1-14.8 30.3c-2.3 2.2.7 6.4 3 4a49 49 0 0 0 16.8-33.5c.1-8.8-2.8-17.8-7.2-25.4-1.6-2.8-5.7.3-4 3zM387.6 168c.6-1 1.9-1.1 2.9-.5 1.4.8 4 2.9 4 2.9l.5-3q.3-1.7 2-1.7c1 0 1.8.9 1.6 2.2l-.5 4-.4 3.1c-.3 1.5-2.4 2-3.4.9-.9-1-5-4-6-5s-1.2-1.9-.7-2.8m6.6 40.3q1.4-1.4 3-.1c1.2 1 3.5 3.5 3.5 3.5l1-2.9q.5-1.8 2-1.5 2.2.5 1.4 2.5l-1.1 4-.9 2.9c-.5 1.4-2.6 1.6-3.5.4-.7-1.2-4.3-4.8-5-5.9s-1-2-.4-2.9M25.8 493.8q.3 9.8 2.5 19.4h5.2Q29 495 32.3 476.5c2.5-13 8.1-25.2 15.1-36.4q6.4-9.9 13.9-18.9c2.1-2.5-1.5-6.2-3.6-3.6h.1c-17.9 21.6-32.5 47.3-32 76.2m94.5-167.1c-2.1 27.9-22.2 49.9-40.9 68.8q-6.7 6.5-12.9 13.3c-1.7 2 1.1 4.9 2.9 2.9 8.6-9.7 18.2-18.5 26.8-28.4s16.8-20.3 22.1-32.4a74 74 0 0 0 6.1-24.4c.2-2.6-3.9-2.6-4.1 0s0 .2 0 .2" style="fill:#3a3880"/><path d="M138.9 311.2a88 88 0 0 0-5.9-14q-.8 3.6-2 7.2l2.1 5.4q2.7 8.1 4.2 16.5a76 76 0 0 1-9.4 59.3c-6.4 10.9-14.4 20.6-20.5 31.6a63 63 0 0 0-8.2 41c.4 3.1 5.5 1.9 4.9-1.4-2.1-13 1-25.2 7.4-36.5s14.1-20.9 20.6-31.7a82 82 0 0 0 12.4-38.4 120 120 0 0 0-5.6-39m312.7 111.7c19.6 21.8 33.7 50 33.2 79.8q0 5.2-.8 10.5h5c3-25-4-50.4-17.3-71.9a153 153 0 0 0-16.5-21.9c-2.2-2.5-5.8 1.2-3.6 3.6zm-37.2 5.7c-7.4-11.6-18-22-26.3-33.5s-14.4-23.7-16.9-37.3a80 80 0 0 1 8.5-52.9h-6a83 83 0 0 0-8.6 47c1.3 13 5.8 25 12.4 36.3 7.7 13.3 18.3 24.3 27.6 36.4s16.2 28 11.1 43c-1 3.2 4 4.6 5.1 1.5a49 49 0 0 0-6.9-40.5M55.7 513.2c-6.6-24.7-.5-51.8 12.3-73.5 1.3-2.3-2.2-4.3-3.5-2.1v.1a102 102 0 0 0-13 75.5zm15.1-79.9c2.6 0 2.6-4.1 0-4.1s-2.6 4.1 0 4.1" style="fill:#3a3880"/><path d="M376.3 513.2a59 59 0 0 1-2.4-22 57 57 0 0 1 5.5-19c6.5-13.6 16.5-25.4 19.5-40.6 2-10.1.5-20.1-4.9-28.9-1.7-2.8-6.1-.2-4.4 2.6l.2.1c4.8 7.8 6.2 16.7 4.2 25.6s-6 16.2-10.5 23.6A89 89 0 0 0 369 490c-1 7.8 0 15.6 2 23.2zm76.1-66.8a99 99 0 0 1 13.5 66.8h4.6a103 103 0 0 0-14.2-69.2c-1.6-2.5-5.6-.2-4 2.3zm9.3-14.8h-.6a2.4 2.4 0 0 1-1.8-3c6.1-27.1-3.3-41.8-14.4-55.6l-6.8-8.4c-10.9-13-22-26.5-29-45-8-21.6-10.4-43.4-7.4-66.6a2.4 2.4 0 1 1 4.7.7c-2.9 22.3-.5 43.4 7.3 64.3 6.5 17.6 17.5 30.8 28 43.6q3.6 4.1 7 8.4c11.3 14.2 21.8 30.5 15.3 59.7a2.4 2.4 0 0 1-2.3 2" style="fill:#3a3880"/><path d="M453.6 448a89 89 0 0 1-2 65.2h5.2a91 91 0 0 0 1.3-66.5c-1-2.7-5.5-1.6-4.4 1.2zm-323.2 23.5a66 66 0 0 1 12 41.7h5.1c.7-14-2.9-27.8-10-40-3-5.2-6.7-9.8-10-14.8a74 74 0 0 1-9.5-21.2 44 44 0 0 1 2.3-30.1c1.4-3-3-5.6-4.4-2.6h-.1c-7.7 16.6-4.6 34.8 3.8 50.5 3.1 5.8 7.2 11 10.8 16.5M390 337.3a66 66 0 0 0 14.9 36.7c9.2 11.6 20.5 21.4 30.9 31.9 1.9 1.9 4.7-1 2.9-2.9-9.9-10-20.5-19.3-29.5-30.2a61 61 0 0 1-15.1-35.5c-.2-2.6-4.2-2.6-4.1 0" style="fill:#3a3880"/><path d="M428.3 382.5a26 26 0 0 1 2 15.2q-.3 1.8 1.4 2.5c1 .3 2.3-.3 2.5-1.4q1.7-9.6-2.4-18.4c-.5-1-1.9-1.3-2.8-.7-1 .6-1.2 1.8-.7 2.8M392 331.2c2.6 0 2.6-4.1 0-4.1s-2.6 4.1 0 4.1M124.4 168c-.6-1-1.9-1.1-2.9-.5-1.4.8-4 2.9-4 2.9l-.5-3q-.2-1.7-2-1.7-1.7.1-1.6 2.2c.1 2.1.3 2.8.5 4l.4 3.1c.3 1.5 2.4 2 3.4.9.9-1 5-4 6-5s1.2-1.9.7-2.8m-6.6 40.3q-1.3-1.4-3-.1c-1.2 1-3.5 3.5-3.5 3.5l-1-2.9q-.5-1.8-2-1.5-2.2.5-1.4 2.5c.8 2 .7 2.7 1.1 4l.9 2.9c.5 1.4 2.6 1.6 3.5.4.7-1.2 4.3-4.8 5-5.9s1-2 .4-2.9" style="fill:#3a3880"/></g><path d="m350 420.7-70.3-38.5-3-26.8h-41.3l-2.8 26.7-63.7 34.4-12.4 12.3S135.4 496.4 131 512h247.2L359 436.5z" style="fill:#fbe4ed"/><path d="M232.7 357.4c-.3 4.7.4 14.7.4 14.7s7.6 7.2 24.4 7.2 22.3-10 22.3-10-.4-7.6 0-12.7c-14.1 6.9-32.4 4.1-47.1.9z" style="fill:#d39dc5;isolation:isolate;opacity:.7"/><path d="M368.4 461.3q6.9 25.4 13 50.7h-5.2q-6.1-24.7-13-49.2l-4.5-16.1c-1.8-6-3.7-12.2-7.1-17.5-4-6.6-10.4-10.1-17-13.8q-11.1-6.3-22.6-12l-2.3-1.2c-7.4-3.7-15.1-7.1-22.2-11.5a27 27 0 0 1-7.6-5.6 16 16 0 0 1-3.5-5.3l-.1-.5-1-3.2c-.8-4.3-.6-9-.5-13.4 0-3 4-4 5-1.2l.2 1.3q-.4 6 .3 11.9l.2 1c1 4.4 4 7 7.8 9.3 9.7 6.1 20.2 10.8 30.3 15.9q11.8 6 23.1 12.6a40 40 0 0 1 15.5 14.3c3 5.3 4.8 11.4 6.5 16.9s3.2 11 4.7 16.6m-29 3.9q-3.2-8.7-5.3-17.7c-.7-2.9-5.1-1.7-4.4 1.2h-.1q2.3 9.4 5.7 18.7a60 60 0 0 1 .3 44.6h4.8a76 76 0 0 0 3.9-18.5c.8-9.8-1.6-19.1-4.9-28.3m-186.7-18.5c1.8-6 3.7-12.2 7.1-17.5 4-6.6 10.4-10.1 16.9-13.8q11.8-6.7 24-12.7c9.4-4.7 19.4-9 27.9-15.2q6-4.2 7.4-11.2c.8-4.4.7-9 .5-13.5-.1-3.3-5.3-3.3-5.1 0q.4 6-.3 11.9c-.6 4.1-2.7 6.9-6.1 9.2-7.8 5.3-16.6 9.3-25.1 13.6s-16.4 8.2-24.3 12.7c-6.7 3.8-13.5 7.4-18.3 13.6-7.3 9.5-9.9 22.4-13.1 33.7q-5.2 19.2-10.2 38.6l-4 15.9h5.2q6.2-24.7 12.9-49.2zm19.2 36q1.3-7.9 4.1-15.5 3.4-9.1 5.7-18.7c.7-2.9-3.8-4.1-4.4-1.2v.1q-2 8.1-4.7 16-2.2 5.8-3.8 11.7a63 63 0 0 0 2.3 36.9h4.7a60 60 0 0 1-3.9-29.3" style="fill:#38377a"/><path d="M365.8 257.4c8.6-19.1 10.2-53.5 10.2-53.5v-.1c0-66.5-40-122.4-119.9-120.4-81.5 2-123.2 58.8-119.9 120.4v.2a152 152 0 0 0 9.8 53.3c-24.5 13-21.2 35-10.6 49 6.6 8.7 15.8 16.6 36.6 15.6l.8 2 16 17 33.5 17.5 33.5 6 39.8-9 29.3-16 14.6-16.2c20.2 2.3 30.4-8 37.1-16.9 9.9-13 12.5-38-10.8-48.9" style="fill:#fbe4ed"/><path d="M383.5 269.5c-3-6.2-8.3-10.6-14.5-13.3q4.6-12.6 7-25.8 2.4-13 2.5-26.4v-.2c0-23.7-5-47.7-16.8-68.4a104 104 0 0 0-50.2-44.9 144 144 0 0 0-81.2-7 121 121 0 0 0-65.7 33.8 111 111 0 0 0-29.6 60.3 165 165 0 0 0-.8 39.1q1.7 20.4 8.7 39.5a29 29 0 0 0-13.5 11.5 31 31 0 0 0-4.1 17.4c.6 14 8.8 26.4 20.2 34.2 7.7 5.2 17 7.6 26.2 6a61 61 0 0 0 13.5 15 129 129 0 0 0 42.4 21.4c8.5 2.6 17.3 4.6 26.2 5.1a132 132 0 0 0 62-18.5 71 71 0 0 0 24.6-23l.7.2c15.8 2.9 31.8-7.8 39.7-20.9 6.3-10.3 8.1-24 2.7-35.1m-251 3.1q4-8.1 12.2-11.7 1.8 5 4 9.6c-6.8 3.2-11.6 11.8-9.7 19.2.5 2.2 3.9 1.2 3.4-1a12 12 0 0 1 1.5-8.8 14 14 0 0 1 6.2-6.1l1.8 4.1q4.6 10.4 8.6 21.3c2.6 7.2 4.8 14.6 8.4 21.4-23.3 2.8-46.4-26-36.4-48M316.3 342q-10.5 6.8-22.5 11.3-10.5 4-21.4 6.4a70 70 0 0 1-19.9 2 134 134 0 0 1-47.5-14.5 99 99 0 0 1-18.5-12.2 57 57 0 0 1-14.2-18.8c-3.4-7.1-5.5-14.5-8.2-21.7s-5.6-13.8-8.6-20.7c-5.2-12-10.3-23.9-13.1-36.7-3.1-14-4.2-28.6-3.8-42.9a111 111 0 0 1 19.7-61.3 108 108 0 0 1 54.9-39.7q19.6-6.4 40.2-7a116 116 0 0 1 40 3.8 101 101 0 0 1 55.5 35.5 121 121 0 0 1 23.6 61.3q.9 8.6.9 17.1c0 15.1-2.4 30.7-7.1 45s-11.6 27.8-16.8 42l-3.3 9.1q-1.9 5.1-4.2 10.5-2.5 5.8-4.5 9.2l-3.1 5a55 55 0 0 1-12.1 12.9q-3 2.4-6 4.4m65.4-57a39 39 0 0 1-16.8 29.3 30 30 0 0 1-21.7 6.4q1.5-2.7 2.7-5.5c3.2-7.2 5.7-14.8 8.3-22.2q3.6-9.7 7.7-19.2a14 14 0 0 1 6.2 6.1 12 12 0 0 1 1.5 8.8c-.5 2.2 2.9 3.2 3.4 1 1.9-7.4-2.9-16-9.7-19.2l4-9.5a24 24 0 0 1 14.4 24" style="fill:#3a3880"/><g style="opacity:.4"><ellipse cx="197.5" cy="306.6" rx="22.9" ry="14.9" style="fill:#f9d3e3"/><ellipse cx="197.5" cy="306.6" rx="21.3" ry="13.8" style="fill:#f8cfe1"/><ellipse cx="197.5" cy="306.6" rx="19.7" ry="12.8" style="fill:#f7cbdf"/><ellipse cx="197.5" cy="306.6" rx="18.1" ry="11.7" style="fill:#f7c7dc"/><ellipse cx="197.5" cy="306.6" rx="16.4" ry="10.7" style="fill:#f6c3da"/><ellipse cx="197.5" cy="306.6" rx="14.8" ry="9.6" style="fill:#f6bfd7"/><ellipse cx="197.5" cy="306.6" rx="13.2" ry="8.6" style="fill:#f5bbd4"/><ellipse cx="197.5" cy="306.6" rx="11.6" ry="7.5" style="fill:#f3b6d2"/><ellipse cx="197.5" cy="306.6" rx="10" ry="6.5" style="fill:#f2b2cf"/><ellipse cx="197.5" cy="306.6" rx="8.4" ry="5.4" style="fill:#f1aecd"/><ellipse cx="197.5" cy="306.6" rx="6.7" ry="4.4" style="fill:#f0aaca"/><ellipse cx="197.5" cy="306.6" rx="5.1" ry="3.3" style="fill:#f0a6c7"/><ellipse cx="197.5" cy="306.6" rx="3.5" ry="2.3" style="fill:#eea3c5"/></g><g style="opacity:.4"><ellipse cx="313.1" cy="306.6" rx="22.9" ry="14.9" style="fill:#f9d3e3"/><ellipse cx="313.1" cy="306.6" rx="21.3" ry="13.8" style="fill:#f8cfe1"/><ellipse cx="313.1" cy="306.6" rx="19.7" ry="12.8" style="fill:#f7cbdf"/><ellipse cx="313.1" cy="306.6" rx="18.1" ry="11.7" style="fill:#f7c7dc"/><ellipse cx="313.1" cy="306.6" rx="16.4" ry="10.7" style="fill:#f6c3da"/><ellipse cx="313.1" cy="306.6" rx="14.8" ry="9.6" style="fill:#f6bfd7"/><ellipse cx="313.1" cy="306.6" rx="13.2" ry="8.6" style="fill:#f5bbd4"/><ellipse cx="313.1" cy="306.6" rx="11.6" ry="7.5" style="fill:#f3b6d2"/><ellipse cx="313.1" cy="306.6" rx="10" ry="6.5" style="fill:#f2b2cf"/><ellipse cx="313.1" cy="306.6" rx="8.4" ry="5.4" style="fill:#f1aecd"/><ellipse cx="313.1" cy="306.6" rx="6.7" ry="4.4" style="fill:#f0aaca"/><ellipse cx="313.1" cy="306.6" rx="5.1" ry="3.3" style="fill:#f0a6c7"/><ellipse cx="313.1" cy="306.6" rx="3.5" ry="2.3" style="fill:#eea3c5"/></g><g data-name="cloth main"><path d="M106 514.5h296.8l-17-33.3s12.1-20.6 7.5-35.3c-8-25.8-37.4-41.5-37.4-41.5L293.3 390l-34.4 24-38.6-27.5-64.3 18.9s-27.4 15-35.5 36 5.8 39.6 5.8 39.6z" style="fill:#45438f"/><path d="M125.3 445.2a59 59 0 0 0 3 37.5c-19.9-29.4-11.8-56 24.7-76.2-9.3 7.5-23.3 22.3-27.7 38.7m261.4 0a59 59 0 0 1-3 37.5c19.9-29.4 11.8-56-24.7-76.2 9.3 7.5 23.3 22.3 27.7 38.7" style="fill:#c7e8ff"/><path d="M315 399.5c-.4-1.4.5-2.8 1.8-3.1 11.2-3 25.5-1.3 37.6 4.4 11 5.3 34.4 22.7 41 41 5.7 16-1.3 30.9-6.2 38.5 3.2 8.1 12.9 24.2 19 34.2h-6a346 346 0 0 1-16.6-29.6l-1.2.3q-.9 0-1.6-.5a2.5 2.5 0 0 1-.4-3.6c13.7-17.7 9.7-33.3 8.1-37.7-3-8.3-17.2-28-38.3-38-11-5.2-24-6.8-34-4-1.4.3-2.8-.5-3.2-1.9m-166 94.8h.1a2.1 2.1 0 0 0 .1-4.1c-4.1-.2-9-1.9-12.2-4.1a2.1 2.1 0 0 0-2.5 3.4 29 29 0 0 0 14.5 4.8m214 0a29 29 0 0 0 14.5-4.8 2.1 2.1 0 1 0-2.5-3.4c-3.2 2.2-8 3.9-12.2 4a2.1 2.1 0 0 0 0 4.3zm-259.2 20.2h6c5.7-9.4 13-21.5 16.6-29.6l1.2.3q.9 0 1.6-.5c1.1-.9 1.3-2.5.4-3.6-13.7-17.7-9.7-33.3-8.1-37.7 6-16.8 28-33 38.3-38 11-5.2 24-6.8 34-4a2.5 2.5 0 1 0 1.4-5 58 58 0 0 0-37.6 4.4c-11 5.3-34.4 22.7-41 41-5.7 16 1.3 30.9 6.2 38.5a321 321 0 0 1-19 34.2m105-121.1q.6 0 1-.2 3.8-1.7 7.7-2.8a2.6 2.6 0 1 0-1.3-4.9q-4.3 1.2-8.4 3a2.6 2.6 0 0 0 1 4.9m85.6-1.1q4 1 7.6 2.7a2.5 2.5 0 0 0 3.4-1.2c.6-1.3 0-2.8-1.3-3.4a53 53 0 0 0-8.4-3 2.6 2.6 0 0 0-1.3 4.9" style="fill:#3a3880"/><path d="m319.6 450.5-7.5-5.7-6.5 3.4-7.5-5.9-6.6 3.7-7.5-5.4-6.7 4-7.3-5-6.9 4.1-6.4-3.8-7.5 2.6-7.2-2.9-7.3 5-6.7-4-7.2 4.2-6.9-2.5-7.5 6-6.5-3.5-8.7 4.7-.1 7.5 58.9-4 70 5.8z" style="fill:#fcf2ff"/><path d="m321.5 458.5-66.2-6.5-64.5 5.8v55.7H320z" style="fill:#fcf2ff"/><path d="M303.2 509.8q-1.2-.3-1.2-1.7.5-1.2 1.7-1.2 1.3.5 1.2 1.7t-1.4 1.2zm1-6.7q-1.2-.3-1.1-1.7.2-1.2 1.6-1.2 1.3.3 1.2 1.6-.2 1.2-1.4 1.3zm.8-6.8q-1.4-.1-1.4-1.5.1-1.3 1.4-1.4 1.4.2 1.5 1.5-.1 1.3-1.5 1.4m.3-6.8q-1.4-.1-1.4-1.5.1-1.3 1.5-1.4 1.3.1 1.4 1.5-.1 1.3-1.5 1.4m.2-6.8q-1.3-.2-1.4-1.5.1-1.3 1.4-1.4 1.4.1 1.5 1.4-.1 1.4-1.5 1.5m-1.4-8.3q.1-1.3 1.4-1.4 1.4.1 1.5 1.4-.1 1.3-1.5 1.5-1.3-.2-1.4-1.5m-.3-6.7q.1-1.3 1.3-1.6 1.3.1 1.6 1.4-.1 1.4-1.4 1.5-1.4 0-1.5-1.3m-.8-6.6q-.2-1.2 1-1.7 1.4-.2 1.8 1 .2 1.4-1 1.8h-.4q-1.2 0-1.4-1m-23.1 48.1q-1.3-.1-1.3-1.5.2-1.3 1.5-1.3c.8 0 1.4.8 1.3 1.6q-.2 1.2-1.4 1.3zm.6-6.7q-1.3-.3-1.4-1.6.2-1.3 1.6-1.3 1.3.1 1.3 1.5-.2 1.2-1.4 1.3zm.4-6.9q-1.3-.2-1.4-1.5.1-1.3 1.5-1.4 1.3.2 1.4 1.6-.2 1.2-1.4 1.3zm.3-6.8q-1.4-.1-1.5-1.5.1-1.3 1.5-1.4 1.3.2 1.4 1.5-.1 1.3-1.4 1.4m-1.4-8.2q.1-1.4 1.4-1.5 1.3.1 1.5 1.4-.2 1.4-1.5 1.5-1.3-.2-1.4-1.4m-.3-6.8q.1-1.4 1.4-1.5 1.4 0 1.5 1.3 0 1.3-1.3 1.5h-.1q-1.3 0-1.5-1.3m-.5-6.7q0-1.4 1.3-1.7 1.3.1 1.6 1.4c0 .7-.5 1.5-1.3 1.5h-.1q-1.3 0-1.5-1.3m-.9-6.7q0-1.3 1.2-1.7 1.3 0 1.7 1.2 0 1.3-1.2 1.7h-.3q-1.2 0-1.4-1.2m-71 48.2q0-1.3 1.2-1.7 1.3 0 1.7 1.3 0 1.3-1.2 1.6h-.3q-1.1 0-1.4-1.2m-1-6.8q0-1.3 1.2-1.6 1.4 0 1.7 1.2 0 1.4-1.3 1.7h-.2q-1.2 0-1.4-1.3m-.5-7q.1-1.2 1.4-1.4 1.3.1 1.5 1.4-.2 1.4-1.5 1.5-1.3-.1-1.4-1.4m-.4-6.7q.1-1.4 1.4-1.5 1.3.1 1.5 1.4-.1 1.4-1.4 1.5-1.3-.1-1.5-1.4m-.2-6.9q.2-1.2 1.5-1.4 1.3.1 1.4 1.4-.1 1.3-1.4 1.5-1.4-.1-1.5-1.4m1.5-5.3q-1.4-.2-1.5-1.5.2-1.4 1.5-1.4 1.3.1 1.4 1.4-.1 1.3-1.4 1.5m.2-6.9q-1.3-.1-1.4-1.5.2-1.3 1.5-1.4 1.4.2 1.4 1.6-.2 1.2-1.4 1.3zm.6-6.8q-1.3-.5-1.1-1.7.5-1.3 1.7-1.1 1.3.5 1.1 1.7t-1.4 1.2zm23.3 45.8q0-1.5 1.3-1.6 1.3 0 1.5 1.3 0 1.3-1.3 1.6h-.1q-1.2-.1-1.4-1.4m-.6-6.9q0-1.3 1.3-1.5 1.3 0 1.6 1.3-.1 1.3-1.4 1.6-1.4-.1-1.5-1.4m-.4-6.9q.1-1.2 1.4-1.5 1.3.1 1.5 1.4-.1 1.4-1.4 1.5-1.3-.1-1.5-1.4m-.2-6.8q.1-1.4 1.4-1.5 1.4.1 1.5 1.4-.1 1.4-1.5 1.5-1.3-.1-1.4-1.4m1.4-5.4q-1.3-.1-1.5-1.5.1-1.3 1.5-1.4 1.4.1 1.4 1.4-.1 1.4-1.4 1.5m.1-6.9q-1.3-.2-1.3-1.5.2-1.3 1.5-1.3 1.3.1 1.4 1.5-.2 1.2-1.5 1.4m.5-6.8q-1.3-.2-1.3-1.6c0-.7.8-1.3 1.6-1.2q1.3.1 1.3 1.5-.2 1.3-1.5 1.3zm.8-6.7q-1.3-.5-1.2-1.7.5-1.3 1.7-1.2 1.3.3 1.2 1.7-.2 1.1-1.4 1.2zm23.8 47.8q-1.3-.2-1.4-1.5.1-1.4 1.5-1.4 1.3.1 1.4 1.4-.2 1.3-1.4 1.5m.1-6.9q-1.3-.1-1.4-1.4.1-1.3 1.5-1.5 1.3.1 1.4 1.5-.1 1.3-1.5 1.4m-1.4-8.2q.1-1.4 1.5-1.5 1.3.2 1.4 1.5-.1 1.2-1.4 1.4-1.4-.1-1.5-1.4m0-6.9q.1-1.3 1.4-1.4 1.4.1 1.5 1.4-.1 1.3-1.5 1.5-1.3-.2-1.4-1.5m0-6.8q.1-1.3 1.4-1.5 1.2.1 1.4 1.5-.1 1.3-1.4 1.4-1.3-.1-1.5-1.4m-.2-6.8q.2-1.3 1.5-1.5 1.3.2 1.4 1.5-.1 1.3-1.4 1.4-1.4-.1-1.5-1.4m0-6.8q.1-1.4 1.4-1.5 1.3.1 1.4 1.4-.1 1.3-1.4 1.5-1.3-.1-1.5-1.4m-.1-6.9q.1-1.3 1.4-1.4 1.4.1 1.5 1.4-.1 1.3-1.5 1.5-1.3-.1-1.4-1.5" style="fill:#cecef0"/><path d="M145.1 466.6c-1-10.8 7.7-15.3 17-13.6-10-7.7-15-19.4-13.5-29s11.4-12.6 19.3-8.7a30 30 0 0 1-8.6-16.7c-2-13 2.6-18.5 13-15.9a50 50 0 0 1 19.3 10.9 138 138 0 0 1 14.7-5.7c2.4-.7 4.4 1.3 3.3 3.6-6 12.8-11.4 32.7-15.8 51.5a145 145 0 0 0-4.4 43.3c.5 9.2 2.2 20.7 3.6 27.2h-31.5c-17.1-11-14-27-1-25.5-5.8-3.4-14.4-11.2-15.4-21.4M318 442.3a150 150 0 0 1 1.1 71.2h31.5c17.1-11 14-27 1-25.5a28 28 0 0 0 14.8-22.1c.6-10.8-8.1-14.6-16.5-12.9 10.2-7.7 15.1-19.4 13.6-29s-11.4-12.6-19.3-8.7c2.2-2.8 7.5-9.6 8.6-16.7q2.8-19.6-13-15.9a50 50 0 0 0-19.3 10.9 138 138 0 0 0-14.7-5.7c-2.4-.7-4.4 1.3-3.3 3.6 6 12.8 11.1 32 15.5 50.8" style="fill:#fcf2ff"/><path d="M183.7 390.7c-17.4-9.6-24.9 1.5-15 22.5-15.1-20.9-10.8-39.3 15-22.5m144.5-.6c17.3-11.3 25.5 2.4 15.7 23.4 15.1-21 10.2-42.5-15.7-23.4" style="fill:#c7e8ff"/><path d="M179.1 431.8a160 160 0 0 0-7.3 37 158 158 0 0 0 3.6 44.8h-3.7q-1.9-8.2-3-18.7c-1-9.2-1.4-16-.5-26.5q1.5-15.5 4.5-27.6c-2.1-2-3.7-4.2-5.8-6.2a1.5 1.5 0 0 1 1.8-2.4q3 1.4 5.3 3.9.7-2.8 1.7-5.5a1.8 1.8 0 1 1 3.4 1.2m163.6 41.4c-1 0-1.9.8-1.8 1.8a161 161 0 0 1-4.3 38.5h3.7a166 166 0 0 0 4.2-38.5c0-1-.9-1.8-1.8-1.8m15 13.2q2.2 1 3.4 2.3 3.5 3.8 2.7 10a24 24 0 0 1-9.4 14.8h-8.5c10.8-5.6 13-12.6 13.3-15.5q.6-4-1.4-6.1t-6.1-1.6a2.3 2.3 0 0 1-1.4-4.3 27 27 0 0 0 13.7-20.3q.5-5.9-2.7-8.6c-2.5-2.1-6.5-2.8-11-1.9a2.3 2.3 0 0 1-1.9-4 29 29 0 0 0 11.7-27q-1-5.3-4.7-7.4-4.7-2.2-10.2.5a2.3 2.3 0 0 1-2.9-3.5c4.4-5.5 7.3-11 8.1-15.6 1.1-6 .6-10.4-1.6-12.3-2.1-2-5.8-1.6-8.6-1a46 46 0 0 0-17.5 9.7q2 3.1 4 7a27 27 0 0 1 4-3.3c1.1-.6 3-2.3 3.9-.7q.4.9-.3 1.5c-2.1 1.7-4 4-6 5.8 3 6.9 5.6 14.4 6.8 18.7 2.4 8.2 6.7 26.7 7.8 35.6a1.8 1.8 0 1 1-3.6.5c-1-8.8-5.3-27-7.6-35-2.5-8.7-8-23.1-12.9-29.3a141 141 0 0 0-14.4-5.2v.3q7.9 16.6 16 52c4.2 18 5.3 29.1 4.5 44a217 217 0 0 1-3.5 27h-4.7c1.4-6.4 3.1-18.3 3.6-27.3s.3-16.5-1-25.2c-14.5-3.4-41-5.5-70.4-5.2-28 .1-47.5 2.2-55.6 4.5l-.9 7.6a152 152 0 0 0 3 45.6h-4.7a160 160 0 0 1-2.9-46 242 242 0 0 1 3.8-25 308 308 0 0 1 16-52.3q0-.2-.6 0c-3.8 1-11 3.9-13.9 5.2-4.7 6-8.3 16.7-9.7 21.3a1.8 1.8 0 0 1-3.4-1 80 80 0 0 1 9.2-21l-.6-.3a47 47 0 0 0-16-7.8c-4.1-1.2-7.7-.9-9.6 1q-3 3-1.5 10.5a36 36 0 0 0 8 15.6 2.3 2.3 0 0 1-2.5 3.7c-4-1.7-8.5-1.7-11.6 0a9 9 0 0 0-4.5 7c-1.5 9.1 3.6 20 12.7 26.8a2.3 2.3 0 0 1-1.8 4c-4.7-.8-9 .1-11.6 2.5q-3.3 3.1-2.8 8.6c.9 9 8.3 16.2 14.3 19.7a2.3 2.3 0 0 1-1.4 4.3q-5-.6-7.3 2.5c-1.5 2.2-1.4 5.6.4 9a27 27 0 0 0 12.5 11.7h-8.7c-3.7-3-6.4-6.6-8-9.6-2.5-5-2.5-10.1 0-13.7q2-2.6 5-3.8a30 30 0 0 1-11.4-19.6c-.6-6.5 2-10.4 4.3-12.5q3.6-3.2 8.8-3.8a33 33 0 0 1-9.5-27q1-6.9 6.8-10 4-2.2 9-2a41 41 0 0 1-5.2-12.4c-1.8-8.4.5-12.7 2.8-15 3.3-3 8.3-3.6 14.1-1.9a54 54 0 0 1 18 8.8c3.3-1.5 10-4.2 13.8-5.3a5 5 0 0 1 5.4 1.5 5 5 0 0 1 .6 5.3 303 303 0 0 0-15.6 51v.4q1.3-.7 3-.9 3.7-.2 6.7 2.1a9.5 9.5 0 0 1 14.4-2.2 9.5 9.5 0 0 1 14.3-1.4 9.5 9.5 0 0 1 14.3-.8q2.8-3.3 7.2-3.4c4.4 0 5.5 1.3 7.3 3.4q3-3 7.5-2.8 4.1.4 6.7 3.6a9.5 9.5 0 0 1 14.3 1.4q3.4-2.8 8-2.2 4.2.9 6.4 4.4a10 10 0 0 1 9.8-1.3v-.3a280 280 0 0 0-15.7-51q-1.2-3 .6-5.3a5 5 0 0 1 5.4-1.5c3.8 1.1 10.3 3.7 13.7 5.2a50 50 0 0 1 19.1-10.4c7-1.8 10.9.1 12.9 2q5.1 4.8 3 16.5c-.8 4.4-2.9 8.6-5.2 12.3q4.1-.4 7.7 1.4a14 14 0 0 1 7.2 10.7 33 33 0 0 1-8.6 27q5 .5 8.2 3.2c2.2 2 4.8 5.7 4.3 12.4a31 31 0 0 1-10.9 20.4m-39.1-29.8-1.3-7c-2.1-3.5-7.5-4.2-10.1-.5-1 1.2-2.9 1.2-3.3-.4a6 6 0 0 0-10.9-1.8c-.9 1.3-2.8 1-3.3-.4-1.7-4.9-8.3-5.4-10.9-1-.8 1.4-2.7.9-3.3-.5-2-4.7-8.4-4.6-10.8-.3-.6 1-2.5 1.2-3.1 0a6 6 0 0 0-11.2 0c-.6 1.2-2.5 1-3 0-2.5-4.3-9-4.4-11 .3-.5 1.4-2.3 2-3.2.5a6.1 6.1 0 0 0-11 1c-.4 1.5-2.3 1.7-3.2.4a6 6 0 0 0-10.9 1.8c-.4 1.6-2.4 1.6-3.3.4-2.5-3.6-7.5-3-9.8.2l-1.1 6.6c24-6 94.2-5.9 124.7.7m-138.9-35a1.9 1.9 0 1 0 0 3.8 1.9 1.9 0 0 0 0-3.8m164.1 45.6a1.9 1.9 0 1 0-3.7 0 1.9 1.9 0 0 0 3.7 0" style="fill:#3a3880"/><path d="m294.6 392.4-8-17.8-8-4-5.8 18.5-16.6 14.8-16.6-13-6.2-20.3-8 4-8 17.8 1 21.8 10.6 9 11.9-1.4 16.3-14.4 18 17 16.2-5.4z" style="fill:#fcf2ff"/><path d="M297 392.2a37 37 0 0 0-8.6-19 12 12 0 0 0-10-4.9 2.3 2.3 0 0 0-2 2.6c.4 3.2-1 8-3.8 12.8a62 62 0 0 1-9.7 12.5l-6.9 6.5-6.9-6.5a62 62 0 0 1-9.7-12.5c-2.8-4.9-4.2-9.6-3.7-12.8a2.3 2.3 0 0 0-2.1-2.6q-5.9-.3-10 5a38 38 0 0 0-8.5 18.9c-.5 4.7-1.5 20.8 6.8 29.4a15 15 0 0 0 10.7 4.4c4 0 8.5-1.5 12.7-5.1 4-3.5 8.5-9.3 10.7-12.3 2.2 3 6.7 8.8 10.7 12.3q6.4 5.2 12.7 5 6.5-.1 10.7-4.3c8.3-8.6 7.3-24.7 6.8-29.4m-54.7 25.2c-4 3.4-11.8 6.4-17 1-7-7.2-6-21.5-5.7-25.7.8-7.1 4.5-12.6 7.6-16.6a8 8 0 0 1 3.8-3c.3 5 2.8 10 4.4 12.9 2.7 4.6 7 10 10.5 13.5l6.5 6.1c-2 2.8-6.4 8.6-10 11.8m44.5 1c-5.3 5.4-13.2 2.4-17.1-1-3.7-3.2-8.1-9-10.2-11.8 1.9-1.6 4.9-4.5 6.5-6a68 68 0 0 0 10.6-13.6c1.6-2.9 4.1-8 4.4-12.8 1.7.5 3 1.8 3.8 2.9 3.1 4 6.8 9.5 7.6 16.6.4 4.2 1.3 18.5-5.7 25.7" style="fill:#3a3880"/><path d="m294.2 412.7-6.3-5.5-23.3 6.4-16.1.4-23.8-5.6-6.9 4.3.1 15.3 5 4.5 19.3-4.5-9.6 12.2-11.6 18.3.6 4.9 9.8 4.5 4.8-2.6 7.6-20.2 6.5-14.6 11.3.2 6.6 14.4 7.6 20.2 4.8 2.6 9.8-4.5.6-4.9-11.6-18.3-12.7-12.2 19.9 4 7.5-4z" style="fill:#fcf2ff"/><path d="M246.7 422c0-5.2 4.2-14.2 9.5-14.2s9.6 9 9.6 14.2-3.8 9.6-9.6 9.6-9.5-4.3-9.5-9.6" style="fill:#fef5df"/><path d="M249.3 418c0-3.8 3-10.3 7-10.3s6.9 6.5 6.9 10.3-3.1 7-7 7-7-3.1-7-7" style="fill:#42c2db"/><ellipse cx="256.2" cy="420.4" rx="5" ry="3.6" style="fill:#fea5dc"/><path d="M256 416.2c0 1-.9 2-1.9 2s-1.7-1-1.7-2 .8-2.6 1.7-2.6 1.8 1.6 1.8 2.6" style="fill:#cfecfa"/><path d="M296.1 412c-1.5-3.8-4-5.5-8.7-5.7-4-.2-14.8.5-22.8 5.7-2-3.4-5-6-8.4-6s-6.4 2.7-8.4 6.2a43 43 0 0 0-23.3-6c-4.6.3-7.1 2-8.6 5.7-2 5-1.5 12.2 0 16.8.9 2.5 3 5.3 8.5 5.3h1.2c1.4 0 6.3-.5 12-2.2q-3.3 3-6.6 7-6.2 7.6-11.9 18.7-2 4.3 1 7.4a25 25 0 0 0 12.4 5.2q4 0 5.6-4l1.4-3.7a702 702 0 0 1 11.8-30q2.1 1 5 1 2.4 0 4.5-.9a741 741 0 0 1 11.7 29.9l1.4 3.7q1.6 4 5.6 4l1.6-.1c2.3-.5 7.6-2.2 10.7-5q3.2-3.1 1-7.5A105 105 0 0 0 281 439q-3.3-4-6.6-7a61 61 0 0 0 13.2 2.1c5.4 0 7.6-2.8 8.5-5.3 1.5-4.6 2-11.8 0-16.8m-39.9-3c2.9 0 5.7 5.7 5.7 9a5.7 5.7 0 0 1-11.4 0c0-3.3 2.8-9 5.7-9m-31 20.8c-3.8.3-4.9-1.2-5.3-2.5a23 23 0 0 1-.1-13.8c.8-2 1.6-2.8 5-3h1A38 38 0 0 1 246 416q-.4 1-.6 2.2-4.5-1-9-.3a1.3 1.3 0 0 0 .2 2.5l2.5.1 5.8.5.2 3.2a54 54 0 0 1-19.8 5.5m16.6 14.5c-2.4 6-4.8 12.7-6.2 16.6l-1.4 3.6q-.6 1.9-2.4 1.3a20 20 0 0 1-8.7-4c-.5-.4-1-1-.2-2.4q5.4-10.7 11.3-17.9c4.6-5.5 9.3-9.5 13-12.3l.6.6zm6.7-22.3v-.9a8.2 8.2 0 0 0 15.4 0v1.1c0 4.6-3.1 7.8-7.7 7.8s-7.7-3.2-7.7-7.8m29.3 19.5c3.8 4.7 7.8 11 11.3 18 .7 1.3.3 1.9-.2 2.4-2.2 2-6.5 3.5-8.7 4q-1.9.4-2.4-1.4l-1.4-3.6a757 757 0 0 0-12-30.8l.6-.7a77 77 0 0 1 12.8 12.1m14.3-14.2c-.4 1.3-1.5 2.8-5.4 2.5a54 54 0 0 1-19.4-5.3 13 13 0 0 0 .2-3.4l5.4-.5 2.5-.1a1.3 1.3 0 0 0 .1-2.5q-4.3-.7-8.4.2l-.7-2.3c7-4.9 17.4-5.6 20.8-5.4s4.2 1 5 3c1.4 3.5 1.4 9.5 0 13.8" style="fill:#3a3880"/></g><path d="M176.8 263.9c-5.3 5.2-8.4 10.9-6.3 17 1.5 4.2 5.8 8.7 10.4 11.9 5.1 3.5 18.8 8.3 29 5l-1.8-6.1q-5.8-19.2-10.6-38.8c-8.2 1.5-15.7 6-20.7 11" style="fill:#fcf2ff;isolation:isolate;opacity:.8"/><path d="M205 254.6a21 21 0 0 0-17 8.3 24 24 0 0 0-5 12.7 21 21 0 0 0 6 17.2c7.1 7 18.1 7.5 26 3.3 6.2-3.5 10.7-10 10.3-19.2q-.5-7.4-4.9-14a18 18 0 0 0-15.5-8.3" style="fill:#53b0c9"/><path d="M205.2 276.3c-2.2 0-4 4-4 6.3s1.8 4.2 4 4.2 4-1.9 4-4.2-1.7-6.3-4-6.3" style="fill:#fcf2ff"/><path d="M205.2 266.2c-1.5 0-2.5 1.4-2.5 2.8s1.1 2.6 2.5 2.6 2.5-1.2 2.5-2.6-1-2.8-2.5-2.8" style="fill:#fdd8f5"/><path d="M215 210.1a61 61 0 0 0-25.3 4.9 55 55 0 0 0-7.5 4.3c-1.3.9-2.7-.8-1.6-1.9a40 40 0 0 1 25.4-11 30 30 0 0 1 9.3 1 1.4 1.4 0 0 1-.3 2.7" style="fill:#7d3967;opacity:.6"/><path d="M165.5 276.1q.5.3 1.1.3 1.2 0 2-1a56 56 0 0 1 25.5-17q15-5 24.3 2.2c.9.8 2.2.7 3 0q1.4-1.4.5-3.1c-7-10.3-19-12.9-32.9-7.2a44 44 0 0 0-9.7 5.2c-1.3-1.1-4.7-3-6.6-1.6-2 1.5-.7 5.2.2 6.7a31 31 0 0 0-8.5 12.6c-.5 1.1 0 2.4 1 3" style="fill:#45438f"/><ellipse cx="206.6" cy="251.6" rx="1.7" ry="3.3" style="fill:#b87ac2" transform="rotate(-86.248 206.615 251.629)"/><path d="M335.2 263.9c5.3 5.2 8.4 10.9 6.3 17a28 28 0 0 1-10.4 11.9c-5.1 3.5-18.8 8.3-29 5l1.8-6.1q5.8-19.2 10.6-38.8c8.2 1.5 15.7 6 20.7 11" style="fill:#fcf2ff;isolation:isolate;opacity:.8"/><path d="M307 254.6c7.3-.1 13.1 3.2 17 8.3q4.1 5.2 5 12.7c.5 6.2-1.3 12.6-6 17.2-7.1 7-18.1 7.5-26 3.3a20 20 0 0 1-10.3-19.2q.5-7.4 4.9-14a18 18 0 0 1 15.5-8.3" style="fill:#53b0c9"/><path d="M306.8 276.3c2.2 0 4 4 4 6.3s-1.8 4.2-4 4.2-4-1.9-4-4.2c0-2.2 1.7-6.3 4-6.3" style="fill:#fcf2ff"/><path d="M306.8 266.2c1.5 0 2.5 1.4 2.5 2.8s-1.1 2.6-2.5 2.6-2.5-1.2-2.5-2.6 1-2.8 2.5-2.8" style="fill:#fdd8f5"/><path d="M214.5 238q-3-1.4-6.2-1.9-8-1.2-15.7 1.7c-.8.2-1.2 1.1-1 1.9q.6 1.3 2 1c6.3-2.2 13.4-2 19.8.2q1.3.4 2-.9.3-1.2-.9-2m83 0q3-1.4 6.2-1.9 8-1.2 15.7 1.7c.8.2 1.2 1.1 1 1.9q-.6 1.3-2 1c-6.3-2.2-13.4-2-19.8.2q-1.3.4-2-.9-.3-1.2.9-2" style="fill:#a94bb5;opacity:.6"/><path d="M296.7 207.1a40 40 0 0 1 34.7 10.3c1.1 1-.4 2.8-1.6 2q-7.2-5-15.6-7.3c-5.7-1.5-11.5-1.7-17.2-2.3-1.6 0-1.9-2.3-.3-2.7" style="fill:#7d3967;opacity:.6"/><path d="M346.5 276.1q-.5.3-1.1.3-1.2 0-2-1a56 56 0 0 0-25.5-17q-15-5-24.3 2.2c-.9.8-2.2.7-3 0q-1.5-1.4-.5-3.1c7-10.3 19-12.9 32.9-7.2a44 44 0 0 1 9.7 5.2c1.3-1.1 4.7-3 6.6-1.6 2 1.5.7 5.2-.2 6.7a31 31 0 0 1 8.5 12.6c.5 1.1 0 2.4-1 3" style="fill:#45438f"/><ellipse cx="305.4" cy="251.6" rx="3.3" ry="1.7" style="fill:#b87ac2" transform="rotate(-3.752 305.368 251.62)"/><path d="M256 299.2q-1.6-.2-1.7-1.7v-.2a1.7 1.7 0 1 1 3.4 0v.2q-.2 1.6-1.7 1.7m0-1.9" style="fill:#a94bb5;opacity:.6"/><path d="M255.7 336.8c-4.9 0-9.8-1.2-13.7-2.7-4.8-2-6.3-8.2-3.3-11.6 3.6-4 10.3-7.2 17-8 6.2-.6 12.5-.7 17.6 3.1 5.3 4 4.7 13.8-.7 16.5-6.2 3-11.6 2.8-17 2.7" style="fill:#fcf2ff"/><path d="M257.6 326.6a1.8 1.8 0 0 1-.3-3.5c6.4-1 11.9-1.1 18.6-.6a1.8 1.8 0 0 1-.3 3.6 72 72 0 0 0-18 .5" style="fill:#9495d4"/><path d="M257.4 339c-6.5 0-20.6-1-22.3-10.3-.8-4.7 2.4-9.3 9-12.9 4.3-2.3 10-3.7 15.3-3.7 6.9-.1 11.7 1.1 15.3 3.9q5.3 4 5 10c-.2 3.3-1.9 6.5-4.7 8.6a32 32 0 0 1-17.2 4.5zm2.7-22.7h-.6c-5.6 0-10.5 1.7-13.4 3.2-2.8 1.5-7.5 4.7-6.8 8.4.9 5.3 10.1 7 18.5 7a28 28 0 0 0 14.7-3.7c2.5-1.8 3-4.2 3-5.5q.2-3.6-3.3-6.4-4-3-12.1-3" style="fill:#45438f"/><g data-name="hair top"><path d="M348.8 258.2h25.7l10.4-45-12.9-84.9-84-60.2-113 16-48 76.9 9.5 149.5 19.8 35.3 4.3-89.7 24.4-27.3 23.4-41 6.8 50.1 12.4 19.9 6-1.4L228 231l9 18.4 10.7 10.3 8.2-2.3 11 2.8 5.9-4.5 7.1 4.4 9.2-11.1 7-23.3 1.5-42.4 21.7 43.7 29.4 29z" style="fill:#b1dccf"/><path d="M371 172.4a191 191 0 0 1 16.3 46.1c4 21 4.9 38 2 58.3-2.6 18.9-10.7 43.5-22 57.1-9.6 11.4-23.6 21.6-38.2 21.7-3.7 0-5.3-4.6-2.2-6.6a57 57 0 0 0 23.2-33.6q-3 2.4-6.9 3.5c-4 1.4-6.9-2.6-5-5.2a80 80 0 0 0 11.7-33.7 108 108 0 0 0-5-53.5zm-229.7-.4a191 191 0 0 0-16.3 46 165 165 0 0 0-2.1 58.3c2.6 18.9 10.7 43.5 22.1 57 9.5 11.4 23.6 21.6 38.1 21.8 3.8 0 5.4-4.6 2.2-6.6a57 57 0 0 1-23.1-33.6q3 2.3 6.8 3.5c4 1.4 7-2.6 5-5.2a80 80 0 0 1-11.7-33.7 108 108 0 0 1 5-53.5z" style="fill:#b1dccf"/><path d="M119.7 252.9c-1.6 44.8 13.7 66.1 31.6 87-27-38.8-30.3-94.6-17.6-149-8 17-13.4 43.1-14 62" style="fill:#ffd4ef"/><path d="M214 174.7h-.3c-1.2-.5-2.5.2-2.9 1.4a169 169 0 0 1-51.3 78.2 2.3 2.3 0 1 0 3.1 3.4 172 172 0 0 0 51.3-76.5zm136.8 79.6c-15.3-12.7-37.7-35.1-52.2-79.3.2 6.6 1.4 10.5.8 15a162 162 0 0 0 48.5 67.9 2.3 2.3 0 0 0 3.2-.3c.8-1 .7-2.5-.3-3.3" style="fill:#3a3880"/><path d="M162 245.6a2 2 0 0 1-1.4-3.4c5.6-5.4 13-15.2 17.8-23.5a2 2 0 0 1 3.4 2 119 119 0 0 1-18.4 24.3 2 2 0 0 1-1.3.6m68.2 14.4q-2.7 0-4.7-2.1c-17.3-18.3-19.5-64.6-13.4-88.4a2.2 2.2 0 1 1 4.2 1.1c-5.6 22.3-3.6 67.3 12.4 84.2.8 1 1.7.9 2.1.6q.3.1.2-1l-.1-.5a95 95 0 0 1-4-31.2c0-1.2 1.1-2.1 2.3-2a2 2 0 0 1 2.1 2.2c-.6 13.7 2.2 23.8 3.8 29.8l.2.6c.7 2.4-.3 4.8-2.3 6q-1.3.7-2.8.7m47.8.8h-.7a10 10 0 0 1-7-4 2.2 2.2 0 0 1 3.6-2.7q1.5 2.1 3.8 2.3 2.5 0 4.9-2.3c5.6-5.4 9.7-17.2 11.8-33.1a147 147 0 0 0-1-50.4 2.2 2.2 0 0 1 4.2-1 147 147 0 0 1 1.1 52c-1.5 11.9-5 27.8-13 35.7a11 11 0 0 1-7.7 3.5" style="fill:#3a3880"/><path d="M276.3 248.6a2.4 2.4 0 0 1-2.3-3 98 98 0 0 0 3-23.2 2.4 2.4 0 0 1 4.9 0c0 7.5-1.5 18.5-3.3 24.5q-.6 1.6-2.3 1.7m-12 12.7q-4.2 0-8.2-2.7-4.8 4.4-11.6.8c-4-2.2-7.9-6.7-10.8-12.7-4-8.5-5.8-18.2-6.5-23.3-.2-1.2.6-2.3 1.8-2.5q2 0 2.4 2a81 81 0 0 0 6.3 21.9 24 24 0 0 0 9 10.7q4.6 2.7 7.3-1.1a2.2 2.2 0 0 1 3.2-.4 11 11 0 0 0 8 2.8 8 8 0 0 0 5.4-3.2 2.2 2.2 0 1 1 3.5 2.7 12 12 0 0 1-9.8 5" style="fill:#3a3880"/><circle cx="143.9" cy="165.1" r="2.2" style="fill:#3a3880"/><circle cx="279.2" cy="213.4" r="2.2" style="fill:#3a3880"/><circle cx="342.8" cy="219.2" r="2.2" style="fill:#3a3880"/><path d="M392.3 250.2c1.6 44.8-13.7 66.2-31.6 87 30.4-52.6 28.4-89.8 17.6-148.9 8 17 13.4 43.1 14 62" style="fill:#ffd4ef"/><path d="M390.2 214.9a195 195 0 0 0-16.2-44 2.3 2.3 0 1 0-4 2 167 167 0 0 1 17.7 104.8 115 115 0 0 1-20.7 51c-13.7 18-29 24.5-37.9 24.6-1 0-1.4-.6-1.5-.9 0-.3-.2-1 .7-1.6a58 58 0 0 0 23.9-35.2q4.5-4.3 7.6-10.5a2.3 2.3 0 1 0-4.1-2 30 30 0 0 1-13.4 13.8q-.9.5-1.8-.1-.5-.6 0-1.7a110 110 0 0 0 6.6-89.4 2.3 2.3 0 0 0-4.3 1.6 105 105 0 0 1-6.3 85.5 6 6 0 0 0 .5 7q1.8 1.8 4.3 1.9 1.4 0 2.7-.6 1-.3 2-1a52 52 0 0 1-20.4 27 6 6 0 0 0 3.5 10.8c16-.2 32.4-14.4 41.6-26.5a120 120 0 0 0 21.4-53c3.4-20.4 2.7-43-2-63.5m-268.3 0a195 195 0 0 1 16.2-44 2.3 2.3 0 1 1 4 2 167 167 0 0 0-17.7 104.8 115 115 0 0 0 20.7 51c13.7 18 29 24.5 37.9 24.6 1 0 1.4-.6 1.5-.9 0-.3.2-1-.7-1.6a58 58 0 0 1-23.9-35.2q-4.5-4.3-7.6-10.5a2.3 2.3 0 1 1 4.1-2 30 30 0 0 0 13.4 13.8q.9.5 1.8-.1.5-.6 0-1.7a110 110 0 0 1-6.6-89.4 2.3 2.3 0 0 1 4.3 1.6 105 105 0 0 0 6.3 85.5 6 6 0 0 1-.5 7q-1.8 1.8-4.3 1.9-1.4 0-2.7-.6-1-.3-2-1a52 52 0 0 0 20.4 27 6 6 0 0 1-3.5 10.8c-16-.2-32.4-14.4-41.6-26.5a120 120 0 0 1-21.4-53c-3.4-20.4-2.7-43 2-63.5" style="fill:#3a3880"/><path d="M232.3 166.3c1.9 4.6 7.2 5.1 11 1.7s5.6-3.9 11.4 1.5c3.1 3 8.3 1.5 10.2-3.1s2-9.8-.1-14.9c-2.7-6.3-8.9-4.9-12.5-1.1-4.3 4.4-5.2 4.5-8.7.8-5.3-5.5-10.5-3.3-12.1 3.5-.6 2.7-1.1 7.1.9 11.7zm-61.4-44a45 45 0 0 0-16.3 24.9c-2.8 12.4 9 11.4 15.9 5.6s11.7-7.4 11.7-1.3 4.6 10.1 11 5.6c4.2-3 6.8-8.1 7.2-13.9.4-7.4-4.8-7.1-9.1-4.9s-7.1-1.2-3.7-10.2c4-10.4-3.6-16.2-16.5-5.9h-.2zm171.9 1.9c-13.3-13.3-22.9-7.8-19.7 4.5 2.7 10.4-1 14-5.7 10.9s-10.5-4-11 4.3a20 20 0 0 0 6.2 16.4c6.6 5.8 12.4 1.9 13.3-4.8.9-6.8 6.1-4.3 13.2 3s20.3 10 18.9-4.3c-1-9.9-6.2-20.8-15.3-30z" style="fill:#ffd4ef"/><ellipse cx="278.9" cy="159.8" rx="5" ry="6.9" style="fill:#ffd4ef"/></g><path d="M320.6 465.5c.1-12.4-2-23.6-3.8-28.3s-5.7-17.3-7.5-20.1-5.5-11-8.2-14.8c-2.3-3.2-8-4.3-8.5 2.7-.2 4 1.1 8 2.8 12 1.3 3 3.2 10.4 3.2 10.4a171 171 0 0 0-32.2-32.7c-3-2.3-6.5-1.8-8.4-.2s-2 4.5.8 7.7l1.5 1.6-4.3 3.6-4.3-3.6 1.5-1.6c2.9-3.2 2.6-6 .8-7.7s-5.3-2.1-8.4.2a171 171 0 0 0-32.2 32.7s2-7.3 3.2-10.3c1.7-4 3-8 2.8-12.1-.5-7-6.2-6-8.5-2.7-2.7 3.9-6.5 12-8.2 14.8-1.8 2.8-5.8 15.3-7.6 20s-3.8 16-3.7 28.4l-38 47.1h46.9l16.6-26c5.8-2 16.3-6.7 23.6-12.3a150 150 0 0 1 15.5-11l.9.5c3.2 2 7.8 5.1 14.6 10.5a91 91 0 0 0 23.6 12.3l16.6 26h47z" style="fill:#fbe4ed"/><path d="M322.9 464.7a92 92 0 0 0-5.6-33.3 112 112 0 0 0-8.8-20.6c-1.8-3.5-3.8-7.4-5.6-9.8a8 8 0 0 0-7.9-3.3c-1.3.4-4.3 1.8-4.7 7.1-.2 4.1 1 8 2.3 11.4a178 178 0 0 0-24.8-23.4c-4.3-3.1-8.9-2.2-11.3 0l-.5.5-.5-.5c-2.4-2.2-7-3.1-11.3 0-5 3.7-7.1 5.6-12.9 11a206 206 0 0 0-11.9 12.4c1.3-3.4 2.5-7.3 2.3-11.4-.4-5.3-3.4-6.7-4.7-7-2.8-.9-6.1.5-8 3.2a103 103 0 0 0-5.5 9.8c-1.1 2-2.1 4-2.8 5-1.3 2.2-3.4 8-6 15.6l-1.7 5c-2 5.3-4 16.4-3.9 28.3l-38.7 48h5.9l37-45.8q.4-.7.4-1.4a89 89 0 0 1 5.4-32.6c1.7-5.1 4.4-12.8 5.5-14.6q1.2-1.9 3-5.4c1.6-3.2 3.7-7 5.2-9.3.7-1 2-1.7 3-1.5 1 .3 1.2 2.2 1.3 3 .2 3.5-.9 6.8-2.6 11-1.3 3.2-3.3 10.4-3.4 10.7a2.3 2.3 0 0 0 4.2 1.9 170 170 0 0 1 31.6-32.2c2.4-1.7 4.6-1 5.5-.3 1.5 1.4-.1 3.6-1 4.5l-3.4 3.7-6.3 6.7-11.7 14.5a2.3 2.3 0 0 0 3.2 3.2c.1 0 9.3-6.8 17.9-14l5.8-5.1c2.8-2.4 4.7-4.2 6.8-5.5 1.1-.8 3.4-2 5-.8a3 3 0 0 1 1.4 3.2 2.3 2.3 0 0 0 2.6 2.7c1.5-.2 3 .3 3.6 1.3q1.3 1.9-.6 5.6c-2 4-4.9 7.3-8.5 11.4l-2.8 3.3c-8 9.5-15.4 17-15.5 17a2.3 2.3 0 0 0 1.9 4 37 37 0 0 0 15.8-7.4l3.3-3.4q2.5-2.8 5.1-5.2c2-1.6 4.3-1.6 4.7-1.3.3.2 1.1.8-.1 3a68 68 0 0 1-8.8 12.7c-4.5 4.3-14 10-16.8 11.5-3.4 2-8 5.3-15 10.7a89 89 0 0 1-22.8 11.9q-.8.3-1.2 1l-17.5 27.2h5.5l15.4-24.1c6.7-2.3 16.6-7 23.5-12.4q9.5-7.4 14.1-10.1 4.7 2.8 14.1 10a90 90 0 0 0 23.5 12.5l15.4 24.1h5.5L297 485.3q-.4-.6-1.2-.9a89 89 0 0 1-22.9-12q-8-6-12.5-9c4.4-2.7 10.1-6.5 13.5-9.8s7.2-9.4 9.7-13.7 1-7.4-1.1-9c-2.6-1.9-7.2-1.2-10.4 1.5q-1.4 1.1-2.7 2.5l-1.3-1.2 6.7-7.9 4 3a2.3 2.3 0 0 0 3.2-3.2l-3.7-4.7 1.5-2.6a12 12 0 0 0 1.5-7.4c6.5 6.6 13.2 14.4 15.4 17.8a2.3 2.3 0 0 0 4.2-1.9c-.1-.3-2-7.5-3.4-10.6a25 25 0 0 1-2.6-11c0-.9.3-2.8 1.3-3s2.3.4 3 1.4c1.5 2.2 3.6 6.1 5.2 9.3q1.8 3.5 3 5.4c1.1 1.8 3.8 9.5 5.5 14.6l1.8 5a94 94 0 0 1 3.6 27.6q0 .8.5 1.4l36.9 45.7h6zM248 411.3l-1.2 1 4.4-4.7.6-.7.6.6zm7.9-7-1-.7 1-1.3 1 1.3zm5.1-4-.5.4c-.9-1-2.5-3.1-1-4.5.9-.8 3.1-1.4 5.5.3l2.4 1.8q-3 0-6.4 2m5.4 37.7-2.9 3-4.4 2.8 6.6-7.4 1.2 1.1zm-24.5 1.7q-.8 0-1.4-.6-1-1.4.2-2.6c6.8-6.1 15.6-15 24.2-24.1a1.8 1.8 0 1 1 2.6 2.4 399 399 0 0 1-24.4 24.4q-.6.5-1.2.5" style="fill:#3a3880"/><path d="m341.9 513.5 13.8-20.8 34.2 18.3-7.4 2.5zm-171.8 0-13.8-20.8-33.5 20.8z" style="fill:#45438f"/><path d="m358.3 497.5-1.8 9.7-10.3-.7.4 7h-44.7l-12.5-25.3 16.8-21 20.9-8.2 34.4 26.3 5.5 10.9zm-170.7-39.1-37 24 1 6.1-6 6.3 6.5 4.3 2.6 6.6 10.7 2v5.8h44.7l12-22-8-16.7z" style="fill:#fcf2ff"/><path d="M301.2 500c1.6 3 1.2 6.3-.9 7.4s-5.2-.4-6.8-3.4-1.2-6.4.9-7.5 5.2.4 6.8 3.4m-90.4 0c-1.6 3-1.2 6.3.9 7.4s5.2-.4 6.8-3.4 1.2-6.4-.9-7.5-5.2.4-6.8 3.4" style="fill:#fef5df"/><path d="M311.7 513.5q6.9-11.7 16-20.1c8.3-7.5 18.2-15.2 28.6-16a2.3 2.3 0 1 1 .3 4.6c-9 .7-18 7.9-25.7 14.8a80 80 0 0 0-13.9 16.7zM155.4 482c9 .7 18 7.9 25.7 14.8a80 80 0 0 1 13.9 16.7h5.3a85 85 0 0 0-16-20.1c-8.3-7.5-18.2-15.2-28.6-16a2.3 2.3 0 1 0-.3 4.6" style="fill:#5554a7"/><path d="m363.1 498.7 21.8 14.8h7.7a830 830 0 0 1-27-18.2 2.1 2.1 0 1 0-2.5 3.4m-236 14.8c7-4.6 15.3-10.3 21.8-14.8a2.1 2.1 0 0 0-2.4-3.4 831 831 0 0 1-27.1 18.2z" style="fill:#3a3880"/><path d="M364.6 489.1c1-4.8 0-6.2-3.8-9.6-5.3-4.7-16-12-22.5-16.4l-5.1-3.5c-4.3-3.4-8.2-4-14-2.4a60 60 0 0 0-27.9 22.5c-3 5-5.6 10.5-2.1 16.7l1.8 2.9q-.3 2.7 1.1 5.5a8 8 0 0 0 5.9 4.5l1 1.4 2 2.8h6.2l-4.4-6.3.7-1.5q.9-3.1-1-6.5c-1.9-3.6-5.4-5.4-8.2-4.3l-.7-1c-2-3.6-.9-6.6 2-11.7a55 55 0 0 1 25-20c4.7-1.4 6.9-.6 9.5 1.4l5.3 3.7c6.4 4.4 17 11.6 22 16 2.1 1.8 2.6 2.2 2.4 3.5q-1-.9-2.4-.5c-11.8 3.6-24 14-32.3 27.2h6.2a58 58 0 0 1 27.6-22.3l.3-.1c3.4 1.5 4.7 2.5 5.1 3-.6.3-2.1 1-6 1.6a2 2 0 0 0-1.6 2.7q.9 2.8-.8 4.6c-1.8 1.9-5.4 2.5-9.2 1.5a2.1 2.1 0 0 0-2.3 3.1 5 5 0 0 1-.3 5.9h4.8q.7-2.2.4-4.4 6.2.3 9.7-3.2 2.5-2.7 2.2-6.4c3.8-.8 7.2-2 7.5-4.9q.5-2.8-4.1-5.5m-64.8 11.6q1.2 2.3.7 4.1a2 2 0 0 1-1 1.3c-1.1.6-3.3-.4-4.6-2.8q-1.2-2.2-.7-4.2.1-.7 1-1.2l.7-.2c1.2 0 2.9 1 4 3m-79-21a60 60 0 0 0-28-22.5c-5.8-1.6-9.7-1-14 2.4l-5.1 3.5c-6.4 4.4-17.2 11.7-22.5 16.4-3.9 3.4-4.8 4.8-3.8 9.6q-4.5 2.7-4.1 5.5c.3 2.9 3.7 4.1 7.5 4.9q-.2 3.6 2.2 6.4c2.2 2.3 5.7 3.4 9.7 3.2q-.2 2.3.4 4.4h4.8a5 5 0 0 1-.3-5.9 2.1 2.1 0 0 0-2.3-3.1c-3.8 1-7.4.4-9.2-1.5q-1.7-1.9-.8-4.6a2 2 0 0 0-1.7-2.7c-3.8-.6-5.3-1.2-6-1.6.5-.5 1.8-1.5 5.2-3h.3c9.7 3 20 11.6 27.6 22.4h6.2a64 64 0 0 0-32.3-27.2q-1.4-.3-2.4.5c-.2-1.3.3-1.7 2.4-3.5a299 299 0 0 1 27.3-19.7c2.6-2 4.8-2.8 9.4-1.5a55 55 0 0 1 25 20.1c3 5.1 4 8.1 2 11.7l-.6 1c-2.8-1-6.3.7-8.3 4.3a9 9 0 0 0-.8 6.5q.2.8.6 1.5l-4.4 6.3h6.3q1-1.6 2-2.8l.9-1.4c2.2-.3 4.5-2 5.9-4.5q1.5-2.8 1-5.5l2-3c3.4-6.1.8-11.6-2.2-16.6m-3.7 23.6c-1.3 2.4-3.5 3.4-4.7 2.8a2 2 0 0 1-.9-1.3q-.5-1.8.7-4.1c1-2 2.7-3 3.9-3q.5 0 .8.2.8.5.9 1.2.6 2-.7 4.2" style="fill:#3a3880"/><g data-name="cloth top"><path d="M159.1 121.1c50.7-63 153.8-44.6 190.1-1.3 2.3 2.7 6.3 3 8.9.6 25.3-23.4.4-50-18.8-31.1C349.6 56 313.5 47 302.6 69.5c3-22.8-30.4-39.7-45.4-9.8-7-25.8-44-25.9-48.8 6.6a22.7 22.7 0 0 0-39.7 19.5c-22.3-10.5-35.4 19.3-16.2 36 2 1.6 5 1.4 6.6-.7" style="fill:#fcf2ff"/><path d="M210.7 64.3c5.3-23.5 34.3-34 44.2-4-12.2-23.2-39.3-11.7-44.2 4m-3.6 3.4c-17-21-40.8-5.9-36.2 17.7-1.8-16.2 20.5-31 36.2-17.7m131.6 16.2c4.7-23.6-16.3-37.2-33.3-16.2a19.8 19.8 0 0 1 33.3 16.2m-38-13.6c0-30-31-33.5-42.4-9.3 14.1-18.6 40-10.3 42.4 9.3" style="fill:#c7e8ff"/><path d="M358 127.9q-2.7 0-5.1-2.6A151 151 0 0 0 268 83.9c-44-5.1-83 9-107 38.8a7 7 0 0 1-10.3 1 29 29 0 0 1-9.9-17.3c-.9-6 .3-12 3.4-16.8 4.7-7.2 12.7-10 21.2-7.7A26 26 0 0 1 179 58.3c10.5-5.8 20.7-2.6 27.9 3 2.9-10.7 10.8-21.8 25.3-22.7 9.4-.6 20.2 4 25.6 15.1 8.4-12.4 20.2-14.2 29-11.5A27 27 0 0 1 305 61.9c6-6.2 15.2-9.6 25-5.8 8.2 3.3 16 12.4 13.3 28 7-3 14.6-1.7 20.2 3.7 7.5 7.3 10.8 21.9.3 36.8l-.1.1q-2.5 3-5.4 3.2zM250.5 77.8q9 0 18.2 1a157 157 0 0 1 87.9 43q1 1 1.4 1 .5 0 1.6-1.2c8.7-12.4 6.2-24.3.2-30.1-5.2-5-12.4-5.1-19-.2a2.6 2.6 0 0 1-4-2.8c5-15.8-1.3-24.7-8.8-27.6-10-4-19.4 2-23 9.7a2.6 2.6 0 0 1-4.9-1.4c1.4-11-6.6-19.6-14.8-22.1-3.9-1.2-17.1-3.7-25.9 13.7a2.5 2.5 0 0 1-4.7-.5 21.6 21.6 0 0 0-22.3-16.6c-8.9.5-19.1 6.8-21.5 23a2.5 2.5 0 0 1-4.4 1.3c-7.5-7.9-16.9-9.8-25.2-5.2A20 20 0 0 0 171.2 85a2.5 2.5 0 0 1-3.6 3c-7.8-3.7-15-2-19 4.3-6.1 9.4-1.7 21.1 5.6 27.4a2 2 0 0 0 3-.3c21.7-27 55-41.7 93.3-41.7M159.1 121" style="fill:#3a3880"/><path d="M282.1 66.6c.4 2.3-.3 10.2-4.1 8.3-2-1.4-.2-3.7.4-5.4l1.3-3.2c.4-1.3 2.3-1 2.4.3m35.1 18.3c-1.6 1.6.6 4.2 2.5 3a10 10 0 0 0 3.9-6.8c.1-1.3-1.6-2-2.4-.9q-1.8 2.6-4 4.7m30.3 19.6c-1.6 1.5.2 4.2 2.3 3.2s3.5-3.3 4-5.5c.2-1.3-1.6-2-2.4-1-1.2 1.3-2.5 2-3.9 3.3m-114.2-40a1.3 1.3 0 0 0-2.5.3 12 12 0 0 0 1.4 7.7c1.2 2 4.3.6 3.6-1.6zm-43 20c1.9 1.2 4-1.3 2.6-3q-2.3-2.1-4.1-4.7a1.3 1.3 0 0 0-2.3.9 10 10 0 0 0 3.8 6.7m-29.6 21.3c2 1 3.9-1.7 2.3-3.2-1.4-1.3-2.8-2-4-3.4q-.5-.6-1.2-.5c-3 .8 1.2 6.5 3 7" style="fill:#9495d4"/><path d="m397.8 145.2-8.3 7.9-12.3-4.5-9-9.3-4.8 12.1-13.7 8.5-10.8-9.2-1.6-13.3-3.6-5.2-4.3-13.8 6.2-9 19 2.5 10.6 10 15-15 10 5.1 4 18zm-283.6 0 8.3 7.9 12.3-4.5 9-9.3 4.8 12.1 13.7 8.5 10.8-9.2 1.6-13.3 3.6-5.2 4.3-13.8-6.2-9-19 2.5-10.6 10-15-15-10 5.1-4 18z" style="fill:#fcf2ff"/><path d="M395.5 128.8c.8-6.6-.8-13.5-4.4-18.2a13 13 0 0 0-9.4-5.3c-5.1-.2-10 2.9-13.6 8.6q-1.3 2-2.2 4.4a31 31 0 0 0-10.2-8.4c-7.5-4.1-15.6-5-21-2.5-6.3 2.9-9 10.9-6.5 19 1.3 4.4 3.5 8 7.4 12.4q-.4 3.7 0 7.3c1.5 13.6 14.1 19 24.9 10.4q5.8-4.6 8.7-11.6a29 29 0 0 0 6.7 5.6c3.4 2.1 7.9 3.8 12.2 3.8q4.2.1 7.7-2.5 3.7-3 4.2-8.5a20 20 0 0 0-4.5-14.5m-24.6 7.7q-.3-3.1-2-5.6v-.3q.6-1.8.5-3.9l1.4.7a5.6 5.6 0 0 1 2.2 6.8q-.7 1.4-2.1 2.3m-7.5 9.8c-3.6 6.7-13.7 13.9-20.2 6.9-3.5-4.3-3.8-11.2-2.6-16.6a2.3 2.3 0 0 0-3-2.6 25 25 0 0 1-5-9c-1.6-5-.7-11.3 4-13.5 4-1.9 10.7-1 17 2.4 6.2 3.4 11.8 9.5 11.2 14.3a14 14 0 0 0-10.5 1.6 1.3 1.3 0 0 0 1 2.2c3.1-.9 9.2-1.3 10.3 2.4 1.6 4-.2 8.4-2.2 11.9m32-3.5a8 8 0 0 1-2.5 5.4c-3.6 2.9-10 1.3-14.6-1.6a24 24 0 0 1-6.6-5.8q3.6-1.7 5.1-4.8c1.7-3.6 1-9.1-3.7-12.1a10 10 0 0 0-3.9-1.5q1-3.2 2.8-6c1.5-2.5 4.7-6.5 9.2-6.5h.4c2.7.1 4.7 2 5.9 3.5a21 21 0 0 1 3 16.7 2.3 2.3 0 0 0 2.3 2.8c2 3 3 6.7 2.7 10m-283.4.5q.5 5.5 4.2 8.5 3.5 2.6 7.7 2.5c4.3 0 8.8-1.7 12.2-3.8q3.9-2.3 6.7-5.6c1.8 4.6 5 8.6 8.7 11.6 10.8 8.6 23.4 3.2 24.9-10.4q.5-3.7 0-7.3c4-4.4 6-8 7.4-12.4 2.5-8.1-.2-16.1-6.4-19-5.5-2.6-13.6-1.6-21.1 2.5a31 31 0 0 0-10.2 8.4 29 29 0 0 0-2.2-4.4c-3.6-5.7-8.5-8.8-13.6-8.6q-5.5.3-9.4 5.3a25 25 0 0 0-4.4 18.2 20 20 0 0 0-4.6 14.5m27-9c-1-2.1-.4-5.2 2.2-6.9l1.4-.7a10 10 0 0 0 .4 3.9l.2.3a11 11 0 0 0-2 5.6q-1.6-1-2.2-2.3m7.4.1c1.1-3.7 7.2-3.3 10.2-2.4a1.3 1.3 0 0 0 1-2.2 14 14 0 0 0-10.4-1.6c-.6-4.8 5-10.9 11.3-14.3 6.2-3.3 12.8-4.3 17-2.4 4.6 2.2 5.5 8.5 4 13.6-1 3.2-2.5 5.8-5 8.9q-.6-.3-1.3-.1c-1.3.2-2 1.5-1.8 2.7 1.2 5.4.9 12.3-2.6 16.6-6.5 7-16.6-.2-20.2-7-2-3.4-3.8-7.9-2.2-11.8m-27.2-1.5h.5q2-.7 1.7-2.8a21 21 0 0 1 3.1-16.7c1.2-1.5 3.2-3.4 6-3.5h.3c4.5 0 7.7 4 9.2 6.4q1.8 3 2.8 6-2 .4-4 1.6a10 10 0 0 0-3.6 12.1q1.6 3.2 5 4.8a24 24 0 0 1-6.5 5.8c-4.7 2.9-11 4.5-14.6 1.6a8 8 0 0 1-2.6-5.4 16 16 0 0 1 2.7-9.9" style="fill:#3a3880"/></g></svg>